M48
; DRILL file {KiCad 9.0.1} date 2026-01-29T13:58:15+0100
; FORMAT={-:-/ absolute / metric / decimal}
; #@! TF.CreationDate,2026-01-29T13:58:15+01:00
; #@! TF.GenerationSoftware,Kicad,Pcbnew,9.0.1
; #@! TF.FileFunction,Plated,1,2,PTH
FMAT,2
METRIC
; #@! TA.AperFunction,Plated,PTH,ViaDrill
T1C0.300
; #@! TA.AperFunction,Plated,PTH,ComponentDrill
T2C0.650
; #@! TA.AperFunction,Plated,PTH,ComponentDrill
T3C0.900
; #@! TA.AperFunction,Plated,PTH,ComponentDrill
T4C1.000
; #@! TA.AperFunction,Plated,PTH,ComponentDrill
T5C1.100
; #@! TA.AperFunction,Plated,PTH,ComponentDrill
T6C2.600
; #@! TA.AperFunction,Plated,PTH,ComponentDrill
T7C3.200
%
G90
G05
T1
X2.616Y20.98
X2.616Y18.948
X4.2Y10.466
X6.934Y7.823
X6.96Y2.261
X7.282Y5.636
X7.661Y19.091
X7.689Y21.405
X8.687Y10.465
X10.6Y5.994
X10.871Y1.8
X12.268Y15.312
X13.051Y19.35
X13.053Y21.613
X14.199Y10.008
X15.187Y11.097
X15.757Y15.291
X18.009Y8.433
X18.104Y11.627
X19.209Y10.523
X21.895Y0.914
X24.257Y15.861
X24.282Y13.335
X25.492Y13.36
X25.756Y1.815
X25.806Y8.636
X25.832Y16.586
X25.832Y6.096
X25.832Y3.378
X26.162Y0.94
X26.4Y14.7
X27.356Y17.653
X27.8Y20.5
X28.092Y1.041
X28.346Y18.567
X28.346Y14.503
X28.397Y13.386
X29.136Y18.44
X29.445Y20.93
X29.557Y6.985
X30.328Y8.128
X31.28Y9.156
X31.358Y6.998
X31.801Y13.092
X32.309Y8.828
X32.494Y20.133
X33.099Y22.781
X33.443Y20.209
X34.1Y22.686
X34.112Y14.275
X34.8Y5.2
X35.877Y9.837
X36.093Y22.734
X36.1Y5.2
X36.22Y7.428
X36.246Y8.828
X37.0Y6.0
X37.02Y7.414
X37.059Y8.828
X37.468Y20.172
X37.5Y18.8
X38.568Y22.809
X38.735Y7.341
X39.37Y9.728
X40.025Y21.47
X40.807Y21.162
X40.894Y16.866
X40.894Y15.377
X41.427Y12.929
X42.393Y15.073
X42.85Y21.762
X42.875Y22.53
X43.84Y4.837
X43.84Y3.023
X44.145Y12.903
X45.314Y15.494
X45.444Y11.738
X45.466Y21.762
X45.999Y14.122
X46.009Y11.172
X46.05Y22.362
X47.422Y12.081
X47.961Y11.487
X49.581Y17.12
X49.961Y5.569
X50.267Y17.145
X50.927Y6.969
X51.181Y1.626
X55.327Y3.164
X55.337Y1.524
X55.474Y8.407
X56.4Y24.3
X57.607Y10.185
X57.683Y4.318
X58.369Y11.608
X58.979Y20.98
X59.538Y21.336
X59.538Y20.636
X60.35Y16.27
X60.35Y15.57
X60.933Y16.638
X61.112Y15.57
X61.519Y16.332
X61.849Y15.57
X62.306Y16.307
X62.56Y15.519
X66.7Y23.2
X66.954Y15.545
X67.716Y15.57
X68.478Y15.519
X69.545Y18.694
X69.545Y17.932
X69.545Y17.247
X73.558Y19.634
X73.736Y21.107
X73.762Y20.345
X74.766Y19.869
X74.93Y15.443
X75.07Y20.485
X75.133Y16.078
X75.464Y19.926
X75.603Y16.634
X75.743Y15.418
X76.175Y16.231
X76.429Y15.418
X76.962Y16.205
X77.114Y15.392
X77.673Y15.951
X81.2Y23.3
X82.118Y15.519
X82.753Y15.545
X83.337Y15.545
X84.252Y17.45
X84.277Y18.186
X84.379Y18.872
X86.071Y25.2
X88.265Y21.311
X88.341Y19.837
X88.468Y20.599
X89.484Y15.951
X89.761Y16.596
X89.941Y15.494
X90.068Y20.904
X90.068Y20.204
X90.373Y16.256
X90.526Y21.336
X90.78Y15.469
X91.135Y16.256
X91.516Y15.494
X91.973Y16.256
X92.304Y15.494
X96.5Y23.3
X96.622Y15.697
X97.307Y15.697
X97.993Y15.672
X99.441Y16.789
X99.593Y18.288
X99.619Y17.577
X103.784Y21.692
X103.784Y20.142
X103.886Y20.98
T2
X29.464Y24.282
X30.734Y24.282
X32.004Y24.282
X33.274Y24.282
X34.544Y24.282
T3
X17.145Y16.535
X17.145Y13.995
T4
X2.921Y23.038
X2.921Y16.662
X2.921Y14.122
X5.461Y23.038
X5.461Y16.662
X5.461Y14.122
X8.001Y23.038
X8.001Y16.662
X8.001Y14.122
X10.541Y23.038
X10.541Y16.662
X10.541Y14.122
X13.081Y23.038
X13.081Y16.662
X13.081Y14.122
X18.491Y22.962
X21.031Y22.962
X23.571Y22.962
T5
X46.761Y24.363
X46.761Y19.863
X53.261Y24.363
X53.261Y19.863
T6
X47.879Y8.382
X47.879Y3.382
X63.5Y8.302
X63.5Y3.302
X70.6Y8.262
X70.6Y3.262
X78.498Y8.302
X78.498Y3.302
X85.598Y8.302
X85.598Y3.302
X93.484Y8.342
X93.484Y3.342
X100.584Y8.342
X100.584Y3.342
T7
X3.581Y5.334
X55.575Y15.342
M30
