%TF.GenerationSoftware,KiCad,Pcbnew,9.0.1*%
%TF.CreationDate,2026-01-29T13:58:13+01:00*%
%TF.ProjectId,BP Nerf Blaster,4250204e-6572-4662-9042-6c6173746572,rev?*%
%TF.SameCoordinates,PX55d4a80PY7270e00*%
%TF.FileFunction,Copper,L2,Bot*%
%TF.FilePolarity,Positive*%
%FSLAX46Y46*%
G04 Gerber Fmt 4.6, Leading zero omitted, Abs format (unit mm)*
G04 Created by KiCad (PCBNEW 9.0.1) date 2026-01-29 13:58:13*
%MOMM*%
%LPD*%
G01*
G04 APERTURE LIST*
G04 Aperture macros list*
%AMRoundRect*
0 Rectangle with rounded corners*
0 $1 Rounding radius*
0 $2 $3 $4 $5 $6 $7 $8 $9 X,Y pos of 4 corners*
0 Add a 4 corners polygon primitive as box body*
4,1,4,$2,$3,$4,$5,$6,$7,$8,$9,$2,$3,0*
0 Add four circle primitives for the rounded corners*
1,1,$1+$1,$2,$3*
1,1,$1+$1,$4,$5*
1,1,$1+$1,$6,$7*
1,1,$1+$1,$8,$9*
0 Add four rect primitives between the rounded corners*
20,1,$1+$1,$2,$3,$4,$5,0*
20,1,$1+$1,$4,$5,$6,$7,0*
20,1,$1+$1,$6,$7,$8,$9,0*
20,1,$1+$1,$8,$9,$2,$3,0*%
G04 Aperture macros list end*
%TA.AperFunction,ComponentPad*%
%ADD10R,5.000000X3.000000*%
%TD*%
%TA.AperFunction,ComponentPad*%
%ADD11C,5.600000*%
%TD*%
%TA.AperFunction,ComponentPad*%
%ADD12R,1.700000X1.700000*%
%TD*%
%TA.AperFunction,ComponentPad*%
%ADD13O,1.700000X1.700000*%
%TD*%
%TA.AperFunction,WasherPad*%
%ADD14RoundRect,0.190500X-0.762000X-0.444500X0.762000X-0.444500X0.762000X0.444500X-0.762000X0.444500X0*%
%TD*%
%TA.AperFunction,ComponentPad*%
%ADD15R,1.000000X1.000000*%
%TD*%
%TA.AperFunction,ComponentPad*%
%ADD16O,1.000000X1.000000*%
%TD*%
%TA.AperFunction,SMDPad,CuDef*%
%ADD17RoundRect,0.250000X-0.325000X-0.650000X0.325000X-0.650000X0.325000X0.650000X-0.325000X0.650000X0*%
%TD*%
%TA.AperFunction,SMDPad,CuDef*%
%ADD18R,1.500000X0.650000*%
%TD*%
%TA.AperFunction,SMDPad,CuDef*%
%ADD19RoundRect,0.250000X-0.262500X-0.450000X0.262500X-0.450000X0.262500X0.450000X-0.262500X0.450000X0*%
%TD*%
%TA.AperFunction,ComponentPad*%
%ADD20R,1.800000X1.800000*%
%TD*%
%TA.AperFunction,ComponentPad*%
%ADD21C,1.800000*%
%TD*%
%TA.AperFunction,SMDPad,CuDef*%
%ADD22RoundRect,0.250000X-0.250000X-0.475000X0.250000X-0.475000X0.250000X0.475000X-0.250000X0.475000X0*%
%TD*%
%TA.AperFunction,SMDPad,CuDef*%
%ADD23RoundRect,0.250000X0.250000X0.475000X-0.250000X0.475000X-0.250000X-0.475000X0.250000X-0.475000X0*%
%TD*%
%TA.AperFunction,SMDPad,CuDef*%
%ADD24RoundRect,0.250000X-0.450000X0.262500X-0.450000X-0.262500X0.450000X-0.262500X0.450000X0.262500X0*%
%TD*%
%TA.AperFunction,SMDPad,CuDef*%
%ADD25RoundRect,0.150000X-0.835000X-0.150000X0.835000X-0.150000X0.835000X0.150000X-0.835000X0.150000X0*%
%TD*%
%TA.AperFunction,SMDPad,CuDef*%
%ADD26RoundRect,0.250000X0.262500X0.450000X-0.262500X0.450000X-0.262500X-0.450000X0.262500X-0.450000X0*%
%TD*%
%TA.AperFunction,SMDPad,CuDef*%
%ADD27RoundRect,0.250000X0.475000X-0.250000X0.475000X0.250000X-0.475000X0.250000X-0.475000X-0.250000X0*%
%TD*%
%TA.AperFunction,SMDPad,CuDef*%
%ADD28R,1.800000X2.500000*%
%TD*%
%TA.AperFunction,SMDPad,CuDef*%
%ADD29RoundRect,0.250000X-0.475000X0.250000X-0.475000X-0.250000X0.475000X-0.250000X0.475000X0.250000X0*%
%TD*%
%TA.AperFunction,SMDPad,CuDef*%
%ADD30RoundRect,0.218750X0.218750X0.381250X-0.218750X0.381250X-0.218750X-0.381250X0.218750X-0.381250X0*%
%TD*%
%TA.AperFunction,SMDPad,CuDef*%
%ADD31RoundRect,0.250000X0.650000X-0.325000X0.650000X0.325000X-0.650000X0.325000X-0.650000X-0.325000X0*%
%TD*%
%TA.AperFunction,SMDPad,CuDef*%
%ADD32R,1.400000X1.200000*%
%TD*%
%TA.AperFunction,SMDPad,CuDef*%
%ADD33RoundRect,0.250000X0.450000X-0.262500X0.450000X0.262500X-0.450000X0.262500X-0.450000X-0.262500X0*%
%TD*%
%TA.AperFunction,ComponentPad*%
%ADD34C,2.000000*%
%TD*%
%TA.AperFunction,SMDPad,CuDef*%
%ADD35R,2.006600X1.498600*%
%TD*%
%TA.AperFunction,SMDPad,CuDef*%
%ADD36R,2.006600X3.810000*%
%TD*%
%TA.AperFunction,SMDPad,CuDef*%
%ADD37RoundRect,0.068750X0.711250X0.206250X-0.711250X0.206250X-0.711250X-0.206250X0.711250X-0.206250X0*%
%TD*%
%TA.AperFunction,SMDPad,CuDef*%
%ADD38RoundRect,0.068750X0.206250X0.711250X-0.206250X0.711250X-0.206250X-0.711250X0.206250X-0.711250X0*%
%TD*%
%TA.AperFunction,SMDPad,CuDef*%
%ADD39RoundRect,0.150000X-0.512500X-0.150000X0.512500X-0.150000X0.512500X0.150000X-0.512500X0.150000X0*%
%TD*%
%TA.AperFunction,SMDPad,CuDef*%
%ADD40RoundRect,0.237500X-0.237500X0.300000X-0.237500X-0.300000X0.237500X-0.300000X0.237500X0.300000X0*%
%TD*%
%TA.AperFunction,ViaPad*%
%ADD41C,0.600000*%
%TD*%
%TA.AperFunction,Conductor*%
%ADD42C,0.200000*%
%TD*%
%TA.AperFunction,Conductor*%
%ADD43C,0.400000*%
%TD*%
%TA.AperFunction,Conductor*%
%ADD44C,1.600000*%
%TD*%
%TA.AperFunction,Conductor*%
%ADD45C,1.200000*%
%TD*%
%TA.AperFunction,Conductor*%
%ADD46C,0.600000*%
%TD*%
%TA.AperFunction,Conductor*%
%ADD47C,0.800000*%
%TD*%
G04 APERTURE END LIST*
D10*
%TO.P,J1,1,Pin_1*%
%TO.N,/VIN*%
X47879000Y3382000D03*
%TO.P,J1,2,Pin_2*%
%TO.N,GND*%
X47879000Y8382000D03*
%TD*%
%TO.P,J3,1,Pin_1*%
%TO.N,+12V*%
X70600000Y3262000D03*
%TO.P,J3,2,Pin_2*%
%TO.N,/Mosfets/M2*%
X70600000Y8262000D03*
%TD*%
D11*
%TO.P,H1,1,1*%
%TO.N,GND*%
X3581400Y5334000D03*
%TD*%
D10*
%TO.P,J2,1,Pin_1*%
%TO.N,+12V*%
X63500000Y3302000D03*
%TO.P,J2,2,Pin_2*%
%TO.N,/Mosfets/M1*%
X63500000Y8302000D03*
%TD*%
%TO.P,J6,1,Pin_1*%
%TO.N,+12V*%
X93484000Y3342000D03*
%TO.P,J6,2,Pin_2*%
%TO.N,/Mosfets/M5*%
X93484000Y8342000D03*
%TD*%
%TO.P,J5,1,Pin_1*%
%TO.N,+12V*%
X85598000Y3302000D03*
%TO.P,J5,2,Pin_2*%
%TO.N,/Mosfets/M4*%
X85598000Y8302000D03*
%TD*%
%TO.P,J11,1,Pin_1*%
%TO.N,+12V*%
X100584000Y3342000D03*
%TO.P,J11,2,Pin_2*%
%TO.N,/Mosfets/M6*%
X100584000Y8342000D03*
%TD*%
D11*
%TO.P,H3,1,1*%
%TO.N,GND*%
X55575200Y15341600D03*
%TD*%
D10*
%TO.P,J4,1,Pin_1*%
%TO.N,+12V*%
X78498000Y3302000D03*
%TO.P,J4,2,Pin_2*%
%TO.N,/Mosfets/M3*%
X78498000Y8302000D03*
%TD*%
D12*
%TO.P,J8,1,Pin_1*%
%TO.N,Net-(J8-Pin_1)*%
X18491200Y22961600D03*
D13*
%TO.P,J8,2,Pin_2*%
%TO.N,Net-(J8-Pin_2)*%
X21031200Y22961600D03*
%TO.P,J8,3,Pin_3*%
%TO.N,GND*%
X23571200Y22961600D03*
%TD*%
D12*
%TO.P,J9,1,Pin_1*%
%TO.N,+3V3*%
X13081000Y16662400D03*
D13*
%TO.P,J9,2,Pin_2*%
X13081000Y14122400D03*
%TO.P,J9,3,Pin_3*%
%TO.N,/Photo/P1.GND*%
X10541000Y16662400D03*
%TO.P,J9,4,Pin_4*%
%TO.N,/Photo/P3.GND*%
X10541000Y14122400D03*
%TO.P,J9,5,Pin_5*%
%TO.N,/Photo/P1.A*%
X8001000Y16662400D03*
%TO.P,J9,6,Pin_6*%
%TO.N,/Photo/P3.A*%
X8001000Y14122400D03*
%TO.P,J9,7,Pin_7*%
%TO.N,/Photo/P2.GND*%
X5461000Y16662400D03*
%TO.P,J9,8,Pin_8*%
%TO.N,/Photo/P4.GND*%
X5461000Y14122400D03*
%TO.P,J9,9,Pin_9*%
%TO.N,/Photo/P2.A*%
X2921000Y16662400D03*
%TO.P,J9,10,Pin_10*%
%TO.N,/Photo/P4.A*%
X2921000Y14122400D03*
%TD*%
D14*
%TO.P,H2,*%
%TO.N,*%
X105664000Y14224000D03*
%TD*%
D12*
%TO.P,J10,1,Pin_1*%
%TO.N,+3V3*%
X13081000Y23037800D03*
D13*
%TO.P,J10,2,Pin_2*%
%TO.N,/Photo/P5.GND*%
X10541000Y23037800D03*
%TO.P,J10,3,Pin_3*%
%TO.N,/Photo/P5.A*%
X8001000Y23037800D03*
%TO.P,J10,4,Pin_4*%
%TO.N,/Photo/P6.GND*%
X5461000Y23037800D03*
%TO.P,J10,5,Pin_5*%
%TO.N,/Photo/P6.A*%
X2921000Y23037800D03*
%TD*%
D15*
%TO.P,J7,1,Pin_1*%
%TO.N,Net-(J7-Pin_1)*%
X34544000Y24282400D03*
D16*
%TO.P,J7,2,Pin_2*%
%TO.N,/SWCLK*%
X33274000Y24282400D03*
%TO.P,J7,3,Pin_3*%
%TO.N,GND*%
X32004000Y24282400D03*
%TO.P,J7,4,Pin_4*%
%TO.N,/SWDIO*%
X30734000Y24282400D03*
%TO.P,J7,5,Pin_5*%
%TO.N,/NRST*%
X29464000Y24282400D03*
%TD*%
D17*
%TO.P,C6,1*%
%TO.N,+3V3*%
X40894000Y6096000D03*
%TO.P,C6,2*%
%TO.N,GND*%
X43844000Y6096000D03*
%TD*%
D18*
%TO.P,IC2,1,NC_1*%
%TO.N,unconnected-(IC2-NC_1-Pad1)*%
X84996000Y23749000D03*
%TO.P,IC2,2,IN_A*%
%TO.N,/TIM8_CH3N*%
X84996000Y22479000D03*
%TO.P,IC2,3,GND*%
%TO.N,GND*%
X84996000Y21209000D03*
%TO.P,IC2,4,IN_B*%
%TO.N,/TIM8_CH2*%
X84996000Y19939000D03*
%TO.P,IC2,5,~{OUT_B}*%
%TO.N,Net-(IC2-~{OUT_B})*%
X79596000Y19939000D03*
%TO.P,IC2,6,VDD*%
%TO.N,+12V*%
X79596000Y21209000D03*
%TO.P,IC2,7,~{OUT_A}*%
%TO.N,Net-(IC2-~{OUT_A})*%
X79596000Y22479000D03*
%TO.P,IC2,8,NC_2*%
%TO.N,unconnected-(IC2-NC_2-Pad8)*%
X79596000Y23749000D03*
%TD*%
D19*
%TO.P,R8,1*%
%TO.N,Net-(U4-4Y)*%
X23067000Y10922000D03*
%TO.P,R8,2*%
%TO.N,/TIM4_ETR*%
X24892000Y10922000D03*
%TD*%
D20*
%TO.P,D8,1,K*%
%TO.N,GND*%
X17145000Y13995400D03*
D21*
%TO.P,D8,2,A*%
%TO.N,Net-(D8-A)*%
X17145000Y16535400D03*
%TD*%
D22*
%TO.P,C9,1*%
%TO.N,+12V*%
X96332000Y17780000D03*
%TO.P,C9,2*%
%TO.N,GND*%
X98232000Y17780000D03*
%TD*%
D23*
%TO.P,C18,1*%
%TO.N,/OSC_IN*%
X48651200Y13462000D03*
%TO.P,C18,2*%
%TO.N,GND*%
X46751200Y13462000D03*
%TD*%
D24*
%TO.P,R1,1*%
%TO.N,Net-(IC1-~{OUT_A})*%
X62484000Y22098000D03*
%TO.P,R1,2*%
%TO.N,Net-(R1-Pad2)*%
X62484000Y20273000D03*
%TD*%
D22*
%TO.P,C3,1*%
%TO.N,+12V*%
X81280000Y17780000D03*
%TO.P,C3,2*%
%TO.N,GND*%
X83180000Y17780000D03*
%TD*%
D25*
%TO.P,U4,1,1A*%
%TO.N,/Photo/P1.A*%
X15813000Y2286000D03*
%TO.P,U4,2,1Y*%
%TO.N,Net-(U4-1Y)*%
X15813000Y3556000D03*
%TO.P,U4,3,2A*%
%TO.N,/Photo/P2.A*%
X15813000Y4826000D03*
%TO.P,U4,4,2Y*%
%TO.N,Net-(U4-2Y)*%
X15813000Y6096000D03*
%TO.P,U4,5,3A*%
%TO.N,/Photo/P3.A*%
X15813000Y7366000D03*
%TO.P,U4,6,3Y*%
%TO.N,Net-(U4-3Y)*%
X15813000Y8636000D03*
%TO.P,U4,7,GND*%
%TO.N,GND*%
X15813000Y9906000D03*
%TO.P,U4,8,4Y*%
%TO.N,Net-(U4-4Y)*%
X20763000Y9906000D03*
%TO.P,U4,9,4A*%
%TO.N,/Photo/P4.A*%
X20763000Y8636000D03*
%TO.P,U4,10,5Y*%
%TO.N,Net-(U4-5Y)*%
X20763000Y7366000D03*
%TO.P,U4,11,5A*%
%TO.N,/Photo/P5.A*%
X20763000Y6096000D03*
%TO.P,U4,12,6Y*%
%TO.N,Net-(U4-6Y)*%
X20763000Y4826000D03*
%TO.P,U4,13,6A*%
%TO.N,/Photo/P6.A*%
X20763000Y3556000D03*
%TO.P,U4,14,VCC*%
%TO.N,+3V3*%
X20763000Y2286000D03*
%TD*%
D24*
%TO.P,R24,1*%
%TO.N,GND*%
X102616000Y20978500D03*
%TO.P,R24,2*%
%TO.N,/TIM8_CH1*%
X102616000Y19153500D03*
%TD*%
D26*
%TO.P,R15,1*%
%TO.N,GND*%
X24939000Y6096000D03*
%TO.P,R15,2*%
%TO.N,/Photo/P5.A*%
X23114000Y6096000D03*
%TD*%
D24*
%TO.P,R19,1*%
%TO.N,GND*%
X72578000Y20470500D03*
%TO.P,R19,2*%
%TO.N,/TIM15_CH2*%
X72578000Y18645500D03*
%TD*%
D27*
%TO.P,C20,1*%
%TO.N,/ADC1_IN2*%
X58369200Y8864600D03*
%TO.P,C20,2*%
%TO.N,GND*%
X58369200Y10764600D03*
%TD*%
D26*
%TO.P,R18,1*%
%TO.N,GND*%
X73939400Y22225000D03*
%TO.P,R18,2*%
%TO.N,/TIM15_CH1*%
X72114400Y22225000D03*
%TD*%
%TO.P,R14,1*%
%TO.N,GND*%
X24939000Y8636000D03*
%TO.P,R14,2*%
%TO.N,/Photo/P4.A*%
X23114000Y8636000D03*
%TD*%
%TO.P,R32,1*%
%TO.N,Net-(C19-Pad1)*%
X44270300Y18110200D03*
%TO.P,R32,2*%
%TO.N,/OSC_OUT*%
X42445300Y18110200D03*
%TD*%
D28*
%TO.P,D7,1,K*%
%TO.N,+3V3*%
X42926000Y8922000D03*
%TO.P,D7,2,A*%
%TO.N,GND*%
X42926000Y12922000D03*
%TD*%
D29*
%TO.P,C15,1*%
%TO.N,/NRST*%
X28905200Y21793200D03*
%TO.P,C15,2*%
%TO.N,GND*%
X28905200Y19893200D03*
%TD*%
D19*
%TO.P,R27,1*%
%TO.N,Net-(R27-Pad1)*%
X92534100Y18135600D03*
%TO.P,R27,2*%
%TO.N,Net-(IC4-~{OUT_B})*%
X94359100Y18135600D03*
%TD*%
D30*
%TO.P,L1,1,1*%
%TO.N,/VIN*%
X42923500Y3937000D03*
%TO.P,L1,2,2*%
%TO.N,Net-(IC3-VIN)*%
X40798500Y3937000D03*
%TD*%
D26*
%TO.P,R33,1*%
%TO.N,/Photo/P2.GND*%
X5457200Y18948400D03*
%TO.P,R33,2*%
%TO.N,GND*%
X3632200Y18948400D03*
%TD*%
D18*
%TO.P,IC1,1,NC_1*%
%TO.N,unconnected-(IC1-NC_1-Pad1)*%
X70198000Y23495000D03*
%TO.P,IC1,2,IN_A*%
%TO.N,/TIM15_CH1*%
X70198000Y22225000D03*
%TO.P,IC1,3,GND*%
%TO.N,GND*%
X70198000Y20955000D03*
%TO.P,IC1,4,IN_B*%
%TO.N,/TIM15_CH2*%
X70198000Y19685000D03*
%TO.P,IC1,5,~{OUT_B}*%
%TO.N,Net-(IC1-~{OUT_B})*%
X64798000Y19685000D03*
%TO.P,IC1,6,VDD*%
%TO.N,+12V*%
X64798000Y20955000D03*
%TO.P,IC1,7,~{OUT_A}*%
%TO.N,Net-(IC1-~{OUT_A})*%
X64798000Y22225000D03*
%TO.P,IC1,8,NC_2*%
%TO.N,unconnected-(IC1-NC_2-Pad8)*%
X64798000Y23495000D03*
%TD*%
D26*
%TO.P,R4,1*%
%TO.N,GND*%
X88616800Y22479000D03*
%TO.P,R4,2*%
%TO.N,/TIM8_CH3N*%
X86791800Y22479000D03*
%TD*%
%TO.P,R7,1*%
%TO.N,Net-(U4-3Y)*%
X13358500Y8636000D03*
%TO.P,R7,2*%
%TO.N,/TIM3_ETR*%
X11533500Y8636000D03*
%TD*%
D22*
%TO.P,C12,1*%
%TO.N,+3V3*%
X23063200Y1270000D03*
%TO.P,C12,2*%
%TO.N,GND*%
X24963200Y1270000D03*
%TD*%
D26*
%TO.P,R37,1*%
%TO.N,/Photo/P6.GND*%
X5457200Y20980400D03*
%TO.P,R37,2*%
%TO.N,GND*%
X3632200Y20980400D03*
%TD*%
D31*
%TO.P,C1,1*%
%TO.N,+12V*%
X60960000Y11176000D03*
%TO.P,C1,2*%
%TO.N,GND*%
X60960000Y14126000D03*
%TD*%
D27*
%TO.P,C16,1*%
%TO.N,+3V3*%
X41688000Y20143000D03*
%TO.P,C16,2*%
%TO.N,GND*%
X41688000Y22043000D03*
%TD*%
D26*
%TO.P,R25,1*%
%TO.N,GND*%
X103958400Y22707600D03*
%TO.P,R25,2*%
%TO.N,/ELMAG*%
X102133400Y22707600D03*
%TD*%
%TO.P,R16,1*%
%TO.N,GND*%
X24939000Y3810000D03*
%TO.P,R16,2*%
%TO.N,/Photo/P6.A*%
X23114000Y3810000D03*
%TD*%
D18*
%TO.P,U1,1*%
%TO.N,GND*%
X64798000Y11303000D03*
%TO.P,U1,2*%
%TO.N,Net-(R1-Pad2)*%
X64798000Y12573000D03*
%TO.P,U1,3*%
%TO.N,GND*%
X64798000Y13843000D03*
%TO.P,U1,4*%
%TO.N,Net-(R2-Pad1)*%
X64798000Y15113000D03*
%TO.P,U1,5*%
%TO.N,/Mosfets/M2*%
X70198000Y15113000D03*
%TO.P,U1,6*%
X70198000Y13843000D03*
%TO.P,U1,7*%
%TO.N,/Mosfets/M1*%
X70198000Y12573000D03*
%TO.P,U1,8*%
X70198000Y11303000D03*
%TD*%
D17*
%TO.P,C5,1*%
%TO.N,Net-(IC3-VIN)*%
X40894000Y1778000D03*
%TO.P,C5,2*%
%TO.N,GND*%
X43844000Y1778000D03*
%TD*%
D26*
%TO.P,R34,1*%
%TO.N,/Photo/P3.GND*%
X10515600Y11658600D03*
%TO.P,R34,2*%
%TO.N,GND*%
X8690600Y11658600D03*
%TD*%
D32*
%TO.P,Y1,1,1*%
%TO.N,/OSC_IN*%
X48547200Y15532200D03*
%TO.P,Y1,2,2*%
%TO.N,GND*%
X46347200Y15532200D03*
%TO.P,Y1,3,3*%
%TO.N,Net-(C19-Pad1)*%
X46347200Y17132200D03*
%TO.P,Y1,4,4*%
%TO.N,GND*%
X48547200Y17132200D03*
%TD*%
D23*
%TO.P,C13,1*%
%TO.N,+3V3*%
X56337200Y1498600D03*
%TO.P,C13,2*%
%TO.N,GND*%
X54437200Y1498600D03*
%TD*%
D19*
%TO.P,R11,1*%
%TO.N,GND*%
X7977500Y2286000D03*
%TO.P,R11,2*%
%TO.N,/Photo/P1.A*%
X9802500Y2286000D03*
%TD*%
D18*
%TO.P,IC4,1,NC_1*%
%TO.N,unconnected-(IC4-NC_1-Pad1)*%
X100236000Y23749000D03*
%TO.P,IC4,2,IN_A*%
%TO.N,/ELMAG*%
X100236000Y22479000D03*
%TO.P,IC4,3,GND*%
%TO.N,GND*%
X100236000Y21209000D03*
%TO.P,IC4,4,IN_B*%
%TO.N,/TIM8_CH1*%
X100236000Y19939000D03*
%TO.P,IC4,5,~{OUT_B}*%
%TO.N,Net-(IC4-~{OUT_B})*%
X94836000Y19939000D03*
%TO.P,IC4,6,VDD*%
%TO.N,+12V*%
X94836000Y21209000D03*
%TO.P,IC4,7,~{OUT_A}*%
%TO.N,Net-(IC4-~{OUT_A})*%
X94836000Y22479000D03*
%TO.P,IC4,8,NC_2*%
%TO.N,unconnected-(IC4-NC_2-Pad8)*%
X94836000Y23749000D03*
%TD*%
D33*
%TO.P,R31,1*%
%TO.N,/NRST*%
X26898600Y21793200D03*
%TO.P,R31,2*%
%TO.N,+3V3*%
X26898600Y23618200D03*
%TD*%
D23*
%TO.P,C21,1*%
%TO.N,+3V3*%
X29176000Y14489000D03*
%TO.P,C21,2*%
%TO.N,GND*%
X27276000Y14489000D03*
%TD*%
D24*
%TO.P,R26,1*%
%TO.N,Net-(IC4-~{OUT_A})*%
X92329000Y21707000D03*
%TO.P,R26,2*%
%TO.N,Net-(R26-Pad2)*%
X92329000Y19882000D03*
%TD*%
D19*
%TO.P,R9,1*%
%TO.N,Net-(U4-5Y)*%
X26670000Y7366000D03*
%TO.P,R9,2*%
%TO.N,/GPIO_EXTI6*%
X28495000Y7366000D03*
%TD*%
D27*
%TO.P,C23,1*%
%TO.N,+3V3*%
X44069000Y20142200D03*
%TO.P,C23,2*%
%TO.N,GND*%
X44069000Y22042200D03*
%TD*%
D24*
%TO.P,R22,1*%
%TO.N,Net-(J8-Pin_1)*%
X18491200Y21156300D03*
%TO.P,R22,2*%
%TO.N,/TXD*%
X18491200Y19331300D03*
%TD*%
D19*
%TO.P,R2,1*%
%TO.N,Net-(R2-Pad1)*%
X63044700Y17830800D03*
%TO.P,R2,2*%
%TO.N,Net-(IC1-~{OUT_B})*%
X64869700Y17830800D03*
%TD*%
D26*
%TO.P,R35,1*%
%TO.N,/Photo/P4.GND*%
X5435600Y11658600D03*
%TO.P,R35,2*%
%TO.N,GND*%
X3610600Y11658600D03*
%TD*%
D18*
%TO.P,U2,1*%
%TO.N,GND*%
X79596000Y11557000D03*
%TO.P,U2,2*%
%TO.N,Net-(R20-Pad2)*%
X79596000Y12827000D03*
%TO.P,U2,3*%
%TO.N,GND*%
X79596000Y14097000D03*
%TO.P,U2,4*%
%TO.N,Net-(R21-Pad1)*%
X79596000Y15367000D03*
%TO.P,U2,5*%
%TO.N,/Mosfets/M4*%
X84996000Y15367000D03*
%TO.P,U2,6*%
X84996000Y14097000D03*
%TO.P,U2,7*%
%TO.N,/Mosfets/M3*%
X84996000Y12827000D03*
%TO.P,U2,8*%
X84996000Y11557000D03*
%TD*%
%TO.P,U5,1*%
%TO.N,GND*%
X94328000Y11557000D03*
%TO.P,U5,2*%
%TO.N,Net-(R26-Pad2)*%
X94328000Y12827000D03*
%TO.P,U5,3*%
%TO.N,GND*%
X94328000Y14097000D03*
%TO.P,U5,4*%
%TO.N,Net-(R27-Pad1)*%
X94328000Y15367000D03*
%TO.P,U5,5*%
%TO.N,/Mosfets/M6*%
X99728000Y15367000D03*
%TO.P,U5,6*%
X99728000Y14097000D03*
%TO.P,U5,7*%
%TO.N,/Mosfets/M5*%
X99728000Y12827000D03*
%TO.P,U5,8*%
X99728000Y11557000D03*
%TD*%
D26*
%TO.P,R5,1*%
%TO.N,Net-(U4-1Y)*%
X13358500Y3556000D03*
%TO.P,R5,2*%
%TO.N,/TIM1_ETR*%
X11533500Y3556000D03*
%TD*%
D19*
%TO.P,R13,1*%
%TO.N,GND*%
X7977500Y7366000D03*
%TO.P,R13,2*%
%TO.N,/Photo/P3.A*%
X9802500Y7366000D03*
%TD*%
D24*
%TO.P,R20,1*%
%TO.N,Net-(IC2-~{OUT_A})*%
X77216000Y22145000D03*
%TO.P,R20,2*%
%TO.N,Net-(R20-Pad2)*%
X77216000Y20320000D03*
%TD*%
D22*
%TO.P,C7,1*%
%TO.N,+12V*%
X66548000Y17526000D03*
%TO.P,C7,2*%
%TO.N,GND*%
X68448000Y17526000D03*
%TD*%
D31*
%TO.P,C8,1*%
%TO.N,+12V*%
X75692000Y11088000D03*
%TO.P,C8,2*%
%TO.N,GND*%
X75692000Y14038000D03*
%TD*%
D19*
%TO.P,R30,1*%
%TO.N,Net-(J7-Pin_1)*%
X37517700Y23952200D03*
%TO.P,R30,2*%
%TO.N,+3V3*%
X39342700Y23952200D03*
%TD*%
%TO.P,R40,1*%
%TO.N,GND*%
X54639200Y9448800D03*
%TO.P,R40,2*%
%TO.N,/ADC1_IN2*%
X56464200Y9448800D03*
%TD*%
D27*
%TO.P,C14,1*%
%TO.N,/ADC1_IN1*%
X52527200Y7787600D03*
%TO.P,C14,2*%
%TO.N,GND*%
X52527200Y9687600D03*
%TD*%
D31*
%TO.P,C11,1*%
%TO.N,+12V*%
X90805000Y11088000D03*
%TO.P,C11,2*%
%TO.N,GND*%
X90805000Y14038000D03*
%TD*%
D29*
%TO.P,C17,1*%
%TO.N,Net-(U3-VDDA{slash}VREF+)*%
X33248600Y11211600D03*
%TO.P,C17,2*%
%TO.N,GND*%
X33248600Y9311600D03*
%TD*%
D24*
%TO.P,R39,1*%
%TO.N,/ADC1_IN2*%
X58369200Y7237100D03*
%TO.P,R39,2*%
%TO.N,+12V*%
X58369200Y5412100D03*
%TD*%
%TO.P,R3,1*%
%TO.N,GND*%
X87122000Y20724500D03*
%TO.P,R3,2*%
%TO.N,/TIM8_CH2*%
X87122000Y18899500D03*
%TD*%
D19*
%TO.P,R38,1*%
%TO.N,Net-(D8-A)*%
X20345400Y16560800D03*
%TO.P,R38,2*%
%TO.N,/LED*%
X22170400Y16560800D03*
%TD*%
%TO.P,R10,1*%
%TO.N,Net-(U4-6Y)*%
X26670000Y4826000D03*
%TO.P,R10,2*%
%TO.N,/GPIO_EXTI7*%
X28495000Y4826000D03*
%TD*%
D33*
%TO.P,R29,1*%
%TO.N,Net-(R29-Pad1)*%
X51892200Y3530600D03*
%TO.P,R29,2*%
%TO.N,/ADC1_IN1*%
X51892200Y5355600D03*
%TD*%
D24*
%TO.P,R23,1*%
%TO.N,Net-(J8-Pin_2)*%
X21031200Y21156300D03*
%TO.P,R23,2*%
%TO.N,/RXD*%
X21031200Y19331300D03*
%TD*%
D19*
%TO.P,R21,1*%
%TO.N,Net-(R21-Pad1)*%
X77499200Y18186400D03*
%TO.P,R21,2*%
%TO.N,Net-(IC2-~{OUT_B})*%
X79324200Y18186400D03*
%TD*%
D34*
%TO.P,SW1,1,1*%
%TO.N,/Button*%
X53261400Y24362800D03*
X46761400Y24362800D03*
%TO.P,SW1,2,2*%
%TO.N,GND*%
X53261400Y19862800D03*
X46761400Y19862800D03*
%TD*%
D35*
%TO.P,IC3,1,GND*%
%TO.N,GND*%
X38709600Y6070600D03*
%TO.P,IC3,2,VOUT*%
%TO.N,+3V3*%
X38709600Y3784600D03*
%TO.P,IC3,3,VIN*%
%TO.N,Net-(IC3-VIN)*%
X38709600Y1498600D03*
D36*
%TO.P,IC3,4,VOUT1*%
%TO.N,+3V3*%
X32410400Y3810000D03*
%TD*%
D37*
%TO.P,U3,1,VDD*%
%TO.N,+3V3*%
X39486000Y20072000D03*
%TO.P,U3,2,PF0-OSC_IN*%
%TO.N,/OSC_IN*%
X39486000Y19272000D03*
%TO.P,U3,3,PF1-OSC_OUT*%
%TO.N,/OSC_OUT*%
X39486000Y18472000D03*
%TO.P,U3,4,PG10-NRST*%
%TO.N,/NRST*%
X39486000Y17672000D03*
%TO.P,U3,5,PA0*%
%TO.N,/ADC1_IN1*%
X39486000Y16872000D03*
%TO.P,U3,6,PA1*%
%TO.N,/ADC1_IN2*%
X39486000Y16072000D03*
%TO.P,U3,7,PA2*%
%TO.N,/TIM15_CH1*%
X39486000Y15272000D03*
%TO.P,U3,8,PA3*%
%TO.N,/TIM15_CH2*%
X39486000Y14472000D03*
D38*
%TO.P,U3,9,PA4*%
%TO.N,unconnected-(U3-PA4-Pad9)*%
X38106000Y13092000D03*
%TO.P,U3,10,PA5*%
%TO.N,/TIM2_ETR*%
X37306000Y13092000D03*
%TO.P,U3,11,PA6*%
%TO.N,/GPIO_EXTI6*%
X36506000Y13092000D03*
%TO.P,U3,12,PA7*%
%TO.N,/GPIO_EXTI7*%
X35706000Y13092000D03*
%TO.P,U3,13,PB0*%
%TO.N,/Button*%
X34906000Y13092000D03*
%TO.P,U3,14,VSSA*%
%TO.N,GND*%
X34106000Y13092000D03*
%TO.P,U3,15,VDDA/VREF+*%
%TO.N,Net-(U3-VDDA{slash}VREF+)*%
X33306000Y13092000D03*
%TO.P,U3,16,VSS*%
%TO.N,GND*%
X32506000Y13092000D03*
D37*
%TO.P,U3,17,VDD*%
%TO.N,+3V3*%
X31126000Y14472000D03*
%TO.P,U3,18,PA8*%
%TO.N,/TIM4_ETR*%
X31126000Y15272000D03*
%TO.P,U3,19,PA9*%
%TO.N,/TXD*%
X31126000Y16072000D03*
%TO.P,U3,20,PA10*%
%TO.N,/RXD*%
X31126000Y16872000D03*
%TO.P,U3,21,PA11*%
%TO.N,/LED*%
X31126000Y17672000D03*
%TO.P,U3,22,PA12*%
%TO.N,/TIM1_ETR*%
X31126000Y18472000D03*
%TO.P,U3,23,PA13*%
%TO.N,/SWDIO*%
X31126000Y19272000D03*
%TO.P,U3,24,PA14*%
%TO.N,/SWCLK*%
X31126000Y20072000D03*
D38*
%TO.P,U3,25,PA15*%
%TO.N,/TIM8_CH1*%
X32506000Y21452000D03*
%TO.P,U3,26,PB3*%
%TO.N,/TIM3_ETR*%
X33306000Y21452000D03*
%TO.P,U3,27,PB4*%
%TO.N,/ELMAG*%
X34106000Y21452000D03*
%TO.P,U3,28,PB5*%
%TO.N,/TIM8_CH3N*%
X34906000Y21452000D03*
%TO.P,U3,29,PB6*%
%TO.N,unconnected-(U3-PB6-Pad29)*%
X35706000Y21452000D03*
%TO.P,U3,30,PB7*%
%TO.N,/GPIO_Out*%
X36506000Y21452000D03*
%TO.P,U3,31,PB8-BOOT0*%
%TO.N,/TIM8_CH2*%
X37306000Y21452000D03*
%TO.P,U3,32,VSS*%
%TO.N,GND*%
X38106000Y21452000D03*
%TD*%
D39*
%TO.P,U6,1*%
%TO.N,Net-(R29-Pad1)*%
X54178200Y3535600D03*
%TO.P,U6,2,GND*%
%TO.N,GND*%
X54178200Y4485600D03*
%TO.P,U6,3,+*%
%TO.N,/VIN*%
X54178200Y5435600D03*
%TO.P,U6,4,-*%
%TO.N,+12V*%
X56453200Y5435600D03*
%TO.P,U6,5,V+*%
%TO.N,+3V3*%
X56453200Y3535600D03*
%TD*%
D19*
%TO.P,R12,1*%
%TO.N,GND*%
X7977500Y4826000D03*
%TO.P,R12,2*%
%TO.N,/Photo/P2.A*%
X9802500Y4826000D03*
%TD*%
D40*
%TO.P,C22,1*%
%TO.N,Net-(U3-VDDA{slash}VREF+)*%
X35077400Y11174900D03*
%TO.P,C22,2*%
%TO.N,GND*%
X35077400Y9449900D03*
%TD*%
D26*
%TO.P,R36,1*%
%TO.N,/Photo/P5.GND*%
X10537200Y21031200D03*
%TO.P,R36,2*%
%TO.N,GND*%
X8712200Y21031200D03*
%TD*%
%TO.P,R41,1*%
%TO.N,Net-(U3-VDDA{slash}VREF+)*%
X31392500Y11023600D03*
%TO.P,R41,2*%
%TO.N,+3V3*%
X29567500Y11023600D03*
%TD*%
D23*
%TO.P,C19,1*%
%TO.N,Net-(C19-Pad1)*%
X44292600Y16027400D03*
%TO.P,C19,2*%
%TO.N,GND*%
X42392600Y16027400D03*
%TD*%
D26*
%TO.P,R6,1*%
%TO.N,Net-(U4-2Y)*%
X13358500Y6096000D03*
%TO.P,R6,2*%
%TO.N,/TIM2_ETR*%
X11533500Y6096000D03*
%TD*%
%TO.P,R17,1*%
%TO.N,/Photo/P1.GND*%
X10537200Y18999200D03*
%TO.P,R17,2*%
%TO.N,GND*%
X8712200Y18999200D03*
%TD*%
D41*
%TO.N,+12V*%
X66700000Y23200000D03*
X81200000Y23300000D03*
X96500000Y23300000D03*
%TO.N,GND*%
X6959600Y2260600D03*
X76428600Y15417800D03*
X92303600Y15494000D03*
X97307400Y15697200D03*
X88341200Y19837400D03*
X82753200Y15544800D03*
X8686800Y10464800D03*
X25831800Y6096000D03*
X76962000Y16205200D03*
X25831800Y3378200D03*
X88468200Y20599400D03*
X67716400Y15570200D03*
X90779600Y15468600D03*
X73558400Y19634200D03*
X6934200Y7823200D03*
X56400000Y24300000D03*
X66954400Y15544800D03*
X34112200Y14274800D03*
X99618800Y17576800D03*
X90373200Y16256000D03*
X75602720Y16634280D03*
X42392600Y15073000D03*
X58369200Y11607800D03*
X55326642Y3164293D03*
X45999400Y14122400D03*
X91973400Y16256000D03*
X103784400Y21691600D03*
X28092400Y1041400D03*
X88265000Y21310600D03*
X96621600Y15697200D03*
X74930000Y15443200D03*
X44145200Y12903200D03*
X77114400Y15392400D03*
X49580800Y17119600D03*
X43840400Y3022600D03*
X62306200Y16306800D03*
X36100000Y5200000D03*
X4200000Y10465603D03*
X73761600Y20345400D03*
X69545200Y18694400D03*
X14198600Y10007600D03*
X91516200Y15494000D03*
X42849800Y21762302D03*
X50266600Y17145000D03*
X60350400Y16270203D03*
X73736200Y21107400D03*
X89761288Y16595951D03*
X37468312Y20172000D03*
X97993200Y15671800D03*
X75133200Y16078200D03*
X45313600Y15494000D03*
X68478400Y15519400D03*
X89941400Y15494000D03*
X38735000Y7340600D03*
X82118200Y15519400D03*
X84277200Y18186400D03*
X2616200Y18948400D03*
X35876971Y9836913D03*
X32308800Y8828000D03*
X60933126Y16638474D03*
X7661395Y19091395D03*
X34800000Y5200000D03*
X55337200Y1524000D03*
X39370000Y9728200D03*
X84378800Y18872200D03*
X89484200Y15951200D03*
X69545200Y17932400D03*
X55473600Y8407400D03*
X75742800Y15417800D03*
X60350400Y15570200D03*
X83337400Y15544800D03*
X25806400Y8636000D03*
X99441000Y16789400D03*
X42875200Y22529800D03*
X61518800Y16332200D03*
X43840400Y4837000D03*
X7282400Y5635872D03*
X27800000Y20500000D03*
X91135200Y16256000D03*
X37000000Y6000000D03*
X61849000Y15570200D03*
X69545200Y17246600D03*
X7688635Y21404635D03*
X76174600Y16230600D03*
X99593400Y18288000D03*
X26400000Y14700000D03*
X25755600Y1814600D03*
X41427400Y12928600D03*
X2616200Y20980400D03*
X62560200Y15519400D03*
X57607200Y10185400D03*
X31800800Y13092000D03*
X84251800Y17449800D03*
X103886000Y20980400D03*
X103784400Y20142200D03*
X77673200Y15951200D03*
X61112400Y15570200D03*
%TO.N,+12V*%
X74766202Y19869334D03*
X75069700Y20485100D03*
X90068400Y20204197D03*
X58978800Y20980400D03*
X59537600Y20635997D03*
X75463905Y19926016D03*
X90525600Y21336000D03*
X57683400Y4318000D03*
X59537600Y21336000D03*
X90068400Y20904200D03*
%TO.N,+3V3*%
X13050985Y19350185D03*
X28346400Y14503400D03*
X13052765Y21612565D03*
X28346400Y18567400D03*
%TO.N,/ADC1_IN1*%
X50927000Y6969100D03*
X49961252Y5569100D03*
X40894000Y16865600D03*
X40894000Y15377330D03*
%TO.N,/NRST*%
X32494135Y20132600D03*
X29445000Y20929600D03*
%TO.N,/TIM15_CH2*%
X46008964Y11171793D03*
X47961072Y11486672D03*
%TO.N,/TIM15_CH1*%
X45443985Y11738185D03*
X47421800Y12080800D03*
%TO.N,/ELMAG*%
X46050200Y22362302D03*
X34099822Y22685523D03*
%TO.N,/TIM8_CH3N*%
X36092693Y22733707D03*
X45466000Y21762302D03*
%TO.N,/Photo/P4.A*%
X12268200Y15312398D03*
X15757345Y15290800D03*
%TO.N,/TIM1_ETR*%
X28397200Y13385800D03*
X25492000Y13360400D03*
X29136195Y18440014D03*
X24282400Y13335000D03*
X19209351Y10522551D03*
X18008600Y8432800D03*
%TO.N,/TIM2_ETR*%
X37020288Y7414434D03*
X10871200Y1800000D03*
X26162000Y939800D03*
X10600000Y5994400D03*
X37058600Y8828000D03*
X21894800Y914400D03*
%TO.N,/TIM3_ETR*%
X18104452Y11627451D03*
X15186779Y11097379D03*
X24257000Y15860800D03*
X33442812Y20208800D03*
%TO.N,/GPIO_EXTI6*%
X36220400Y7428000D03*
X31357800Y6998025D03*
X36245800Y8828000D03*
X29556800Y6985000D03*
%TO.N,/GPIO_EXTI7*%
X30328250Y8128000D03*
X31279775Y9156375D03*
%TO.N,/LED*%
X25831800Y16586200D03*
X27355800Y17653000D03*
%TO.N,/Button*%
X37500000Y18800000D03*
X40025307Y21469507D03*
%TO.N,/TIM8_CH1*%
X86070527Y25200000D03*
X33099396Y22780604D03*
%TO.N,/TIM8_CH2*%
X38568400Y22809200D03*
X40806941Y21162302D03*
%TO.N,/VIN*%
X51181000Y1625600D03*
%TD*%
D42*
%TO.N,GND*%
X38106000Y20809688D02*
X38106000Y21452000D01*
X37468312Y20172000D02*
X38106000Y20809688D01*
%TO.N,/Button*%
X45798600Y23400000D02*
X46761400Y24362800D01*
X40055800Y21921960D02*
X41533840Y23400000D01*
X41533840Y23400000D02*
X45798600Y23400000D01*
X40055800Y21500000D02*
X40055800Y21921960D01*
X40025307Y21469507D02*
X40055800Y21500000D01*
%TO.N,Net-(R27-Pad1)*%
X92710000Y17959700D02*
X92534100Y18135600D01*
D43*
X92710000Y16790000D02*
X92710000Y17959700D01*
X94133000Y15367000D02*
X92710000Y16790000D01*
D42*
X94328000Y15367000D02*
X94133000Y15367000D01*
%TO.N,Net-(R20-Pad2)*%
X80137000Y12827000D02*
X79596000Y12827000D01*
X81026000Y16002000D02*
X81026000Y13716000D01*
X81026000Y13716000D02*
X80137000Y12827000D01*
X80772000Y16256000D02*
X81026000Y16002000D01*
X79644000Y16256000D02*
X80772000Y16256000D01*
X78490500Y17409500D02*
X79644000Y16256000D01*
X78490500Y19045500D02*
X78490500Y17409500D01*
X77216000Y20320000D02*
X78490500Y19045500D01*
%TO.N,Net-(R1-Pad2)*%
X66200000Y13400000D02*
X65373000Y12573000D01*
X66200000Y15600000D02*
X66200000Y13400000D01*
X65798000Y16002000D02*
X66200000Y15600000D01*
X64770000Y16002000D02*
X65798000Y16002000D01*
X64003500Y16768500D02*
X64770000Y16002000D01*
X64003500Y18753500D02*
X64003500Y16768500D01*
X65373000Y12573000D02*
X64798000Y12573000D01*
X62484000Y20273000D02*
X64003500Y18753500D01*
D44*
%TO.N,/Mosfets/M3*%
X80002000Y8302000D02*
X79676000Y8302000D01*
X84996000Y11557000D02*
X84670000Y11231000D01*
X82931000Y11231000D02*
X80002000Y8302000D01*
X84670000Y11231000D02*
X82931000Y11231000D01*
D45*
X79676000Y8302000D02*
X78498000Y8302000D01*
D44*
%TO.N,+12V*%
X70560000Y3302000D02*
X70600000Y3262000D01*
X63500000Y3302000D02*
X70560000Y3302000D01*
X78458000Y3262000D02*
X78498000Y3302000D01*
X70600000Y3262000D02*
X78458000Y3262000D01*
X78498000Y3302000D02*
X85598000Y3302000D01*
X93444000Y3302000D02*
X93484000Y3342000D01*
X85598000Y3302000D02*
X93444000Y3302000D01*
X93484000Y3342000D02*
X100584000Y3342000D01*
D45*
%TO.N,/Mosfets/M4*%
X86900000Y9604000D02*
X85598000Y8302000D01*
D44*
X86900000Y13463000D02*
X86900000Y9604000D01*
X84996000Y15367000D02*
X86900000Y13463000D01*
D45*
%TO.N,+12V*%
X88900000Y14300000D02*
X88900000Y12993000D01*
X88383200Y14816800D02*
X88900000Y14300000D01*
X88900000Y12993000D02*
X90805000Y11088000D01*
X88383200Y17954934D02*
X88383200Y14816800D01*
X90068400Y20904200D02*
X90068400Y19640134D01*
X90068400Y19640134D02*
X88383200Y17954934D01*
D44*
%TO.N,/Mosfets/M5*%
X99259400Y11088400D02*
X97688400Y11088400D01*
X94952000Y8352000D02*
X94483400Y8352000D01*
X99728000Y11557000D02*
X99259400Y11088400D01*
X97688400Y11088400D02*
X94952000Y8352000D01*
D45*
X94483400Y8352000D02*
X92341000Y8352000D01*
D46*
%TO.N,+12V*%
X66700000Y22050000D02*
X66700000Y23200000D01*
X65605000Y20955000D02*
X66700000Y22050000D01*
X64798000Y20955000D02*
X65605000Y20955000D01*
D42*
%TO.N,/TIM15_CH1*%
X69554000Y22869000D02*
X70198000Y22225000D01*
X67100000Y23900000D02*
X68131000Y22869000D01*
X66300000Y23900000D02*
X67100000Y23900000D01*
X66000000Y23600000D02*
X66300000Y23900000D01*
X66000000Y23100000D02*
X66000000Y23600000D01*
X65769000Y22869000D02*
X66000000Y23100000D01*
X63747000Y22869000D02*
X65769000Y22869000D01*
X63747000Y22911500D02*
X63747000Y22869000D01*
X58302000Y22911500D02*
X63747000Y22911500D01*
X56147700Y20757200D02*
X58302000Y22911500D01*
X56012400Y20757200D02*
X56147700Y20757200D01*
X49707800Y14452600D02*
X56012400Y20757200D01*
X49707800Y14426777D02*
X49707800Y14452600D01*
X49687800Y14406777D02*
X49707800Y14426777D01*
X49687800Y12705400D02*
X49687800Y14406777D01*
X48038408Y12259276D02*
X49241676Y12259276D01*
X48037408Y12260276D02*
X48038408Y12259276D01*
X47538522Y12259276D02*
X47539522Y12260276D01*
X49241676Y12259276D02*
X49687800Y12705400D01*
X47538522Y12197522D02*
X47538522Y12259276D01*
X68131000Y22869000D02*
X69554000Y22869000D01*
X47421800Y12080800D02*
X47538522Y12197522D01*
X47539522Y12260276D02*
X48037408Y12260276D01*
D46*
%TO.N,+12V*%
X81200000Y22006000D02*
X81200000Y23300000D01*
X80403000Y21209000D02*
X81200000Y22006000D01*
X79596000Y21209000D02*
X80403000Y21209000D01*
X96500000Y22066000D02*
X96500000Y23300000D01*
X95643000Y21209000D02*
X96500000Y22066000D01*
X94836000Y21209000D02*
X95643000Y21209000D01*
D42*
%TO.N,/ELMAG*%
X55981600Y22326600D02*
X46085902Y22326600D01*
X58055000Y24400000D02*
X55981600Y22326600D01*
X62200000Y24400000D02*
X58055000Y24400000D01*
X63199000Y25399000D02*
X62200000Y24400000D01*
X88985200Y24375000D02*
X86047000Y24375000D01*
X86047000Y24375000D02*
X85023000Y25399000D01*
X89110200Y24500000D02*
X88985200Y24375000D01*
X85023000Y25399000D02*
X63199000Y25399000D01*
X98777000Y23123000D02*
X97400000Y24500000D01*
X46085902Y22326600D02*
X46050200Y22362302D01*
X97400000Y24500000D02*
X89110200Y24500000D01*
X99592000Y23123000D02*
X98777000Y23123000D01*
X100236000Y22479000D02*
X99592000Y23123000D01*
D47*
%TO.N,GND*%
X92329000Y14097000D02*
X92270000Y14038000D01*
D43*
X43840400Y4837000D02*
X43840400Y5199800D01*
D46*
X61212526Y16638474D02*
X61518800Y16332200D01*
D42*
X55337200Y1524000D02*
X54533800Y1524000D01*
D46*
X99618800Y17576800D02*
X98435200Y17576800D01*
D42*
X3610600Y11055003D02*
X3610600Y11658600D01*
D46*
X73736200Y22021800D02*
X73939400Y22225000D01*
X90779600Y14063400D02*
X90805000Y14038000D01*
X69545200Y17246600D02*
X68727400Y17246600D01*
D42*
X27800000Y20180600D02*
X28087400Y19893200D01*
D47*
X98232000Y17780000D02*
X98232000Y20755000D01*
D42*
X24939000Y3810000D02*
X25370800Y3378200D01*
D47*
X83989000Y21209000D02*
X84996000Y21209000D01*
D43*
X42569102Y22043000D02*
X42849800Y21762302D01*
X60960000Y14126000D02*
X61188600Y14354600D01*
D46*
X99441000Y16789400D02*
X99222600Y16789400D01*
D43*
X86637500Y21209000D02*
X87122000Y20724500D01*
X99060000Y21199000D02*
X100226000Y21199000D01*
X42849800Y21762302D02*
X43789102Y21762302D01*
D47*
X77724000Y13970000D02*
X77724000Y12700000D01*
D46*
X68854400Y17932400D02*
X68448000Y17526000D01*
X103784400Y21691600D02*
X103784400Y22533600D01*
X60350400Y15570200D02*
X60350400Y14735600D01*
X75742800Y15798800D02*
X76174600Y16230600D01*
X72703100Y20345400D02*
X72578000Y20470500D01*
X91135200Y16256000D02*
X91135200Y15875000D01*
X103784400Y22533600D02*
X103958400Y22707600D01*
D43*
X41688000Y22043000D02*
X42569102Y22043000D01*
D46*
X68727400Y17246600D02*
X68448000Y17526000D01*
D42*
X52679600Y9535200D02*
X52527200Y9687600D01*
D47*
X63791000Y11303000D02*
X64798000Y11303000D01*
D43*
X58369200Y10764600D02*
X58369200Y11607800D01*
D42*
X7977500Y2286000D02*
X6985000Y2286000D01*
D46*
X60669403Y15951200D02*
X60731400Y15951200D01*
D42*
X32472400Y8991600D02*
X32928600Y8991600D01*
D46*
X84251800Y17449800D02*
X83510200Y17449800D01*
X61112400Y15570200D02*
X61112400Y14278400D01*
X102948100Y20978500D02*
X103784400Y20142200D01*
X73736200Y21107400D02*
X73214900Y21107400D01*
D47*
X98232000Y20755000D02*
X98686000Y21209000D01*
D42*
X32928600Y8991600D02*
X33248600Y9311600D01*
D46*
X60731400Y15951200D02*
X61112400Y15570200D01*
X62560200Y15519400D02*
X62560200Y13919200D01*
X88341200Y19837400D02*
X88009100Y19837400D01*
X73761600Y20345400D02*
X72703100Y20345400D01*
X90373200Y15875000D02*
X90779600Y15468600D01*
D43*
X42875200Y22529800D02*
X42875200Y21787702D01*
D46*
X75602720Y16634280D02*
X75602720Y15989680D01*
X61518800Y16332200D02*
X61518800Y15900400D01*
D42*
X55473600Y8407400D02*
X55092600Y8407400D01*
X54533800Y1524000D02*
X54508400Y1498600D01*
D46*
X75742800Y15849600D02*
X75742800Y15417800D01*
D42*
X34106000Y13092000D02*
X34106000Y14268600D01*
D46*
X102616000Y20978500D02*
X103884100Y20978500D01*
X61849000Y15015000D02*
X60960000Y14126000D01*
D47*
X98686000Y21209000D02*
X100236000Y21209000D01*
D46*
X90101239Y16256000D02*
X89761288Y16595951D01*
X76428600Y15417800D02*
X76428600Y14774600D01*
X91973400Y15824200D02*
X92303600Y15494000D01*
D47*
X94328000Y14097000D02*
X92329000Y14097000D01*
X62484000Y13843000D02*
X61243000Y13843000D01*
D46*
X61112400Y14278400D02*
X60960000Y14126000D01*
X54437200Y1498600D02*
X55341700Y2403100D01*
D43*
X43844000Y5203400D02*
X43844000Y6096000D01*
D46*
X73414300Y19634200D02*
X72578000Y20470500D01*
D47*
X68448000Y20188000D02*
X69215000Y20955000D01*
D46*
X62560200Y13919200D02*
X62484000Y13843000D01*
X60933126Y16638474D02*
X60564854Y16270203D01*
X77114400Y14258400D02*
X76894000Y14038000D01*
X74930000Y15748000D02*
X74930000Y15443200D01*
X55341700Y2403100D02*
X55341700Y3111790D01*
D42*
X7977500Y4826000D02*
X7977500Y4940772D01*
D47*
X92329000Y12549000D02*
X93321000Y11557000D01*
D42*
X45999400Y14122400D02*
X46659800Y13462000D01*
D46*
X68575000Y18694400D02*
X68448000Y18567400D01*
X75133200Y15951200D02*
X74930000Y15748000D01*
X27276000Y14489000D02*
X26611000Y14489000D01*
D47*
X92329000Y14097000D02*
X92329000Y12549000D01*
D46*
X87708100Y21310600D02*
X87122000Y20724500D01*
D43*
X84996000Y21209000D02*
X86637500Y21209000D01*
D46*
X60933126Y16638474D02*
X61212526Y16638474D01*
X89941400Y15494000D02*
X89941400Y14901600D01*
D42*
X54508400Y1498600D02*
X54437200Y1498600D01*
X54532668Y4485600D02*
X54178200Y4485600D01*
D46*
X84378800Y18872200D02*
X83205400Y18872200D01*
D47*
X77851000Y14097000D02*
X77724000Y13970000D01*
D42*
X24939000Y8636000D02*
X25806400Y8636000D01*
D43*
X102395500Y21199000D02*
X102616000Y20978500D01*
D46*
X84277200Y18186400D02*
X83586400Y18186400D01*
X98740000Y18288000D02*
X98232000Y17780000D01*
D42*
X55326642Y3164293D02*
X55316072Y3174863D01*
D43*
X42875200Y21787702D02*
X42849800Y21762302D01*
X43840400Y2420200D02*
X43844000Y2416600D01*
D42*
X8062070Y21031200D02*
X7688635Y21404635D01*
D43*
X99060000Y21199000D02*
X102395500Y21199000D01*
D46*
X83510200Y17449800D02*
X83180000Y17780000D01*
D42*
X34106000Y14268600D02*
X34112200Y14274800D01*
D47*
X77851000Y14097000D02*
X76894000Y14038000D01*
D46*
X83586400Y18186400D02*
X83180000Y17780000D01*
X90373200Y16256000D02*
X90101239Y16256000D01*
X88265000Y21310600D02*
X87708100Y21310600D01*
D47*
X79596000Y14097000D02*
X77851000Y14097000D01*
D42*
X8712200Y18999200D02*
X7753590Y18999200D01*
D46*
X74930000Y14800000D02*
X75692000Y14038000D01*
X74930000Y15443200D02*
X74930000Y14800000D01*
X60350400Y14735600D02*
X60960000Y14126000D01*
D47*
X83180000Y18897600D02*
X83180000Y20400000D01*
D46*
X62306200Y16306800D02*
X62306200Y15773400D01*
D42*
X14300200Y9906000D02*
X14198600Y10007600D01*
D46*
X75742800Y15417800D02*
X75742800Y15798800D01*
D47*
X83180000Y17780000D02*
X83180000Y18897600D01*
D46*
X69545200Y17932400D02*
X68854400Y17932400D01*
X75742800Y14088800D02*
X75692000Y14038000D01*
X103329100Y21691600D02*
X103784400Y21691600D01*
X87247100Y20599400D02*
X87122000Y20724500D01*
D42*
X32308800Y8828000D02*
X32472400Y8991600D01*
D43*
X43840400Y3022600D02*
X43840400Y2420200D01*
D46*
X61518800Y15900400D02*
X61849000Y15570200D01*
D42*
X25420400Y1727200D02*
X24963200Y1270000D01*
D46*
X76428600Y15671800D02*
X76962000Y16205200D01*
X55337200Y2398600D02*
X55341700Y2403100D01*
D42*
X28087400Y19893200D02*
X28905200Y19893200D01*
D47*
X78867000Y11557000D02*
X79596000Y11557000D01*
D42*
X15813000Y9906000D02*
X14300200Y9906000D01*
D46*
X103884100Y20978500D02*
X103886000Y20980400D01*
D42*
X7977500Y4940772D02*
X7282400Y5635872D01*
D46*
X89484200Y16318863D02*
X89484200Y15951200D01*
D42*
X3632200Y20980400D02*
X2616200Y20980400D01*
D43*
X42875200Y22529800D02*
X43362800Y22042200D01*
D42*
X54639200Y9448800D02*
X54552800Y9535200D01*
X42392600Y15073000D02*
X42392600Y16027400D01*
D46*
X88265000Y22127200D02*
X88616800Y22479000D01*
D43*
X100226000Y21199000D02*
X100236000Y21209000D01*
D42*
X54639200Y8860800D02*
X54639200Y9448800D01*
D46*
X75602720Y15989680D02*
X75742800Y15849600D01*
D43*
X38709600Y7315200D02*
X38735000Y7340600D01*
D42*
X8712200Y21031200D02*
X8062070Y21031200D01*
D46*
X99222600Y16789400D02*
X98232000Y17780000D01*
D42*
X25370800Y3378200D02*
X25831800Y3378200D01*
D46*
X91973400Y16256000D02*
X91973400Y15824200D01*
X62306200Y15773400D02*
X62560200Y15519400D01*
D47*
X62484000Y12610000D02*
X63791000Y11303000D01*
X83180000Y20400000D02*
X83989000Y21209000D01*
D46*
X89941400Y15494000D02*
X89484200Y15951200D01*
D42*
X25755600Y1814600D02*
X25668200Y1727200D01*
X46659800Y13462000D02*
X46751200Y13462000D01*
D46*
X60350400Y16270203D02*
X60669403Y15951200D01*
D42*
X55316072Y3702196D02*
X54532668Y4485600D01*
D43*
X44126400Y12922000D02*
X44145200Y12903200D01*
D46*
X91135200Y15875000D02*
X91516200Y15494000D01*
D42*
X6985000Y2286000D02*
X6959600Y2260600D01*
X25668200Y1727200D02*
X25420400Y1727200D01*
D46*
X73214900Y21107400D02*
X72578000Y20470500D01*
D43*
X42388400Y22043000D02*
X42875200Y22529800D01*
D46*
X102616000Y20978500D02*
X102948100Y20978500D01*
D47*
X64798000Y13843000D02*
X62484000Y13843000D01*
D46*
X88468200Y20599400D02*
X87247100Y20599400D01*
D47*
X69215000Y20955000D02*
X70198000Y20955000D01*
D42*
X35163575Y9536075D02*
X35077400Y9449900D01*
D46*
X88009100Y19837400D02*
X87122000Y20724500D01*
D47*
X76894000Y14038000D02*
X75692000Y14038000D01*
D46*
X75742800Y15417800D02*
X75742800Y14088800D01*
D42*
X46347200Y15532200D02*
X45351800Y15532200D01*
X49568200Y17132200D02*
X49580800Y17119600D01*
D46*
X73558400Y19634200D02*
X73414300Y19634200D01*
D42*
X45351800Y15532200D02*
X45313600Y15494000D01*
X27800000Y20700000D02*
X27800000Y20180600D01*
D46*
X61849000Y15570200D02*
X61849000Y15015000D01*
D47*
X68448000Y17526000D02*
X68448000Y18567400D01*
D42*
X3632200Y18948400D02*
X2616200Y18948400D01*
X54552800Y9535200D02*
X52679600Y9535200D01*
X24939000Y6096000D02*
X25831800Y6096000D01*
D46*
X76428600Y14774600D02*
X75692000Y14038000D01*
X69545200Y18694400D02*
X68575000Y18694400D01*
D47*
X68448000Y18567400D02*
X68448000Y20188000D01*
D43*
X43362800Y22042200D02*
X44069000Y22042200D01*
X43844000Y2416600D02*
X43844000Y1778000D01*
D46*
X73736200Y21107400D02*
X73736200Y22021800D01*
D42*
X8690600Y10468600D02*
X8686800Y10464800D01*
X8690600Y11658600D02*
X8690600Y10468600D01*
D43*
X41688000Y22043000D02*
X42388400Y22043000D01*
X72093500Y20955000D02*
X70198000Y20955000D01*
D46*
X89761288Y16595951D02*
X89484200Y16318863D01*
X83205400Y18872200D02*
X83180000Y18897600D01*
D42*
X32004000Y23901400D02*
X32004000Y24282400D01*
D47*
X92270000Y14038000D02*
X90805000Y14038000D01*
D46*
X55337200Y1524000D02*
X55337200Y2398600D01*
X98435200Y17576800D02*
X98232000Y17780000D01*
X90779600Y15468600D02*
X90779600Y14063400D01*
X99593400Y18288000D02*
X98740000Y18288000D01*
X90373200Y16256000D02*
X90373200Y15875000D01*
D43*
X43840400Y5199800D02*
X43844000Y5203400D01*
D42*
X7753590Y18999200D02*
X7661395Y19091395D01*
X55092600Y8407400D02*
X54639200Y8860800D01*
X4200000Y10465603D02*
X3610600Y11055003D01*
D46*
X75133200Y16078200D02*
X75133200Y15951200D01*
D42*
X31800800Y13092000D02*
X32506000Y13092000D01*
X7391400Y7366000D02*
X6934200Y7823200D01*
D46*
X91516200Y15494000D02*
X91516200Y14749200D01*
D43*
X43789102Y21762302D02*
X44069000Y22042200D01*
D42*
X35876971Y9836913D02*
X35576133Y9536075D01*
X7977500Y7366000D02*
X7391400Y7366000D01*
D46*
X77114400Y15392400D02*
X77673200Y15951200D01*
D42*
X48547200Y17132200D02*
X49568200Y17132200D01*
D46*
X77114400Y15392400D02*
X77114400Y14258400D01*
D47*
X62484000Y13843000D02*
X62484000Y12610000D01*
D43*
X38709600Y6070600D02*
X38709600Y7315200D01*
D42*
X55316072Y3174863D02*
X55316072Y3702196D01*
D46*
X60350400Y16270203D02*
X60350400Y15570200D01*
X92303600Y15494000D02*
X92303600Y14122400D01*
X76428600Y15417800D02*
X76428600Y15671800D01*
X92303600Y14122400D02*
X92329000Y14097000D01*
X60564854Y16270203D02*
X60350400Y16270203D01*
X88265000Y21310600D02*
X88265000Y22127200D01*
D47*
X61243000Y13843000D02*
X60960000Y14126000D01*
D43*
X72578000Y20470500D02*
X72093500Y20955000D01*
D47*
X93321000Y11557000D02*
X94328000Y11557000D01*
D46*
X89941400Y14901600D02*
X90805000Y14038000D01*
D47*
X77724000Y12700000D02*
X78867000Y11557000D01*
D42*
X35576133Y9536075D02*
X35163575Y9536075D01*
D46*
X26611000Y14489000D02*
X26400000Y14700000D01*
X102616000Y20978500D02*
X103329100Y21691600D01*
D43*
X60960000Y14126000D02*
X61041905Y14126000D01*
X42926000Y12922000D02*
X44126400Y12922000D01*
D46*
X91516200Y14749200D02*
X90805000Y14038000D01*
D45*
%TO.N,+12V*%
X62898000Y3302000D02*
X63500000Y3302000D01*
X90068400Y20904200D02*
X90093800Y20904200D01*
D44*
X60121800Y6078200D02*
X62898000Y3302000D01*
D45*
X75692000Y11088000D02*
X73829000Y12951000D01*
D47*
X66139364Y21012000D02*
X64798000Y21012000D01*
D44*
X89662000Y6164000D02*
X92484000Y3342000D01*
D45*
X73829000Y12951000D02*
X73829000Y17690734D01*
D43*
X59455700Y5412100D02*
X60121800Y6078200D01*
D44*
X74676000Y6522000D02*
X77896000Y3302000D01*
D47*
X96332000Y20720000D02*
X95843000Y21209000D01*
X96332000Y17780000D02*
X96332000Y20720000D01*
X81223000Y21266000D02*
X79596000Y21266000D01*
X81779938Y18279938D02*
X81779938Y20709062D01*
X81779938Y20709062D02*
X81223000Y21266000D01*
D45*
X92484000Y3342000D02*
X93484000Y3342000D01*
D47*
X67047938Y18025938D02*
X67047938Y20103426D01*
D45*
X77896000Y3302000D02*
X78498000Y3302000D01*
X60960000Y11176000D02*
X60121800Y10337800D01*
D47*
X67047938Y20103426D02*
X66139364Y21012000D01*
D46*
X56565800Y5435600D02*
X57683400Y4318000D01*
D45*
X60121800Y10337800D02*
X60121800Y6078200D01*
D46*
X56453200Y5435600D02*
X56565800Y5435600D01*
D45*
X60960000Y11176000D02*
X59249400Y12886600D01*
X73829000Y17690734D02*
X75107800Y18969534D01*
X75692000Y11088000D02*
X75682000Y11088000D01*
X90093800Y20904200D02*
X90525600Y21336000D01*
X90805000Y11088000D02*
X89662000Y9945000D01*
X59249400Y20819200D02*
X59283600Y20853400D01*
D47*
X95843000Y21209000D02*
X94836000Y21209000D01*
D45*
X75107800Y18969534D02*
X75107800Y19989800D01*
D47*
X66548000Y17526000D02*
X67047938Y18025938D01*
D43*
X58369200Y5412100D02*
X59455700Y5412100D01*
D44*
X74676000Y10082000D02*
X74676000Y6522000D01*
X89662000Y9945000D02*
X89662000Y6164000D01*
D45*
X59249400Y12886600D02*
X59249400Y20819200D01*
D47*
X81280000Y17780000D02*
X81779938Y18279938D01*
D45*
X75682000Y11088000D02*
X74676000Y10082000D01*
D47*
%TO.N,Net-(IC3-VIN)*%
X38989000Y1778000D02*
X38709600Y1498600D01*
X40798500Y1873500D02*
X40894000Y1778000D01*
D43*
X40614600Y1498600D02*
X40894000Y1778000D01*
D47*
X40798500Y3937000D02*
X40798500Y1873500D01*
D43*
X40894000Y3841500D02*
X40798500Y3937000D01*
D47*
X40894000Y1778000D02*
X38989000Y1778000D01*
D43*
%TO.N,+3V3*%
X15087600Y25044400D02*
X13081000Y23037800D01*
X39268400Y20289600D02*
X39486000Y20072000D01*
X13081000Y14122400D02*
X13081000Y16662400D01*
X30657800Y7467600D02*
X31318200Y8128000D01*
X55321200Y5738488D02*
X55321200Y4667600D01*
X29176000Y11415100D02*
X29567500Y11023600D01*
X13081000Y23037800D02*
X13081000Y21640800D01*
X29176000Y14489000D02*
X28360800Y14489000D01*
X13050985Y19350185D02*
X13050985Y16692415D01*
X13106400Y14097000D02*
X13081000Y14122400D01*
X41617000Y20072000D02*
X41688000Y20143000D01*
X40894000Y6096000D02*
X40894000Y5715000D01*
X29567500Y11092000D02*
X29567500Y11023600D01*
X29176000Y14489000D02*
X29176000Y11415100D01*
X40894000Y6096000D02*
X40894000Y6996000D01*
X40894000Y6996000D02*
X39762000Y8128000D01*
X23063200Y1270000D02*
X24307800Y2514600D01*
X25472400Y25044400D02*
X15087600Y25044400D01*
X13081000Y21640800D02*
X13052765Y21612565D01*
X31109000Y14489000D02*
X31126000Y14472000D01*
X40894000Y5700400D02*
X40894000Y6096000D01*
X40894000Y6890000D02*
X42926000Y8922000D01*
X31318200Y8128000D02*
X29567500Y9878700D01*
X28360800Y14489000D02*
X28346400Y14503400D01*
X38963600Y3784600D02*
X38709600Y3784600D01*
X38709600Y3784600D02*
X38978200Y3784600D01*
X39672900Y24282400D02*
X39342700Y23952200D01*
X55321200Y4667600D02*
X56453200Y3535600D01*
X40894000Y6096000D02*
X40894000Y6890000D01*
X26898600Y23618200D02*
X25472400Y25044400D01*
X37995900Y25299000D02*
X39342700Y23952200D01*
X44820000Y6639000D02*
X45189900Y6269100D01*
X30657800Y6197600D02*
X30657800Y7467600D01*
X28346400Y18567400D02*
X25797600Y21116200D01*
D45*
X32435800Y3784600D02*
X32410400Y3810000D01*
D43*
X28371800Y2514600D02*
X29489400Y3632200D01*
X26898600Y23618200D02*
X28579400Y25299000D01*
X29489400Y5029200D02*
X30657800Y6197600D01*
X28579400Y25299000D02*
X37995900Y25299000D01*
X13050985Y16692415D02*
X13081000Y16662400D01*
X25797600Y22517200D02*
X26898600Y23618200D01*
X39486000Y20072000D02*
X41617000Y20072000D01*
X13106400Y14097000D02*
X13106400Y14046200D01*
X44068200Y20143000D02*
X44069000Y20142200D01*
X22047200Y2286000D02*
X23063200Y1270000D01*
X20763000Y2286000D02*
X22047200Y2286000D01*
X29489400Y3632200D02*
X29489400Y5029200D01*
X29176000Y14489000D02*
X31109000Y14489000D01*
X24307800Y2514600D02*
X28371800Y2514600D01*
X56453200Y1614600D02*
X56337200Y1498600D01*
X44820000Y7028000D02*
X44820000Y6639000D01*
D45*
X38709600Y3784600D02*
X32435800Y3784600D01*
D43*
X54790588Y6269100D02*
X55321200Y5738488D01*
X39762000Y8128000D02*
X31318200Y8128000D01*
X39342700Y23952200D02*
X39268400Y23877900D01*
X41688000Y20143000D02*
X44068200Y20143000D01*
X25797600Y21116200D02*
X25797600Y22517200D01*
X56453200Y3535600D02*
X56453200Y1614600D01*
X29567500Y9878700D02*
X29567500Y11023600D01*
X42926000Y8922000D02*
X44820000Y7028000D01*
X39268400Y23877900D02*
X39268400Y20289600D01*
X45189900Y6269100D02*
X54790588Y6269100D01*
X40894000Y5715000D02*
X38963600Y3784600D01*
D42*
%TO.N,/ADC1_IN1*%
X44127000Y14473000D02*
X41798330Y14473000D01*
X46772779Y11259335D02*
X46769952Y11259335D01*
X50520640Y10183000D02*
X47849114Y10183000D01*
X46185054Y11844233D02*
X46185054Y11847060D01*
X50174752Y5355600D02*
X51892200Y5355600D01*
X51708700Y6969100D02*
X52527200Y7787600D01*
X46769952Y11259335D02*
X46185054Y11844233D01*
X52527200Y7787600D02*
X51501200Y8813600D01*
X47849114Y10183000D02*
X46772779Y11259335D01*
X50927000Y6969100D02*
X51708700Y6969100D01*
X51501200Y8813600D02*
X51501200Y9202440D01*
X39486000Y16872000D02*
X40887600Y16872000D01*
X40887600Y16872000D02*
X40894000Y16865600D01*
X51501200Y9202440D02*
X50520640Y10183000D01*
X41798330Y14473000D02*
X40894000Y15377330D01*
X46185054Y11847060D02*
X44127000Y13905114D01*
X49961252Y5569100D02*
X50174752Y5355600D01*
X44127000Y13905114D02*
X44127000Y14473000D01*
%TO.N,/NRST*%
X29464000Y22352000D02*
X29464000Y24282400D01*
X28905200Y21469400D02*
X29445000Y20929600D01*
X32494135Y20132600D02*
X32494135Y20083865D01*
X38706000Y17672000D02*
X39486000Y17672000D01*
X28905200Y21793200D02*
X29464000Y22352000D01*
X33178000Y19400000D02*
X37800000Y19400000D01*
X37800000Y19400000D02*
X38300000Y18900000D01*
X38300000Y18900000D02*
X38300000Y18078000D01*
X38300000Y18078000D02*
X38706000Y17672000D01*
X28905200Y21793200D02*
X28905200Y21469400D01*
X32494135Y20083865D02*
X33178000Y19400000D01*
X28905200Y21793200D02*
X26898600Y21793200D01*
D43*
%TO.N,Net-(U3-VDDA{slash}VREF+)*%
X31392500Y11023600D02*
X31392500Y11028000D01*
X35077400Y11201400D02*
X35077400Y11174900D01*
X33248600Y11211600D02*
X33285000Y11248000D01*
X33212200Y11248000D02*
X33248600Y11211600D01*
X35030800Y11248000D02*
X35077400Y11201400D01*
X33248600Y11211600D02*
X33306000Y11269000D01*
X31392500Y11028000D02*
X31612500Y11248000D01*
X35077400Y11174900D02*
X33285300Y11174900D01*
X33306000Y11269000D02*
X33306000Y13092000D01*
X33285300Y11174900D02*
X33248600Y11211600D01*
X31392500Y11023600D02*
X31580500Y11211600D01*
X31580500Y11211600D02*
X33248600Y11211600D01*
D42*
%TO.N,/OSC_IN*%
X48245200Y15532200D02*
X48547200Y15532200D01*
X47421800Y16355600D02*
X48245200Y15532200D01*
X39486000Y19272000D02*
X45512308Y19272000D01*
X45512308Y19272000D02*
X46609000Y18175308D01*
X46609000Y18175308D02*
X46609000Y18161000D01*
X47220400Y18161000D02*
X47421800Y17959600D01*
X47421800Y17959600D02*
X47421800Y16355600D01*
X48651200Y13462000D02*
X48651200Y15428200D01*
X46609000Y18161000D02*
X47220400Y18161000D01*
X48651200Y15428200D02*
X48547200Y15532200D01*
%TO.N,Net-(C19-Pad1)*%
X45397400Y17132200D02*
X44292600Y16027400D01*
X46347200Y17132200D02*
X45248300Y17132200D01*
X46347200Y17132200D02*
X45397400Y17132200D01*
X45248300Y17132200D02*
X44270300Y18110200D01*
D43*
%TO.N,/ADC1_IN2*%
X58369200Y7237100D02*
X58369200Y8864600D01*
D42*
X44293100Y14874000D02*
X44528000Y14639100D01*
X43193600Y16737560D02*
X43193600Y15317240D01*
X55329000Y10584000D02*
X56464200Y9448800D01*
X43193600Y15317240D02*
X43636840Y14874000D01*
X39486000Y16072000D02*
X41345000Y16072000D01*
X46586054Y12115986D02*
X46586054Y12010333D01*
X41591600Y16318600D02*
X41591600Y16737560D01*
D43*
X58369200Y8864600D02*
X57048400Y8864600D01*
D42*
X41345000Y16072000D02*
X41591600Y16318600D01*
X46588881Y12010333D02*
X46586054Y12010333D01*
X44528000Y14639100D02*
X44528000Y14174040D01*
X48015214Y10584000D02*
X55329000Y10584000D01*
X41591600Y16737560D02*
X41907440Y17053400D01*
X41907440Y17053400D02*
X42877760Y17053400D01*
X48015214Y10584000D02*
X46588881Y12010333D01*
X43636840Y14874000D02*
X44293100Y14874000D01*
X44528000Y14174040D02*
X46586054Y12115986D01*
D43*
X57048400Y8864600D02*
X56464200Y9448800D01*
D42*
X42877760Y17053400D02*
X43193600Y16737560D01*
D45*
%TO.N,/Mosfets/M1*%
X67945000Y11303000D02*
X64944000Y8302000D01*
X64944000Y8302000D02*
X63500000Y8302000D01*
X70198000Y11303000D02*
X67945000Y11303000D01*
X70198000Y12573000D02*
X70198000Y11303000D01*
%TO.N,/Mosfets/M2*%
X71805800Y13505200D02*
X71805800Y10337800D01*
X70600000Y9132000D02*
X70600000Y8262000D01*
X71805800Y10337800D02*
X70600000Y9132000D01*
X70198000Y15113000D02*
X71805800Y13505200D01*
%TO.N,/Mosfets/M3*%
X84996000Y12827000D02*
X84996000Y11557000D01*
%TO.N,/Mosfets/M5*%
X99728000Y12827000D02*
X99728000Y11557000D01*
D44*
%TO.N,/Mosfets/M6*%
X99728000Y15367000D02*
X101600000Y13495000D01*
X101600000Y13495000D02*
X101600000Y9358000D01*
D45*
X101600000Y9358000D02*
X100584000Y8342000D01*
D43*
%TO.N,Net-(D8-A)*%
X20345400Y16560800D02*
X17170400Y16560800D01*
X17170400Y16560800D02*
X17145000Y16535400D01*
D42*
%TO.N,/TIM15_CH2*%
X58360400Y22402800D02*
X60579000Y22402800D01*
X49251276Y11659276D02*
X50088800Y12496800D01*
X63341800Y21158200D02*
X63600000Y20900000D01*
D43*
X70198000Y19685000D02*
X71237500Y18645500D01*
D42*
X63600000Y20900000D02*
X63600000Y20400000D01*
X65747000Y18236160D02*
X65747000Y16815840D01*
X63600000Y20400000D02*
X63689000Y20311000D01*
X48133676Y11659276D02*
X49251276Y11659276D01*
D43*
X71237500Y18645500D02*
X72578000Y18645500D01*
D42*
X41640265Y10658335D02*
X39486000Y12812600D01*
X39486000Y12812600D02*
X39486000Y14472000D01*
X69717100Y16500000D02*
X70198000Y16980900D01*
X54400200Y18442600D02*
X58360400Y22402800D01*
X65689000Y20311000D02*
X65900000Y20100000D01*
X65747000Y16815840D02*
X66062840Y16500000D01*
X50088800Y14240677D02*
X54290723Y18442600D01*
X54290723Y18442600D02*
X54400200Y18442600D01*
X61823600Y21158200D02*
X63341800Y21158200D01*
X46008964Y11171793D02*
X45495506Y10658335D01*
X45495506Y10658335D02*
X41640265Y10658335D01*
X65900000Y18389160D02*
X65747000Y18236160D01*
X50088800Y12496800D02*
X50088800Y14240677D01*
X65900000Y20100000D02*
X65900000Y18389160D01*
X70198000Y16980900D02*
X70198000Y19685000D01*
X60579000Y22402800D02*
X61823600Y21158200D01*
X63689000Y20311000D02*
X65689000Y20311000D01*
X47961072Y11486672D02*
X48133676Y11659276D01*
X66062840Y16500000D02*
X69717100Y16500000D01*
%TO.N,Net-(IC1-~{OUT_A})*%
X64671000Y22098000D02*
X64798000Y22225000D01*
X62484000Y22098000D02*
X64671000Y22098000D01*
%TO.N,Net-(IC1-~{OUT_B})*%
X64798000Y17902500D02*
X64869700Y17830800D01*
X64798000Y19685000D02*
X64798000Y17902500D01*
%TO.N,/TIM15_CH1*%
X44805600Y11099800D02*
X41808400Y11099800D01*
X41808400Y11099800D02*
X40640000Y12268200D01*
X70198000Y22225000D02*
X72114400Y22225000D01*
X40640000Y14782800D02*
X40150800Y15272000D01*
X40150800Y15272000D02*
X39486000Y15272000D01*
X45443985Y11738185D02*
X44805600Y11099800D01*
X40640000Y12268200D02*
X40640000Y14782800D01*
%TO.N,Net-(IC2-~{OUT_B})*%
X79324200Y18186400D02*
X79324200Y19667200D01*
X79324200Y19667200D02*
X79596000Y19939000D01*
%TO.N,Net-(IC2-~{OUT_A})*%
X79596000Y22479000D02*
X77550000Y22479000D01*
X77550000Y22479000D02*
X77216000Y22145000D01*
%TO.N,Net-(IC4-~{OUT_B})*%
X94359100Y19462100D02*
X94359100Y18135600D01*
X94836000Y19939000D02*
X94359100Y19462100D01*
%TO.N,Net-(IC4-~{OUT_A})*%
X93101000Y22479000D02*
X94836000Y22479000D01*
X92329000Y21707000D02*
X93101000Y22479000D01*
%TO.N,/ELMAG*%
X101904800Y22479000D02*
X102133400Y22707600D01*
X34106000Y22229129D02*
X34106000Y21452000D01*
X100236000Y22479000D02*
X101904800Y22479000D01*
X34099822Y22235307D02*
X34106000Y22229129D01*
X34099822Y22685523D02*
X34099822Y22235307D01*
%TO.N,/TIM8_CH3N*%
X82208800Y24841200D02*
X84571000Y22479000D01*
X84996000Y22479000D02*
X86791800Y22479000D01*
X84571000Y22479000D02*
X84996000Y22479000D01*
X62500000Y23900000D02*
X63441200Y24841200D01*
X35457400Y22732000D02*
X34906000Y22180600D01*
X36092400Y22732000D02*
X35457400Y22732000D01*
X58156300Y23900000D02*
X62500000Y23900000D01*
X36092693Y22732293D02*
X36092400Y22732000D01*
X45466000Y21762302D02*
X56018602Y21762302D01*
X56018602Y21762302D02*
X58156300Y23900000D01*
X36092693Y22733707D02*
X36092693Y22732293D01*
X63441200Y24841200D02*
X82208800Y24841200D01*
X34906000Y22180600D02*
X34906000Y21452000D01*
%TO.N,/SWDIO*%
X30346000Y19272000D02*
X31126000Y19272000D01*
X30045000Y19573000D02*
X30346000Y19272000D01*
X30045000Y23593400D02*
X30045000Y19573000D01*
X30734000Y24282400D02*
X30045000Y23593400D01*
%TO.N,Net-(J7-Pin_1)*%
X37187500Y24282400D02*
X34544000Y24282400D01*
X37517700Y23952200D02*
X37187500Y24282400D01*
%TO.N,/SWCLK*%
X33274000Y24282400D02*
X31126000Y22134400D01*
X31126000Y22134400D02*
X31126000Y20072000D01*
%TO.N,Net-(J8-Pin_2)*%
X21031200Y22961600D02*
X21031200Y21156300D01*
%TO.N,Net-(J8-Pin_1)*%
X18491200Y22961600D02*
X18491200Y21156300D01*
%TO.N,/Photo/P1.GND*%
X10541000Y16662400D02*
X10541000Y18995400D01*
X10541000Y18995400D02*
X10537200Y18999200D01*
%TO.N,/Photo/P3.A*%
X15813000Y7366000D02*
X9802500Y7366000D01*
X7151000Y13272400D02*
X7151000Y10017500D01*
X7151000Y10017500D02*
X9802500Y7366000D01*
X8001000Y14122400D02*
X7151000Y13272400D01*
%TO.N,/Photo/P2.GND*%
X5461000Y18944600D02*
X5457200Y18948400D01*
X5461000Y16662400D02*
X5461000Y18944600D01*
%TO.N,/Photo/P1.A*%
X5954860Y19949400D02*
X8001000Y17903260D01*
X4959540Y19949400D02*
X5954860Y19949400D01*
X4643700Y19633560D02*
X4959540Y19949400D01*
X15681000Y2154000D02*
X12368400Y2154000D01*
X8001000Y17903260D02*
X8001000Y16662400D01*
X3889177Y8844600D02*
X1143000Y11590777D01*
X15813000Y2286000D02*
X15681000Y2154000D01*
X10016500Y2500000D02*
X9802500Y2286000D01*
X4643700Y18263240D02*
X4643700Y19633560D01*
X4465000Y8844600D02*
X3889177Y8844600D01*
X12022400Y2500000D02*
X10016500Y2500000D01*
X2260600Y17881600D02*
X4262060Y17881600D01*
X1143000Y16764000D02*
X2260600Y17881600D01*
X6682400Y6627200D02*
X4465000Y8844600D01*
X7479840Y3825000D02*
X6682400Y4622440D01*
X9802500Y2286000D02*
X8263500Y3825000D01*
X1143000Y11590777D02*
X1143000Y16764000D01*
X12368400Y2154000D02*
X12022400Y2500000D01*
X8263500Y3825000D02*
X7479840Y3825000D01*
X4262060Y17881600D02*
X4643700Y18263240D01*
X6682400Y4622440D02*
X6682400Y6627200D01*
%TO.N,/Photo/P2.A*%
X4055277Y9245600D02*
X4631100Y9245600D01*
X7083400Y6793300D02*
X7083400Y6683400D01*
X1549400Y15290800D02*
X1549400Y11751477D01*
X2921000Y16662400D02*
X1549400Y15290800D01*
X15813000Y4826000D02*
X9802500Y4826000D01*
X8328500Y6300000D02*
X9802500Y4826000D01*
X7083400Y6683400D02*
X7466800Y6300000D01*
X7466800Y6300000D02*
X8328500Y6300000D01*
X4631100Y9245600D02*
X7083400Y6793300D01*
X1549400Y11751477D02*
X4055277Y9245600D01*
%TO.N,/Photo/P4.A*%
X4198600Y15400000D02*
X2921000Y14122400D01*
X15757345Y13126028D02*
X20247373Y8636000D01*
X20247373Y8636000D02*
X20763000Y8636000D01*
X20763000Y8636000D02*
X23114000Y8636000D01*
X15757345Y15290800D02*
X15757345Y13126028D01*
X12268200Y15312398D02*
X12180598Y15400000D01*
X20195160Y8636000D02*
X20763000Y8636000D01*
X12180598Y15400000D02*
X4198600Y15400000D01*
%TO.N,/Photo/P4.GND*%
X5461000Y11684000D02*
X5435600Y11658600D01*
X5461000Y14122400D02*
X5461000Y11684000D01*
%TO.N,/Photo/P5.A*%
X19177000Y7325032D02*
X19177000Y8805630D01*
X20763000Y6096000D02*
X20406032Y6096000D01*
X19177000Y8805630D02*
X15157345Y12825285D01*
X15157345Y12825285D02*
X15157345Y18659455D01*
X11074400Y24333200D02*
X9296400Y24333200D01*
X15157345Y18659455D02*
X11811000Y22005800D01*
X11811000Y23596600D02*
X11074400Y24333200D01*
X9296400Y24333200D02*
X8001000Y23037800D01*
X20406032Y6096000D02*
X19177000Y7325032D01*
X11811000Y22005800D02*
X11811000Y23596600D01*
X20763000Y6096000D02*
X23114000Y6096000D01*
%TO.N,/Photo/P5.GND*%
X10541000Y23037800D02*
X10541000Y21035000D01*
X10541000Y21035000D02*
X10537200Y21031200D01*
%TO.N,/Photo/P6.GND*%
X5461000Y20984200D02*
X5457200Y20980400D01*
X5461000Y23037800D02*
X5461000Y20984200D01*
%TO.N,/Photo/P6.A*%
X4216400Y24333200D02*
X2921000Y23037800D01*
X6705600Y21539140D02*
X6705600Y23658960D01*
X6705600Y23658960D02*
X6031360Y24333200D01*
X14554200Y12578487D02*
X14554200Y18695500D01*
X16825903Y10520065D02*
X16612622Y10520065D01*
X22860000Y3556000D02*
X23114000Y3810000D01*
X19778001Y3556000D02*
X18776000Y4558001D01*
X18776000Y8569968D02*
X16825903Y10520065D01*
X16612622Y10520065D02*
X14554200Y12578487D01*
X14554200Y18695500D02*
X13219500Y20030200D01*
X6031360Y24333200D02*
X4216400Y24333200D01*
X13219500Y20030200D02*
X8214540Y20030200D01*
X20763000Y3556000D02*
X19778001Y3556000D01*
X8214540Y20030200D02*
X6705600Y21539140D01*
X20763000Y3556000D02*
X22860000Y3556000D01*
X18776000Y4558001D02*
X18776000Y8569968D01*
D43*
%TO.N,Net-(R2-Pad1)*%
X62992000Y17778100D02*
X62992000Y16919000D01*
X62992000Y16919000D02*
X64798000Y15113000D01*
D42*
X63044700Y17830800D02*
X62992000Y17778100D01*
%TO.N,Net-(U4-1Y)*%
X15813000Y3556000D02*
X13358500Y3556000D01*
%TO.N,/TIM1_ETR*%
X23981340Y13335000D02*
X24282400Y13335000D01*
X14455032Y2555000D02*
X14855032Y2955000D01*
X11533500Y3556000D02*
X12534500Y2555000D01*
X25517400Y13385800D02*
X28397200Y13385800D01*
X12534500Y2555000D02*
X14455032Y2555000D01*
X31126000Y18472000D02*
X29168181Y18472000D01*
X21168891Y10522551D02*
X23981340Y13335000D01*
X29168181Y18472000D02*
X29136195Y18440014D01*
X25492000Y13360400D02*
X25517400Y13385800D01*
X19209351Y10522551D02*
X21168891Y10522551D01*
X16848800Y2955000D02*
X18008600Y4114800D01*
X18008600Y4114800D02*
X18008600Y8432800D01*
X14855032Y2955000D02*
X16848800Y2955000D01*
%TO.N,Net-(U4-2Y)*%
X15813000Y6096000D02*
X13358500Y6096000D01*
%TO.N,/TIM2_ETR*%
X37020288Y7414434D02*
X36821400Y7414434D01*
X36821400Y7179057D02*
X36239368Y6597025D01*
X28579320Y2013600D02*
X27235800Y2013600D01*
X36821400Y7414434D02*
X36821400Y7179057D01*
X36239368Y6597025D02*
X31819225Y6597025D01*
X31819225Y6597025D02*
X29990400Y4768200D01*
X37306000Y9075400D02*
X37058600Y8828000D01*
X11431900Y5994400D02*
X11533500Y6096000D01*
X27235800Y2013600D02*
X26162000Y939800D01*
X37306000Y13092000D02*
X37306000Y9075400D01*
X10600000Y5994400D02*
X11431900Y5994400D01*
X29990400Y4768200D02*
X29990400Y3424679D01*
X11642800Y914400D02*
X21894800Y914400D01*
X10871200Y1686000D02*
X11642800Y914400D01*
X10871200Y1800000D02*
X10871200Y1686000D01*
X29990400Y3424679D02*
X28579320Y2013600D01*
%TO.N,Net-(U4-3Y)*%
X15813000Y8636000D02*
X13358500Y8636000D01*
%TO.N,/TIM3_ETR*%
X11533500Y8636000D02*
X13994879Y11097379D01*
X13994879Y11097379D02*
X15186779Y11097379D01*
X33350200Y20301412D02*
X33350200Y21407800D01*
X24257000Y15860800D02*
X24242800Y15860800D01*
X33442812Y20208800D02*
X33350200Y20301412D01*
X20009451Y11627451D02*
X18104452Y11627451D01*
X24242800Y15860800D02*
X20009451Y11627451D01*
X33350200Y21407800D02*
X33306000Y21452000D01*
%TO.N,/TIM4_ETR*%
X25619400Y15519400D02*
X30276800Y15519400D01*
X30276800Y15519400D02*
X30524200Y15272000D01*
X24892000Y10922000D02*
X24892000Y14792000D01*
X24892000Y14792000D02*
X25619400Y15519400D01*
X30524200Y15272000D02*
X31126000Y15272000D01*
%TO.N,Net-(U4-4Y)*%
X22051000Y9906000D02*
X23067000Y10922000D01*
X20763000Y9906000D02*
X22051000Y9906000D01*
%TO.N,Net-(U4-5Y)*%
X20763000Y7366000D02*
X26670000Y7366000D01*
%TO.N,/GPIO_EXTI6*%
X36506000Y9088200D02*
X36506000Y13092000D01*
X36245800Y8828000D02*
X36506000Y9088200D01*
X29175800Y7366000D02*
X29556800Y6985000D01*
X35790425Y6998025D02*
X36220400Y7428000D01*
X31357800Y6998025D02*
X35790425Y6998025D01*
X28495000Y7366000D02*
X29175800Y7366000D01*
%TO.N,/GPIO_EXTI7*%
X32459800Y10336400D02*
X35544534Y10336400D01*
X35853400Y12944600D02*
X35706000Y13092000D01*
X30156800Y6487800D02*
X30156800Y7956550D01*
X35853400Y10645266D02*
X35853400Y12944600D01*
X35544534Y10336400D02*
X35853400Y10645266D01*
X31279775Y9156375D02*
X32459800Y10336400D01*
X30156800Y7956550D02*
X30328250Y8128000D01*
X28495000Y4826000D02*
X30156800Y6487800D01*
%TO.N,Net-(U4-6Y)*%
X20763000Y4826000D02*
X26670000Y4826000D01*
%TO.N,Net-(R21-Pad1)*%
X77499200Y17463800D02*
X77499200Y18186400D01*
D43*
X79596000Y15367000D02*
X77499200Y17463800D01*
D42*
%TO.N,/TXD*%
X18491200Y19331300D02*
X20118700Y17703800D01*
X20118700Y17703800D02*
X25772700Y17703800D01*
X25772700Y17703800D02*
X27404500Y16072000D01*
X27404500Y16072000D02*
X31126000Y16072000D01*
%TO.N,/RXD*%
X21031200Y19331300D02*
X22252300Y18110200D01*
X22252300Y18110200D02*
X25933400Y18110200D01*
X27171600Y16872000D02*
X31126000Y16872000D01*
X25933400Y18110200D02*
X27171600Y16872000D01*
%TO.N,Net-(R26-Pad2)*%
X95300800Y16205200D02*
X94580300Y16205200D01*
X94580300Y16205200D02*
X93446600Y17338900D01*
X94328000Y12827000D02*
X94753000Y12827000D01*
X93446600Y18764400D02*
X92329000Y19882000D01*
X95504000Y16002000D02*
X95300800Y16205200D01*
X95504000Y13578000D02*
X95504000Y16002000D01*
X93446600Y17338900D02*
X93446600Y18764400D01*
X94753000Y12827000D02*
X95504000Y13578000D01*
D43*
%TO.N,Net-(R29-Pad1)*%
X54173200Y3530600D02*
X54178200Y3535600D01*
X51892200Y3530600D02*
X54173200Y3530600D01*
D42*
%TO.N,/OSC_OUT*%
X42445300Y18110200D02*
X42083500Y18472000D01*
X42083500Y18472000D02*
X39486000Y18472000D01*
D43*
%TO.N,/LED*%
X27355800Y17653000D02*
X31107000Y17653000D01*
X31107000Y17653000D02*
X31126000Y17672000D01*
X25806400Y16560800D02*
X25831800Y16586200D01*
X22170400Y16560800D02*
X25806400Y16560800D01*
%TO.N,/Button*%
X53261400Y24362800D02*
X46761400Y24362800D01*
D42*
X36884800Y18800000D02*
X34906000Y16821200D01*
X37500000Y18800000D02*
X36884800Y18800000D01*
X34906000Y16821200D02*
X34906000Y13092000D01*
%TO.N,/TIM8_CH1*%
X102616000Y19153500D02*
X103837100Y19153500D01*
X103146200Y25200000D02*
X86070527Y25200000D01*
X33099396Y22780604D02*
X32506000Y22187207D01*
X103837100Y19153500D02*
X104902000Y20218400D01*
X104902000Y20218400D02*
X104902000Y23444200D01*
D43*
X101830500Y19939000D02*
X102616000Y19153500D01*
D42*
X32506000Y22187207D02*
X32506000Y21452000D01*
D43*
X100236000Y19939000D02*
X101830500Y19939000D01*
D42*
X104902000Y23444200D02*
X103146200Y25200000D01*
%TO.N,/TIM8_CH2*%
X80340200Y19006200D02*
X80340200Y17070140D01*
D43*
X86035500Y18899500D02*
X87122000Y18899500D01*
D42*
X78469660Y20565000D02*
X80647000Y20565000D01*
X76215000Y22286200D02*
X76215000Y21647340D01*
X84328000Y16662400D02*
X84996000Y17330400D01*
X40806941Y21162302D02*
X46221010Y21162302D01*
X46221010Y21162302D02*
X46222508Y21163800D01*
X46222508Y21163800D02*
X47300292Y21163800D01*
X76530840Y21331500D02*
X77703160Y21331500D01*
X84996000Y17330400D02*
X84996000Y19939000D01*
X55981600Y21158200D02*
X58223400Y23400000D01*
X58223400Y23400000D02*
X62800000Y23400000D01*
D43*
X84996000Y19939000D02*
X86035500Y18899500D01*
D42*
X51904896Y21158200D02*
X52716908Y21158200D01*
X74142600Y24358600D02*
X76215000Y22286200D01*
X53800292Y21163800D02*
X53805892Y21158200D01*
X80747940Y16662400D02*
X84328000Y16662400D01*
X52722508Y21163800D02*
X53800292Y21163800D01*
X80340200Y17070140D02*
X80747940Y16662400D01*
X51900794Y21162302D02*
X51904896Y21158200D01*
X47300292Y21163800D02*
X47301790Y21162302D01*
X52716908Y21158200D02*
X52722508Y21163800D01*
X62800000Y23400000D02*
X63758600Y24358600D01*
X37306000Y22232000D02*
X37306000Y21452000D01*
X63758600Y24358600D02*
X74142600Y24358600D01*
X38568400Y22809200D02*
X37883200Y22809200D01*
X80647000Y20565000D02*
X80647000Y19313000D01*
X77703160Y21331500D02*
X78469660Y20565000D01*
X76215000Y21647340D02*
X76530840Y21331500D01*
X47301790Y21162302D02*
X51900794Y21162302D01*
X37883200Y22809200D02*
X37306000Y22232000D01*
X80647000Y19313000D02*
X80340200Y19006200D01*
X53805892Y21158200D02*
X55981600Y21158200D01*
%TO.N,/Photo/P3.GND*%
X10541000Y14122400D02*
X10541000Y11684000D01*
X10541000Y11684000D02*
X10515600Y11658600D01*
D43*
%TO.N,/VIN*%
X51181000Y1625600D02*
X50791200Y2015400D01*
X50791200Y2015400D02*
X50791200Y4231100D01*
X50791200Y4231100D02*
X51003200Y4443100D01*
D47*
X42923500Y3937000D02*
X47324000Y3937000D01*
D43*
X51003200Y4443100D02*
X52619780Y4443100D01*
X52619780Y4443100D02*
X53612280Y5435600D01*
D47*
X47324000Y3937000D02*
X47879000Y3382000D01*
D43*
X53612280Y5435600D02*
X54178200Y5435600D01*
%TD*%
%TA.AperFunction,Conductor*%
%TO.N,GND*%
G36*
X6085507Y3183446D02*
G01*
X6085508Y3183446D01*
X6235177Y3365817D01*
X6235194Y3365839D01*
X6415303Y3635393D01*
X6415315Y3635413D01*
X6477529Y3751807D01*
X6526491Y3801652D01*
X6594629Y3817113D01*
X6660309Y3793282D01*
X6674569Y3781036D01*
X6999318Y3456287D01*
X6999320Y3456284D01*
X7102406Y3353198D01*
X7135890Y3291877D01*
X7135889Y3291877D01*
X7135890Y3291876D01*
X7135693Y3289115D01*
X7130906Y3222185D01*
X7120263Y3200422D01*
X7030645Y3055129D01*
X7030641Y3055120D01*
X6975494Y2888698D01*
X6975493Y2888691D01*
X6965000Y2785987D01*
X6965000Y2536000D01*
X7727500Y2536000D01*
X7727500Y3100500D01*
X7730050Y3109186D01*
X7728762Y3118147D01*
X7739740Y3142188D01*
X7747185Y3167539D01*
X7754025Y3173467D01*
X7757787Y3181703D01*
X7780021Y3195993D01*
X7799989Y3213294D01*
X7810503Y3215582D01*
X7816565Y3219477D01*
X7851500Y3224500D01*
X7963403Y3224500D01*
X8030442Y3204815D01*
X8051084Y3188181D01*
X8191181Y3048084D01*
X8224666Y2986761D01*
X8227500Y2960403D01*
X8227500Y1086001D01*
X8289972Y1086001D01*
X8289986Y1086002D01*
X8392697Y1096495D01*
X8559119Y1151642D01*
X8559124Y1151644D01*
X8708342Y1243683D01*
X8801964Y1337305D01*
X8863287Y1370790D01*
X8932979Y1365806D01*
X8977327Y1337305D01*
X9071344Y1243288D01*
X9220666Y1151186D01*
X9387203Y1096001D01*
X9489991Y1085500D01*
X10115008Y1085501D01*
X10115016Y1085502D01*
X10115019Y1085502D01*
X10171302Y1091252D01*
X10217797Y1096001D01*
X10338198Y1135898D01*
X10408026Y1138300D01*
X10446093Y1121294D01*
X10492021Y1090606D01*
X10637703Y1030263D01*
X10650738Y1027671D01*
X10712649Y995288D01*
X10714231Y993734D01*
X10995784Y712181D01*
X11029269Y650858D01*
X11024285Y581166D01*
X10982413Y525233D01*
X10916949Y500816D01*
X10908103Y500500D01*
X624500Y500500D01*
X557461Y520185D01*
X511706Y572989D01*
X500500Y624500D01*
X500500Y1786014D01*
X6965001Y1786014D01*
X6975494Y1683303D01*
X7030641Y1516881D01*
X7030643Y1516876D01*
X7122684Y1367655D01*
X7246654Y1243685D01*
X7395875Y1151644D01*
X7395880Y1151642D01*
X7562302Y1096495D01*
X7562309Y1096494D01*
X7665019Y1086001D01*
X7727499Y1086002D01*
X7727500Y1086002D01*
X7727500Y2036000D01*
X6965001Y2036000D01*
X6965001Y1786014D01*
X500500Y1786014D01*
X500500Y3602451D01*
X520185Y3669490D01*
X572989Y3715245D01*
X642147Y3725189D01*
X705703Y3696164D01*
X733859Y3660903D01*
X747484Y3635412D01*
X747490Y3635402D01*
X927612Y3365830D01*
X927622Y3365816D01*
X1077290Y3183446D01*
X1077291Y3183445D01*
X2287148Y4393302D01*
X2360988Y4291670D01*
X2539070Y4113588D01*
X2640700Y4039749D01*
X1430843Y2829893D01*
X1430844Y2829892D01*
X1613215Y2680223D01*
X1613229Y2680213D01*
X1882801Y2500091D01*
X1882819Y2500080D01*
X2168759Y2347241D01*
X2168764Y2347239D01*
X2468321Y2223158D01*
X2778607Y2129034D01*
X2778618Y2129031D01*
X3096598Y2065783D01*
X3096615Y2065780D01*
X3419284Y2034000D01*
X3743516Y2034000D01*
X4066184Y2065780D01*
X4066201Y2065783D01*
X4384181Y2129031D01*
X4384192Y2129034D01*
X4637992Y2206023D01*
X4694478Y2223158D01*
X4994035Y2347239D01*
X4994040Y2347241D01*
X5279980Y2500080D01*
X5279998Y2500091D01*
X5549570Y2680213D01*
X5549583Y2680223D01*
X5731954Y2829892D01*
X5731954Y2829893D01*
X4522098Y4039749D01*
X4623730Y4113588D01*
X4801812Y4291670D01*
X4875651Y4393302D01*
X6085507Y3183446D01*
G37*
%TD.AperFunction*%
%TA.AperFunction,Conductor*%
G36*
X30825934Y4651986D02*
G01*
X30881867Y4610114D01*
X30906284Y4544650D01*
X30906600Y4535804D01*
X30906600Y1857130D01*
X30906601Y1857124D01*
X30913008Y1797517D01*
X30963302Y1662672D01*
X30963306Y1662665D01*
X31049552Y1547456D01*
X31049555Y1547453D01*
X31164764Y1461207D01*
X31164771Y1461203D01*
X31299617Y1410909D01*
X31299616Y1410909D01*
X31306544Y1410165D01*
X31359227Y1404500D01*
X33461572Y1404501D01*
X33521183Y1410909D01*
X33656031Y1461204D01*
X33771246Y1547454D01*
X33857496Y1662669D01*
X33907791Y1797517D01*
X33914200Y1857127D01*
X33914200Y2560100D01*
X33933885Y2627139D01*
X33986689Y2672894D01*
X34038200Y2684100D01*
X37159912Y2684100D01*
X37226951Y2664415D01*
X37272706Y2611611D01*
X37282650Y2542453D01*
X37264704Y2499133D01*
X37266754Y2498014D01*
X37262502Y2490229D01*
X37212208Y2355383D01*
X37205801Y2295784D01*
X37205800Y2295765D01*
X37205800Y701430D01*
X37205801Y701426D01*
X37212646Y637754D01*
X37200239Y568994D01*
X37152628Y517858D01*
X37089356Y500500D01*
X27032070Y500500D01*
X26965031Y520185D01*
X26919276Y572989D01*
X26909332Y642147D01*
X26911633Y654013D01*
X26913885Y663206D01*
X26931737Y706303D01*
X26962500Y860958D01*
X26962500Y861594D01*
X26963818Y866972D01*
X26980050Y894937D01*
X26995023Y923561D01*
X26996514Y925080D01*
X27448217Y1376781D01*
X27509540Y1410266D01*
X27535898Y1413100D01*
X28492650Y1413100D01*
X28492666Y1413099D01*
X28500262Y1413099D01*
X28658375Y1413099D01*
X28658377Y1413099D01*
X28811104Y1454023D01*
X28823542Y1461204D01*
X28948036Y1533080D01*
X29059840Y1644884D01*
X29059840Y1644886D01*
X29070044Y1655089D01*
X29070047Y1655094D01*
X30348905Y2933951D01*
X30348911Y2933955D01*
X30359114Y2944159D01*
X30359116Y2944159D01*
X30470920Y3055963D01*
X30535558Y3167920D01*
X30549977Y3192894D01*
X30590901Y3345622D01*
X30590901Y3503736D01*
X30590901Y3511331D01*
X30590900Y3511349D01*
X30590900Y4468104D01*
X30599544Y4497545D01*
X30606068Y4527531D01*
X30609822Y4532547D01*
X30610585Y4535143D01*
X30627215Y4555781D01*
X30694920Y4623486D01*
X30756242Y4656970D01*
X30825934Y4651986D01*
G37*
%TD.AperFunction*%
%TA.AperFunction,Conductor*%
G36*
X42765212Y7151816D02*
G01*
X42810967Y7099012D01*
X42820911Y7029854D01*
X42815879Y7008497D01*
X42779494Y6898698D01*
X42779493Y6898691D01*
X42769000Y6795987D01*
X42769000Y6346000D01*
X43720000Y6346000D01*
X43787039Y6326315D01*
X43832794Y6273511D01*
X43844000Y6222000D01*
X43844000Y5970000D01*
X43824315Y5902961D01*
X43771511Y5857206D01*
X43720000Y5846000D01*
X42769001Y5846000D01*
X42769001Y5396014D01*
X42779494Y5293303D01*
X42810245Y5200504D01*
X42812647Y5130676D01*
X42776915Y5070634D01*
X42714395Y5039441D01*
X42692539Y5037500D01*
X42656818Y5037500D01*
X42558316Y5027437D01*
X42558315Y5027436D01*
X42502981Y5009100D01*
X42398715Y4974550D01*
X42398704Y4974545D01*
X42255612Y4886284D01*
X42255608Y4886281D01*
X42136719Y4767392D01*
X42136716Y4767388D01*
X42048455Y4624296D01*
X42048450Y4624285D01*
X42041231Y4602500D01*
X41995564Y4464685D01*
X41995564Y4464684D01*
X41995563Y4464684D01*
X41985500Y4366182D01*
X41985500Y3507819D01*
X41995563Y3409317D01*
X42048450Y3249716D01*
X42048455Y3249705D01*
X42136716Y3106613D01*
X42136719Y3106609D01*
X42255608Y2987720D01*
X42255612Y2987717D01*
X42398704Y2899456D01*
X42398707Y2899455D01*
X42398713Y2899451D01*
X42558315Y2846564D01*
X42656826Y2836500D01*
X42656831Y2836500D01*
X42692539Y2836500D01*
X42759578Y2816815D01*
X42805333Y2764011D01*
X42815277Y2694853D01*
X42810245Y2673496D01*
X42779494Y2580698D01*
X42779493Y2580691D01*
X42769000Y2477987D01*
X42769000Y2028000D01*
X43720000Y2028000D01*
X43787039Y2008315D01*
X43832794Y1955511D01*
X43844000Y1904000D01*
X43844000Y1652000D01*
X43824315Y1584961D01*
X43771511Y1539206D01*
X43720000Y1528000D01*
X42769001Y1528000D01*
X42769001Y1078014D01*
X42779494Y975303D01*
X42834641Y808881D01*
X42834643Y808876D01*
X42908216Y689597D01*
X42926656Y622205D01*
X42905734Y555541D01*
X42852092Y510771D01*
X42802677Y500500D01*
X41935911Y500500D01*
X41868872Y520185D01*
X41823117Y572989D01*
X41813173Y642147D01*
X41830372Y689596D01*
X41903810Y808660D01*
X41903814Y808666D01*
X41958999Y975203D01*
X41969500Y1077991D01*
X41969499Y2478008D01*
X41968250Y2490231D01*
X41958999Y2580797D01*
X41958998Y2580800D01*
X41953799Y2596490D01*
X41903814Y2747334D01*
X41811712Y2896656D01*
X41735319Y2973049D01*
X41720615Y2999977D01*
X41704023Y3025795D01*
X41703131Y3031996D01*
X41701834Y3034372D01*
X41699000Y3060730D01*
X41699000Y3306510D01*
X41705294Y3345514D01*
X41707841Y3353200D01*
X41726436Y3409315D01*
X41736500Y3507826D01*
X41736500Y4366174D01*
X41726436Y4464685D01*
X41673549Y4624287D01*
X41640211Y4678335D01*
X41621772Y4745727D01*
X41642695Y4812390D01*
X41680659Y4848972D01*
X41682562Y4850147D01*
X41687656Y4853288D01*
X41811712Y4977344D01*
X41903814Y5126666D01*
X41958999Y5293203D01*
X41969500Y5395991D01*
X41969499Y6796008D01*
X41958999Y6898797D01*
X41958997Y6898801D01*
X41958911Y6899650D01*
X41959268Y6901574D01*
X41958585Y6903406D01*
X41965623Y6935763D01*
X41971680Y6968343D01*
X41973153Y6970375D01*
X41973437Y6971679D01*
X41994582Y6999927D01*
X42129840Y7135185D01*
X42191161Y7168667D01*
X42217519Y7171501D01*
X42698173Y7171501D01*
X42765212Y7151816D01*
G37*
%TD.AperFunction*%
%TA.AperFunction,Conductor*%
G36*
X53356305Y2812833D02*
G01*
X53405302Y2783856D01*
X53446924Y2771764D01*
X53563126Y2738003D01*
X53563129Y2738003D01*
X53563131Y2738002D01*
X53595658Y2735443D01*
X53598875Y2735189D01*
X53664164Y2710305D01*
X53705635Y2654075D01*
X53710122Y2584349D01*
X53676829Y2523890D01*
X53594882Y2441943D01*
X53502843Y2292725D01*
X53502841Y2292720D01*
X53447694Y2126298D01*
X53447693Y2126291D01*
X53437200Y2023587D01*
X53437200Y1748600D01*
X54313200Y1748600D01*
X54380239Y1728915D01*
X54425994Y1676111D01*
X54437200Y1624600D01*
X54437200Y1372600D01*
X54417515Y1305561D01*
X54364711Y1259806D01*
X54313200Y1248600D01*
X53437201Y1248600D01*
X53437201Y973614D01*
X53447694Y870903D01*
X53502841Y704481D01*
X53502845Y704472D01*
X53512021Y689596D01*
X53530461Y622204D01*
X53509538Y555540D01*
X53455896Y510771D01*
X53406482Y500500D01*
X44885323Y500500D01*
X44818284Y520185D01*
X44772529Y572989D01*
X44762585Y642147D01*
X44779784Y689597D01*
X44853356Y808876D01*
X44853358Y808881D01*
X44908505Y975303D01*
X44908506Y975310D01*
X44918999Y1078014D01*
X44918999Y1353429D01*
X44938683Y1420468D01*
X44991487Y1466223D01*
X45060646Y1476167D01*
X45117310Y1452696D01*
X45136668Y1438205D01*
X45136671Y1438203D01*
X45271517Y1387909D01*
X45271516Y1387909D01*
X45278444Y1387165D01*
X45331127Y1381500D01*
X50332799Y1381501D01*
X50399838Y1361816D01*
X50445593Y1309012D01*
X50447360Y1304955D01*
X50471606Y1246421D01*
X50471609Y1246415D01*
X50559210Y1115312D01*
X50559213Y1115308D01*
X50670707Y1003814D01*
X50670711Y1003811D01*
X50801814Y916210D01*
X50801827Y916203D01*
X50911434Y870803D01*
X50947503Y855863D01*
X51102153Y825101D01*
X51102156Y825100D01*
X51102158Y825100D01*
X51259844Y825100D01*
X51259845Y825101D01*
X51414497Y855863D01*
X51560179Y916206D01*
X51691289Y1003811D01*
X51802789Y1115311D01*
X51890394Y1246421D01*
X51950737Y1392103D01*
X51981500Y1546758D01*
X51981500Y1704442D01*
X51981500Y1704445D01*
X51981499Y1704447D01*
X51980487Y1709537D01*
X51950737Y1859097D01*
X51950735Y1859102D01*
X51890397Y2004773D01*
X51890390Y2004786D01*
X51802789Y2135889D01*
X51802786Y2135893D01*
X51691292Y2247387D01*
X51691288Y2247390D01*
X51626771Y2290499D01*
X51581966Y2344111D01*
X51573259Y2413436D01*
X51603413Y2476464D01*
X51662857Y2513183D01*
X51695662Y2517601D01*
X52392202Y2517601D01*
X52392208Y2517601D01*
X52494997Y2528101D01*
X52661534Y2583286D01*
X52810856Y2675388D01*
X52929249Y2793781D01*
X52990572Y2827266D01*
X53016930Y2830100D01*
X53293185Y2830100D01*
X53356305Y2812833D01*
G37*
%TD.AperFunction*%
%TA.AperFunction,Conductor*%
G36*
X25156239Y1794415D02*
G01*
X25201994Y1741611D01*
X25213200Y1690100D01*
X25213200Y1394000D01*
X25193515Y1326961D01*
X25140711Y1281206D01*
X25089200Y1270000D01*
X24837200Y1270000D01*
X24770161Y1289685D01*
X24724406Y1342489D01*
X24713200Y1394000D01*
X24713200Y1690100D01*
X24732885Y1757139D01*
X24785689Y1802894D01*
X24837200Y1814100D01*
X25089200Y1814100D01*
X25156239Y1794415D01*
G37*
%TD.AperFunction*%
%TA.AperFunction,Conductor*%
G36*
X55393367Y3017594D02*
G01*
X55417555Y2989679D01*
X55417839Y2989898D01*
X55421879Y2984689D01*
X55422432Y2984052D01*
X55422619Y2983735D01*
X55422621Y2983733D01*
X55422623Y2983730D01*
X55538829Y2867524D01*
X55538840Y2867515D01*
X55652128Y2800518D01*
X55699812Y2749450D01*
X55712316Y2680708D01*
X55685671Y2616118D01*
X55654107Y2588249D01*
X55618547Y2566315D01*
X55618543Y2566312D01*
X55494488Y2442257D01*
X55494483Y2442251D01*
X55492441Y2438939D01*
X55490447Y2437147D01*
X55490007Y2436589D01*
X55489911Y2436665D01*
X55440491Y2392217D01*
X55371528Y2380998D01*
X55307447Y2408845D01*
X55281368Y2438944D01*
X55279519Y2441941D01*
X55279516Y2441945D01*
X55155544Y2565917D01*
X55155540Y2565920D01*
X55049812Y2631134D01*
X55003087Y2683082D01*
X54991866Y2752044D01*
X55019709Y2816126D01*
X55051786Y2843403D01*
X55092565Y2867519D01*
X55208781Y2983735D01*
X55208967Y2984051D01*
X55209177Y2984247D01*
X55213561Y2989898D01*
X55214472Y2989191D01*
X55260036Y3031734D01*
X55328777Y3044238D01*
X55393367Y3017594D01*
G37*
%TD.AperFunction*%
%TA.AperFunction,Conductor*%
G36*
X25132039Y4205815D02*
G01*
X25177794Y4153011D01*
X25189000Y4101500D01*
X25189000Y3339100D01*
X25169315Y3272061D01*
X25116511Y3226306D01*
X25065000Y3215100D01*
X24813000Y3215100D01*
X24745961Y3234785D01*
X24700206Y3287589D01*
X24689000Y3339100D01*
X24689000Y4101500D01*
X24708685Y4168539D01*
X24761489Y4214294D01*
X24813000Y4225500D01*
X25065000Y4225500D01*
X25132039Y4205815D01*
G37*
%TD.AperFunction*%
%TA.AperFunction,Conductor*%
G36*
X27599474Y3907338D02*
G01*
X27625834Y3905452D01*
X27634887Y3899634D01*
X27641927Y3898102D01*
X27670181Y3876951D01*
X27763844Y3783288D01*
X27913166Y3691186D01*
X28079703Y3636001D01*
X28182491Y3625500D01*
X28192674Y3625501D01*
X28213921Y3619263D01*
X28236013Y3617683D01*
X28246792Y3609614D01*
X28259712Y3605821D01*
X28274216Y3589085D01*
X28291947Y3575812D01*
X28296652Y3563197D01*
X28305471Y3553021D01*
X28308624Y3531099D01*
X28316364Y3510348D01*
X28313501Y3497191D01*
X28315419Y3483863D01*
X28306220Y3463718D01*
X28301513Y3442075D01*
X28288248Y3424355D01*
X28286399Y3420305D01*
X28280362Y3413820D01*
X28232382Y3365839D01*
X28117960Y3251418D01*
X28056640Y3217934D01*
X28030281Y3215100D01*
X26075500Y3215100D01*
X26008461Y3234785D01*
X25962706Y3287589D01*
X25951500Y3339099D01*
X25951499Y3564753D01*
X25971183Y3631793D01*
X26023987Y3677548D01*
X26093145Y3687492D01*
X26114487Y3682464D01*
X26254703Y3636001D01*
X26357491Y3625500D01*
X26982508Y3625501D01*
X26982516Y3625502D01*
X26982519Y3625502D01*
X27044103Y3631793D01*
X27085297Y3636001D01*
X27251834Y3691186D01*
X27401156Y3783288D01*
X27494819Y3876951D01*
X27502764Y3881290D01*
X27508190Y3888537D01*
X27532949Y3897772D01*
X27556142Y3910436D01*
X27565171Y3909791D01*
X27573654Y3912954D01*
X27599474Y3907338D01*
G37*
%TD.AperFunction*%
%TA.AperFunction,Conductor*%
G36*
X8095442Y5679815D02*
G01*
X8116084Y5663181D01*
X8191181Y5588084D01*
X8224666Y5526761D01*
X8227500Y5500403D01*
X8227500Y4549500D01*
X8207815Y4482461D01*
X8155011Y4436706D01*
X8103500Y4425500D01*
X7851500Y4425500D01*
X7784461Y4445185D01*
X7738706Y4497989D01*
X7727500Y4549500D01*
X7727500Y5575500D01*
X7730050Y5584186D01*
X7728762Y5593147D01*
X7739740Y5617188D01*
X7747185Y5642539D01*
X7754025Y5648467D01*
X7757787Y5656703D01*
X7780021Y5670993D01*
X7799989Y5688294D01*
X7810503Y5690582D01*
X7816565Y5694477D01*
X7851500Y5699500D01*
X8028403Y5699500D01*
X8095442Y5679815D01*
G37*
%TD.AperFunction*%
%TA.AperFunction,Conductor*%
G36*
X37125634Y6531542D02*
G01*
X37181567Y6489670D01*
X37205984Y6424206D01*
X37206300Y6415360D01*
X37206300Y6320600D01*
X38585600Y6320600D01*
X38652639Y6300915D01*
X38698394Y6248111D01*
X38709600Y6196600D01*
X38709600Y5944600D01*
X38689915Y5877561D01*
X38637111Y5831806D01*
X38585600Y5820600D01*
X37206300Y5820600D01*
X37206300Y5273456D01*
X37212701Y5213928D01*
X37212703Y5213921D01*
X37262945Y5079214D01*
X37267197Y5071428D01*
X37264766Y5070102D01*
X37284220Y5017948D01*
X37269369Y4949675D01*
X37219965Y4900269D01*
X37160536Y4885100D01*
X34038199Y4885100D01*
X33971160Y4904785D01*
X33925405Y4957589D01*
X33914199Y5009100D01*
X33914199Y5762871D01*
X33914198Y5762877D01*
X33907791Y5822483D01*
X33907099Y5824339D01*
X33905289Y5829193D01*
X33900305Y5898884D01*
X33933791Y5960207D01*
X33995114Y5993691D01*
X34021471Y5996525D01*
X36152699Y5996525D01*
X36152715Y5996524D01*
X36160311Y5996524D01*
X36318422Y5996524D01*
X36318425Y5996524D01*
X36471153Y6037448D01*
X36531944Y6072546D01*
X36608084Y6116505D01*
X36719888Y6228309D01*
X36719889Y6228311D01*
X36994619Y6503041D01*
X37055942Y6536526D01*
X37125634Y6531542D01*
G37*
%TD.AperFunction*%
%TA.AperFunction,Conductor*%
G36*
X25132039Y6745815D02*
G01*
X25177794Y6693011D01*
X25189000Y6641500D01*
X25189000Y6346000D01*
X25867020Y6346000D01*
X25932506Y6326771D01*
X25932697Y6327080D01*
X25933826Y6326384D01*
X25934059Y6326315D01*
X25934828Y6325766D01*
X25938841Y6323291D01*
X25938844Y6323288D01*
X26088166Y6231186D01*
X26140917Y6213706D01*
X26198362Y6173936D01*
X26225186Y6109420D01*
X26212872Y6040644D01*
X26165329Y5989444D01*
X26140920Y5978296D01*
X26088172Y5960817D01*
X26088163Y5960813D01*
X25994371Y5902961D01*
X25938844Y5868712D01*
X25938842Y5868711D01*
X25932697Y5864920D01*
X25931071Y5867556D01*
X25879185Y5846598D01*
X25867020Y5846000D01*
X25189000Y5846000D01*
X25189000Y5550500D01*
X25169315Y5483461D01*
X25116511Y5437706D01*
X25065000Y5426500D01*
X24813000Y5426500D01*
X24745961Y5446185D01*
X24700206Y5498989D01*
X24689000Y5550500D01*
X24689000Y6641500D01*
X24708685Y6708539D01*
X24761489Y6754294D01*
X24813000Y6765500D01*
X25065000Y6765500D01*
X25132039Y6745815D01*
G37*
%TD.AperFunction*%
%TA.AperFunction,Conductor*%
G36*
X53825239Y9917915D02*
G01*
X53870994Y9865111D01*
X53882200Y9813600D01*
X53882200Y9698800D01*
X54515200Y9698800D01*
X54582239Y9679115D01*
X54627994Y9626311D01*
X54639200Y9574800D01*
X54639200Y9448800D01*
X54765200Y9448800D01*
X54832239Y9429115D01*
X54877994Y9376311D01*
X54889200Y9324800D01*
X54889200Y8248801D01*
X54951672Y8248801D01*
X54951686Y8248802D01*
X55054397Y8259295D01*
X55220819Y8314442D01*
X55220824Y8314444D01*
X55370042Y8406483D01*
X55463664Y8500105D01*
X55524987Y8533590D01*
X55594679Y8528606D01*
X55639027Y8500105D01*
X55733044Y8406088D01*
X55882366Y8313986D01*
X56048903Y8258801D01*
X56151691Y8248300D01*
X56681118Y8248301D01*
X56728570Y8238863D01*
X56844072Y8191020D01*
X56844076Y8191020D01*
X56844077Y8191019D01*
X56979403Y8164100D01*
X56979406Y8164100D01*
X56979407Y8164100D01*
X57225215Y8164100D01*
X57292254Y8144415D01*
X57338009Y8091611D01*
X57347953Y8022453D01*
X57327935Y7975850D01*
X57330280Y7974403D01*
X57326489Y7968258D01*
X57326488Y7968256D01*
X57305147Y7933657D01*
X57234387Y7818937D01*
X57234386Y7818934D01*
X57179201Y7652397D01*
X57179201Y7652396D01*
X57179200Y7652396D01*
X57168700Y7549617D01*
X57168700Y6924599D01*
X57168701Y6924581D01*
X57179200Y6821804D01*
X57179201Y6821801D01*
X57234385Y6655269D01*
X57234387Y6655264D01*
X57258902Y6615519D01*
X57318022Y6519669D01*
X57326489Y6505943D01*
X57420151Y6412281D01*
X57424489Y6404336D01*
X57431738Y6398909D01*
X57440972Y6374150D01*
X57453636Y6350958D01*
X57452990Y6341928D01*
X57456154Y6333444D01*
X57450537Y6307626D01*
X57448652Y6281266D01*
X57442832Y6272211D01*
X57441301Y6265172D01*
X57420150Y6236918D01*
X57384896Y6201665D01*
X57323572Y6168180D01*
X57253881Y6173166D01*
X57234098Y6182613D01*
X57226097Y6187345D01*
X57226093Y6187346D01*
X57068273Y6233198D01*
X57068267Y6233199D01*
X57031401Y6236100D01*
X57031394Y6236100D01*
X55875006Y6236100D01*
X55874998Y6236100D01*
X55872568Y6236004D01*
X55872536Y6236807D01*
X55807280Y6250521D01*
X55778256Y6272089D01*
X55237134Y6813212D01*
X55237133Y6813213D01*
X55122395Y6889878D01*
X54994920Y6942679D01*
X54994910Y6942682D01*
X54859584Y6969600D01*
X54859582Y6969600D01*
X54859581Y6969600D01*
X53755810Y6969600D01*
X53688771Y6989285D01*
X53643016Y7042089D01*
X53633072Y7111247D01*
X53650269Y7158694D01*
X53687014Y7218266D01*
X53742199Y7384803D01*
X53752700Y7487591D01*
X53752699Y8087608D01*
X53751618Y8098186D01*
X53742199Y8190397D01*
X53737289Y8205215D01*
X53716463Y8268061D01*
X53714062Y8337885D01*
X53749793Y8397927D01*
X53812313Y8429120D01*
X53881773Y8421561D01*
X53901878Y8409740D01*
X53902209Y8410275D01*
X54057575Y8314444D01*
X54057580Y8314442D01*
X54224002Y8259295D01*
X54224009Y8259294D01*
X54326719Y8248801D01*
X54389199Y8248802D01*
X54389200Y8248802D01*
X54389200Y9198800D01*
X53620700Y9198800D01*
X53553661Y9218485D01*
X53507906Y9271289D01*
X53496700Y9322800D01*
X53496700Y9437600D01*
X52651200Y9437600D01*
X52584161Y9457285D01*
X52538406Y9510089D01*
X52527200Y9561600D01*
X52527200Y9813600D01*
X52546885Y9880639D01*
X52599689Y9926394D01*
X52651200Y9937600D01*
X53758200Y9937600D01*
X53825239Y9917915D01*
G37*
%TD.AperFunction*%
%TA.AperFunction,Conductor*%
G36*
X628814Y11205501D02*
G01*
X642147Y11207417D01*
X662288Y11198219D01*
X683926Y11193512D01*
X701654Y11180241D01*
X705703Y11178392D01*
X712175Y11172366D01*
X774284Y11110257D01*
X774286Y11110256D01*
X781355Y11103187D01*
X3087469Y8797072D01*
X3120954Y8735749D01*
X3115970Y8666057D01*
X3074098Y8610124D01*
X3023979Y8587774D01*
X2778618Y8538970D01*
X2778607Y8538967D01*
X2468321Y8444843D01*
X2168764Y8320762D01*
X2168759Y8320760D01*
X1882819Y8167921D01*
X1882801Y8167910D01*
X1613229Y7987788D01*
X1613215Y7987778D01*
X1430844Y7838110D01*
X1430843Y7838109D01*
X2640701Y6628252D01*
X2539070Y6554412D01*
X2360988Y6376330D01*
X2287148Y6274699D01*
X1077291Y7484557D01*
X1077290Y7484556D01*
X927622Y7302185D01*
X927612Y7302171D01*
X747490Y7032599D01*
X747484Y7032589D01*
X733858Y7007096D01*
X684895Y6957252D01*
X616757Y6941792D01*
X551078Y6965624D01*
X508709Y7021182D01*
X500500Y7065550D01*
X500500Y11084679D01*
X506738Y11105925D01*
X508318Y11128012D01*
X516390Y11138796D01*
X520185Y11151718D01*
X536916Y11166217D01*
X550189Y11183946D01*
X562811Y11188654D01*
X572989Y11197473D01*
X594904Y11200625D01*
X615653Y11208363D01*
X628814Y11205501D01*
G37*
%TD.AperFunction*%
%TA.AperFunction,Conductor*%
G36*
X8112185Y7363450D02*
G01*
X8121147Y7364738D01*
X8145187Y7353760D01*
X8170539Y7346315D01*
X8176466Y7339475D01*
X8184703Y7335713D01*
X8198992Y7313479D01*
X8216294Y7293511D01*
X8218581Y7282997D01*
X8222477Y7276935D01*
X8227500Y7242000D01*
X8227500Y7024500D01*
X8207815Y6957461D01*
X8155011Y6911706D01*
X8103500Y6900500D01*
X7851500Y6900500D01*
X7784461Y6920185D01*
X7738706Y6972989D01*
X7727500Y7024500D01*
X7727500Y7242000D01*
X7747185Y7309039D01*
X7799989Y7354794D01*
X7851500Y7366000D01*
X8103500Y7366000D01*
X8112185Y7363450D01*
G37*
%TD.AperFunction*%
%TA.AperFunction,Conductor*%
G36*
X44822076Y10038150D02*
G01*
X44867831Y9985346D01*
X44877722Y9933149D01*
X44879000Y9933149D01*
X44879000Y9382000D01*
X47043689Y9382000D01*
X47032107Y9373585D01*
X46887415Y9228893D01*
X46767140Y9063349D01*
X46674243Y8881027D01*
X46611010Y8686417D01*
X46579000Y8484312D01*
X46579000Y8279688D01*
X46611010Y8077583D01*
X46674243Y7882973D01*
X46767140Y7700651D01*
X46887415Y7535107D01*
X47032107Y7390415D01*
X47043689Y7382000D01*
X45492228Y7382000D01*
X45425189Y7401685D01*
X45399937Y7423185D01*
X45394034Y7429763D01*
X45364114Y7474542D01*
X45266542Y7572114D01*
X44362817Y8475839D01*
X44329333Y8537161D01*
X44326499Y8563519D01*
X44326499Y9933835D01*
X44346184Y10000874D01*
X44398988Y10046629D01*
X44450499Y10057835D01*
X44755037Y10057835D01*
X44822076Y10038150D01*
G37*
%TD.AperFunction*%
%TA.AperFunction,Conductor*%
G36*
X50488082Y9362315D02*
G01*
X50508724Y9345681D01*
X50864381Y8990024D01*
X50879084Y8963097D01*
X50895677Y8937278D01*
X50896568Y8931078D01*
X50897866Y8928701D01*
X50900700Y8902343D01*
X50900700Y8900270D01*
X50900699Y8900252D01*
X50900699Y8734546D01*
X50900698Y8734546D01*
X50941624Y8581811D01*
X50941625Y8581810D01*
X50964223Y8542670D01*
X50964224Y8542669D01*
X51020677Y8444888D01*
X51020681Y8444883D01*
X51139549Y8326015D01*
X51139555Y8326010D01*
X51267102Y8198463D01*
X51300587Y8137140D01*
X51302780Y8098186D01*
X51301700Y8087615D01*
X51301700Y7861845D01*
X51282015Y7794806D01*
X51229211Y7749051D01*
X51160053Y7739107D01*
X51153509Y7740228D01*
X51005846Y7769600D01*
X51005842Y7769600D01*
X50848158Y7769600D01*
X50848155Y7769600D01*
X50693510Y7738839D01*
X50693498Y7738836D01*
X50547827Y7678498D01*
X50547814Y7678491D01*
X50416711Y7590890D01*
X50416707Y7590887D01*
X50305213Y7479393D01*
X50305210Y7479389D01*
X50276960Y7437109D01*
X50223348Y7392304D01*
X50173858Y7382000D01*
X48714311Y7382000D01*
X48725893Y7390415D01*
X48870585Y7535107D01*
X48990860Y7700651D01*
X49083757Y7882973D01*
X49146990Y8077583D01*
X49179000Y8279688D01*
X49179000Y8484312D01*
X49146990Y8686417D01*
X49083757Y8881027D01*
X48990860Y9063349D01*
X48870585Y9228893D01*
X48725893Y9373585D01*
X48714311Y9382000D01*
X50421043Y9382000D01*
X50488082Y9362315D01*
G37*
%TD.AperFunction*%
%TA.AperFunction,Conductor*%
G36*
X6505953Y10818929D02*
G01*
X6544810Y10760860D01*
X6550500Y10723728D01*
X6550500Y10104170D01*
X6550499Y10104152D01*
X6550499Y9938446D01*
X6550498Y9938446D01*
X6584995Y9809704D01*
X6591423Y9785715D01*
X6610419Y9752814D01*
X6628498Y9721500D01*
X6670479Y9648785D01*
X6789349Y9529915D01*
X6789355Y9529910D01*
X7571465Y8747800D01*
X7604950Y8686477D01*
X7599966Y8616785D01*
X7558094Y8560852D01*
X7522789Y8542413D01*
X7395878Y8500358D01*
X7395875Y8500357D01*
X7246654Y8408316D01*
X7122684Y8284346D01*
X7030643Y8135125D01*
X7030642Y8135122D01*
X6984406Y7995592D01*
X6944633Y7938148D01*
X6880117Y7911325D01*
X6811341Y7923640D01*
X6779019Y7946916D01*
X5118690Y9607245D01*
X5118688Y9607248D01*
X4999817Y9726119D01*
X4999816Y9726120D01*
X4909672Y9778164D01*
X4909671Y9778165D01*
X4862883Y9805178D01*
X4785177Y9825999D01*
X4710157Y9846101D01*
X4552043Y9846101D01*
X4544447Y9846101D01*
X4544431Y9846100D01*
X4355374Y9846100D01*
X4288335Y9865785D01*
X4267693Y9882419D01*
X3897493Y10252619D01*
X3864008Y10313942D01*
X3868992Y10383634D01*
X3910864Y10439567D01*
X3972575Y10463658D01*
X4025796Y10469094D01*
X4192219Y10524242D01*
X4192224Y10524244D01*
X4341442Y10616283D01*
X4435064Y10709905D01*
X4496387Y10743390D01*
X4566079Y10738406D01*
X4610427Y10709905D01*
X4704444Y10615888D01*
X4853766Y10523786D01*
X5020303Y10468601D01*
X5123091Y10458100D01*
X5748108Y10458101D01*
X5748116Y10458102D01*
X5748119Y10458102D01*
X5830329Y10466500D01*
X5850897Y10468601D01*
X6017434Y10523786D01*
X6166756Y10615888D01*
X6290812Y10739944D01*
X6320961Y10788825D01*
X6372908Y10835549D01*
X6441871Y10846772D01*
X6505953Y10818929D01*
G37*
%TD.AperFunction*%
%TA.AperFunction,Conductor*%
G36*
X27835577Y12779973D02*
G01*
X27854487Y12779635D01*
X27882704Y12766135D01*
X27884473Y12765615D01*
X27886325Y12764402D01*
X28018014Y12676410D01*
X28018027Y12676403D01*
X28132704Y12628903D01*
X28163703Y12616063D01*
X28283539Y12592226D01*
X28318353Y12585301D01*
X28318356Y12585300D01*
X28318358Y12585300D01*
X28351500Y12585300D01*
X28418539Y12565615D01*
X28464294Y12512811D01*
X28475500Y12461300D01*
X28475500Y11484094D01*
X28475500Y11346106D01*
X28475500Y11346104D01*
X28475499Y11346104D01*
X28502418Y11210778D01*
X28502421Y11210768D01*
X28545061Y11107826D01*
X28554500Y11060374D01*
X28554500Y10523599D01*
X28554501Y10523581D01*
X28565000Y10420804D01*
X28565001Y10420801D01*
X28620185Y10254269D01*
X28620187Y10254264D01*
X28625410Y10245796D01*
X28692938Y10136315D01*
X28712289Y10104943D01*
X28830681Y9986551D01*
X28864166Y9925228D01*
X28867000Y9898870D01*
X28867000Y9809706D01*
X28867000Y9809704D01*
X28866999Y9809704D01*
X28893918Y9674378D01*
X28893921Y9674368D01*
X28946722Y9546893D01*
X29023387Y9432155D01*
X29023388Y9432154D01*
X29678880Y8776663D01*
X29712365Y8715340D01*
X29707381Y8645649D01*
X29694301Y8620091D01*
X29618859Y8507186D01*
X29618852Y8507173D01*
X29558514Y8361502D01*
X29558511Y8361492D01*
X29556461Y8351186D01*
X29524072Y8289277D01*
X29463354Y8254707D01*
X29393584Y8258451D01*
X29347164Y8287704D01*
X29226157Y8408711D01*
X29226156Y8408712D01*
X29083859Y8496481D01*
X29076836Y8500813D01*
X29076831Y8500815D01*
X29057626Y8507179D01*
X28910297Y8555999D01*
X28910295Y8556000D01*
X28807510Y8566500D01*
X28182498Y8566500D01*
X28182480Y8566499D01*
X28079703Y8556000D01*
X28079700Y8555999D01*
X27913168Y8500815D01*
X27913163Y8500813D01*
X27763842Y8408711D01*
X27670181Y8315049D01*
X27608858Y8281564D01*
X27539166Y8286548D01*
X27494819Y8315049D01*
X27401157Y8408711D01*
X27401156Y8408712D01*
X27258859Y8496481D01*
X27251836Y8500813D01*
X27251831Y8500815D01*
X27232626Y8507179D01*
X27085297Y8555999D01*
X27085295Y8556000D01*
X26982510Y8566500D01*
X26357498Y8566500D01*
X26357480Y8566499D01*
X26254703Y8556000D01*
X26254700Y8555999D01*
X26088168Y8500815D01*
X26088163Y8500813D01*
X25997495Y8444888D01*
X25938844Y8408712D01*
X25938842Y8408711D01*
X25932697Y8404920D01*
X25931071Y8407556D01*
X25879185Y8386598D01*
X25867020Y8386000D01*
X25189000Y8386000D01*
X25189000Y8090500D01*
X25169315Y8023461D01*
X25116511Y7977706D01*
X25065000Y7966500D01*
X24813000Y7966500D01*
X24745961Y7986185D01*
X24700206Y8038989D01*
X24689000Y8090500D01*
X24689000Y8512000D01*
X24708685Y8579039D01*
X24761489Y8624794D01*
X24813000Y8636000D01*
X24939000Y8636000D01*
X24939000Y8762000D01*
X24958685Y8829039D01*
X25011489Y8874794D01*
X25063000Y8886000D01*
X25951499Y8886000D01*
X25951499Y9135972D01*
X25951498Y9135987D01*
X25941005Y9238698D01*
X25885858Y9405120D01*
X25885856Y9405125D01*
X25793815Y9554346D01*
X25669845Y9678316D01*
X25650139Y9690471D01*
X25603416Y9742420D01*
X25592195Y9811383D01*
X25620039Y9875464D01*
X25627535Y9883668D01*
X25747212Y10003344D01*
X25839314Y10152666D01*
X25894499Y10319203D01*
X25905000Y10421991D01*
X25904999Y11422008D01*
X25900811Y11463002D01*
X25894499Y11524797D01*
X25894498Y11524800D01*
X25891251Y11534600D01*
X25839314Y11691334D01*
X25747212Y11840656D01*
X25623156Y11964712D01*
X25623155Y11964713D01*
X25551402Y12008971D01*
X25504678Y12060919D01*
X25492500Y12114509D01*
X25492500Y12442553D01*
X25512185Y12509592D01*
X25564989Y12555347D01*
X25592309Y12564170D01*
X25613056Y12568297D01*
X25725497Y12590663D01*
X25838166Y12637333D01*
X25871172Y12651003D01*
X25871172Y12651004D01*
X25871179Y12651006D01*
X26002289Y12738611D01*
X26005407Y12741729D01*
X26012660Y12748981D01*
X26073983Y12782466D01*
X26100341Y12785300D01*
X27817434Y12785300D01*
X27835577Y12779973D01*
G37*
%TD.AperFunction*%
%TA.AperFunction,Conductor*%
G36*
X39085408Y12363956D02*
G01*
X39124349Y12325015D01*
X39124354Y12325011D01*
X41271549Y10177815D01*
X41271551Y10177814D01*
X41271555Y10177811D01*
X41397766Y10104944D01*
X41408481Y10098758D01*
X41433593Y10092030D01*
X41493253Y10055666D01*
X41523783Y9992819D01*
X41525500Y9972255D01*
X41525500Y8563520D01*
X41505815Y8496481D01*
X41489181Y8475839D01*
X41034680Y8021339D01*
X40973357Y7987854D01*
X40903665Y7992838D01*
X40859318Y8021339D01*
X40208546Y8672112D01*
X40208545Y8672113D01*
X40093807Y8748778D01*
X39966332Y8801579D01*
X39966322Y8801582D01*
X39830996Y8828500D01*
X39830994Y8828500D01*
X39830993Y8828500D01*
X38023127Y8828500D01*
X37956088Y8848185D01*
X37910333Y8900989D01*
X37900389Y8970147D01*
X37903353Y8984595D01*
X37906499Y8996339D01*
X37906500Y8996340D01*
X37906500Y11687501D01*
X37926185Y11754540D01*
X37978989Y11800295D01*
X38030500Y11811501D01*
X38349562Y11811501D01*
X38442157Y11823691D01*
X38460854Y11826152D01*
X38599331Y11883511D01*
X38718244Y11974756D01*
X38809489Y12093669D01*
X38866848Y12232146D01*
X38874788Y12292462D01*
X38903054Y12356356D01*
X38961378Y12394828D01*
X39031243Y12395660D01*
X39085408Y12363956D01*
G37*
%TD.AperFunction*%
%TA.AperFunction,Conductor*%
G36*
X11882444Y13468401D02*
G01*
X11921486Y13423344D01*
X11925951Y13414580D01*
X12050890Y13242614D01*
X12201213Y13092291D01*
X12373179Y12967352D01*
X12373181Y12967351D01*
X12373184Y12967349D01*
X12562588Y12870843D01*
X12764757Y12805154D01*
X12974713Y12771900D01*
X12974714Y12771900D01*
X13187286Y12771900D01*
X13187287Y12771900D01*
X13397243Y12805154D01*
X13599412Y12870843D01*
X13773405Y12959498D01*
X13776110Y12960006D01*
X13778189Y12961806D01*
X13810238Y12966415D01*
X13842074Y12972393D01*
X13844623Y12971359D01*
X13847347Y12971750D01*
X13876805Y12958297D01*
X13906815Y12946117D01*
X13908400Y12943868D01*
X13910903Y12942725D01*
X13928411Y12915482D01*
X13947072Y12889010D01*
X13947644Y12885554D01*
X13948677Y12883947D01*
X13953700Y12849012D01*
X13953700Y12665157D01*
X13953699Y12665139D01*
X13953699Y12499433D01*
X13953698Y12499433D01*
X13994624Y12346698D01*
X13994625Y12346697D01*
X14008381Y12322872D01*
X14013332Y12314297D01*
X14071469Y12213600D01*
X14073681Y12209770D01*
X14192552Y12090899D01*
X14192555Y12090897D01*
X14373892Y11909560D01*
X14407377Y11848237D01*
X14402393Y11778545D01*
X14360521Y11722612D01*
X14295057Y11698195D01*
X14286211Y11697879D01*
X14081549Y11697879D01*
X14081533Y11697880D01*
X14073937Y11697880D01*
X13915822Y11697880D01*
X13839458Y11677418D01*
X13763093Y11656956D01*
X13763088Y11656953D01*
X13626169Y11577904D01*
X13626161Y11577898D01*
X11921082Y9872819D01*
X11859759Y9839334D01*
X11833401Y9836500D01*
X11220998Y9836500D01*
X11220980Y9836499D01*
X11118203Y9826000D01*
X11118200Y9825999D01*
X10951668Y9770815D01*
X10951663Y9770813D01*
X10802342Y9678711D01*
X10678289Y9554658D01*
X10586187Y9405337D01*
X10586185Y9405332D01*
X10575665Y9373585D01*
X10531001Y9238797D01*
X10531001Y9238796D01*
X10531000Y9238796D01*
X10520500Y9136017D01*
X10520500Y8627413D01*
X10500815Y8560374D01*
X10448011Y8514619D01*
X10378853Y8504675D01*
X10357498Y8509707D01*
X10217797Y8555999D01*
X10217795Y8556000D01*
X10115016Y8566500D01*
X9502597Y8566500D01*
X9435558Y8586185D01*
X9414916Y8602819D01*
X7787819Y10229916D01*
X7773115Y10256844D01*
X7756523Y10282662D01*
X7755631Y10288863D01*
X7754334Y10291239D01*
X7751500Y10317597D01*
X7751500Y10525177D01*
X7771185Y10592216D01*
X7823989Y10637971D01*
X7893147Y10647915D01*
X7953698Y10620263D01*
X7954093Y10620761D01*
X7956125Y10619154D01*
X7956703Y10618890D01*
X7958076Y10617612D01*
X7959753Y10616285D01*
X8108975Y10524244D01*
X8108980Y10524242D01*
X8275402Y10469095D01*
X8275409Y10469094D01*
X8378119Y10458601D01*
X8440599Y10458602D01*
X8440600Y10458602D01*
X8440600Y11534600D01*
X8460285Y11601639D01*
X8513089Y11647394D01*
X8564600Y11658600D01*
X8816600Y11658600D01*
X8883639Y11638915D01*
X8929394Y11586111D01*
X8940600Y11534600D01*
X8940600Y10458601D01*
X9003072Y10458601D01*
X9003086Y10458602D01*
X9105797Y10469095D01*
X9272219Y10524242D01*
X9272224Y10524244D01*
X9421442Y10616283D01*
X9515064Y10709905D01*
X9576387Y10743390D01*
X9646079Y10738406D01*
X9690427Y10709905D01*
X9784444Y10615888D01*
X9933766Y10523786D01*
X10100303Y10468601D01*
X10203091Y10458100D01*
X10828108Y10458101D01*
X10828116Y10458102D01*
X10828119Y10458102D01*
X10910329Y10466500D01*
X10930897Y10468601D01*
X11097434Y10523786D01*
X11246756Y10615888D01*
X11370812Y10739944D01*
X11462914Y10889266D01*
X11518099Y11055803D01*
X11528600Y11158591D01*
X11528599Y12158608D01*
X11528099Y12163500D01*
X11518099Y12261399D01*
X11518098Y12261400D01*
X11511583Y12281061D01*
X11462914Y12427934D01*
X11370812Y12577256D01*
X11246756Y12701312D01*
X11246755Y12701313D01*
X11200402Y12729904D01*
X11193578Y12737491D01*
X11184297Y12741729D01*
X11170609Y12763028D01*
X11153678Y12781852D01*
X11151033Y12793489D01*
X11146523Y12800507D01*
X11141500Y12835442D01*
X11141500Y12836682D01*
X11161185Y12903721D01*
X11209207Y12947167D01*
X11248815Y12967348D01*
X11248815Y12967349D01*
X11248816Y12967349D01*
X11359236Y13047573D01*
X11420786Y13092291D01*
X11420788Y13092294D01*
X11420792Y13092296D01*
X11571104Y13242608D01*
X11571106Y13242612D01*
X11571109Y13242614D01*
X11686169Y13400982D01*
X11696051Y13414584D01*
X11700514Y13423346D01*
X11748488Y13474141D01*
X11816308Y13490937D01*
X11882444Y13468401D01*
G37*
%TD.AperFunction*%
%TA.AperFunction,Conductor*%
G36*
X35020439Y9680215D02*
G01*
X35066194Y9627411D01*
X35077400Y9575900D01*
X35077400Y9323900D01*
X35057715Y9256861D01*
X35004911Y9211106D01*
X34953400Y9199900D01*
X34603600Y9199900D01*
X34603600Y9185600D01*
X34583915Y9118561D01*
X34531111Y9072806D01*
X34479600Y9061600D01*
X33372600Y9061600D01*
X33305561Y9081285D01*
X33259806Y9134089D01*
X33248600Y9185600D01*
X33248600Y9437600D01*
X33268285Y9504639D01*
X33321089Y9550394D01*
X33372600Y9561600D01*
X33972400Y9561600D01*
X33972400Y9575900D01*
X33992085Y9642939D01*
X34044889Y9688694D01*
X34096400Y9699900D01*
X34953400Y9699900D01*
X35020439Y9680215D01*
G37*
%TD.AperFunction*%
%TA.AperFunction,Conductor*%
G36*
X14294730Y10445482D02*
G01*
X14350663Y10403610D01*
X14375080Y10338146D01*
X14370473Y10294706D01*
X14330899Y10158489D01*
X14330704Y10156002D01*
X14330705Y10156000D01*
X15689000Y10156000D01*
X15756039Y10136315D01*
X15801794Y10083511D01*
X15813000Y10032000D01*
X15813000Y9780000D01*
X15793315Y9712961D01*
X15740511Y9667206D01*
X15689000Y9656000D01*
X14330703Y9656000D01*
X14313367Y9637246D01*
X14253405Y9601380D01*
X14183572Y9603625D01*
X14134631Y9633737D01*
X14089657Y9678711D01*
X14089656Y9678712D01*
X13940334Y9770814D01*
X13813605Y9812808D01*
X13756161Y9852581D01*
X13729338Y9917097D01*
X13741653Y9985873D01*
X13764925Y10018191D01*
X14163719Y10416984D01*
X14225038Y10450466D01*
X14294730Y10445482D01*
G37*
%TD.AperFunction*%
%TA.AperFunction,Conductor*%
G36*
X108442539Y25479815D02*
G01*
X108488294Y25427011D01*
X108499500Y25375500D01*
X108499500Y10480746D01*
X108479815Y10413707D01*
X108427011Y10367952D01*
X108376925Y10356754D01*
X103315814Y10298603D01*
X103271057Y10306413D01*
X103191485Y10336091D01*
X103191483Y10336092D01*
X103131883Y10342499D01*
X103131881Y10342500D01*
X103131873Y10342500D01*
X103131865Y10342500D01*
X103024500Y10342500D01*
X102957461Y10362185D01*
X102911706Y10414989D01*
X102900500Y10466500D01*
X102900500Y13597352D01*
X102884796Y13696501D01*
X102868477Y13799534D01*
X102859788Y13826277D01*
X102844770Y13872499D01*
X102805223Y13994214D01*
X102791824Y14020511D01*
X102712287Y14176610D01*
X102712285Y14176613D01*
X102712284Y14176615D01*
X102679218Y14222126D01*
X102679216Y14222128D01*
X102678582Y14223000D01*
X102658155Y14251117D01*
X102644502Y14269909D01*
X102594493Y14338742D01*
X103913500Y14338742D01*
X103913500Y14109259D01*
X103938146Y13922062D01*
X103943452Y13881762D01*
X103999301Y13673329D01*
X104002842Y13660113D01*
X104090650Y13448124D01*
X104090657Y13448110D01*
X104149489Y13346210D01*
X104194569Y13268128D01*
X104205392Y13249383D01*
X104345081Y13067339D01*
X104345089Y13067330D01*
X104507330Y12905089D01*
X104507338Y12905082D01*
X104507339Y12905081D01*
X104528283Y12889010D01*
X104689382Y12765393D01*
X104689385Y12765392D01*
X104689388Y12765389D01*
X104888112Y12650656D01*
X104888117Y12650654D01*
X104888123Y12650651D01*
X104971622Y12616065D01*
X105100113Y12562842D01*
X105321762Y12503452D01*
X105549266Y12473500D01*
X105549273Y12473500D01*
X105778727Y12473500D01*
X105778734Y12473500D01*
X106006238Y12503452D01*
X106227887Y12562842D01*
X106439888Y12650656D01*
X106638612Y12765389D01*
X106820661Y12905081D01*
X106820665Y12905086D01*
X106820670Y12905089D01*
X106982911Y13067330D01*
X106982914Y13067335D01*
X106982919Y13067339D01*
X107122611Y13249388D01*
X107237344Y13448112D01*
X107325158Y13660113D01*
X107384548Y13881762D01*
X107414500Y14109266D01*
X107414500Y14338734D01*
X107414445Y14339148D01*
X107412048Y14357361D01*
X107384548Y14566238D01*
X107325158Y14787887D01*
X107264422Y14934517D01*
X107237349Y14999877D01*
X107237346Y14999883D01*
X107237344Y14999888D01*
X107122611Y15198612D01*
X107122608Y15198615D01*
X107122607Y15198618D01*
X106998541Y15360302D01*
X106982919Y15380661D01*
X106982918Y15380662D01*
X106982911Y15380670D01*
X106820670Y15542911D01*
X106820661Y15542919D01*
X106638617Y15682608D01*
X106606435Y15701188D01*
X106439888Y15797344D01*
X106439876Y15797350D01*
X106227887Y15885158D01*
X106174361Y15899500D01*
X106006238Y15944548D01*
X105965708Y15949884D01*
X105778741Y15974500D01*
X105778734Y15974500D01*
X105549266Y15974500D01*
X105549258Y15974500D01*
X105332715Y15945991D01*
X105321762Y15944548D01*
X105259492Y15927863D01*
X105100112Y15885158D01*
X104888123Y15797350D01*
X104888109Y15797343D01*
X104689382Y15682608D01*
X104507338Y15542919D01*
X104345081Y15380662D01*
X104205392Y15198618D01*
X104090657Y14999891D01*
X104090650Y14999877D01*
X104002842Y14787888D01*
X103943453Y14566241D01*
X103943451Y14566230D01*
X103913500Y14338742D01*
X102594493Y14338742D01*
X102591971Y14342213D01*
X102591968Y14342216D01*
X102591966Y14342219D01*
X102447219Y14486966D01*
X102447218Y14486967D01*
X102444107Y14490078D01*
X102444092Y14490092D01*
X100575221Y16358964D01*
X100575220Y16358965D01*
X100575219Y16358966D01*
X100409611Y16479287D01*
X100227218Y16572220D01*
X100032535Y16635477D01*
X100032533Y16635478D01*
X100032531Y16635478D01*
X99891364Y16657837D01*
X99830352Y16667500D01*
X99625648Y16667500D01*
X99578779Y16660077D01*
X99423468Y16635478D01*
X99228779Y16572219D01*
X99046387Y16479286D01*
X99046384Y16479284D01*
X98880778Y16358964D01*
X98736036Y16214222D01*
X98736031Y16214216D01*
X98615711Y16048610D01*
X98611929Y16041188D01*
X98600718Y16023185D01*
X98534203Y15934331D01*
X98534202Y15934329D01*
X98483908Y15799483D01*
X98477145Y15736572D01*
X98476811Y15736608D01*
X98471644Y15708840D01*
X98469840Y15703287D01*
X98461967Y15679055D01*
X98459522Y15671531D01*
X98427500Y15469352D01*
X98427500Y15264649D01*
X98459523Y15062462D01*
X98471644Y15025157D01*
X98476813Y14997391D01*
X98477147Y14997426D01*
X98477500Y14994133D01*
X98477501Y14994128D01*
X98479474Y14975772D01*
X98483908Y14934517D01*
X98534202Y14799672D01*
X98538454Y14791886D01*
X98535280Y14790154D01*
X98553659Y14740698D01*
X98538725Y14672443D01*
X98538117Y14671498D01*
X98534202Y14664329D01*
X98487043Y14537886D01*
X98483909Y14529483D01*
X98477500Y14469873D01*
X98477500Y14469866D01*
X98477500Y14469865D01*
X98477500Y13724130D01*
X98477501Y13724124D01*
X98483908Y13664517D01*
X98534202Y13529672D01*
X98538454Y13521886D01*
X98535280Y13520154D01*
X98553659Y13470698D01*
X98538725Y13402443D01*
X98538117Y13401498D01*
X98534202Y13394329D01*
X98487133Y13268128D01*
X98483909Y13259483D01*
X98477500Y13199873D01*
X98477500Y12835442D01*
X98477501Y12512900D01*
X98457817Y12445861D01*
X98405013Y12400106D01*
X98353501Y12388900D01*
X97790752Y12388900D01*
X97586048Y12388900D01*
X97578453Y12387697D01*
X97383868Y12356878D01*
X97383867Y12356878D01*
X97293699Y12327580D01*
X97189178Y12293619D01*
X97100577Y12248474D01*
X97006787Y12200686D01*
X97006784Y12200684D01*
X96841178Y12080364D01*
X95782335Y11021521D01*
X95721012Y10988036D01*
X95651320Y10993020D01*
X95595387Y11034892D01*
X95570970Y11100356D01*
X95571365Y11122459D01*
X95577999Y11184159D01*
X95578000Y11184173D01*
X95578000Y11307000D01*
X94578000Y11307000D01*
X94578000Y10732000D01*
X95125828Y10732000D01*
X95125841Y10732001D01*
X95187540Y10738635D01*
X95256300Y10726231D01*
X95307438Y10678621D01*
X95324718Y10610922D01*
X95302654Y10544628D01*
X95288478Y10527665D01*
X95139631Y10378818D01*
X95078311Y10345334D01*
X95051952Y10342500D01*
X92278011Y10342500D01*
X92210972Y10362185D01*
X92165217Y10414989D01*
X92155273Y10484147D01*
X92160305Y10505504D01*
X92166824Y10525177D01*
X92194999Y10610203D01*
X92205500Y10712991D01*
X92205499Y11184156D01*
X93078000Y11184156D01*
X93084401Y11124628D01*
X93084403Y11124621D01*
X93134645Y10989914D01*
X93134649Y10989907D01*
X93220809Y10874813D01*
X93220812Y10874810D01*
X93335906Y10788650D01*
X93335913Y10788646D01*
X93470620Y10738404D01*
X93470627Y10738402D01*
X93530155Y10732001D01*
X93530172Y10732000D01*
X94078000Y10732000D01*
X94078000Y11307000D01*
X93078000Y11307000D01*
X93078000Y11184156D01*
X92205499Y11184156D01*
X92205499Y11463008D01*
X92196508Y11551020D01*
X92194999Y11565797D01*
X92194998Y11565800D01*
X92167960Y11647394D01*
X92139814Y11732334D01*
X92047712Y11881656D01*
X91923656Y12005712D01*
X91802622Y12080366D01*
X91774336Y12097813D01*
X91774331Y12097815D01*
X91750605Y12105677D01*
X91607797Y12152999D01*
X91607795Y12153000D01*
X91505016Y12163500D01*
X91505009Y12163500D01*
X91337204Y12163500D01*
X91270165Y12183185D01*
X91249523Y12199819D01*
X90591319Y12858023D01*
X90557834Y12919346D01*
X90555000Y12945704D01*
X90555000Y12963001D01*
X91055000Y12963001D01*
X91504972Y12963001D01*
X91504986Y12963002D01*
X91607697Y12973495D01*
X91774119Y13028642D01*
X91774124Y13028644D01*
X91923345Y13120685D01*
X92047315Y13244655D01*
X92139356Y13393876D01*
X92139358Y13393881D01*
X92194505Y13560303D01*
X92194506Y13560310D01*
X92204999Y13663014D01*
X92205000Y13663027D01*
X92205000Y13788000D01*
X91055000Y13788000D01*
X91055000Y12963001D01*
X90555000Y12963001D01*
X90555000Y14288000D01*
X91055000Y14288000D01*
X92204999Y14288000D01*
X92204999Y14412972D01*
X92204998Y14412987D01*
X92194505Y14515698D01*
X92139358Y14682120D01*
X92139356Y14682125D01*
X92047315Y14831346D01*
X91923345Y14955316D01*
X91774124Y15047357D01*
X91774119Y15047359D01*
X91607697Y15102506D01*
X91607690Y15102507D01*
X91504986Y15113000D01*
X91055000Y15113000D01*
X91055000Y14288000D01*
X90555000Y14288000D01*
X90555000Y15113000D01*
X90105028Y15113000D01*
X90105012Y15112999D01*
X90002302Y15102506D01*
X89835878Y15047358D01*
X89829334Y15044306D01*
X89828111Y15046928D01*
X89812281Y15042603D01*
X89784592Y15032275D01*
X89778960Y15033501D01*
X89773399Y15031981D01*
X89745198Y15040845D01*
X89716319Y15047127D01*
X89709884Y15051944D01*
X89706744Y15052931D01*
X89688065Y15068278D01*
X89520019Y15236324D01*
X89486534Y15297647D01*
X89483700Y15324005D01*
X89483700Y17447730D01*
X89503385Y17514769D01*
X89520019Y17535411D01*
X90213054Y18228446D01*
X90907814Y18923206D01*
X90923859Y18945290D01*
X91009632Y19063346D01*
X91059019Y19160277D01*
X91106991Y19211070D01*
X91174812Y19227866D01*
X91240947Y19205330D01*
X91275041Y19169078D01*
X91286287Y19150845D01*
X91410344Y19026788D01*
X91506918Y18967221D01*
X91553643Y18915273D01*
X91564866Y18846311D01*
X91559528Y18822680D01*
X91531602Y18738403D01*
X91531600Y18738396D01*
X91521100Y18635617D01*
X91521100Y17635599D01*
X91521101Y17635581D01*
X91531600Y17532804D01*
X91531601Y17532801D01*
X91586783Y17366275D01*
X91586787Y17366264D01*
X91589754Y17361454D01*
X91678888Y17216944D01*
X91802944Y17092888D01*
X91925562Y17017257D01*
X91950596Y17001816D01*
X91997321Y16949868D01*
X92009500Y16896277D01*
X92009500Y16721006D01*
X92036418Y16585678D01*
X92036421Y16585668D01*
X92089222Y16458193D01*
X92165887Y16343455D01*
X92165888Y16343454D01*
X93041181Y15468162D01*
X93074666Y15406839D01*
X93077500Y15380481D01*
X93077500Y14994130D01*
X93077501Y14994124D01*
X93083908Y14934517D01*
X93134202Y14799673D01*
X93138452Y14791891D01*
X93135394Y14790222D01*
X93153963Y14740406D01*
X93139098Y14672136D01*
X93138717Y14671543D01*
X93134645Y14664087D01*
X93084403Y14529380D01*
X93084401Y14529373D01*
X93078000Y14469845D01*
X93078000Y14347000D01*
X94204000Y14347000D01*
X94271039Y14327315D01*
X94316794Y14274511D01*
X94328000Y14223000D01*
X94328000Y13971000D01*
X94308315Y13903961D01*
X94255511Y13858206D01*
X94204000Y13847000D01*
X93078000Y13847000D01*
X93078000Y13724156D01*
X93084401Y13664628D01*
X93084403Y13664621D01*
X93134645Y13529914D01*
X93138897Y13522128D01*
X93135679Y13520372D01*
X93153977Y13471024D01*
X93138993Y13402780D01*
X93137835Y13400982D01*
X93134202Y13394329D01*
X93087133Y13268128D01*
X93083909Y13259483D01*
X93077500Y13199873D01*
X93077500Y13199866D01*
X93077500Y13199865D01*
X93077500Y12454130D01*
X93077501Y12454124D01*
X93083908Y12394517D01*
X93134202Y12259673D01*
X93138452Y12251891D01*
X93135394Y12250222D01*
X93153963Y12200406D01*
X93139098Y12132136D01*
X93138717Y12131543D01*
X93134645Y12124087D01*
X93084403Y11989380D01*
X93084401Y11989373D01*
X93078000Y11929845D01*
X93078000Y11807000D01*
X95578000Y11807000D01*
X95578000Y11929828D01*
X95577999Y11929845D01*
X95571598Y11989373D01*
X95571597Y11989377D01*
X95521349Y12124096D01*
X95517101Y12131877D01*
X95520360Y12133657D01*
X95502046Y12182626D01*
X95516836Y12250913D01*
X95518023Y12252761D01*
X95521793Y12259665D01*
X95521792Y12259665D01*
X95521796Y12259669D01*
X95572091Y12394517D01*
X95578500Y12454127D01*
X95578499Y12751905D01*
X95598183Y12818943D01*
X95614813Y12839580D01*
X95862506Y13087272D01*
X95862511Y13087276D01*
X95872714Y13097480D01*
X95872716Y13097480D01*
X95984520Y13209284D01*
X96063577Y13346216D01*
X96104500Y13498943D01*
X96104500Y16081057D01*
X96104500Y16081060D01*
X96102533Y16088400D01*
X96102533Y16088399D01*
X96102532Y16088404D01*
X96063577Y16233785D01*
X96016363Y16315561D01*
X96016363Y16315563D01*
X95985799Y16368502D01*
X95969326Y16436402D01*
X95992179Y16502429D01*
X96047100Y16545619D01*
X96093181Y16554501D01*
X96632008Y16554501D01*
X96632016Y16554502D01*
X96632019Y16554502D01*
X96688302Y16560252D01*
X96734797Y16565001D01*
X96901334Y16620186D01*
X97050656Y16712288D01*
X97174712Y16836344D01*
X97176752Y16839653D01*
X97178745Y16841445D01*
X97179193Y16842011D01*
X97179289Y16841935D01*
X97228694Y16886377D01*
X97297656Y16897605D01*
X97361740Y16869766D01*
X97387829Y16839661D01*
X97389681Y16836659D01*
X97389683Y16836656D01*
X97513654Y16712685D01*
X97662875Y16620644D01*
X97662880Y16620642D01*
X97829302Y16565495D01*
X97829309Y16565494D01*
X97932019Y16555001D01*
X98482000Y16555001D01*
X98531972Y16555001D01*
X98531986Y16555002D01*
X98634697Y16565495D01*
X98801119Y16620642D01*
X98801124Y16620644D01*
X98950345Y16712685D01*
X99074315Y16836655D01*
X99166356Y16985876D01*
X99166358Y16985881D01*
X99221505Y17152303D01*
X99221506Y17152310D01*
X99231999Y17255014D01*
X99232000Y17255027D01*
X99232000Y17530000D01*
X98482000Y17530000D01*
X98482000Y16555001D01*
X97932019Y16555001D01*
X97981999Y16555002D01*
X97982000Y16555002D01*
X97982000Y18030000D01*
X98482000Y18030000D01*
X99231999Y18030000D01*
X99231999Y18304972D01*
X99231998Y18304987D01*
X99221505Y18407698D01*
X99166358Y18574120D01*
X99166356Y18574125D01*
X99074315Y18723346D01*
X98950345Y18847316D01*
X98801124Y18939357D01*
X98801119Y18939359D01*
X98634697Y18994506D01*
X98634690Y18994507D01*
X98531986Y19005000D01*
X98482000Y19005000D01*
X98482000Y18030000D01*
X97982000Y18030000D01*
X97982000Y19005000D01*
X97981999Y19005001D01*
X97932029Y19005000D01*
X97932011Y19004999D01*
X97829302Y18994506D01*
X97662880Y18939359D01*
X97662875Y18939357D01*
X97513654Y18847316D01*
X97444181Y18777842D01*
X97382858Y18744357D01*
X97313166Y18749341D01*
X97257233Y18791213D01*
X97232816Y18856677D01*
X97232500Y18865523D01*
X97232500Y20808694D01*
X97232499Y20808696D01*
X97197896Y20982659D01*
X97197893Y20982668D01*
X97190506Y21000501D01*
X97156335Y21083000D01*
X97130016Y21146541D01*
X97130009Y21146554D01*
X97031464Y21294035D01*
X97027599Y21298745D01*
X97029120Y21299994D01*
X96999984Y21353354D01*
X97004968Y21423046D01*
X97033465Y21467389D01*
X97121789Y21555711D01*
X97209394Y21686821D01*
X97209593Y21687300D01*
X97228940Y21734010D01*
X97269737Y21832503D01*
X97300500Y21987158D01*
X97300500Y22144842D01*
X97300500Y23378842D01*
X97300500Y23378845D01*
X97288022Y23441572D01*
X97294249Y23511163D01*
X97337111Y23566341D01*
X97403001Y23589586D01*
X97470998Y23573519D01*
X97497320Y23553445D01*
X98292139Y22758626D01*
X98292149Y22758615D01*
X98296479Y22754285D01*
X98296480Y22754284D01*
X98408284Y22642480D01*
X98474894Y22604023D01*
X98545215Y22563423D01*
X98697943Y22522500D01*
X98861500Y22522500D01*
X98928539Y22502815D01*
X98974294Y22450011D01*
X98985500Y22398500D01*
X98985500Y22106131D01*
X98985501Y22106124D01*
X98991908Y22046517D01*
X99042202Y21911673D01*
X99046452Y21903891D01*
X99043394Y21902222D01*
X99061963Y21852406D01*
X99047098Y21784136D01*
X99046717Y21783543D01*
X99042645Y21776087D01*
X98992403Y21641380D01*
X98992401Y21641373D01*
X98986000Y21581845D01*
X98986000Y21459000D01*
X101492000Y21459000D01*
X101559039Y21439315D01*
X101604794Y21386511D01*
X101616000Y21335000D01*
X101616000Y21228500D01*
X103815999Y21228500D01*
X103815999Y21290973D01*
X103815998Y21290988D01*
X103807149Y21377601D01*
X103794984Y21388587D01*
X103765361Y21397285D01*
X103719606Y21450089D01*
X103708400Y21501600D01*
X103708400Y22583600D01*
X103728085Y22650639D01*
X103780889Y22696394D01*
X103832400Y22707600D01*
X104084400Y22707600D01*
X104151439Y22687915D01*
X104197194Y22635111D01*
X104208400Y22583600D01*
X104208400Y21507601D01*
X104221245Y21494756D01*
X104244539Y21487916D01*
X104290294Y21435112D01*
X104301500Y21383601D01*
X104301500Y20518498D01*
X104281815Y20451459D01*
X104265181Y20430817D01*
X103776547Y19942183D01*
X103768601Y19937845D01*
X103763176Y19930597D01*
X103738416Y19921363D01*
X103715224Y19908698D01*
X103706194Y19909344D01*
X103697712Y19906180D01*
X103671891Y19911797D01*
X103645532Y19913682D01*
X103636478Y19919501D01*
X103629439Y19921032D01*
X103601185Y19942183D01*
X103564695Y19978673D01*
X103531210Y20039996D01*
X103536194Y20109688D01*
X103564695Y20154036D01*
X103658317Y20247658D01*
X103750356Y20396876D01*
X103750358Y20396881D01*
X103805505Y20563303D01*
X103805506Y20563310D01*
X103815999Y20666014D01*
X103816000Y20666027D01*
X103816000Y20728500D01*
X101410000Y20728500D01*
X101342961Y20748185D01*
X101297206Y20800989D01*
X101286000Y20852500D01*
X101286000Y20959000D01*
X98986000Y20959000D01*
X98986000Y20836156D01*
X98992401Y20776628D01*
X98992403Y20776621D01*
X99042645Y20641914D01*
X99046897Y20634128D01*
X99043679Y20632372D01*
X99061977Y20583024D01*
X99046993Y20514780D01*
X99045835Y20512982D01*
X99042202Y20506329D01*
X98991910Y20371487D01*
X98991909Y20371483D01*
X98985500Y20311873D01*
X98985500Y20311866D01*
X98985500Y20311865D01*
X98985500Y19566130D01*
X98985501Y19566124D01*
X98991908Y19506517D01*
X99042202Y19371672D01*
X99042206Y19371665D01*
X99128452Y19256456D01*
X99128455Y19256453D01*
X99243664Y19170207D01*
X99243671Y19170203D01*
X99378517Y19119909D01*
X99378516Y19119909D01*
X99385444Y19119165D01*
X99438127Y19113500D01*
X101033872Y19113501D01*
X101093483Y19119909D01*
X101228331Y19170204D01*
X101228339Y19170211D01*
X101232063Y19172243D01*
X101236230Y19173151D01*
X101236641Y19173303D01*
X101236662Y19173245D01*
X101300335Y19187101D01*
X101365802Y19162690D01*
X101407678Y19106760D01*
X101415500Y19063417D01*
X101415500Y18841000D01*
X101415501Y18840981D01*
X101426000Y18738204D01*
X101426001Y18738201D01*
X101461867Y18629967D01*
X101481186Y18571666D01*
X101573288Y18422344D01*
X101697344Y18298288D01*
X101846666Y18206186D01*
X102013203Y18151001D01*
X102115991Y18140500D01*
X103116008Y18140501D01*
X103116016Y18140502D01*
X103116019Y18140502D01*
X103172302Y18146252D01*
X103218797Y18151001D01*
X103385334Y18206186D01*
X103534656Y18298288D01*
X103658712Y18422344D01*
X103677929Y18453500D01*
X103702970Y18494096D01*
X103754918Y18540821D01*
X103808508Y18552999D01*
X103916154Y18552999D01*
X103916157Y18552999D01*
X104068885Y18593923D01*
X104125628Y18626684D01*
X104205816Y18672980D01*
X104317620Y18784784D01*
X104317620Y18784786D01*
X104327824Y18794989D01*
X104327828Y18794994D01*
X105260506Y19727672D01*
X105260511Y19727676D01*
X105270714Y19737880D01*
X105270716Y19737880D01*
X105382520Y19849684D01*
X105446494Y19960491D01*
X105461577Y19986615D01*
X105502501Y20139343D01*
X105502501Y20297457D01*
X105502501Y20305052D01*
X105502500Y20305070D01*
X105502500Y23523255D01*
X105502499Y23523259D01*
X105496684Y23544961D01*
X105482640Y23597377D01*
X105461577Y23675985D01*
X105427777Y23734528D01*
X105382520Y23812916D01*
X105270716Y23924720D01*
X105270715Y23924721D01*
X105266385Y23929051D01*
X105266374Y23929061D01*
X103907616Y25287819D01*
X103874131Y25349142D01*
X103879115Y25418834D01*
X103920987Y25474767D01*
X103986451Y25499184D01*
X103995297Y25499500D01*
X108375500Y25499500D01*
X108442539Y25479815D01*
G37*
%TD.AperFunction*%
%TA.AperFunction,Conductor*%
G36*
X60506562Y21619755D02*
G01*
X60532884Y21599681D01*
X61277318Y20855247D01*
X61310803Y20793924D01*
X61307343Y20728563D01*
X61294001Y20688301D01*
X61283500Y20585517D01*
X61283500Y19960499D01*
X61283501Y19960481D01*
X61294000Y19857704D01*
X61294001Y19857701D01*
X61333117Y19739658D01*
X61349186Y19691166D01*
X61441288Y19541844D01*
X61565344Y19417788D01*
X61714666Y19325686D01*
X61881203Y19270501D01*
X61983991Y19260000D01*
X62582841Y19260001D01*
X62649880Y19240317D01*
X62695635Y19187513D01*
X62705579Y19118354D01*
X62676554Y19054798D01*
X62621846Y19018295D01*
X62462866Y18965614D01*
X62462863Y18965613D01*
X62313542Y18873511D01*
X62189489Y18749458D01*
X62097387Y18600137D01*
X62097385Y18600132D01*
X62077148Y18539061D01*
X62042201Y18433597D01*
X62042201Y18433596D01*
X62042200Y18433596D01*
X62031700Y18330817D01*
X62031700Y17330799D01*
X62031701Y17330781D01*
X62042200Y17228004D01*
X62042201Y17228001D01*
X62079461Y17115560D01*
X62097386Y17061466D01*
X62158927Y16961691D01*
X62189489Y16912143D01*
X62274803Y16826829D01*
X62308288Y16765506D01*
X62308739Y16763339D01*
X62318418Y16714680D01*
X62318421Y16714668D01*
X62371222Y16587193D01*
X62447887Y16472455D01*
X62447888Y16472454D01*
X63511181Y15409162D01*
X63544666Y15347839D01*
X63547500Y15321481D01*
X63547500Y14740130D01*
X63547501Y14740124D01*
X63553908Y14680517D01*
X63604202Y14545673D01*
X63608452Y14537891D01*
X63605394Y14536222D01*
X63623963Y14486406D01*
X63609098Y14418136D01*
X63608717Y14417543D01*
X63604645Y14410087D01*
X63554403Y14275380D01*
X63554401Y14275373D01*
X63548000Y14215845D01*
X63548000Y14093000D01*
X64674000Y14093000D01*
X64741039Y14073315D01*
X64786794Y14020511D01*
X64798000Y13969000D01*
X64798000Y13717000D01*
X64778315Y13649961D01*
X64725511Y13604206D01*
X64674000Y13593000D01*
X63548000Y13593000D01*
X63548000Y13470156D01*
X63554401Y13410628D01*
X63554403Y13410621D01*
X63604645Y13275914D01*
X63608897Y13268128D01*
X63605679Y13266372D01*
X63623977Y13217024D01*
X63608993Y13148780D01*
X63607835Y13146982D01*
X63604202Y13140329D01*
X63553910Y13005487D01*
X63553909Y13005483D01*
X63547500Y12945873D01*
X63547500Y12945866D01*
X63547500Y12945865D01*
X63547500Y12200130D01*
X63547501Y12200124D01*
X63553908Y12140517D01*
X63604202Y12005673D01*
X63608452Y11997891D01*
X63605394Y11996222D01*
X63623963Y11946406D01*
X63609098Y11878136D01*
X63608717Y11877543D01*
X63604645Y11870087D01*
X63554403Y11735380D01*
X63554401Y11735373D01*
X63548000Y11675845D01*
X63548000Y11553000D01*
X66048000Y11553000D01*
X66048000Y11675828D01*
X66047999Y11675845D01*
X66041598Y11735373D01*
X66041597Y11735377D01*
X65991349Y11870096D01*
X65987101Y11877877D01*
X65990360Y11879657D01*
X65972046Y11928626D01*
X65986836Y11996913D01*
X65988023Y11998761D01*
X65991793Y12005665D01*
X65991792Y12005665D01*
X65991796Y12005669D01*
X66042091Y12140517D01*
X66048500Y12200127D01*
X66048499Y12347904D01*
X66068183Y12414943D01*
X66084813Y12435580D01*
X66680520Y13031284D01*
X66759577Y13168216D01*
X66800501Y13320943D01*
X66800501Y13479058D01*
X66800501Y13486653D01*
X66800500Y13486671D01*
X66800500Y15510941D01*
X66800501Y15510954D01*
X66800501Y15679055D01*
X66800501Y15679057D01*
X66783258Y15743408D01*
X66784921Y15813256D01*
X66824083Y15871119D01*
X66888312Y15898623D01*
X66903033Y15899500D01*
X68920552Y15899500D01*
X68987591Y15879815D01*
X69033346Y15827011D01*
X69043290Y15757853D01*
X69019818Y15701188D01*
X69004204Y15680332D01*
X69004202Y15680329D01*
X68961855Y15566788D01*
X68953909Y15545483D01*
X68947500Y15485873D01*
X68947500Y15485866D01*
X68947500Y15485865D01*
X68947500Y14740130D01*
X68947501Y14740124D01*
X68953908Y14680517D01*
X69004202Y14545672D01*
X69008454Y14537886D01*
X69005280Y14536154D01*
X69023659Y14486698D01*
X69008725Y14418443D01*
X69008117Y14417498D01*
X69004202Y14410329D01*
X68954940Y14278248D01*
X68953909Y14275483D01*
X68947500Y14215873D01*
X68947500Y14215866D01*
X68947500Y14215865D01*
X68947500Y13470130D01*
X68947501Y13470124D01*
X68953908Y13410517D01*
X69004202Y13275672D01*
X69008454Y13267886D01*
X69005280Y13266154D01*
X69023659Y13216698D01*
X69008725Y13148443D01*
X69008117Y13147498D01*
X69004202Y13140329D01*
X68953910Y13005487D01*
X68953909Y13005483D01*
X68947500Y12945873D01*
X68947500Y12676403D01*
X68947501Y12527500D01*
X68927817Y12460461D01*
X68875013Y12414706D01*
X68823501Y12403500D01*
X68031611Y12403500D01*
X67858389Y12403500D01*
X67818728Y12397219D01*
X67687302Y12376403D01*
X67522552Y12322872D01*
X67368211Y12244232D01*
X67307891Y12200406D01*
X67228072Y12142414D01*
X67228070Y12142412D01*
X67228069Y12142412D01*
X66174976Y11089319D01*
X66113653Y11055834D01*
X66087295Y11053000D01*
X63548000Y11053000D01*
X63548000Y10930156D01*
X63554401Y10870628D01*
X63554403Y10870621D01*
X63604645Y10735914D01*
X63604649Y10735907D01*
X63690809Y10620813D01*
X63690812Y10620810D01*
X63813011Y10529331D01*
X63812003Y10527985D01*
X63854060Y10485928D01*
X63868913Y10417655D01*
X63844497Y10352191D01*
X63788564Y10310319D01*
X63745229Y10302500D01*
X62375638Y10302500D01*
X62308599Y10322185D01*
X62262844Y10374989D01*
X62252900Y10444147D01*
X62270099Y10491596D01*
X62289838Y10523599D01*
X62294814Y10531666D01*
X62349999Y10698203D01*
X62360500Y10800991D01*
X62360499Y11551008D01*
X62349999Y11653797D01*
X62294814Y11820334D01*
X62202712Y11969656D01*
X62078656Y12093712D01*
X61934503Y12182626D01*
X61929336Y12185813D01*
X61929331Y12185815D01*
X61897771Y12196273D01*
X61762797Y12240999D01*
X61762795Y12241000D01*
X61660016Y12251500D01*
X61660009Y12251500D01*
X61492204Y12251500D01*
X61425165Y12271185D01*
X61404523Y12287819D01*
X60746319Y12946023D01*
X60712834Y13007346D01*
X60710000Y13033704D01*
X60710000Y13051001D01*
X61210000Y13051001D01*
X61659972Y13051001D01*
X61659986Y13051002D01*
X61762697Y13061495D01*
X61929119Y13116642D01*
X61929124Y13116644D01*
X62078345Y13208685D01*
X62202315Y13332655D01*
X62294356Y13481876D01*
X62294358Y13481881D01*
X62349505Y13648303D01*
X62349506Y13648310D01*
X62359999Y13751014D01*
X62360000Y13751027D01*
X62360000Y13876000D01*
X61210000Y13876000D01*
X61210000Y13051001D01*
X60710000Y13051001D01*
X60710000Y14376000D01*
X61210000Y14376000D01*
X62359999Y14376000D01*
X62359999Y14500972D01*
X62359998Y14500987D01*
X62349505Y14603698D01*
X62294358Y14770120D01*
X62294356Y14770125D01*
X62202315Y14919346D01*
X62078345Y15043316D01*
X61929124Y15135357D01*
X61929119Y15135359D01*
X61762697Y15190506D01*
X61762690Y15190507D01*
X61659986Y15201000D01*
X61210000Y15201000D01*
X61210000Y14376000D01*
X60710000Y14376000D01*
X60710000Y15201000D01*
X60473900Y15201000D01*
X60406861Y15220685D01*
X60361106Y15273489D01*
X60349900Y15325000D01*
X60349900Y20554203D01*
X60355968Y20592518D01*
X60357002Y20595699D01*
X60384100Y20766789D01*
X60384100Y20940011D01*
X60357002Y21111101D01*
X60337254Y21171875D01*
X60333570Y21234388D01*
X60338100Y21257157D01*
X60338100Y21414845D01*
X60323586Y21487808D01*
X60329813Y21557399D01*
X60372675Y21612577D01*
X60438565Y21635822D01*
X60506562Y21619755D01*
G37*
%TD.AperFunction*%
%TA.AperFunction,Conductor*%
G36*
X76358908Y19417027D02*
G01*
X76365026Y19417140D01*
X76397392Y19403078D01*
X76446666Y19372686D01*
X76605065Y19320198D01*
X76662510Y19280425D01*
X76689333Y19215909D01*
X76677018Y19147134D01*
X76653745Y19114814D01*
X76643989Y19105059D01*
X76551887Y18955737D01*
X76551885Y18955732D01*
X76531430Y18894003D01*
X76496701Y18789197D01*
X76496701Y18789196D01*
X76496700Y18789196D01*
X76486200Y18686417D01*
X76486200Y17686399D01*
X76486201Y17686381D01*
X76496700Y17583604D01*
X76496701Y17583601D01*
X76510166Y17542967D01*
X76551886Y17417066D01*
X76551887Y17417064D01*
X76583221Y17366264D01*
X76643988Y17267744D01*
X76768044Y17143688D01*
X76917366Y17051586D01*
X76917367Y17051586D01*
X76919515Y17050261D01*
X76949940Y17020920D01*
X76951219Y17021969D01*
X76955088Y17017255D01*
X78309181Y15663162D01*
X78342666Y15601839D01*
X78345500Y15575481D01*
X78345500Y14994130D01*
X78345501Y14994124D01*
X78351908Y14934517D01*
X78402202Y14799673D01*
X78406452Y14791891D01*
X78403394Y14790222D01*
X78421963Y14740406D01*
X78407098Y14672136D01*
X78406717Y14671543D01*
X78402645Y14664087D01*
X78352403Y14529380D01*
X78352401Y14529373D01*
X78346000Y14469845D01*
X78346000Y14347000D01*
X79472000Y14347000D01*
X79539039Y14327315D01*
X79584794Y14274511D01*
X79596000Y14223000D01*
X79596000Y13971000D01*
X79576315Y13903961D01*
X79523511Y13858206D01*
X79472000Y13847000D01*
X78346000Y13847000D01*
X78346000Y13724156D01*
X78352401Y13664628D01*
X78352403Y13664621D01*
X78402645Y13529914D01*
X78406897Y13522128D01*
X78403679Y13520372D01*
X78421977Y13471024D01*
X78406993Y13402780D01*
X78405835Y13400982D01*
X78402202Y13394329D01*
X78355133Y13268128D01*
X78351909Y13259483D01*
X78345500Y13199873D01*
X78345500Y13199866D01*
X78345500Y13199865D01*
X78345500Y12454130D01*
X78345501Y12454124D01*
X78351908Y12394517D01*
X78402202Y12259673D01*
X78406452Y12251891D01*
X78403394Y12250222D01*
X78421963Y12200406D01*
X78407098Y12132136D01*
X78406717Y12131543D01*
X78402645Y12124087D01*
X78352403Y11989380D01*
X78352401Y11989373D01*
X78346000Y11929845D01*
X78346000Y11807000D01*
X80846000Y11807000D01*
X80846000Y11929828D01*
X80845999Y11929845D01*
X80839598Y11989373D01*
X80839597Y11989377D01*
X80789349Y12124096D01*
X80785101Y12131877D01*
X80788360Y12133657D01*
X80770046Y12182626D01*
X80784836Y12250913D01*
X80786023Y12252761D01*
X80789793Y12259665D01*
X80789792Y12259665D01*
X80789796Y12259669D01*
X80840091Y12394517D01*
X80846500Y12454127D01*
X80846499Y12635904D01*
X80866183Y12702943D01*
X80882813Y12723580D01*
X81394713Y13235479D01*
X81394716Y13235480D01*
X81506520Y13347284D01*
X81556639Y13434096D01*
X81585577Y13484215D01*
X81626501Y13636943D01*
X81626501Y13795057D01*
X81626501Y13802652D01*
X81626500Y13802670D01*
X81626500Y15937900D01*
X81646185Y16004939D01*
X81698989Y16050694D01*
X81750500Y16061900D01*
X83671191Y16061900D01*
X83694717Y16054992D01*
X83719091Y16052275D01*
X83727651Y16045322D01*
X83738230Y16042215D01*
X83754284Y16023687D01*
X83773323Y16008222D01*
X83776765Y15997744D01*
X83783985Y15989411D01*
X83787474Y15965141D01*
X83795128Y15941842D01*
X83792834Y15927863D01*
X83793929Y15920253D01*
X83791219Y15906765D01*
X83789612Y15900571D01*
X83751909Y15799483D01*
X83745500Y15739873D01*
X83745500Y15730516D01*
X83741740Y15716021D01*
X83740637Y15714180D01*
X83739644Y15708840D01*
X83737840Y15703287D01*
X83729967Y15679055D01*
X83727522Y15671531D01*
X83695500Y15469352D01*
X83695500Y15264649D01*
X83727523Y15062462D01*
X83739644Y15025157D01*
X83744813Y14997391D01*
X83745147Y14997426D01*
X83745500Y14994133D01*
X83745501Y14994128D01*
X83747474Y14975772D01*
X83751908Y14934517D01*
X83802202Y14799672D01*
X83806454Y14791886D01*
X83803280Y14790154D01*
X83821659Y14740698D01*
X83806725Y14672443D01*
X83806117Y14671498D01*
X83802202Y14664329D01*
X83755043Y14537886D01*
X83751909Y14529483D01*
X83745500Y14469873D01*
X83745500Y14469866D01*
X83745500Y14469865D01*
X83745500Y13724130D01*
X83745501Y13724124D01*
X83751908Y13664517D01*
X83802202Y13529672D01*
X83806454Y13521886D01*
X83803280Y13520154D01*
X83821659Y13470698D01*
X83806725Y13402443D01*
X83806117Y13401498D01*
X83802202Y13394329D01*
X83755133Y13268128D01*
X83751909Y13259483D01*
X83745500Y13199873D01*
X83745500Y12870843D01*
X83745501Y12655500D01*
X83725817Y12588461D01*
X83673013Y12542706D01*
X83621501Y12531500D01*
X83038487Y12531500D01*
X83038463Y12531501D01*
X83033352Y12531501D01*
X82828649Y12531501D01*
X82803389Y12527500D01*
X82626464Y12499477D01*
X82626461Y12499477D01*
X82431784Y12436223D01*
X82431781Y12436222D01*
X82289425Y12363686D01*
X82249386Y12343285D01*
X82083786Y12222972D01*
X82083782Y12222968D01*
X81057681Y11196866D01*
X80996358Y11163381D01*
X80926666Y11168365D01*
X80870733Y11210237D01*
X80846316Y11275701D01*
X80846000Y11284547D01*
X80846000Y11307000D01*
X79846000Y11307000D01*
X79846000Y10732000D01*
X80293453Y10732000D01*
X80360492Y10712315D01*
X80406247Y10659511D01*
X80416191Y10590353D01*
X80387166Y10526797D01*
X80381134Y10520319D01*
X80199634Y10338819D01*
X80138311Y10305334D01*
X80111953Y10302500D01*
X77151756Y10302500D01*
X77084717Y10322185D01*
X77038962Y10374989D01*
X77029018Y10444147D01*
X77034050Y10465504D01*
X77034380Y10466500D01*
X77081999Y10610203D01*
X77092500Y10712991D01*
X77092499Y11184156D01*
X78346000Y11184156D01*
X78352401Y11124628D01*
X78352403Y11124621D01*
X78402645Y10989914D01*
X78402649Y10989907D01*
X78488809Y10874813D01*
X78488812Y10874810D01*
X78603906Y10788650D01*
X78603913Y10788646D01*
X78738620Y10738404D01*
X78738627Y10738402D01*
X78798155Y10732001D01*
X78798172Y10732000D01*
X79346000Y10732000D01*
X79346000Y11307000D01*
X78346000Y11307000D01*
X78346000Y11184156D01*
X77092499Y11184156D01*
X77092499Y11463008D01*
X77083508Y11551020D01*
X77081999Y11565797D01*
X77081998Y11565800D01*
X77054960Y11647394D01*
X77026814Y11732334D01*
X76934712Y11881656D01*
X76810656Y12005712D01*
X76689622Y12080366D01*
X76661336Y12097813D01*
X76661331Y12097815D01*
X76637605Y12105677D01*
X76494797Y12152999D01*
X76494795Y12153000D01*
X76392016Y12163500D01*
X76392009Y12163500D01*
X76224204Y12163500D01*
X76157165Y12183185D01*
X76136523Y12199819D01*
X75478319Y12858023D01*
X75444834Y12919346D01*
X75442000Y12945704D01*
X75442000Y12963001D01*
X75942000Y12963001D01*
X76391972Y12963001D01*
X76391986Y12963002D01*
X76494697Y12973495D01*
X76661119Y13028642D01*
X76661124Y13028644D01*
X76810345Y13120685D01*
X76934315Y13244655D01*
X77026356Y13393876D01*
X77026358Y13393881D01*
X77081505Y13560303D01*
X77081506Y13560310D01*
X77091999Y13663014D01*
X77092000Y13663027D01*
X77092000Y13788000D01*
X75942000Y13788000D01*
X75942000Y12963001D01*
X75442000Y12963001D01*
X75442000Y14288000D01*
X75942000Y14288000D01*
X77091999Y14288000D01*
X77091999Y14412972D01*
X77091998Y14412987D01*
X77081505Y14515698D01*
X77026358Y14682120D01*
X77026356Y14682125D01*
X76934315Y14831346D01*
X76810345Y14955316D01*
X76661124Y15047357D01*
X76661119Y15047359D01*
X76494697Y15102506D01*
X76494690Y15102507D01*
X76391986Y15113000D01*
X75942000Y15113000D01*
X75942000Y14288000D01*
X75442000Y14288000D01*
X75442000Y15113000D01*
X75053500Y15113000D01*
X74986461Y15132685D01*
X74940706Y15185489D01*
X74929500Y15237000D01*
X74929500Y17183530D01*
X74949185Y17250569D01*
X74965819Y17271211D01*
X75455631Y17761023D01*
X75947214Y18252606D01*
X76049032Y18392746D01*
X76127673Y18547088D01*
X76181202Y18711833D01*
X76208300Y18882923D01*
X76208300Y19056144D01*
X76208300Y19297537D01*
X76210525Y19305116D01*
X76209257Y19312909D01*
X76220228Y19338161D01*
X76227985Y19364576D01*
X76233952Y19369747D01*
X76237100Y19376991D01*
X76259984Y19392304D01*
X76280789Y19410331D01*
X76288605Y19411455D01*
X76295169Y19415847D01*
X76322694Y19416357D01*
X76349947Y19420275D01*
X76358908Y19417027D01*
G37*
%TD.AperFunction*%
%TA.AperFunction,Conductor*%
G36*
X58092159Y21182810D02*
G01*
X58148092Y21140938D01*
X58172509Y21075474D01*
X58171298Y21047231D01*
X58149120Y20907200D01*
X58148900Y20905811D01*
X58148900Y12973211D01*
X58148900Y12799989D01*
X58154380Y12765389D01*
X58174888Y12635903D01*
X58175998Y12628899D01*
X58226490Y12473501D01*
X58229528Y12464153D01*
X58239920Y12443758D01*
X58308168Y12309812D01*
X58409986Y12169672D01*
X58409988Y12169670D01*
X58629448Y11950210D01*
X58662933Y11888887D01*
X58657949Y11819195D01*
X58629448Y11774848D01*
X58619200Y11764600D01*
X58619200Y10888600D01*
X58599515Y10821561D01*
X58546711Y10775806D01*
X58495200Y10764600D01*
X58369200Y10764600D01*
X58369200Y10638600D01*
X58349515Y10571561D01*
X58296711Y10525806D01*
X58245200Y10514600D01*
X57193091Y10514600D01*
X57127995Y10533061D01*
X57046040Y10583611D01*
X57046035Y10583613D01*
X57046034Y10583614D01*
X56879497Y10638799D01*
X56879495Y10638800D01*
X56776716Y10649300D01*
X56164297Y10649300D01*
X56097258Y10668985D01*
X56076616Y10685619D01*
X55816590Y10945645D01*
X55809521Y10952714D01*
X55809520Y10952716D01*
X55697716Y11064520D01*
X55697600Y11064587D01*
X57144200Y11064587D01*
X57144200Y11014600D01*
X58119200Y11014600D01*
X58119200Y11764600D01*
X57844229Y11764600D01*
X57844212Y11764599D01*
X57741502Y11754106D01*
X57575080Y11698959D01*
X57575075Y11698957D01*
X57425854Y11606916D01*
X57301884Y11482946D01*
X57209843Y11333725D01*
X57209841Y11333720D01*
X57154694Y11167298D01*
X57154693Y11167291D01*
X57144200Y11064587D01*
X55697600Y11064587D01*
X55605161Y11117956D01*
X55605160Y11117957D01*
X55569066Y11138796D01*
X55560785Y11143577D01*
X55560784Y11143578D01*
X55560783Y11143578D01*
X55501846Y11159370D01*
X55408057Y11184501D01*
X55249943Y11184501D01*
X55242347Y11184501D01*
X55242331Y11184500D01*
X49925096Y11184500D01*
X49858057Y11204185D01*
X49812302Y11256989D01*
X49802358Y11326147D01*
X49831383Y11389703D01*
X49837415Y11396181D01*
X49925328Y11484094D01*
X50569320Y12128084D01*
X50648377Y12265015D01*
X50689301Y12417743D01*
X50689301Y12575858D01*
X50689301Y12583453D01*
X50689300Y12583471D01*
X50689300Y13940581D01*
X50708985Y14007620D01*
X50725614Y14028257D01*
X54538000Y17840644D01*
X54575230Y17866234D01*
X54584145Y17870205D01*
X54631985Y17883023D01*
X54690661Y17916900D01*
X54768916Y17962080D01*
X54880720Y18073884D01*
X54880720Y18073886D01*
X54890924Y18084089D01*
X54890927Y18084094D01*
X57961145Y21154310D01*
X58022467Y21187794D01*
X58092159Y21182810D01*
G37*
%TD.AperFunction*%
%TA.AperFunction,Conductor*%
G36*
X32440157Y13992345D02*
G01*
X32443210Y13992381D01*
X32470423Y13975348D01*
X32498416Y13959628D01*
X32499846Y13956932D01*
X32502435Y13955312D01*
X32516117Y13926276D01*
X32531170Y13897912D01*
X32531308Y13894035D01*
X32532217Y13892107D01*
X32532639Y13856816D01*
X32531122Y13845289D01*
X32530500Y13840561D01*
X32530500Y13092291D01*
X32530501Y12966000D01*
X32510817Y12898961D01*
X32458013Y12853206D01*
X32406501Y12842000D01*
X31731000Y12842000D01*
X31731000Y12348100D01*
X31711315Y12281061D01*
X31658511Y12235306D01*
X31607000Y12224100D01*
X31079998Y12224100D01*
X31079980Y12224099D01*
X30977203Y12213600D01*
X30977200Y12213599D01*
X30810668Y12158415D01*
X30810663Y12158413D01*
X30661342Y12066311D01*
X30567681Y11972649D01*
X30506358Y11939164D01*
X30436666Y11944148D01*
X30392319Y11972649D01*
X30298657Y12066311D01*
X30298656Y12066312D01*
X30168789Y12146414D01*
X30149336Y12158413D01*
X30149331Y12158415D01*
X30133985Y12163500D01*
X29982797Y12213599D01*
X29982793Y12213600D01*
X29976173Y12215017D01*
X29976733Y12217633D01*
X29923202Y12239477D01*
X29883053Y12296660D01*
X29876500Y12336436D01*
X29876500Y13351770D01*
X29896185Y13418809D01*
X29912819Y13439451D01*
X29964305Y13490937D01*
X30018712Y13545344D01*
X30095089Y13669173D01*
X30147034Y13715896D01*
X30215996Y13727119D01*
X30248076Y13718637D01*
X30266146Y13711152D01*
X30377439Y13696500D01*
X31607000Y13696501D01*
X31674039Y13676816D01*
X31719794Y13624013D01*
X31731000Y13572501D01*
X31731000Y13342000D01*
X32256000Y13342000D01*
X32256000Y13834289D01*
X32275685Y13901328D01*
X32281611Y13909757D01*
X32311327Y13948484D01*
X32313788Y13950282D01*
X32315023Y13953072D01*
X32341818Y13970749D01*
X32367749Y13989683D01*
X32370796Y13989865D01*
X32373345Y13991546D01*
X32405442Y13991930D01*
X32437495Y13993840D01*
X32440157Y13992345D01*
G37*
%TD.AperFunction*%
%TA.AperFunction,Conductor*%
G36*
X19354031Y15840615D02*
G01*
X19392536Y15796529D01*
X19394295Y15797613D01*
X19398085Y15791468D01*
X19398086Y15791466D01*
X19490188Y15642144D01*
X19614244Y15518088D01*
X19763566Y15425986D01*
X19930103Y15370801D01*
X20032891Y15360300D01*
X20657908Y15360301D01*
X20657916Y15360302D01*
X20657919Y15360302D01*
X20714202Y15366052D01*
X20760697Y15370801D01*
X20927234Y15425986D01*
X21076556Y15518088D01*
X21170219Y15611751D01*
X21231542Y15645236D01*
X21301234Y15640252D01*
X21345581Y15611751D01*
X21439244Y15518088D01*
X21588566Y15425986D01*
X21755103Y15370801D01*
X21857891Y15360300D01*
X22482908Y15360301D01*
X22482916Y15360302D01*
X22482919Y15360302D01*
X22592432Y15371489D01*
X22592735Y15368519D01*
X22649239Y15364361D01*
X22705087Y15322377D01*
X22729371Y15256863D01*
X22714380Y15188620D01*
X22693350Y15160587D01*
X19797035Y12264270D01*
X19735712Y12230785D01*
X19709354Y12227951D01*
X18684218Y12227951D01*
X18617179Y12247636D01*
X18615327Y12248849D01*
X18483637Y12336842D01*
X18483624Y12336849D01*
X18337953Y12397187D01*
X18337943Y12397190D01*
X18287432Y12407237D01*
X18225521Y12439622D01*
X18190947Y12500338D01*
X18194687Y12570107D01*
X18235554Y12626779D01*
X18268293Y12645037D01*
X18287088Y12652047D01*
X18287093Y12652050D01*
X18402187Y12738210D01*
X18402190Y12738213D01*
X18488350Y12853307D01*
X18488354Y12853314D01*
X18538596Y12988021D01*
X18538598Y12988028D01*
X18544999Y13047556D01*
X18545000Y13047573D01*
X18545000Y13745400D01*
X17520278Y13745400D01*
X17564333Y13821706D01*
X17595000Y13936156D01*
X17595000Y14054644D01*
X17564333Y14169094D01*
X17520278Y14245400D01*
X18545000Y14245400D01*
X18545000Y14943228D01*
X18544999Y14943245D01*
X18538598Y15002773D01*
X18538596Y15002780D01*
X18488354Y15137487D01*
X18488350Y15137494D01*
X18402190Y15252588D01*
X18402187Y15252591D01*
X18287093Y15338751D01*
X18287087Y15338754D01*
X18207030Y15368614D01*
X18151097Y15410486D01*
X18126680Y15475950D01*
X18141532Y15544223D01*
X18162681Y15572475D01*
X18213242Y15623035D01*
X18254870Y15680331D01*
X18345679Y15805319D01*
X18346586Y15804660D01*
X18394449Y15847964D01*
X18448366Y15860300D01*
X19286992Y15860300D01*
X19354031Y15840615D01*
G37*
%TD.AperFunction*%
%TA.AperFunction,Conductor*%
G36*
X41426499Y13994279D02*
G01*
X41429612Y13992482D01*
X41429614Y13992480D01*
X41464001Y13972627D01*
X41512215Y13922062D01*
X41526000Y13865241D01*
X41526000Y13172000D01*
X42802000Y13172000D01*
X42869039Y13152315D01*
X42914794Y13099511D01*
X42926000Y13048000D01*
X42926000Y12796000D01*
X42906315Y12728961D01*
X42853511Y12683206D01*
X42802000Y12672000D01*
X41526000Y12672000D01*
X41526000Y12530797D01*
X41519761Y12509552D01*
X41518182Y12487463D01*
X41510109Y12476680D01*
X41506315Y12463758D01*
X41489581Y12449259D01*
X41476310Y12431530D01*
X41463689Y12426823D01*
X41453511Y12418003D01*
X41431593Y12414852D01*
X41410846Y12407113D01*
X41397685Y12409976D01*
X41384353Y12408059D01*
X41364209Y12417259D01*
X41342573Y12421965D01*
X41324847Y12435234D01*
X41320797Y12437084D01*
X41314319Y12443116D01*
X41276819Y12480616D01*
X41243334Y12541939D01*
X41240500Y12568297D01*
X41240500Y13886891D01*
X41260185Y13953930D01*
X41312989Y13999685D01*
X41382147Y14009629D01*
X41426499Y13994279D01*
G37*
%TD.AperFunction*%
%TA.AperFunction,Conductor*%
G36*
X45356328Y14498780D02*
G01*
X45374114Y14500051D01*
X45396683Y14491632D01*
X45396801Y14491946D01*
X45539820Y14438604D01*
X45539827Y14438602D01*
X45599355Y14432201D01*
X45599372Y14432200D01*
X45704308Y14432200D01*
X45771347Y14412515D01*
X45817102Y14359711D01*
X45827046Y14290553D01*
X45818855Y14263063D01*
X45819114Y14262977D01*
X45761694Y14089698D01*
X45761693Y14089692D01*
X45760396Y14076993D01*
X45733998Y14012302D01*
X45676816Y13972152D01*
X45607005Y13969291D01*
X45549357Y14001918D01*
X45260070Y14291205D01*
X45251524Y14306855D01*
X45238917Y14319463D01*
X45235128Y14336883D01*
X45226585Y14352528D01*
X45227856Y14370313D01*
X45224067Y14387737D01*
X45230297Y14404439D01*
X45231569Y14422220D01*
X45242255Y14436496D01*
X45248487Y14453200D01*
X45262757Y14463882D01*
X45273441Y14478153D01*
X45290147Y14484385D01*
X45304422Y14495069D01*
X45322201Y14496341D01*
X45338905Y14502570D01*
X45356328Y14498780D01*
G37*
%TD.AperFunction*%
%TA.AperFunction,Conductor*%
G36*
X26219039Y14899215D02*
G01*
X26264794Y14846411D01*
X26276000Y14794900D01*
X26276000Y14739000D01*
X27152000Y14739000D01*
X27219039Y14719315D01*
X27264794Y14666511D01*
X27276000Y14615000D01*
X27276000Y14363000D01*
X27256315Y14295961D01*
X27203511Y14250206D01*
X27152000Y14239000D01*
X26276001Y14239000D01*
X26276001Y14110300D01*
X26273450Y14101615D01*
X26274739Y14092653D01*
X26263760Y14068613D01*
X26256316Y14043261D01*
X26249475Y14037334D01*
X26245714Y14029097D01*
X26223479Y14014808D01*
X26203512Y13997506D01*
X26192997Y13995219D01*
X26186936Y13991323D01*
X26152001Y13986300D01*
X26033751Y13986300D01*
X25966712Y14005985D01*
X25964860Y14007198D01*
X25964228Y14007620D01*
X25919759Y14037334D01*
X25871184Y14069791D01*
X25871172Y14069798D01*
X25725501Y14130136D01*
X25725491Y14130139D01*
X25592308Y14156631D01*
X25564177Y14171346D01*
X25535297Y14184535D01*
X25533440Y14187425D01*
X25530397Y14189016D01*
X25514684Y14216609D01*
X25497523Y14243313D01*
X25496862Y14247907D01*
X25495823Y14249732D01*
X25492500Y14278248D01*
X25492500Y14491903D01*
X25512185Y14558942D01*
X25528819Y14579584D01*
X25831816Y14882581D01*
X25893139Y14916066D01*
X25919497Y14918900D01*
X26152000Y14918900D01*
X26219039Y14899215D01*
G37*
%TD.AperFunction*%
%TA.AperFunction,Conductor*%
G36*
X32538627Y19142966D02*
G01*
X32556042Y19144316D01*
X32572061Y19135693D01*
X32589836Y19131826D01*
X32616946Y19111531D01*
X32617565Y19111198D01*
X32618090Y19110675D01*
X32693139Y19035626D01*
X32693149Y19035615D01*
X32697479Y19031285D01*
X32697480Y19031284D01*
X32809284Y18919480D01*
X32809286Y18919479D01*
X32809290Y18919476D01*
X32879667Y18878844D01*
X32879671Y18878843D01*
X32879672Y18878842D01*
X32902741Y18865523D01*
X32946212Y18840424D01*
X32946214Y18840424D01*
X32946215Y18840423D01*
X33098943Y18799500D01*
X33257057Y18799500D01*
X35735702Y18799500D01*
X35802741Y18779815D01*
X35848496Y18727011D01*
X35858440Y18657853D01*
X35829415Y18594297D01*
X35823383Y18587819D01*
X34425481Y17189918D01*
X34425480Y17189916D01*
X34392036Y17131989D01*
X34382551Y17115560D01*
X34351320Y17061466D01*
X34346423Y17052985D01*
X34305499Y16900257D01*
X34305499Y16900255D01*
X34305499Y16732154D01*
X34305500Y16732141D01*
X34305500Y14266643D01*
X34299059Y14244711D01*
X34297158Y14221930D01*
X34287124Y14204065D01*
X34285815Y14199604D01*
X34279876Y14191157D01*
X34204375Y14092762D01*
X34147947Y14051559D01*
X34078201Y14047404D01*
X34017281Y14081616D01*
X34007628Y14092756D01*
X33918244Y14209244D01*
X33904512Y14219781D01*
X33863311Y14276208D01*
X33856000Y14318156D01*
X33856000Y14371150D01*
X33751278Y14357362D01*
X33743430Y14355258D01*
X33742877Y14357322D01*
X33684613Y14351070D01*
X33668563Y14355784D01*
X33660858Y14357848D01*
X33549561Y14372500D01*
X33062437Y14372500D01*
X32951146Y14357849D01*
X32943299Y14355746D01*
X32942840Y14357459D01*
X32883303Y14351070D01*
X32868607Y14355386D01*
X32868573Y14355258D01*
X32860726Y14357361D01*
X32756000Y14371150D01*
X32756000Y14318156D01*
X32736315Y14251117D01*
X32726147Y14237457D01*
X32717736Y14227645D01*
X32693756Y14209244D01*
X32623636Y14117863D01*
X32621447Y14115308D01*
X32594852Y14098015D01*
X32569247Y14079318D01*
X32565783Y14079112D01*
X32562873Y14077219D01*
X32531155Y14077049D01*
X32499501Y14075163D01*
X32496474Y14076863D01*
X32493004Y14076844D01*
X32466228Y14093849D01*
X32438581Y14109376D01*
X32436954Y14112441D01*
X32434024Y14114302D01*
X32420692Y14143085D01*
X32405829Y14171093D01*
X32405671Y14175517D01*
X32404659Y14177701D01*
X32405401Y14183069D01*
X32404361Y14212194D01*
X32404842Y14215845D01*
X32406500Y14228439D01*
X32406499Y14715560D01*
X32391848Y14826854D01*
X32391847Y14826857D01*
X32389744Y14834708D01*
X32391658Y14835221D01*
X32385332Y14894003D01*
X32389815Y14909272D01*
X32389744Y14909291D01*
X32391847Y14917142D01*
X32391849Y14917154D01*
X32406500Y15028439D01*
X32406499Y15515560D01*
X32405923Y15519932D01*
X32399755Y15566788D01*
X32391848Y15626854D01*
X32391847Y15626857D01*
X32389744Y15634708D01*
X32391658Y15635221D01*
X32385332Y15694003D01*
X32389815Y15709272D01*
X32389744Y15709291D01*
X32391847Y15717142D01*
X32393127Y15726862D01*
X32406500Y15828439D01*
X32406499Y16315560D01*
X32402078Y16349140D01*
X32398509Y16376251D01*
X32391848Y16426854D01*
X32391847Y16426857D01*
X32389744Y16434708D01*
X32391658Y16435221D01*
X32385332Y16494003D01*
X32389815Y16509272D01*
X32389744Y16509291D01*
X32391847Y16517142D01*
X32391849Y16517154D01*
X32406500Y16628439D01*
X32406499Y17115560D01*
X32404336Y17131988D01*
X32397551Y17183530D01*
X32391848Y17226854D01*
X32391847Y17226857D01*
X32389744Y17234708D01*
X32391658Y17235221D01*
X32385332Y17294003D01*
X32389815Y17309272D01*
X32389744Y17309291D01*
X32391847Y17317142D01*
X32392324Y17320765D01*
X32406500Y17428439D01*
X32406499Y17915560D01*
X32391848Y18026854D01*
X32391847Y18026857D01*
X32389744Y18034708D01*
X32391658Y18035221D01*
X32385332Y18094003D01*
X32389815Y18109272D01*
X32389744Y18109291D01*
X32391847Y18117142D01*
X32391848Y18117146D01*
X32406500Y18228439D01*
X32406499Y18715560D01*
X32404547Y18730385D01*
X32401833Y18751001D01*
X32391848Y18826854D01*
X32391847Y18826857D01*
X32389744Y18834708D01*
X32391658Y18835221D01*
X32385332Y18894003D01*
X32389815Y18909272D01*
X32389744Y18909291D01*
X32391847Y18917142D01*
X32391848Y18917146D01*
X32406500Y19028439D01*
X32406499Y19028461D01*
X32406674Y19031101D01*
X32406949Y19031855D01*
X32407030Y19032463D01*
X32407166Y19032446D01*
X32412929Y19048184D01*
X32414227Y19066328D01*
X32424693Y19080309D01*
X32430699Y19096710D01*
X32445198Y19107700D01*
X32456099Y19122261D01*
X32472461Y19128364D01*
X32486382Y19138915D01*
X32504520Y19140322D01*
X32521563Y19146678D01*
X32538627Y19142966D01*
G37*
%TD.AperFunction*%
%TA.AperFunction,Conductor*%
G36*
X51807695Y20542117D02*
G01*
X51853450Y20489313D01*
X51863394Y20420155D01*
X51858587Y20399483D01*
X51798334Y20214046D01*
X51761400Y19980853D01*
X51761400Y19744748D01*
X51798334Y19511553D01*
X51871297Y19286998D01*
X51978487Y19076626D01*
X52038738Y18993696D01*
X52038740Y18993695D01*
X52737612Y19692567D01*
X52748882Y19650508D01*
X52821290Y19525092D01*
X52923692Y19422690D01*
X53049108Y19350282D01*
X53091164Y19339013D01*
X52392293Y18640142D01*
X52475228Y18579886D01*
X52661424Y18485014D01*
X52712220Y18437039D01*
X52729015Y18369218D01*
X52706478Y18303084D01*
X52692810Y18286848D01*
X49959380Y15553417D01*
X49898057Y15519932D01*
X49828365Y15524916D01*
X49772432Y15566788D01*
X49748015Y15632252D01*
X49747699Y15641098D01*
X49747699Y16180071D01*
X49747698Y16180077D01*
X49741291Y16239683D01*
X49727207Y16277443D01*
X49722680Y16289582D01*
X49717695Y16359273D01*
X49722680Y16376251D01*
X49740797Y16424825D01*
X49740798Y16424828D01*
X49747199Y16484356D01*
X49747200Y16484373D01*
X49747200Y16882200D01*
X48671200Y16882200D01*
X48604161Y16901885D01*
X48558406Y16954689D01*
X48547200Y17006200D01*
X48547200Y17132200D01*
X48421200Y17132200D01*
X48354161Y17151885D01*
X48308406Y17204689D01*
X48297200Y17256200D01*
X48297200Y17382200D01*
X48797200Y17382200D01*
X49747200Y17382200D01*
X49747200Y17780028D01*
X49747199Y17780045D01*
X49740798Y17839573D01*
X49740796Y17839580D01*
X49690554Y17974287D01*
X49690550Y17974294D01*
X49604390Y18089388D01*
X49604387Y18089391D01*
X49489293Y18175551D01*
X49489286Y18175555D01*
X49354579Y18225797D01*
X49354572Y18225799D01*
X49295044Y18232200D01*
X48797200Y18232200D01*
X48797200Y17382200D01*
X48297200Y17382200D01*
X48297200Y18232200D01*
X48029404Y18232200D01*
X47962365Y18251885D01*
X47922017Y18294201D01*
X47902324Y18328310D01*
X47902318Y18328318D01*
X47816340Y18414296D01*
X47700920Y18529715D01*
X47700920Y18529716D01*
X47668006Y18562630D01*
X47650715Y18594297D01*
X47634522Y18623952D01*
X47633634Y18637012D01*
X46931633Y19339013D01*
X46973692Y19350282D01*
X47099108Y19422690D01*
X47201510Y19525092D01*
X47273918Y19650508D01*
X47285187Y19692566D01*
X47984058Y18993695D01*
X47984058Y18993696D01*
X48044314Y19076631D01*
X48044318Y19076637D01*
X48151502Y19286998D01*
X48224465Y19511553D01*
X48261400Y19744748D01*
X48261400Y19980853D01*
X48224465Y20214046D01*
X48164213Y20399483D01*
X48162218Y20469325D01*
X48198298Y20529158D01*
X48260999Y20559986D01*
X48282144Y20561802D01*
X51740656Y20561802D01*
X51807695Y20542117D01*
G37*
%TD.AperFunction*%
%TA.AperFunction,Conductor*%
G36*
X14319720Y25479815D02*
G01*
X14365475Y25427011D01*
X14375419Y25357853D01*
X14346394Y25294297D01*
X14340362Y25287819D01*
X13477160Y24424619D01*
X13415837Y24391134D01*
X13389479Y24388300D01*
X12183129Y24388300D01*
X12183123Y24388299D01*
X12123515Y24381891D01*
X12017133Y24342214D01*
X11947441Y24337230D01*
X11886120Y24370715D01*
X11561990Y24694845D01*
X11561988Y24694848D01*
X11443117Y24813719D01*
X11443109Y24813725D01*
X11327417Y24880519D01*
X11327416Y24880520D01*
X11312493Y24889135D01*
X11306185Y24892777D01*
X11153457Y24933701D01*
X10995343Y24933701D01*
X10987747Y24933701D01*
X10987731Y24933700D01*
X9217342Y24933700D01*
X9064614Y24892777D01*
X9064613Y24892777D01*
X9043382Y24880520D01*
X9043383Y24880519D01*
X8927687Y24813723D01*
X8927682Y24813719D01*
X8815878Y24701914D01*
X8485522Y24371559D01*
X8424199Y24338074D01*
X8359523Y24341309D01*
X8317245Y24355046D01*
X8177272Y24377216D01*
X8107287Y24388300D01*
X7894713Y24388300D01*
X7848250Y24380941D01*
X7684760Y24355047D01*
X7482585Y24289356D01*
X7293181Y24192850D01*
X7221182Y24140540D01*
X7155375Y24117061D01*
X7087321Y24132887D01*
X7060617Y24153178D01*
X6518950Y24694845D01*
X6518948Y24694848D01*
X6400077Y24813719D01*
X6400069Y24813725D01*
X6284377Y24880519D01*
X6284376Y24880520D01*
X6269453Y24889135D01*
X6263145Y24892777D01*
X6110417Y24933701D01*
X5952303Y24933701D01*
X5944707Y24933701D01*
X5944691Y24933700D01*
X4137342Y24933700D01*
X3984614Y24892777D01*
X3984613Y24892777D01*
X3963382Y24880520D01*
X3963383Y24880519D01*
X3847687Y24813723D01*
X3847682Y24813719D01*
X3735878Y24701914D01*
X3405522Y24371559D01*
X3344199Y24338074D01*
X3279523Y24341309D01*
X3237245Y24355046D01*
X3097272Y24377216D01*
X3027287Y24388300D01*
X2814713Y24388300D01*
X2768250Y24380941D01*
X2604760Y24355047D01*
X2402585Y24289356D01*
X2213179Y24192849D01*
X2041213Y24067910D01*
X1890890Y23917587D01*
X1765951Y23745621D01*
X1669444Y23556215D01*
X1603753Y23354040D01*
X1577529Y23188464D01*
X1570500Y23144087D01*
X1570500Y22931513D01*
X1576161Y22895774D01*
X1603551Y22722834D01*
X1603754Y22721557D01*
X1665332Y22532039D01*
X1669444Y22519386D01*
X1765951Y22329980D01*
X1890890Y22158014D01*
X2041213Y22007691D01*
X2213179Y21882752D01*
X2213181Y21882751D01*
X2213184Y21882749D01*
X2273281Y21852128D01*
X2402583Y21786245D01*
X2402585Y21786245D01*
X2402588Y21786243D01*
X2532586Y21744004D01*
X2550224Y21738273D01*
X2607899Y21698835D01*
X2635097Y21634476D01*
X2630501Y21589955D01*
X2631611Y21589717D01*
X2630194Y21583099D01*
X2619700Y21480387D01*
X2619700Y21230400D01*
X3508200Y21230400D01*
X3575239Y21210715D01*
X3620994Y21157911D01*
X3632200Y21106400D01*
X3632200Y20980400D01*
X3758200Y20980400D01*
X3825239Y20960715D01*
X3870994Y20907911D01*
X3882200Y20856400D01*
X3882200Y19072400D01*
X3862515Y19005361D01*
X3809711Y18959606D01*
X3758200Y18948400D01*
X3632200Y18948400D01*
X3632200Y18822400D01*
X3612515Y18755361D01*
X3559711Y18709606D01*
X3508200Y18698400D01*
X2619701Y18698400D01*
X2619701Y18606100D01*
X2600016Y18539061D01*
X2547212Y18493306D01*
X2495701Y18482100D01*
X2339657Y18482100D01*
X2181543Y18482100D01*
X2028815Y18441177D01*
X2028814Y18441177D01*
X2028812Y18441176D01*
X2028809Y18441175D01*
X1978696Y18412241D01*
X1978695Y18412240D01*
X1944930Y18392746D01*
X1891885Y18362121D01*
X1891882Y18362119D01*
X712181Y17182417D01*
X650858Y17148932D01*
X581166Y17153916D01*
X525233Y17195788D01*
X500816Y17261252D01*
X500500Y17270098D01*
X500500Y19448387D01*
X2619700Y19448387D01*
X2619700Y19198400D01*
X3382200Y19198400D01*
X3382200Y20730400D01*
X2619701Y20730400D01*
X2619701Y20480414D01*
X2630194Y20377703D01*
X2685341Y20211281D01*
X2685343Y20211276D01*
X2777384Y20062055D01*
X2787358Y20052081D01*
X2820843Y19990758D01*
X2815859Y19921066D01*
X2787358Y19876719D01*
X2777384Y19866746D01*
X2685343Y19717525D01*
X2685341Y19717520D01*
X2630194Y19551098D01*
X2630193Y19551091D01*
X2619700Y19448387D01*
X500500Y19448387D01*
X500500Y25375500D01*
X520185Y25442539D01*
X572989Y25488294D01*
X624500Y25499500D01*
X14252681Y25499500D01*
X14319720Y25479815D01*
G37*
%TD.AperFunction*%
%TA.AperFunction,Conductor*%
G36*
X67628814Y22471724D02*
G01*
X67642147Y22473640D01*
X67662290Y22464441D01*
X67683927Y22459734D01*
X67701652Y22446466D01*
X67705703Y22444615D01*
X67712181Y22438583D01*
X67762284Y22388480D01*
X67844005Y22341299D01*
X67899215Y22309423D01*
X68051943Y22268500D01*
X68823500Y22268500D01*
X68890539Y22248815D01*
X68936294Y22196011D01*
X68947500Y22144500D01*
X68947500Y21852131D01*
X68947501Y21852124D01*
X68953908Y21792517D01*
X69004202Y21657673D01*
X69008452Y21649891D01*
X69005394Y21648222D01*
X69023963Y21598406D01*
X69009098Y21530136D01*
X69008717Y21529543D01*
X69004645Y21522087D01*
X68954403Y21387380D01*
X68954401Y21387373D01*
X68948000Y21327845D01*
X68948000Y21205000D01*
X70074000Y21205000D01*
X70141039Y21185315D01*
X70186794Y21132511D01*
X70198000Y21081000D01*
X70198000Y20829000D01*
X70178315Y20761961D01*
X70125511Y20716206D01*
X70074000Y20705000D01*
X68948000Y20705000D01*
X68948000Y20582156D01*
X68954401Y20522628D01*
X68954403Y20522621D01*
X69004645Y20387914D01*
X69008897Y20380128D01*
X69005679Y20378372D01*
X69023977Y20329024D01*
X69008993Y20260780D01*
X69007835Y20258982D01*
X69004202Y20252329D01*
X68955483Y20121704D01*
X68953909Y20117483D01*
X68947500Y20057873D01*
X68947500Y20057866D01*
X68947500Y20057865D01*
X68947500Y19312130D01*
X68947501Y19312124D01*
X68953908Y19252517D01*
X69004202Y19117672D01*
X69004206Y19117665D01*
X69090452Y19002456D01*
X69090455Y19002453D01*
X69205664Y18916207D01*
X69205671Y18916203D01*
X69235885Y18904934D01*
X69340517Y18865909D01*
X69400127Y18859500D01*
X69473500Y18859501D01*
X69540538Y18839817D01*
X69586294Y18787014D01*
X69597500Y18735501D01*
X69597500Y18408560D01*
X69577815Y18341521D01*
X69525011Y18295766D01*
X69455853Y18285822D01*
X69392297Y18314847D01*
X69367962Y18343463D01*
X69290319Y18469341D01*
X69290316Y18469345D01*
X69166345Y18593316D01*
X69017124Y18685357D01*
X69017119Y18685359D01*
X68850697Y18740506D01*
X68850690Y18740507D01*
X68747986Y18751000D01*
X68698000Y18751000D01*
X68698000Y17650000D01*
X68678315Y17582961D01*
X68625511Y17537206D01*
X68574000Y17526000D01*
X68322000Y17526000D01*
X68254961Y17545685D01*
X68209206Y17598489D01*
X68198000Y17650000D01*
X68198000Y18751000D01*
X68197999Y18751001D01*
X68148029Y18751000D01*
X68148007Y18750998D01*
X68085038Y18744566D01*
X68016346Y18757336D01*
X67965462Y18805217D01*
X67948438Y18867924D01*
X67948438Y20192117D01*
X67945904Y20204853D01*
X67944551Y20211657D01*
X67913833Y20366092D01*
X67858956Y20498576D01*
X67854017Y20510499D01*
X67845953Y20529969D01*
X67845952Y20529971D01*
X67837836Y20542117D01*
X67790368Y20613158D01*
X67747403Y20677460D01*
X67686125Y20738738D01*
X67621973Y20802890D01*
X67191151Y21233712D01*
X67157666Y21295035D01*
X67162650Y21364727D01*
X67191148Y21409072D01*
X67321789Y21539711D01*
X67409394Y21670821D01*
X67469737Y21816503D01*
X67500500Y21971158D01*
X67500500Y22128843D01*
X67500500Y22350902D01*
X67506738Y22372148D01*
X67508318Y22394236D01*
X67516390Y22405020D01*
X67520185Y22417941D01*
X67536918Y22432441D01*
X67550190Y22450169D01*
X67562810Y22454877D01*
X67572989Y22463696D01*
X67594906Y22466848D01*
X67615654Y22474586D01*
X67628814Y22471724D01*
G37*
%TD.AperFunction*%
%TA.AperFunction,Conductor*%
G36*
X81975742Y24221015D02*
G01*
X81996384Y24204381D01*
X83709181Y22491584D01*
X83742666Y22430261D01*
X83745500Y22403903D01*
X83745500Y22106131D01*
X83745501Y22106124D01*
X83751908Y22046517D01*
X83802202Y21911673D01*
X83806452Y21903891D01*
X83803394Y21902222D01*
X83821963Y21852406D01*
X83807098Y21784136D01*
X83806717Y21783543D01*
X83802645Y21776087D01*
X83752403Y21641380D01*
X83752401Y21641373D01*
X83746000Y21581845D01*
X83746000Y21459000D01*
X84872000Y21459000D01*
X84939039Y21439315D01*
X84984794Y21386511D01*
X84996000Y21335000D01*
X84996000Y21083000D01*
X84976315Y21015961D01*
X84923511Y20970206D01*
X84872000Y20959000D01*
X83746000Y20959000D01*
X83746000Y20836156D01*
X83752401Y20776628D01*
X83752403Y20776621D01*
X83802645Y20641914D01*
X83806897Y20634128D01*
X83803679Y20632372D01*
X83821977Y20583024D01*
X83806993Y20514780D01*
X83805835Y20512982D01*
X83802202Y20506329D01*
X83751910Y20371487D01*
X83751909Y20371483D01*
X83745500Y20311873D01*
X83745500Y20311866D01*
X83745500Y20311865D01*
X83745500Y19566130D01*
X83745501Y19566124D01*
X83751908Y19506517D01*
X83802202Y19371672D01*
X83802206Y19371665D01*
X83888452Y19256456D01*
X83888455Y19256453D01*
X84003664Y19170207D01*
X84003671Y19170203D01*
X84023815Y19162690D01*
X84138517Y19119909D01*
X84198127Y19113500D01*
X84271500Y19113501D01*
X84338538Y19093817D01*
X84384294Y19041014D01*
X84395500Y18989501D01*
X84395500Y18494116D01*
X84375815Y18427077D01*
X84323011Y18381322D01*
X84253853Y18371378D01*
X84190297Y18400403D01*
X84153794Y18455112D01*
X84114358Y18574120D01*
X84114356Y18574125D01*
X84022315Y18723346D01*
X83898345Y18847316D01*
X83749124Y18939357D01*
X83749119Y18939359D01*
X83582697Y18994506D01*
X83582690Y18994507D01*
X83479986Y19005000D01*
X83430000Y19005000D01*
X83430000Y17904000D01*
X83410315Y17836961D01*
X83357511Y17791206D01*
X83306000Y17780000D01*
X83054000Y17780000D01*
X82986961Y17799685D01*
X82941206Y17852489D01*
X82930000Y17904000D01*
X82930000Y19005000D01*
X82929999Y19005001D01*
X82880029Y19005000D01*
X82880007Y19004998D01*
X82817038Y18998566D01*
X82748346Y19011336D01*
X82697462Y19059217D01*
X82680438Y19121924D01*
X82680438Y20797749D01*
X82680438Y20797753D01*
X82680107Y20799415D01*
X82680106Y20799421D01*
X82680108Y20799422D01*
X82680101Y20799444D01*
X82678261Y20808696D01*
X82645832Y20971728D01*
X82633914Y21000501D01*
X82623674Y21025224D01*
X82577954Y21135603D01*
X82577947Y21135616D01*
X82479403Y21283096D01*
X82418313Y21344186D01*
X82353973Y21408526D01*
X82189713Y21572786D01*
X82019965Y21742535D01*
X81986480Y21803858D01*
X81986029Y21854408D01*
X82000500Y21927155D01*
X82000500Y23378845D01*
X82000499Y23378847D01*
X81996654Y23398175D01*
X81969737Y23533497D01*
X81967015Y23540069D01*
X81909397Y23679173D01*
X81909390Y23679186D01*
X81821789Y23810289D01*
X81821786Y23810293D01*
X81710292Y23921787D01*
X81710288Y23921790D01*
X81574114Y24012779D01*
X81575449Y24014778D01*
X81533172Y24056311D01*
X81517715Y24124450D01*
X81541551Y24190128D01*
X81597112Y24232493D01*
X81641473Y24240700D01*
X81908703Y24240700D01*
X81975742Y24221015D01*
G37*
%TD.AperFunction*%
%TA.AperFunction,Conductor*%
G36*
X25027811Y22617518D02*
G01*
X25079287Y22570274D01*
X25097100Y22506240D01*
X25097100Y21185194D01*
X25097100Y21047206D01*
X25097100Y21047204D01*
X25097099Y21047204D01*
X25124018Y20911878D01*
X25124021Y20911868D01*
X25176822Y20784393D01*
X25253487Y20669655D01*
X25253488Y20669654D01*
X27273634Y18649509D01*
X27307119Y18588186D01*
X27302135Y18518494D01*
X27260263Y18462561D01*
X27210145Y18440211D01*
X27122308Y18422739D01*
X27122298Y18422736D01*
X26976627Y18362398D01*
X26976614Y18362391D01*
X26845511Y18274790D01*
X26845507Y18274787D01*
X26819459Y18248738D01*
X26758136Y18215253D01*
X26688444Y18220237D01*
X26644097Y18248738D01*
X26420990Y18471845D01*
X26420988Y18471848D01*
X26302117Y18590719D01*
X26302109Y18590725D01*
X26189346Y18655828D01*
X26189345Y18655829D01*
X26189345Y18655828D01*
X26165185Y18669777D01*
X26153224Y18672982D01*
X26012457Y18710701D01*
X25854343Y18710701D01*
X25846747Y18710701D01*
X25846731Y18710700D01*
X22552397Y18710700D01*
X22485358Y18730385D01*
X22464716Y18747019D01*
X22268018Y18943717D01*
X22234533Y19005040D01*
X22231699Y19031389D01*
X22231699Y19643808D01*
X22231471Y19646036D01*
X22221199Y19746597D01*
X22221198Y19746600D01*
X22206655Y19790488D01*
X22166014Y19913134D01*
X22073912Y20062456D01*
X21980249Y20156119D01*
X21946764Y20217442D01*
X21951748Y20287134D01*
X21980249Y20331481D01*
X22026471Y20377703D01*
X22073912Y20425144D01*
X22166014Y20574466D01*
X22221199Y20741003D01*
X22231700Y20843791D01*
X22231699Y21468808D01*
X22229048Y21494756D01*
X22221199Y21571597D01*
X22221198Y21571600D01*
X22211062Y21602189D01*
X22166014Y21738134D01*
X22073912Y21887456D01*
X22058113Y21903255D01*
X22024628Y21964578D01*
X22029612Y22034270D01*
X22058113Y22078617D01*
X22061304Y22081808D01*
X22061306Y22081812D01*
X22061309Y22081814D01*
X22152690Y22207591D01*
X22186251Y22253784D01*
X22190993Y22263092D01*
X22238963Y22313889D01*
X22306783Y22330689D01*
X22372919Y22308155D01*
X22411963Y22263100D01*
X22416577Y22254045D01*
X22541472Y22082141D01*
X22541476Y22082136D01*
X22691735Y21931877D01*
X22691740Y21931873D01*
X22863642Y21806980D01*
X23052982Y21710505D01*
X23255071Y21644843D01*
X23321200Y21634369D01*
X23321200Y22528588D01*
X23378207Y22495675D01*
X23505374Y22461600D01*
X23637026Y22461600D01*
X23764193Y22495675D01*
X23821200Y22528588D01*
X23821200Y21634370D01*
X23887326Y21644843D01*
X23887329Y21644843D01*
X24089417Y21710505D01*
X24278757Y21806980D01*
X24450659Y21931873D01*
X24450664Y21931877D01*
X24600923Y22082136D01*
X24600927Y22082141D01*
X24725820Y22254043D01*
X24822295Y22443383D01*
X24855169Y22544558D01*
X24894606Y22602233D01*
X24958965Y22629432D01*
X25027811Y22617518D01*
G37*
%TD.AperFunction*%
%TA.AperFunction,Conductor*%
G36*
X8846885Y19427150D02*
G01*
X8855847Y19428438D01*
X8879887Y19417460D01*
X8905239Y19410015D01*
X8911166Y19403175D01*
X8919403Y19399413D01*
X8933692Y19377179D01*
X8950994Y19357211D01*
X8953281Y19346697D01*
X8957177Y19340635D01*
X8962200Y19305700D01*
X8962200Y19123200D01*
X8942515Y19056161D01*
X8889711Y19010406D01*
X8838200Y18999200D01*
X8586200Y18999200D01*
X8519161Y19018885D01*
X8473406Y19071689D01*
X8462200Y19123200D01*
X8462200Y19305700D01*
X8481885Y19372739D01*
X8534689Y19418494D01*
X8586200Y19429700D01*
X8838200Y19429700D01*
X8846885Y19427150D01*
G37*
%TD.AperFunction*%
%TA.AperFunction,Conductor*%
G36*
X6675401Y20719657D02*
G01*
X6681880Y20713625D01*
X7677212Y19718293D01*
X7710697Y19656970D01*
X7710779Y19608641D01*
X7710882Y19608630D01*
X7710780Y19607641D01*
X7710786Y19604665D01*
X7710194Y19601901D01*
X7699700Y19499187D01*
X7699700Y19353157D01*
X7680015Y19286118D01*
X7627211Y19240363D01*
X7558053Y19230419D01*
X7494497Y19259444D01*
X7488019Y19265476D01*
X6492610Y20260885D01*
X6459125Y20322208D01*
X6459047Y20370866D01*
X6459011Y20370869D01*
X6459047Y20371224D01*
X6459042Y20374541D01*
X6459693Y20377587D01*
X6459699Y20377603D01*
X6470200Y20480391D01*
X6470199Y20625946D01*
X6489883Y20692983D01*
X6542687Y20738738D01*
X6611845Y20748682D01*
X6675401Y20719657D01*
G37*
%TD.AperFunction*%
%TA.AperFunction,Conductor*%
G36*
X73843773Y20005496D02*
G01*
X73859349Y20007735D01*
X73877461Y19999464D01*
X73897060Y19995954D01*
X73908590Y19985248D01*
X73922905Y19978710D01*
X73933670Y19961959D01*
X73948260Y19948411D01*
X73952661Y19932407D01*
X73960679Y19919932D01*
X73965702Y19884997D01*
X73965702Y19790488D01*
X73996463Y19635845D01*
X73996465Y19635837D01*
X73997860Y19632468D01*
X73999487Y19624292D01*
X74002277Y19619950D01*
X74007300Y19585015D01*
X74007300Y19476739D01*
X73987615Y19409700D01*
X73970981Y19389058D01*
X73860498Y19278575D01*
X73799175Y19245090D01*
X73729483Y19250074D01*
X73673550Y19291946D01*
X73667278Y19301160D01*
X73620712Y19376656D01*
X73526695Y19470673D01*
X73493210Y19531996D01*
X73498194Y19601688D01*
X73526695Y19646036D01*
X73620317Y19739658D01*
X73712356Y19888876D01*
X73712358Y19888881D01*
X73723996Y19924001D01*
X73732954Y19936940D01*
X73737387Y19952036D01*
X73752431Y19965073D01*
X73763768Y19981446D01*
X73778300Y19987489D01*
X73790191Y19997791D01*
X73809896Y20000625D01*
X73828284Y20008269D01*
X73843773Y20005496D01*
G37*
%TD.AperFunction*%
%TA.AperFunction,Conductor*%
G36*
X93528539Y23879815D02*
G01*
X93574294Y23827011D01*
X93585500Y23775500D01*
X93585500Y23376130D01*
X93585501Y23376124D01*
X93591908Y23316517D01*
X93617899Y23246833D01*
X93622883Y23177141D01*
X93589398Y23115818D01*
X93528074Y23082334D01*
X93501717Y23079500D01*
X93187669Y23079500D01*
X93187653Y23079501D01*
X93180057Y23079501D01*
X93021943Y23079501D01*
X92942010Y23058083D01*
X92869216Y23038578D01*
X92838669Y23020941D01*
X92838668Y23020942D01*
X92732287Y22959523D01*
X92732282Y22959519D01*
X92620480Y22847717D01*
X92620480Y22847716D01*
X92620478Y22847714D01*
X92572264Y22799500D01*
X92529082Y22756318D01*
X92467758Y22722834D01*
X92441401Y22720000D01*
X91828998Y22720000D01*
X91828980Y22719999D01*
X91726203Y22709500D01*
X91726200Y22709499D01*
X91559668Y22654315D01*
X91559663Y22654313D01*
X91410342Y22562211D01*
X91286288Y22438157D01*
X91286285Y22438153D01*
X91226788Y22341693D01*
X91174840Y22294968D01*
X91105878Y22283747D01*
X91064956Y22296305D01*
X90948050Y22355871D01*
X90948047Y22355872D01*
X90948045Y22355873D01*
X90783301Y22409402D01*
X90783299Y22409403D01*
X90783297Y22409403D01*
X90612215Y22436500D01*
X90612210Y22436500D01*
X90438989Y22436500D01*
X90399598Y22430261D01*
X90267898Y22409402D01*
X90103149Y22355872D01*
X89948808Y22277230D01*
X89821497Y22184733D01*
X89755691Y22161253D01*
X89687637Y22177079D01*
X89660931Y22197370D01*
X89629301Y22229000D01*
X88866800Y22229000D01*
X88866800Y21279001D01*
X88868360Y21279001D01*
X88935399Y21259316D01*
X88981154Y21206512D01*
X88991098Y21137354D01*
X88990837Y21135631D01*
X88973315Y21025001D01*
X88967900Y20990811D01*
X88967900Y20147339D01*
X88948215Y20080300D01*
X88931581Y20059658D01*
X88404498Y19532575D01*
X88391369Y19525407D01*
X88381300Y19514341D01*
X88361322Y19509000D01*
X88343175Y19499090D01*
X88328252Y19500158D01*
X88313801Y19496293D01*
X88294109Y19502599D01*
X88273483Y19504074D01*
X88260403Y19513393D01*
X88247260Y19517602D01*
X88231698Y19533846D01*
X88221157Y19541356D01*
X88215745Y19547918D01*
X88164712Y19630656D01*
X88066491Y19728877D01*
X88062716Y19733454D01*
X88051219Y19760341D01*
X88037210Y19785996D01*
X88037645Y19792084D01*
X88035245Y19797697D01*
X88040108Y19826526D01*
X88042194Y19855688D01*
X88046037Y19861668D01*
X88046868Y19866593D01*
X88054813Y19875325D01*
X88070695Y19900036D01*
X88164317Y19993658D01*
X88256356Y20142876D01*
X88256358Y20142881D01*
X88311505Y20309303D01*
X88311506Y20309310D01*
X88321999Y20412014D01*
X88322000Y20412027D01*
X88322000Y20474500D01*
X87246000Y20474500D01*
X87178961Y20494185D01*
X87133206Y20546989D01*
X87122000Y20598500D01*
X87122000Y20850500D01*
X87141685Y20917539D01*
X87194489Y20963294D01*
X87246000Y20974500D01*
X88321999Y20974500D01*
X88321999Y21036972D01*
X88321998Y21036987D01*
X88311506Y21139694D01*
X88310811Y21142941D01*
X88310964Y21144996D01*
X88310818Y21146431D01*
X88311074Y21146458D01*
X88316024Y21212616D01*
X88344382Y21256583D01*
X88366800Y21279001D01*
X88366800Y22355000D01*
X88386485Y22422039D01*
X88439289Y22467794D01*
X88490800Y22479000D01*
X88616800Y22479000D01*
X88616800Y22605000D01*
X88636485Y22672039D01*
X88689289Y22717794D01*
X88740800Y22729000D01*
X89629299Y22729000D01*
X89629299Y22978972D01*
X89629298Y22978987D01*
X89618805Y23081698D01*
X89563658Y23248120D01*
X89563656Y23248125D01*
X89471615Y23397346D01*
X89347645Y23521316D01*
X89214994Y23603136D01*
X89212163Y23606284D01*
X89208165Y23607667D01*
X89189001Y23632035D01*
X89168270Y23655084D01*
X89167590Y23659261D01*
X89164974Y23662587D01*
X89162026Y23693453D01*
X89157048Y23724047D01*
X89158734Y23727928D01*
X89158332Y23732140D01*
X89172536Y23759695D01*
X89184891Y23788129D01*
X89188959Y23791552D01*
X89190347Y23794244D01*
X89218087Y23816060D01*
X89273811Y23848232D01*
X89329735Y23880519D01*
X89333840Y23882889D01*
X89395837Y23899500D01*
X93461500Y23899500D01*
X93528539Y23879815D01*
G37*
%TD.AperFunction*%
%TA.AperFunction,Conductor*%
G36*
X73909542Y23738415D02*
G01*
X73930184Y23721781D01*
X74153081Y23498884D01*
X74186566Y23437561D01*
X74189400Y23411203D01*
X74189400Y22475000D01*
X74951899Y22475000D01*
X74976751Y22499852D01*
X75038074Y22533337D01*
X75107766Y22528353D01*
X75152113Y22499852D01*
X75578181Y22073784D01*
X75611666Y22012461D01*
X75614500Y21986103D01*
X75614500Y21734010D01*
X75614499Y21733992D01*
X75614499Y21568286D01*
X75614498Y21568286D01*
X75655423Y21415554D01*
X75660992Y21405909D01*
X75670186Y21389985D01*
X75718476Y21306344D01*
X75727031Y21291526D01*
X75743503Y21223626D01*
X75720650Y21157599D01*
X75665728Y21114409D01*
X75596175Y21107768D01*
X75550752Y21126425D01*
X75448885Y21194491D01*
X75448872Y21194498D01*
X75303201Y21254836D01*
X75303189Y21254839D01*
X75148545Y21285600D01*
X75148542Y21285600D01*
X75001497Y21285600D01*
X74934458Y21305285D01*
X74888703Y21358089D01*
X74878759Y21427247D01*
X74885126Y21448646D01*
X74883986Y21449023D01*
X74941405Y21622303D01*
X74941406Y21622310D01*
X74951899Y21725014D01*
X74951900Y21725027D01*
X74951900Y21975000D01*
X74189400Y21975000D01*
X74189400Y21025001D01*
X74241300Y21025001D01*
X74272777Y21015759D01*
X74304575Y21007642D01*
X74306139Y21005962D01*
X74308339Y21005316D01*
X74329811Y20980536D01*
X74352185Y20956504D01*
X74352592Y20954245D01*
X74354094Y20952512D01*
X74358763Y20920040D01*
X74364589Y20887745D01*
X74363832Y20884782D01*
X74364038Y20883354D01*
X74355861Y20853550D01*
X74345693Y20829000D01*
X74323336Y20775027D01*
X74296458Y20734801D01*
X74268382Y20706725D01*
X74166570Y20566592D01*
X74087928Y20412248D01*
X74034397Y20247498D01*
X74024473Y20184839D01*
X73994544Y20121704D01*
X73935232Y20084773D01*
X73865370Y20085771D01*
X73807137Y20124381D01*
X73779023Y20188345D01*
X73778000Y20204237D01*
X73778000Y20220500D01*
X72702000Y20220500D01*
X72634961Y20240185D01*
X72589206Y20292989D01*
X72578000Y20344500D01*
X72578000Y20596500D01*
X72597685Y20663539D01*
X72650489Y20709294D01*
X72702000Y20720500D01*
X73777999Y20720500D01*
X73777999Y20782972D01*
X73777998Y20782987D01*
X73767505Y20885698D01*
X73764423Y20895001D01*
X73740806Y20912055D01*
X73697980Y20967261D01*
X73689400Y21012584D01*
X73689400Y23425000D01*
X73689399Y23425001D01*
X73626928Y23425000D01*
X73626911Y23424999D01*
X73524202Y23414506D01*
X73357780Y23359359D01*
X73357775Y23359357D01*
X73208557Y23267318D01*
X73114934Y23173695D01*
X73053610Y23140211D01*
X72983919Y23145195D01*
X72939572Y23173696D01*
X72845557Y23267711D01*
X72845556Y23267712D01*
X72706523Y23353468D01*
X72696236Y23359813D01*
X72696231Y23359815D01*
X72659341Y23372039D01*
X72529697Y23414999D01*
X72529695Y23415000D01*
X72426910Y23425500D01*
X71801898Y23425500D01*
X71801880Y23425499D01*
X71699103Y23415000D01*
X71699097Y23414998D01*
X71611502Y23385972D01*
X71541674Y23383570D01*
X71481632Y23419302D01*
X71450440Y23481823D01*
X71448499Y23503678D01*
X71448499Y23634100D01*
X71468184Y23701139D01*
X71520988Y23746894D01*
X71572499Y23758100D01*
X73842503Y23758100D01*
X73909542Y23738415D01*
G37*
%TD.AperFunction*%
%TA.AperFunction,Conductor*%
G36*
X27954685Y20954260D02*
G01*
X27963279Y20949418D01*
X27964869Y20948437D01*
X28011587Y20896484D01*
X28022801Y20827520D01*
X27994949Y20763441D01*
X27964865Y20737374D01*
X27961860Y20735521D01*
X27961855Y20735517D01*
X27837884Y20611546D01*
X27745843Y20462325D01*
X27745840Y20462316D01*
X27733485Y20425033D01*
X27693712Y20367589D01*
X27629196Y20340767D01*
X27560420Y20353083D01*
X27528099Y20376358D01*
X27334204Y20570253D01*
X27300719Y20631576D01*
X27305703Y20701268D01*
X27347575Y20757201D01*
X27409282Y20781292D01*
X27501397Y20790701D01*
X27667934Y20845886D01*
X27817256Y20937988D01*
X27817262Y20937995D01*
X27821249Y20941147D01*
X27886042Y20967294D01*
X27954685Y20954260D01*
G37*
%TD.AperFunction*%
%TA.AperFunction,Conductor*%
G36*
X8846885Y21028650D02*
G01*
X8855847Y21029938D01*
X8879887Y21018960D01*
X8905239Y21011515D01*
X8911166Y21004675D01*
X8919403Y21000913D01*
X8933692Y20978679D01*
X8950994Y20958711D01*
X8953281Y20948197D01*
X8957177Y20942135D01*
X8962200Y20907200D01*
X8962200Y20754700D01*
X8942515Y20687661D01*
X8889711Y20641906D01*
X8838200Y20630700D01*
X8586200Y20630700D01*
X8519161Y20650385D01*
X8473406Y20703189D01*
X8462200Y20754700D01*
X8462200Y20907200D01*
X8481885Y20974239D01*
X8534689Y21019994D01*
X8586200Y21031200D01*
X8838200Y21031200D01*
X8846885Y21028650D01*
G37*
%TD.AperFunction*%
%TA.AperFunction,Conductor*%
G36*
X42993562Y22292200D02*
G01*
X43945000Y22292200D01*
X44012039Y22272515D01*
X44057794Y22219711D01*
X44069000Y22168200D01*
X44069000Y21916200D01*
X44049315Y21849161D01*
X43996511Y21803406D01*
X43945000Y21792200D01*
X42766162Y21792200D01*
X42763438Y21793000D01*
X41812000Y21793000D01*
X41744961Y21812685D01*
X41699206Y21865489D01*
X41688000Y21917000D01*
X41688000Y22169000D01*
X41707685Y22236039D01*
X41760489Y22281794D01*
X41812000Y22293000D01*
X42990838Y22293000D01*
X42993562Y22292200D01*
G37*
%TD.AperFunction*%
%TA.AperFunction,Conductor*%
G36*
X25197920Y24324215D02*
G01*
X25218562Y24307581D01*
X25661781Y23864363D01*
X25695266Y23803040D01*
X25698100Y23776682D01*
X25698100Y23459720D01*
X25678415Y23392681D01*
X25661781Y23372039D01*
X25253488Y22963747D01*
X25253487Y22963746D01*
X25176823Y22849010D01*
X25125011Y22723922D01*
X25081170Y22669519D01*
X25014876Y22647454D01*
X24947176Y22664733D01*
X24916160Y22690843D01*
X24898432Y22711600D01*
X24004212Y22711600D01*
X24037125Y22768607D01*
X24071200Y22895774D01*
X24071200Y23027426D01*
X24037125Y23154593D01*
X24004212Y23211600D01*
X24898431Y23211600D01*
X24887957Y23277727D01*
X24887957Y23277730D01*
X24822295Y23479818D01*
X24725820Y23669158D01*
X24600927Y23841060D01*
X24600923Y23841065D01*
X24450664Y23991324D01*
X24450659Y23991328D01*
X24274813Y24119087D01*
X24276080Y24120832D01*
X24235232Y24165970D01*
X24223800Y24234898D01*
X24251449Y24299065D01*
X24309400Y24338097D01*
X24346890Y24343900D01*
X25130881Y24343900D01*
X25197920Y24324215D01*
G37*
%TD.AperFunction*%
%TA.AperFunction,Conductor*%
G36*
X62217942Y25479815D02*
G01*
X62263697Y25427011D01*
X62273641Y25357853D01*
X62244616Y25294297D01*
X62238584Y25287819D01*
X61987584Y25036819D01*
X61926261Y25003334D01*
X61899903Y25000500D01*
X57975939Y25000500D01*
X57955086Y24994913D01*
X57955087Y24994912D01*
X57823214Y24959577D01*
X57823209Y24959574D01*
X57686290Y24880525D01*
X57686282Y24880519D01*
X57619489Y24813725D01*
X57574480Y24768716D01*
X57574478Y24768714D01*
X56653740Y23847975D01*
X55769184Y22963419D01*
X55707861Y22929934D01*
X55681503Y22927100D01*
X54219764Y22927100D01*
X54152725Y22946785D01*
X54106970Y22999589D01*
X54097026Y23068747D01*
X54126051Y23132303D01*
X54146876Y23151417D01*
X54238910Y23218283D01*
X54405917Y23385290D01*
X54544743Y23576367D01*
X54651968Y23786808D01*
X54724953Y24011432D01*
X54726680Y24022336D01*
X54761900Y24244703D01*
X54761900Y24480898D01*
X54724953Y24714169D01*
X54670900Y24880525D01*
X54651968Y24938792D01*
X54651966Y24938795D01*
X54651966Y24938797D01*
X54578498Y25082985D01*
X54544743Y25149233D01*
X54433303Y25302617D01*
X54409824Y25368420D01*
X54425649Y25436474D01*
X54475755Y25485169D01*
X54533622Y25499500D01*
X62150903Y25499500D01*
X62217942Y25479815D01*
G37*
%TD.AperFunction*%
%TD*%
M02*
