%TF.GenerationSoftware,KiCad,Pcbnew,9.0.1*%
%TF.CreationDate,2026-01-29T13:58:13+01:00*%
%TF.ProjectId,BP Nerf Blaster,4250204e-6572-4662-9042-6c6173746572,rev?*%
%TF.SameCoordinates,PX55d4a80PY7270e00*%
%TF.FileFunction,Legend,Bot*%
%TF.FilePolarity,Positive*%
%FSLAX46Y46*%
G04 Gerber Fmt 4.6, Leading zero omitted, Abs format (unit mm)*
G04 Created by KiCad (PCBNEW 9.0.1) date 2026-01-29 13:58:13*
%MOMM*%
%LPD*%
G01*
G04 APERTURE LIST*
%ADD10C,0.150000*%
%ADD11C,0.254000*%
%ADD12C,0.120000*%
%ADD13C,0.200000*%
%ADD14C,0.127000*%
%ADD15C,0.203200*%
%ADD16C,0.152400*%
G04 APERTURE END LIST*
D10*
X45759666Y5711020D02*
X45807285Y5663400D01*
X45807285Y5663400D02*
X45950142Y5615781D01*
X45950142Y5615781D02*
X46045380Y5615781D01*
X46045380Y5615781D02*
X46188237Y5663400D01*
X46188237Y5663400D02*
X46283475Y5758639D01*
X46283475Y5758639D02*
X46331094Y5853877D01*
X46331094Y5853877D02*
X46378713Y6044353D01*
X46378713Y6044353D02*
X46378713Y6187210D01*
X46378713Y6187210D02*
X46331094Y6377686D01*
X46331094Y6377686D02*
X46283475Y6472924D01*
X46283475Y6472924D02*
X46188237Y6568162D01*
X46188237Y6568162D02*
X46045380Y6615781D01*
X46045380Y6615781D02*
X45950142Y6615781D01*
X45950142Y6615781D02*
X45807285Y6568162D01*
X45807285Y6568162D02*
X45759666Y6520543D01*
X44902523Y6615781D02*
X45092999Y6615781D01*
X45092999Y6615781D02*
X45188237Y6568162D01*
X45188237Y6568162D02*
X45235856Y6520543D01*
X45235856Y6520543D02*
X45331094Y6377686D01*
X45331094Y6377686D02*
X45378713Y6187210D01*
X45378713Y6187210D02*
X45378713Y5806258D01*
X45378713Y5806258D02*
X45331094Y5711020D01*
X45331094Y5711020D02*
X45283475Y5663400D01*
X45283475Y5663400D02*
X45188237Y5615781D01*
X45188237Y5615781D02*
X44997761Y5615781D01*
X44997761Y5615781D02*
X44902523Y5663400D01*
X44902523Y5663400D02*
X44854904Y5711020D01*
X44854904Y5711020D02*
X44807285Y5806258D01*
X44807285Y5806258D02*
X44807285Y6044353D01*
X44807285Y6044353D02*
X44854904Y6139591D01*
X44854904Y6139591D02*
X44902523Y6187210D01*
X44902523Y6187210D02*
X44997761Y6234829D01*
X44997761Y6234829D02*
X45188237Y6234829D01*
X45188237Y6234829D02*
X45283475Y6187210D01*
X45283475Y6187210D02*
X45331094Y6139591D01*
X45331094Y6139591D02*
X45378713Y6044353D01*
D11*
X83535762Y21269682D02*
X83535762Y22539682D01*
X82205285Y21390635D02*
X82265761Y21330158D01*
X82265761Y21330158D02*
X82447190Y21269682D01*
X82447190Y21269682D02*
X82568142Y21269682D01*
X82568142Y21269682D02*
X82749571Y21330158D01*
X82749571Y21330158D02*
X82870523Y21451111D01*
X82870523Y21451111D02*
X82931000Y21572063D01*
X82931000Y21572063D02*
X82991476Y21813968D01*
X82991476Y21813968D02*
X82991476Y21995397D01*
X82991476Y21995397D02*
X82931000Y22237301D01*
X82931000Y22237301D02*
X82870523Y22358254D01*
X82870523Y22358254D02*
X82749571Y22479206D01*
X82749571Y22479206D02*
X82568142Y22539682D01*
X82568142Y22539682D02*
X82447190Y22539682D01*
X82447190Y22539682D02*
X82265761Y22479206D01*
X82265761Y22479206D02*
X82205285Y22418730D01*
X81721476Y22418730D02*
X81661000Y22479206D01*
X81661000Y22479206D02*
X81540047Y22539682D01*
X81540047Y22539682D02*
X81237666Y22539682D01*
X81237666Y22539682D02*
X81116714Y22479206D01*
X81116714Y22479206D02*
X81056238Y22418730D01*
X81056238Y22418730D02*
X80995761Y22297778D01*
X80995761Y22297778D02*
X80995761Y22176825D01*
X80995761Y22176825D02*
X81056238Y21995397D01*
X81056238Y21995397D02*
X81781952Y21269682D01*
X81781952Y21269682D02*
X80995761Y21269682D01*
D10*
X26709666Y11584781D02*
X27042999Y12060972D01*
X27281094Y11584781D02*
X27281094Y12584781D01*
X27281094Y12584781D02*
X26900142Y12584781D01*
X26900142Y12584781D02*
X26804904Y12537162D01*
X26804904Y12537162D02*
X26757285Y12489543D01*
X26757285Y12489543D02*
X26709666Y12394305D01*
X26709666Y12394305D02*
X26709666Y12251448D01*
X26709666Y12251448D02*
X26757285Y12156210D01*
X26757285Y12156210D02*
X26804904Y12108591D01*
X26804904Y12108591D02*
X26900142Y12060972D01*
X26900142Y12060972D02*
X27281094Y12060972D01*
X26138237Y12156210D02*
X26233475Y12203829D01*
X26233475Y12203829D02*
X26281094Y12251448D01*
X26281094Y12251448D02*
X26328713Y12346686D01*
X26328713Y12346686D02*
X26328713Y12394305D01*
X26328713Y12394305D02*
X26281094Y12489543D01*
X26281094Y12489543D02*
X26233475Y12537162D01*
X26233475Y12537162D02*
X26138237Y12584781D01*
X26138237Y12584781D02*
X25947761Y12584781D01*
X25947761Y12584781D02*
X25852523Y12537162D01*
X25852523Y12537162D02*
X25804904Y12489543D01*
X25804904Y12489543D02*
X25757285Y12394305D01*
X25757285Y12394305D02*
X25757285Y12346686D01*
X25757285Y12346686D02*
X25804904Y12251448D01*
X25804904Y12251448D02*
X25852523Y12203829D01*
X25852523Y12203829D02*
X25947761Y12156210D01*
X25947761Y12156210D02*
X26138237Y12156210D01*
X26138237Y12156210D02*
X26233475Y12108591D01*
X26233475Y12108591D02*
X26281094Y12060972D01*
X26281094Y12060972D02*
X26328713Y11965734D01*
X26328713Y11965734D02*
X26328713Y11775258D01*
X26328713Y11775258D02*
X26281094Y11680020D01*
X26281094Y11680020D02*
X26233475Y11632400D01*
X26233475Y11632400D02*
X26138237Y11584781D01*
X26138237Y11584781D02*
X25947761Y11584781D01*
X25947761Y11584781D02*
X25852523Y11632400D01*
X25852523Y11632400D02*
X25804904Y11680020D01*
X25804904Y11680020D02*
X25757285Y11775258D01*
X25757285Y11775258D02*
X25757285Y11965734D01*
X25757285Y11965734D02*
X25804904Y12060972D01*
X25804904Y12060972D02*
X25852523Y12108591D01*
X25852523Y12108591D02*
X25947761Y12156210D01*
X17908494Y11787981D02*
X17908494Y12787981D01*
X17908494Y12787981D02*
X17670399Y12787981D01*
X17670399Y12787981D02*
X17527542Y12740362D01*
X17527542Y12740362D02*
X17432304Y12645124D01*
X17432304Y12645124D02*
X17384685Y12549886D01*
X17384685Y12549886D02*
X17337066Y12359410D01*
X17337066Y12359410D02*
X17337066Y12216553D01*
X17337066Y12216553D02*
X17384685Y12026077D01*
X17384685Y12026077D02*
X17432304Y11930839D01*
X17432304Y11930839D02*
X17527542Y11835600D01*
X17527542Y11835600D02*
X17670399Y11787981D01*
X17670399Y11787981D02*
X17908494Y11787981D01*
X16765637Y12359410D02*
X16860875Y12407029D01*
X16860875Y12407029D02*
X16908494Y12454648D01*
X16908494Y12454648D02*
X16956113Y12549886D01*
X16956113Y12549886D02*
X16956113Y12597505D01*
X16956113Y12597505D02*
X16908494Y12692743D01*
X16908494Y12692743D02*
X16860875Y12740362D01*
X16860875Y12740362D02*
X16765637Y12787981D01*
X16765637Y12787981D02*
X16575161Y12787981D01*
X16575161Y12787981D02*
X16479923Y12740362D01*
X16479923Y12740362D02*
X16432304Y12692743D01*
X16432304Y12692743D02*
X16384685Y12597505D01*
X16384685Y12597505D02*
X16384685Y12549886D01*
X16384685Y12549886D02*
X16432304Y12454648D01*
X16432304Y12454648D02*
X16479923Y12407029D01*
X16479923Y12407029D02*
X16575161Y12359410D01*
X16575161Y12359410D02*
X16765637Y12359410D01*
X16765637Y12359410D02*
X16860875Y12311791D01*
X16860875Y12311791D02*
X16908494Y12264172D01*
X16908494Y12264172D02*
X16956113Y12168934D01*
X16956113Y12168934D02*
X16956113Y11978458D01*
X16956113Y11978458D02*
X16908494Y11883220D01*
X16908494Y11883220D02*
X16860875Y11835600D01*
X16860875Y11835600D02*
X16765637Y11787981D01*
X16765637Y11787981D02*
X16575161Y11787981D01*
X16575161Y11787981D02*
X16479923Y11835600D01*
X16479923Y11835600D02*
X16432304Y11883220D01*
X16432304Y11883220D02*
X16384685Y11978458D01*
X16384685Y11978458D02*
X16384685Y12168934D01*
X16384685Y12168934D02*
X16432304Y12264172D01*
X16432304Y12264172D02*
X16479923Y12311791D01*
X16479923Y12311791D02*
X16575161Y12359410D01*
X101004666Y17471220D02*
X101052285Y17423600D01*
X101052285Y17423600D02*
X101195142Y17375981D01*
X101195142Y17375981D02*
X101290380Y17375981D01*
X101290380Y17375981D02*
X101433237Y17423600D01*
X101433237Y17423600D02*
X101528475Y17518839D01*
X101528475Y17518839D02*
X101576094Y17614077D01*
X101576094Y17614077D02*
X101623713Y17804553D01*
X101623713Y17804553D02*
X101623713Y17947410D01*
X101623713Y17947410D02*
X101576094Y18137886D01*
X101576094Y18137886D02*
X101528475Y18233124D01*
X101528475Y18233124D02*
X101433237Y18328362D01*
X101433237Y18328362D02*
X101290380Y18375981D01*
X101290380Y18375981D02*
X101195142Y18375981D01*
X101195142Y18375981D02*
X101052285Y18328362D01*
X101052285Y18328362D02*
X101004666Y18280743D01*
X100528475Y17375981D02*
X100337999Y17375981D01*
X100337999Y17375981D02*
X100242761Y17423600D01*
X100242761Y17423600D02*
X100195142Y17471220D01*
X100195142Y17471220D02*
X100099904Y17614077D01*
X100099904Y17614077D02*
X100052285Y17804553D01*
X100052285Y17804553D02*
X100052285Y18185505D01*
X100052285Y18185505D02*
X100099904Y18280743D01*
X100099904Y18280743D02*
X100147523Y18328362D01*
X100147523Y18328362D02*
X100242761Y18375981D01*
X100242761Y18375981D02*
X100433237Y18375981D01*
X100433237Y18375981D02*
X100528475Y18328362D01*
X100528475Y18328362D02*
X100576094Y18280743D01*
X100576094Y18280743D02*
X100623713Y18185505D01*
X100623713Y18185505D02*
X100623713Y17947410D01*
X100623713Y17947410D02*
X100576094Y17852172D01*
X100576094Y17852172D02*
X100528475Y17804553D01*
X100528475Y17804553D02*
X100433237Y17756934D01*
X100433237Y17756934D02*
X100242761Y17756934D01*
X100242761Y17756934D02*
X100147523Y17804553D01*
X100147523Y17804553D02*
X100099904Y17852172D01*
X100099904Y17852172D02*
X100052285Y17947410D01*
X51696857Y13102420D02*
X51744476Y13054800D01*
X51744476Y13054800D02*
X51887333Y13007181D01*
X51887333Y13007181D02*
X51982571Y13007181D01*
X51982571Y13007181D02*
X52125428Y13054800D01*
X52125428Y13054800D02*
X52220666Y13150039D01*
X52220666Y13150039D02*
X52268285Y13245277D01*
X52268285Y13245277D02*
X52315904Y13435753D01*
X52315904Y13435753D02*
X52315904Y13578610D01*
X52315904Y13578610D02*
X52268285Y13769086D01*
X52268285Y13769086D02*
X52220666Y13864324D01*
X52220666Y13864324D02*
X52125428Y13959562D01*
X52125428Y13959562D02*
X51982571Y14007181D01*
X51982571Y14007181D02*
X51887333Y14007181D01*
X51887333Y14007181D02*
X51744476Y13959562D01*
X51744476Y13959562D02*
X51696857Y13911943D01*
X50744476Y13007181D02*
X51315904Y13007181D01*
X51030190Y13007181D02*
X51030190Y14007181D01*
X51030190Y14007181D02*
X51125428Y13864324D01*
X51125428Y13864324D02*
X51220666Y13769086D01*
X51220666Y13769086D02*
X51315904Y13721467D01*
X50173047Y13578610D02*
X50268285Y13626229D01*
X50268285Y13626229D02*
X50315904Y13673848D01*
X50315904Y13673848D02*
X50363523Y13769086D01*
X50363523Y13769086D02*
X50363523Y13816705D01*
X50363523Y13816705D02*
X50315904Y13911943D01*
X50315904Y13911943D02*
X50268285Y13959562D01*
X50268285Y13959562D02*
X50173047Y14007181D01*
X50173047Y14007181D02*
X49982571Y14007181D01*
X49982571Y14007181D02*
X49887333Y13959562D01*
X49887333Y13959562D02*
X49839714Y13911943D01*
X49839714Y13911943D02*
X49792095Y13816705D01*
X49792095Y13816705D02*
X49792095Y13769086D01*
X49792095Y13769086D02*
X49839714Y13673848D01*
X49839714Y13673848D02*
X49887333Y13626229D01*
X49887333Y13626229D02*
X49982571Y13578610D01*
X49982571Y13578610D02*
X50173047Y13578610D01*
X50173047Y13578610D02*
X50268285Y13530991D01*
X50268285Y13530991D02*
X50315904Y13483372D01*
X50315904Y13483372D02*
X50363523Y13388134D01*
X50363523Y13388134D02*
X50363523Y13197658D01*
X50363523Y13197658D02*
X50315904Y13102420D01*
X50315904Y13102420D02*
X50268285Y13054800D01*
X50268285Y13054800D02*
X50173047Y13007181D01*
X50173047Y13007181D02*
X49982571Y13007181D01*
X49982571Y13007181D02*
X49887333Y13054800D01*
X49887333Y13054800D02*
X49839714Y13102420D01*
X49839714Y13102420D02*
X49792095Y13197658D01*
X49792095Y13197658D02*
X49792095Y13388134D01*
X49792095Y13388134D02*
X49839714Y13483372D01*
X49839714Y13483372D02*
X49887333Y13530991D01*
X49887333Y13530991D02*
X49982571Y13578610D01*
X61288819Y21352167D02*
X60812628Y21685500D01*
X61288819Y21923595D02*
X60288819Y21923595D01*
X60288819Y21923595D02*
X60288819Y21542643D01*
X60288819Y21542643D02*
X60336438Y21447405D01*
X60336438Y21447405D02*
X60384057Y21399786D01*
X60384057Y21399786D02*
X60479295Y21352167D01*
X60479295Y21352167D02*
X60622152Y21352167D01*
X60622152Y21352167D02*
X60717390Y21399786D01*
X60717390Y21399786D02*
X60765009Y21447405D01*
X60765009Y21447405D02*
X60812628Y21542643D01*
X60812628Y21542643D02*
X60812628Y21923595D01*
X61288819Y20399786D02*
X61288819Y20971214D01*
X61288819Y20685500D02*
X60288819Y20685500D01*
X60288819Y20685500D02*
X60431676Y20780738D01*
X60431676Y20780738D02*
X60526914Y20875976D01*
X60526914Y20875976D02*
X60574533Y20971214D01*
X85612266Y17395020D02*
X85659885Y17347400D01*
X85659885Y17347400D02*
X85802742Y17299781D01*
X85802742Y17299781D02*
X85897980Y17299781D01*
X85897980Y17299781D02*
X86040837Y17347400D01*
X86040837Y17347400D02*
X86136075Y17442639D01*
X86136075Y17442639D02*
X86183694Y17537877D01*
X86183694Y17537877D02*
X86231313Y17728353D01*
X86231313Y17728353D02*
X86231313Y17871210D01*
X86231313Y17871210D02*
X86183694Y18061686D01*
X86183694Y18061686D02*
X86136075Y18156924D01*
X86136075Y18156924D02*
X86040837Y18252162D01*
X86040837Y18252162D02*
X85897980Y18299781D01*
X85897980Y18299781D02*
X85802742Y18299781D01*
X85802742Y18299781D02*
X85659885Y18252162D01*
X85659885Y18252162D02*
X85612266Y18204543D01*
X85278932Y18299781D02*
X84659885Y18299781D01*
X84659885Y18299781D02*
X84993218Y17918829D01*
X84993218Y17918829D02*
X84850361Y17918829D01*
X84850361Y17918829D02*
X84755123Y17871210D01*
X84755123Y17871210D02*
X84707504Y17823591D01*
X84707504Y17823591D02*
X84659885Y17728353D01*
X84659885Y17728353D02*
X84659885Y17490258D01*
X84659885Y17490258D02*
X84707504Y17395020D01*
X84707504Y17395020D02*
X84755123Y17347400D01*
X84755123Y17347400D02*
X84850361Y17299781D01*
X84850361Y17299781D02*
X85136075Y17299781D01*
X85136075Y17299781D02*
X85231313Y17347400D01*
X85231313Y17347400D02*
X85278932Y17395020D01*
X18624904Y1206181D02*
X18624904Y396658D01*
X18624904Y396658D02*
X18577285Y301420D01*
X18577285Y301420D02*
X18529666Y253800D01*
X18529666Y253800D02*
X18434428Y206181D01*
X18434428Y206181D02*
X18243952Y206181D01*
X18243952Y206181D02*
X18148714Y253800D01*
X18148714Y253800D02*
X18101095Y301420D01*
X18101095Y301420D02*
X18053476Y396658D01*
X18053476Y396658D02*
X18053476Y1206181D01*
X17148714Y872848D02*
X17148714Y206181D01*
X17386809Y1253800D02*
X17624904Y539515D01*
X17624904Y539515D02*
X17005857Y539515D01*
X105331419Y20734258D02*
X104855228Y21067591D01*
X105331419Y21305686D02*
X104331419Y21305686D01*
X104331419Y21305686D02*
X104331419Y20924734D01*
X104331419Y20924734D02*
X104379038Y20829496D01*
X104379038Y20829496D02*
X104426657Y20781877D01*
X104426657Y20781877D02*
X104521895Y20734258D01*
X104521895Y20734258D02*
X104664752Y20734258D01*
X104664752Y20734258D02*
X104759990Y20781877D01*
X104759990Y20781877D02*
X104807609Y20829496D01*
X104807609Y20829496D02*
X104855228Y20924734D01*
X104855228Y20924734D02*
X104855228Y21305686D01*
X104426657Y20353305D02*
X104379038Y20305686D01*
X104379038Y20305686D02*
X104331419Y20210448D01*
X104331419Y20210448D02*
X104331419Y19972353D01*
X104331419Y19972353D02*
X104379038Y19877115D01*
X104379038Y19877115D02*
X104426657Y19829496D01*
X104426657Y19829496D02*
X104521895Y19781877D01*
X104521895Y19781877D02*
X104617133Y19781877D01*
X104617133Y19781877D02*
X104759990Y19829496D01*
X104759990Y19829496D02*
X105331419Y20400924D01*
X105331419Y20400924D02*
X105331419Y19781877D01*
X104664752Y18924734D02*
X105331419Y18924734D01*
X104283800Y19162829D02*
X104998085Y19400924D01*
X104998085Y19400924D02*
X104998085Y18781877D01*
X27465257Y5793581D02*
X27798590Y6269772D01*
X28036685Y5793581D02*
X28036685Y6793581D01*
X28036685Y6793581D02*
X27655733Y6793581D01*
X27655733Y6793581D02*
X27560495Y6745962D01*
X27560495Y6745962D02*
X27512876Y6698343D01*
X27512876Y6698343D02*
X27465257Y6603105D01*
X27465257Y6603105D02*
X27465257Y6460248D01*
X27465257Y6460248D02*
X27512876Y6365010D01*
X27512876Y6365010D02*
X27560495Y6317391D01*
X27560495Y6317391D02*
X27655733Y6269772D01*
X27655733Y6269772D02*
X28036685Y6269772D01*
X26512876Y5793581D02*
X27084304Y5793581D01*
X26798590Y5793581D02*
X26798590Y6793581D01*
X26798590Y6793581D02*
X26893828Y6650724D01*
X26893828Y6650724D02*
X26989066Y6555486D01*
X26989066Y6555486D02*
X27084304Y6507867D01*
X25608114Y6793581D02*
X26084304Y6793581D01*
X26084304Y6793581D02*
X26131923Y6317391D01*
X26131923Y6317391D02*
X26084304Y6365010D01*
X26084304Y6365010D02*
X25989066Y6412629D01*
X25989066Y6412629D02*
X25750971Y6412629D01*
X25750971Y6412629D02*
X25655733Y6365010D01*
X25655733Y6365010D02*
X25608114Y6317391D01*
X25608114Y6317391D02*
X25560495Y6222153D01*
X25560495Y6222153D02*
X25560495Y5984058D01*
X25560495Y5984058D02*
X25608114Y5888820D01*
X25608114Y5888820D02*
X25655733Y5841200D01*
X25655733Y5841200D02*
X25750971Y5793581D01*
X25750971Y5793581D02*
X25989066Y5793581D01*
X25989066Y5793581D02*
X26084304Y5841200D01*
X26084304Y5841200D02*
X26131923Y5888820D01*
X74648219Y18702258D02*
X74172028Y19035591D01*
X74648219Y19273686D02*
X73648219Y19273686D01*
X73648219Y19273686D02*
X73648219Y18892734D01*
X73648219Y18892734D02*
X73695838Y18797496D01*
X73695838Y18797496D02*
X73743457Y18749877D01*
X73743457Y18749877D02*
X73838695Y18702258D01*
X73838695Y18702258D02*
X73981552Y18702258D01*
X73981552Y18702258D02*
X74076790Y18749877D01*
X74076790Y18749877D02*
X74124409Y18797496D01*
X74124409Y18797496D02*
X74172028Y18892734D01*
X74172028Y18892734D02*
X74172028Y19273686D01*
X74648219Y17749877D02*
X74648219Y18321305D01*
X74648219Y18035591D02*
X73648219Y18035591D01*
X73648219Y18035591D02*
X73791076Y18130829D01*
X73791076Y18130829D02*
X73886314Y18226067D01*
X73886314Y18226067D02*
X73933933Y18321305D01*
X74648219Y17273686D02*
X74648219Y17083210D01*
X74648219Y17083210D02*
X74600600Y16987972D01*
X74600600Y16987972D02*
X74552980Y16940353D01*
X74552980Y16940353D02*
X74410123Y16845115D01*
X74410123Y16845115D02*
X74219647Y16797496D01*
X74219647Y16797496D02*
X73838695Y16797496D01*
X73838695Y16797496D02*
X73743457Y16845115D01*
X73743457Y16845115D02*
X73695838Y16892734D01*
X73695838Y16892734D02*
X73648219Y16987972D01*
X73648219Y16987972D02*
X73648219Y17178448D01*
X73648219Y17178448D02*
X73695838Y17273686D01*
X73695838Y17273686D02*
X73743457Y17321305D01*
X73743457Y17321305D02*
X73838695Y17368924D01*
X73838695Y17368924D02*
X74076790Y17368924D01*
X74076790Y17368924D02*
X74172028Y17321305D01*
X74172028Y17321305D02*
X74219647Y17273686D01*
X74219647Y17273686D02*
X74267266Y17178448D01*
X74267266Y17178448D02*
X74267266Y16987972D01*
X74267266Y16987972D02*
X74219647Y16892734D01*
X74219647Y16892734D02*
X74172028Y16845115D01*
X74172028Y16845115D02*
X74076790Y16797496D01*
X60356114Y9913858D02*
X60403734Y9961477D01*
X60403734Y9961477D02*
X60451353Y10104334D01*
X60451353Y10104334D02*
X60451353Y10199572D01*
X60451353Y10199572D02*
X60403734Y10342429D01*
X60403734Y10342429D02*
X60308495Y10437667D01*
X60308495Y10437667D02*
X60213257Y10485286D01*
X60213257Y10485286D02*
X60022781Y10532905D01*
X60022781Y10532905D02*
X59879924Y10532905D01*
X59879924Y10532905D02*
X59689448Y10485286D01*
X59689448Y10485286D02*
X59594210Y10437667D01*
X59594210Y10437667D02*
X59498972Y10342429D01*
X59498972Y10342429D02*
X59451353Y10199572D01*
X59451353Y10199572D02*
X59451353Y10104334D01*
X59451353Y10104334D02*
X59498972Y9961477D01*
X59498972Y9961477D02*
X59546591Y9913858D01*
X59546591Y9532905D02*
X59498972Y9485286D01*
X59498972Y9485286D02*
X59451353Y9390048D01*
X59451353Y9390048D02*
X59451353Y9151953D01*
X59451353Y9151953D02*
X59498972Y9056715D01*
X59498972Y9056715D02*
X59546591Y9009096D01*
X59546591Y9009096D02*
X59641829Y8961477D01*
X59641829Y8961477D02*
X59737067Y8961477D01*
X59737067Y8961477D02*
X59879924Y9009096D01*
X59879924Y9009096D02*
X60451353Y9580524D01*
X60451353Y9580524D02*
X60451353Y8961477D01*
X59451353Y8342429D02*
X59451353Y8247191D01*
X59451353Y8247191D02*
X59498972Y8151953D01*
X59498972Y8151953D02*
X59546591Y8104334D01*
X59546591Y8104334D02*
X59641829Y8056715D01*
X59641829Y8056715D02*
X59832305Y8009096D01*
X59832305Y8009096D02*
X60070400Y8009096D01*
X60070400Y8009096D02*
X60260876Y8056715D01*
X60260876Y8056715D02*
X60356114Y8104334D01*
X60356114Y8104334D02*
X60403734Y8151953D01*
X60403734Y8151953D02*
X60451353Y8247191D01*
X60451353Y8247191D02*
X60451353Y8342429D01*
X60451353Y8342429D02*
X60403734Y8437667D01*
X60403734Y8437667D02*
X60356114Y8485286D01*
X60356114Y8485286D02*
X60260876Y8532905D01*
X60260876Y8532905D02*
X60070400Y8580524D01*
X60070400Y8580524D02*
X59832305Y8580524D01*
X59832305Y8580524D02*
X59641829Y8532905D01*
X59641829Y8532905D02*
X59546591Y8485286D01*
X59546591Y8485286D02*
X59498972Y8437667D01*
X59498972Y8437667D02*
X59451353Y8342429D01*
X73669757Y23268781D02*
X74003090Y23744972D01*
X74241185Y23268781D02*
X74241185Y24268781D01*
X74241185Y24268781D02*
X73860233Y24268781D01*
X73860233Y24268781D02*
X73764995Y24221162D01*
X73764995Y24221162D02*
X73717376Y24173543D01*
X73717376Y24173543D02*
X73669757Y24078305D01*
X73669757Y24078305D02*
X73669757Y23935448D01*
X73669757Y23935448D02*
X73717376Y23840210D01*
X73717376Y23840210D02*
X73764995Y23792591D01*
X73764995Y23792591D02*
X73860233Y23744972D01*
X73860233Y23744972D02*
X74241185Y23744972D01*
X72717376Y23268781D02*
X73288804Y23268781D01*
X73003090Y23268781D02*
X73003090Y24268781D01*
X73003090Y24268781D02*
X73098328Y24125924D01*
X73098328Y24125924D02*
X73193566Y24030686D01*
X73193566Y24030686D02*
X73288804Y23983067D01*
X72145947Y23840210D02*
X72241185Y23887829D01*
X72241185Y23887829D02*
X72288804Y23935448D01*
X72288804Y23935448D02*
X72336423Y24030686D01*
X72336423Y24030686D02*
X72336423Y24078305D01*
X72336423Y24078305D02*
X72288804Y24173543D01*
X72288804Y24173543D02*
X72241185Y24221162D01*
X72241185Y24221162D02*
X72145947Y24268781D01*
X72145947Y24268781D02*
X71955471Y24268781D01*
X71955471Y24268781D02*
X71860233Y24221162D01*
X71860233Y24221162D02*
X71812614Y24173543D01*
X71812614Y24173543D02*
X71764995Y24078305D01*
X71764995Y24078305D02*
X71764995Y24030686D01*
X71764995Y24030686D02*
X71812614Y23935448D01*
X71812614Y23935448D02*
X71860233Y23887829D01*
X71860233Y23887829D02*
X71955471Y23840210D01*
X71955471Y23840210D02*
X72145947Y23840210D01*
X72145947Y23840210D02*
X72241185Y23792591D01*
X72241185Y23792591D02*
X72288804Y23744972D01*
X72288804Y23744972D02*
X72336423Y23649734D01*
X72336423Y23649734D02*
X72336423Y23459258D01*
X72336423Y23459258D02*
X72288804Y23364020D01*
X72288804Y23364020D02*
X72241185Y23316400D01*
X72241185Y23316400D02*
X72145947Y23268781D01*
X72145947Y23268781D02*
X71955471Y23268781D01*
X71955471Y23268781D02*
X71860233Y23316400D01*
X71860233Y23316400D02*
X71812614Y23364020D01*
X71812614Y23364020D02*
X71764995Y23459258D01*
X71764995Y23459258D02*
X71764995Y23649734D01*
X71764995Y23649734D02*
X71812614Y23744972D01*
X71812614Y23744972D02*
X71860233Y23792591D01*
X71860233Y23792591D02*
X71955471Y23840210D01*
X27693857Y9095581D02*
X28027190Y9571772D01*
X28265285Y9095581D02*
X28265285Y10095581D01*
X28265285Y10095581D02*
X27884333Y10095581D01*
X27884333Y10095581D02*
X27789095Y10047962D01*
X27789095Y10047962D02*
X27741476Y10000343D01*
X27741476Y10000343D02*
X27693857Y9905105D01*
X27693857Y9905105D02*
X27693857Y9762248D01*
X27693857Y9762248D02*
X27741476Y9667010D01*
X27741476Y9667010D02*
X27789095Y9619391D01*
X27789095Y9619391D02*
X27884333Y9571772D01*
X27884333Y9571772D02*
X28265285Y9571772D01*
X26741476Y9095581D02*
X27312904Y9095581D01*
X27027190Y9095581D02*
X27027190Y10095581D01*
X27027190Y10095581D02*
X27122428Y9952724D01*
X27122428Y9952724D02*
X27217666Y9857486D01*
X27217666Y9857486D02*
X27312904Y9809867D01*
X25884333Y9762248D02*
X25884333Y9095581D01*
X26122428Y10143200D02*
X26360523Y9428915D01*
X26360523Y9428915D02*
X25741476Y9428915D01*
X41602819Y18575258D02*
X41126628Y18908591D01*
X41602819Y19146686D02*
X40602819Y19146686D01*
X40602819Y19146686D02*
X40602819Y18765734D01*
X40602819Y18765734D02*
X40650438Y18670496D01*
X40650438Y18670496D02*
X40698057Y18622877D01*
X40698057Y18622877D02*
X40793295Y18575258D01*
X40793295Y18575258D02*
X40936152Y18575258D01*
X40936152Y18575258D02*
X41031390Y18622877D01*
X41031390Y18622877D02*
X41079009Y18670496D01*
X41079009Y18670496D02*
X41126628Y18765734D01*
X41126628Y18765734D02*
X41126628Y19146686D01*
X40602819Y18241924D02*
X40602819Y17622877D01*
X40602819Y17622877D02*
X40983771Y17956210D01*
X40983771Y17956210D02*
X40983771Y17813353D01*
X40983771Y17813353D02*
X41031390Y17718115D01*
X41031390Y17718115D02*
X41079009Y17670496D01*
X41079009Y17670496D02*
X41174247Y17622877D01*
X41174247Y17622877D02*
X41412342Y17622877D01*
X41412342Y17622877D02*
X41507580Y17670496D01*
X41507580Y17670496D02*
X41555200Y17718115D01*
X41555200Y17718115D02*
X41602819Y17813353D01*
X41602819Y17813353D02*
X41602819Y18099067D01*
X41602819Y18099067D02*
X41555200Y18194305D01*
X41555200Y18194305D02*
X41507580Y18241924D01*
X40698057Y17241924D02*
X40650438Y17194305D01*
X40650438Y17194305D02*
X40602819Y17099067D01*
X40602819Y17099067D02*
X40602819Y16860972D01*
X40602819Y16860972D02*
X40650438Y16765734D01*
X40650438Y16765734D02*
X40698057Y16718115D01*
X40698057Y16718115D02*
X40793295Y16670496D01*
X40793295Y16670496D02*
X40888533Y16670496D01*
X40888533Y16670496D02*
X41031390Y16718115D01*
X41031390Y16718115D02*
X41602819Y17289543D01*
X41602819Y17289543D02*
X41602819Y16670496D01*
X40942419Y11660095D02*
X39942419Y11660095D01*
X39942419Y11660095D02*
X39942419Y11422000D01*
X39942419Y11422000D02*
X39990038Y11279143D01*
X39990038Y11279143D02*
X40085276Y11183905D01*
X40085276Y11183905D02*
X40180514Y11136286D01*
X40180514Y11136286D02*
X40370990Y11088667D01*
X40370990Y11088667D02*
X40513847Y11088667D01*
X40513847Y11088667D02*
X40704323Y11136286D01*
X40704323Y11136286D02*
X40799561Y11183905D01*
X40799561Y11183905D02*
X40894800Y11279143D01*
X40894800Y11279143D02*
X40942419Y11422000D01*
X40942419Y11422000D02*
X40942419Y11660095D01*
X39942419Y10755333D02*
X39942419Y10088667D01*
X39942419Y10088667D02*
X40942419Y10517238D01*
X27359780Y20353258D02*
X27407400Y20400877D01*
X27407400Y20400877D02*
X27455019Y20543734D01*
X27455019Y20543734D02*
X27455019Y20638972D01*
X27455019Y20638972D02*
X27407400Y20781829D01*
X27407400Y20781829D02*
X27312161Y20877067D01*
X27312161Y20877067D02*
X27216923Y20924686D01*
X27216923Y20924686D02*
X27026447Y20972305D01*
X27026447Y20972305D02*
X26883590Y20972305D01*
X26883590Y20972305D02*
X26693114Y20924686D01*
X26693114Y20924686D02*
X26597876Y20877067D01*
X26597876Y20877067D02*
X26502638Y20781829D01*
X26502638Y20781829D02*
X26455019Y20638972D01*
X26455019Y20638972D02*
X26455019Y20543734D01*
X26455019Y20543734D02*
X26502638Y20400877D01*
X26502638Y20400877D02*
X26550257Y20353258D01*
X27455019Y19400877D02*
X27455019Y19972305D01*
X27455019Y19686591D02*
X26455019Y19686591D01*
X26455019Y19686591D02*
X26597876Y19781829D01*
X26597876Y19781829D02*
X26693114Y19877067D01*
X26693114Y19877067D02*
X26740733Y19972305D01*
X26455019Y18496115D02*
X26455019Y18972305D01*
X26455019Y18972305D02*
X26931209Y19019924D01*
X26931209Y19019924D02*
X26883590Y18972305D01*
X26883590Y18972305D02*
X26835971Y18877067D01*
X26835971Y18877067D02*
X26835971Y18638972D01*
X26835971Y18638972D02*
X26883590Y18543734D01*
X26883590Y18543734D02*
X26931209Y18496115D01*
X26931209Y18496115D02*
X27026447Y18448496D01*
X27026447Y18448496D02*
X27264542Y18448496D01*
X27264542Y18448496D02*
X27359780Y18496115D01*
X27359780Y18496115D02*
X27407400Y18543734D01*
X27407400Y18543734D02*
X27455019Y18638972D01*
X27455019Y18638972D02*
X27455019Y18877067D01*
X27455019Y18877067D02*
X27407400Y18972305D01*
X27407400Y18972305D02*
X27359780Y19019924D01*
X94343457Y16105981D02*
X94676790Y16582172D01*
X94914885Y16105981D02*
X94914885Y17105981D01*
X94914885Y17105981D02*
X94533933Y17105981D01*
X94533933Y17105981D02*
X94438695Y17058362D01*
X94438695Y17058362D02*
X94391076Y17010743D01*
X94391076Y17010743D02*
X94343457Y16915505D01*
X94343457Y16915505D02*
X94343457Y16772648D01*
X94343457Y16772648D02*
X94391076Y16677410D01*
X94391076Y16677410D02*
X94438695Y16629791D01*
X94438695Y16629791D02*
X94533933Y16582172D01*
X94533933Y16582172D02*
X94914885Y16582172D01*
X93962504Y17010743D02*
X93914885Y17058362D01*
X93914885Y17058362D02*
X93819647Y17105981D01*
X93819647Y17105981D02*
X93581552Y17105981D01*
X93581552Y17105981D02*
X93486314Y17058362D01*
X93486314Y17058362D02*
X93438695Y17010743D01*
X93438695Y17010743D02*
X93391076Y16915505D01*
X93391076Y16915505D02*
X93391076Y16820267D01*
X93391076Y16820267D02*
X93438695Y16677410D01*
X93438695Y16677410D02*
X94010123Y16105981D01*
X94010123Y16105981D02*
X93391076Y16105981D01*
X93057742Y17105981D02*
X92391076Y17105981D01*
X92391076Y17105981D02*
X92819647Y16105981D01*
X44565866Y3456781D02*
X45042056Y3456781D01*
X45042056Y3456781D02*
X45042056Y4456781D01*
X43708723Y3456781D02*
X44280151Y3456781D01*
X43994437Y3456781D02*
X43994437Y4456781D01*
X43994437Y4456781D02*
X44089675Y4313924D01*
X44089675Y4313924D02*
X44184913Y4218686D01*
X44184913Y4218686D02*
X44280151Y4171067D01*
X2319257Y18264981D02*
X2652590Y18741172D01*
X2890685Y18264981D02*
X2890685Y19264981D01*
X2890685Y19264981D02*
X2509733Y19264981D01*
X2509733Y19264981D02*
X2414495Y19217362D01*
X2414495Y19217362D02*
X2366876Y19169743D01*
X2366876Y19169743D02*
X2319257Y19074505D01*
X2319257Y19074505D02*
X2319257Y18931648D01*
X2319257Y18931648D02*
X2366876Y18836410D01*
X2366876Y18836410D02*
X2414495Y18788791D01*
X2414495Y18788791D02*
X2509733Y18741172D01*
X2509733Y18741172D02*
X2890685Y18741172D01*
X1985923Y19264981D02*
X1366876Y19264981D01*
X1366876Y19264981D02*
X1700209Y18884029D01*
X1700209Y18884029D02*
X1557352Y18884029D01*
X1557352Y18884029D02*
X1462114Y18836410D01*
X1462114Y18836410D02*
X1414495Y18788791D01*
X1414495Y18788791D02*
X1366876Y18693553D01*
X1366876Y18693553D02*
X1366876Y18455458D01*
X1366876Y18455458D02*
X1414495Y18360220D01*
X1414495Y18360220D02*
X1462114Y18312600D01*
X1462114Y18312600D02*
X1557352Y18264981D01*
X1557352Y18264981D02*
X1843066Y18264981D01*
X1843066Y18264981D02*
X1938304Y18312600D01*
X1938304Y18312600D02*
X1985923Y18360220D01*
X1033542Y19264981D02*
X414495Y19264981D01*
X414495Y19264981D02*
X747828Y18884029D01*
X747828Y18884029D02*
X604971Y18884029D01*
X604971Y18884029D02*
X509733Y18836410D01*
X509733Y18836410D02*
X462114Y18788791D01*
X462114Y18788791D02*
X414495Y18693553D01*
X414495Y18693553D02*
X414495Y18455458D01*
X414495Y18455458D02*
X462114Y18360220D01*
X462114Y18360220D02*
X509733Y18312600D01*
X509733Y18312600D02*
X604971Y18264981D01*
X604971Y18264981D02*
X890685Y18264981D01*
X890685Y18264981D02*
X985923Y18312600D01*
X985923Y18312600D02*
X1033542Y18360220D01*
D11*
X68737762Y21015682D02*
X68737762Y22285682D01*
X67407285Y21136635D02*
X67467761Y21076158D01*
X67467761Y21076158D02*
X67649190Y21015682D01*
X67649190Y21015682D02*
X67770142Y21015682D01*
X67770142Y21015682D02*
X67951571Y21076158D01*
X67951571Y21076158D02*
X68072523Y21197111D01*
X68072523Y21197111D02*
X68133000Y21318063D01*
X68133000Y21318063D02*
X68193476Y21559968D01*
X68193476Y21559968D02*
X68193476Y21741397D01*
X68193476Y21741397D02*
X68133000Y21983301D01*
X68133000Y21983301D02*
X68072523Y22104254D01*
X68072523Y22104254D02*
X67951571Y22225206D01*
X67951571Y22225206D02*
X67770142Y22285682D01*
X67770142Y22285682D02*
X67649190Y22285682D01*
X67649190Y22285682D02*
X67467761Y22225206D01*
X67467761Y22225206D02*
X67407285Y22164730D01*
X66197761Y21015682D02*
X66923476Y21015682D01*
X66560619Y21015682D02*
X66560619Y22285682D01*
X66560619Y22285682D02*
X66681571Y22104254D01*
X66681571Y22104254D02*
X66802523Y21983301D01*
X66802523Y21983301D02*
X66923476Y21922825D01*
D10*
X87870966Y23497381D02*
X88204299Y23973572D01*
X88442394Y23497381D02*
X88442394Y24497381D01*
X88442394Y24497381D02*
X88061442Y24497381D01*
X88061442Y24497381D02*
X87966204Y24449762D01*
X87966204Y24449762D02*
X87918585Y24402143D01*
X87918585Y24402143D02*
X87870966Y24306905D01*
X87870966Y24306905D02*
X87870966Y24164048D01*
X87870966Y24164048D02*
X87918585Y24068810D01*
X87918585Y24068810D02*
X87966204Y24021191D01*
X87966204Y24021191D02*
X88061442Y23973572D01*
X88061442Y23973572D02*
X88442394Y23973572D01*
X87013823Y24164048D02*
X87013823Y23497381D01*
X87251918Y24545000D02*
X87490013Y23830715D01*
X87490013Y23830715D02*
X86870966Y23830715D01*
X12612666Y9831181D02*
X12945999Y10307372D01*
X13184094Y9831181D02*
X13184094Y10831181D01*
X13184094Y10831181D02*
X12803142Y10831181D01*
X12803142Y10831181D02*
X12707904Y10783562D01*
X12707904Y10783562D02*
X12660285Y10735943D01*
X12660285Y10735943D02*
X12612666Y10640705D01*
X12612666Y10640705D02*
X12612666Y10497848D01*
X12612666Y10497848D02*
X12660285Y10402610D01*
X12660285Y10402610D02*
X12707904Y10354991D01*
X12707904Y10354991D02*
X12803142Y10307372D01*
X12803142Y10307372D02*
X13184094Y10307372D01*
X12279332Y10831181D02*
X11612666Y10831181D01*
X11612666Y10831181D02*
X12041237Y9831181D01*
X27668457Y402420D02*
X27716076Y354800D01*
X27716076Y354800D02*
X27858933Y307181D01*
X27858933Y307181D02*
X27954171Y307181D01*
X27954171Y307181D02*
X28097028Y354800D01*
X28097028Y354800D02*
X28192266Y450039D01*
X28192266Y450039D02*
X28239885Y545277D01*
X28239885Y545277D02*
X28287504Y735753D01*
X28287504Y735753D02*
X28287504Y878610D01*
X28287504Y878610D02*
X28239885Y1069086D01*
X28239885Y1069086D02*
X28192266Y1164324D01*
X28192266Y1164324D02*
X28097028Y1259562D01*
X28097028Y1259562D02*
X27954171Y1307181D01*
X27954171Y1307181D02*
X27858933Y1307181D01*
X27858933Y1307181D02*
X27716076Y1259562D01*
X27716076Y1259562D02*
X27668457Y1211943D01*
X26716076Y307181D02*
X27287504Y307181D01*
X27001790Y307181D02*
X27001790Y1307181D01*
X27001790Y1307181D02*
X27097028Y1164324D01*
X27097028Y1164324D02*
X27192266Y1069086D01*
X27192266Y1069086D02*
X27287504Y1021467D01*
X26335123Y1211943D02*
X26287504Y1259562D01*
X26287504Y1259562D02*
X26192266Y1307181D01*
X26192266Y1307181D02*
X25954171Y1307181D01*
X25954171Y1307181D02*
X25858933Y1259562D01*
X25858933Y1259562D02*
X25811314Y1211943D01*
X25811314Y1211943D02*
X25763695Y1116705D01*
X25763695Y1116705D02*
X25763695Y1021467D01*
X25763695Y1021467D02*
X25811314Y878610D01*
X25811314Y878610D02*
X26382742Y307181D01*
X26382742Y307181D02*
X25763695Y307181D01*
X2293857Y20246181D02*
X2627190Y20722372D01*
X2865285Y20246181D02*
X2865285Y21246181D01*
X2865285Y21246181D02*
X2484333Y21246181D01*
X2484333Y21246181D02*
X2389095Y21198562D01*
X2389095Y21198562D02*
X2341476Y21150943D01*
X2341476Y21150943D02*
X2293857Y21055705D01*
X2293857Y21055705D02*
X2293857Y20912848D01*
X2293857Y20912848D02*
X2341476Y20817610D01*
X2341476Y20817610D02*
X2389095Y20769991D01*
X2389095Y20769991D02*
X2484333Y20722372D01*
X2484333Y20722372D02*
X2865285Y20722372D01*
X1960523Y21246181D02*
X1341476Y21246181D01*
X1341476Y21246181D02*
X1674809Y20865229D01*
X1674809Y20865229D02*
X1531952Y20865229D01*
X1531952Y20865229D02*
X1436714Y20817610D01*
X1436714Y20817610D02*
X1389095Y20769991D01*
X1389095Y20769991D02*
X1341476Y20674753D01*
X1341476Y20674753D02*
X1341476Y20436658D01*
X1341476Y20436658D02*
X1389095Y20341420D01*
X1389095Y20341420D02*
X1436714Y20293800D01*
X1436714Y20293800D02*
X1531952Y20246181D01*
X1531952Y20246181D02*
X1817666Y20246181D01*
X1817666Y20246181D02*
X1912904Y20293800D01*
X1912904Y20293800D02*
X1960523Y20341420D01*
X1008142Y21246181D02*
X341476Y21246181D01*
X341476Y21246181D02*
X770047Y20246181D01*
X63169580Y12817667D02*
X63217200Y12865286D01*
X63217200Y12865286D02*
X63264819Y13008143D01*
X63264819Y13008143D02*
X63264819Y13103381D01*
X63264819Y13103381D02*
X63217200Y13246238D01*
X63217200Y13246238D02*
X63121961Y13341476D01*
X63121961Y13341476D02*
X63026723Y13389095D01*
X63026723Y13389095D02*
X62836247Y13436714D01*
X62836247Y13436714D02*
X62693390Y13436714D01*
X62693390Y13436714D02*
X62502914Y13389095D01*
X62502914Y13389095D02*
X62407676Y13341476D01*
X62407676Y13341476D02*
X62312438Y13246238D01*
X62312438Y13246238D02*
X62264819Y13103381D01*
X62264819Y13103381D02*
X62264819Y13008143D01*
X62264819Y13008143D02*
X62312438Y12865286D01*
X62312438Y12865286D02*
X62360057Y12817667D01*
X63264819Y11865286D02*
X63264819Y12436714D01*
X63264819Y12151000D02*
X62264819Y12151000D01*
X62264819Y12151000D02*
X62407676Y12246238D01*
X62407676Y12246238D02*
X62502914Y12341476D01*
X62502914Y12341476D02*
X62550533Y12436714D01*
X40339180Y22461458D02*
X40386800Y22509077D01*
X40386800Y22509077D02*
X40434419Y22651934D01*
X40434419Y22651934D02*
X40434419Y22747172D01*
X40434419Y22747172D02*
X40386800Y22890029D01*
X40386800Y22890029D02*
X40291561Y22985267D01*
X40291561Y22985267D02*
X40196323Y23032886D01*
X40196323Y23032886D02*
X40005847Y23080505D01*
X40005847Y23080505D02*
X39862990Y23080505D01*
X39862990Y23080505D02*
X39672514Y23032886D01*
X39672514Y23032886D02*
X39577276Y22985267D01*
X39577276Y22985267D02*
X39482038Y22890029D01*
X39482038Y22890029D02*
X39434419Y22747172D01*
X39434419Y22747172D02*
X39434419Y22651934D01*
X39434419Y22651934D02*
X39482038Y22509077D01*
X39482038Y22509077D02*
X39529657Y22461458D01*
X40434419Y21509077D02*
X40434419Y22080505D01*
X40434419Y21794791D02*
X39434419Y21794791D01*
X39434419Y21794791D02*
X39577276Y21890029D01*
X39577276Y21890029D02*
X39672514Y21985267D01*
X39672514Y21985267D02*
X39720133Y22080505D01*
X39434419Y20651934D02*
X39434419Y20842410D01*
X39434419Y20842410D02*
X39482038Y20937648D01*
X39482038Y20937648D02*
X39529657Y20985267D01*
X39529657Y20985267D02*
X39672514Y21080505D01*
X39672514Y21080505D02*
X39862990Y21128124D01*
X39862990Y21128124D02*
X40243942Y21128124D01*
X40243942Y21128124D02*
X40339180Y21080505D01*
X40339180Y21080505D02*
X40386800Y21032886D01*
X40386800Y21032886D02*
X40434419Y20937648D01*
X40434419Y20937648D02*
X40434419Y20747172D01*
X40434419Y20747172D02*
X40386800Y20651934D01*
X40386800Y20651934D02*
X40339180Y20604315D01*
X40339180Y20604315D02*
X40243942Y20556696D01*
X40243942Y20556696D02*
X40005847Y20556696D01*
X40005847Y20556696D02*
X39910609Y20604315D01*
X39910609Y20604315D02*
X39862990Y20651934D01*
X39862990Y20651934D02*
X39815371Y20747172D01*
X39815371Y20747172D02*
X39815371Y20937648D01*
X39815371Y20937648D02*
X39862990Y21032886D01*
X39862990Y21032886D02*
X39910609Y21080505D01*
X39910609Y21080505D02*
X40005847Y21128124D01*
X103688757Y23827581D02*
X104022090Y24303772D01*
X104260185Y23827581D02*
X104260185Y24827581D01*
X104260185Y24827581D02*
X103879233Y24827581D01*
X103879233Y24827581D02*
X103783995Y24779962D01*
X103783995Y24779962D02*
X103736376Y24732343D01*
X103736376Y24732343D02*
X103688757Y24637105D01*
X103688757Y24637105D02*
X103688757Y24494248D01*
X103688757Y24494248D02*
X103736376Y24399010D01*
X103736376Y24399010D02*
X103783995Y24351391D01*
X103783995Y24351391D02*
X103879233Y24303772D01*
X103879233Y24303772D02*
X104260185Y24303772D01*
X103307804Y24732343D02*
X103260185Y24779962D01*
X103260185Y24779962D02*
X103164947Y24827581D01*
X103164947Y24827581D02*
X102926852Y24827581D01*
X102926852Y24827581D02*
X102831614Y24779962D01*
X102831614Y24779962D02*
X102783995Y24732343D01*
X102783995Y24732343D02*
X102736376Y24637105D01*
X102736376Y24637105D02*
X102736376Y24541867D01*
X102736376Y24541867D02*
X102783995Y24399010D01*
X102783995Y24399010D02*
X103355423Y23827581D01*
X103355423Y23827581D02*
X102736376Y23827581D01*
X101831614Y24827581D02*
X102307804Y24827581D01*
X102307804Y24827581D02*
X102355423Y24351391D01*
X102355423Y24351391D02*
X102307804Y24399010D01*
X102307804Y24399010D02*
X102212566Y24446629D01*
X102212566Y24446629D02*
X101974471Y24446629D01*
X101974471Y24446629D02*
X101879233Y24399010D01*
X101879233Y24399010D02*
X101831614Y24351391D01*
X101831614Y24351391D02*
X101783995Y24256153D01*
X101783995Y24256153D02*
X101783995Y24018058D01*
X101783995Y24018058D02*
X101831614Y23922820D01*
X101831614Y23922820D02*
X101879233Y23875200D01*
X101879233Y23875200D02*
X101974471Y23827581D01*
X101974471Y23827581D02*
X102212566Y23827581D01*
X102212566Y23827581D02*
X102307804Y23875200D01*
X102307804Y23875200D02*
X102355423Y23922820D01*
X27617657Y2593181D02*
X27950990Y3069372D01*
X28189085Y2593181D02*
X28189085Y3593181D01*
X28189085Y3593181D02*
X27808133Y3593181D01*
X27808133Y3593181D02*
X27712895Y3545562D01*
X27712895Y3545562D02*
X27665276Y3497943D01*
X27665276Y3497943D02*
X27617657Y3402705D01*
X27617657Y3402705D02*
X27617657Y3259848D01*
X27617657Y3259848D02*
X27665276Y3164610D01*
X27665276Y3164610D02*
X27712895Y3116991D01*
X27712895Y3116991D02*
X27808133Y3069372D01*
X27808133Y3069372D02*
X28189085Y3069372D01*
X26665276Y2593181D02*
X27236704Y2593181D01*
X26950990Y2593181D02*
X26950990Y3593181D01*
X26950990Y3593181D02*
X27046228Y3450324D01*
X27046228Y3450324D02*
X27141466Y3355086D01*
X27141466Y3355086D02*
X27236704Y3307467D01*
X25808133Y3593181D02*
X25998609Y3593181D01*
X25998609Y3593181D02*
X26093847Y3545562D01*
X26093847Y3545562D02*
X26141466Y3497943D01*
X26141466Y3497943D02*
X26236704Y3355086D01*
X26236704Y3355086D02*
X26284323Y3164610D01*
X26284323Y3164610D02*
X26284323Y2783658D01*
X26284323Y2783658D02*
X26236704Y2688420D01*
X26236704Y2688420D02*
X26189085Y2640800D01*
X26189085Y2640800D02*
X26093847Y2593181D01*
X26093847Y2593181D02*
X25903371Y2593181D01*
X25903371Y2593181D02*
X25808133Y2640800D01*
X25808133Y2640800D02*
X25760514Y2688420D01*
X25760514Y2688420D02*
X25712895Y2783658D01*
X25712895Y2783658D02*
X25712895Y3021753D01*
X25712895Y3021753D02*
X25760514Y3116991D01*
X25760514Y3116991D02*
X25808133Y3164610D01*
X25808133Y3164610D02*
X25903371Y3212229D01*
X25903371Y3212229D02*
X26093847Y3212229D01*
X26093847Y3212229D02*
X26189085Y3164610D01*
X26189085Y3164610D02*
X26236704Y3116991D01*
X26236704Y3116991D02*
X26284323Y3021753D01*
D11*
X68465619Y13903682D02*
X68465619Y12875587D01*
X68465619Y12875587D02*
X68405142Y12754635D01*
X68405142Y12754635D02*
X68344666Y12694158D01*
X68344666Y12694158D02*
X68223714Y12633682D01*
X68223714Y12633682D02*
X67981809Y12633682D01*
X67981809Y12633682D02*
X67860857Y12694158D01*
X67860857Y12694158D02*
X67800380Y12754635D01*
X67800380Y12754635D02*
X67739904Y12875587D01*
X67739904Y12875587D02*
X67739904Y13903682D01*
X66469904Y12633682D02*
X67195619Y12633682D01*
X66832762Y12633682D02*
X66832762Y13903682D01*
X66832762Y13903682D02*
X66953714Y13722254D01*
X66953714Y13722254D02*
X67074666Y13601301D01*
X67074666Y13601301D02*
X67195619Y13540825D01*
D10*
X45708866Y758020D02*
X45756485Y710400D01*
X45756485Y710400D02*
X45899342Y662781D01*
X45899342Y662781D02*
X45994580Y662781D01*
X45994580Y662781D02*
X46137437Y710400D01*
X46137437Y710400D02*
X46232675Y805639D01*
X46232675Y805639D02*
X46280294Y900877D01*
X46280294Y900877D02*
X46327913Y1091353D01*
X46327913Y1091353D02*
X46327913Y1234210D01*
X46327913Y1234210D02*
X46280294Y1424686D01*
X46280294Y1424686D02*
X46232675Y1519924D01*
X46232675Y1519924D02*
X46137437Y1615162D01*
X46137437Y1615162D02*
X45994580Y1662781D01*
X45994580Y1662781D02*
X45899342Y1662781D01*
X45899342Y1662781D02*
X45756485Y1615162D01*
X45756485Y1615162D02*
X45708866Y1567543D01*
X44804104Y1662781D02*
X45280294Y1662781D01*
X45280294Y1662781D02*
X45327913Y1186591D01*
X45327913Y1186591D02*
X45280294Y1234210D01*
X45280294Y1234210D02*
X45185056Y1281829D01*
X45185056Y1281829D02*
X44946961Y1281829D01*
X44946961Y1281829D02*
X44851723Y1234210D01*
X44851723Y1234210D02*
X44804104Y1186591D01*
X44804104Y1186591D02*
X44756485Y1091353D01*
X44756485Y1091353D02*
X44756485Y853258D01*
X44756485Y853258D02*
X44804104Y758020D01*
X44804104Y758020D02*
X44851723Y710400D01*
X44851723Y710400D02*
X44946961Y662781D01*
X44946961Y662781D02*
X45185056Y662781D01*
X45185056Y662781D02*
X45280294Y710400D01*
X45280294Y710400D02*
X45327913Y758020D01*
X13469857Y11203781D02*
X13803190Y11679972D01*
X14041285Y11203781D02*
X14041285Y12203781D01*
X14041285Y12203781D02*
X13660333Y12203781D01*
X13660333Y12203781D02*
X13565095Y12156162D01*
X13565095Y12156162D02*
X13517476Y12108543D01*
X13517476Y12108543D02*
X13469857Y12013305D01*
X13469857Y12013305D02*
X13469857Y11870448D01*
X13469857Y11870448D02*
X13517476Y11775210D01*
X13517476Y11775210D02*
X13565095Y11727591D01*
X13565095Y11727591D02*
X13660333Y11679972D01*
X13660333Y11679972D02*
X14041285Y11679972D01*
X13136523Y12203781D02*
X12517476Y12203781D01*
X12517476Y12203781D02*
X12850809Y11822829D01*
X12850809Y11822829D02*
X12707952Y11822829D01*
X12707952Y11822829D02*
X12612714Y11775210D01*
X12612714Y11775210D02*
X12565095Y11727591D01*
X12565095Y11727591D02*
X12517476Y11632353D01*
X12517476Y11632353D02*
X12517476Y11394258D01*
X12517476Y11394258D02*
X12565095Y11299020D01*
X12565095Y11299020D02*
X12612714Y11251400D01*
X12612714Y11251400D02*
X12707952Y11203781D01*
X12707952Y11203781D02*
X12993666Y11203781D01*
X12993666Y11203781D02*
X13088904Y11251400D01*
X13088904Y11251400D02*
X13136523Y11299020D01*
X11660333Y11870448D02*
X11660333Y11203781D01*
X11898428Y12251400D02*
X12136523Y11537115D01*
X12136523Y11537115D02*
X11517476Y11537115D01*
X51098390Y16353572D02*
X51098390Y15877381D01*
X51431723Y16877381D02*
X51098390Y16353572D01*
X51098390Y16353572D02*
X50765057Y16877381D01*
X49907914Y15877381D02*
X50479342Y15877381D01*
X50193628Y15877381D02*
X50193628Y16877381D01*
X50193628Y16877381D02*
X50288866Y16734524D01*
X50288866Y16734524D02*
X50384104Y16639286D01*
X50384104Y16639286D02*
X50479342Y16591667D01*
X59266057Y1139020D02*
X59313676Y1091400D01*
X59313676Y1091400D02*
X59456533Y1043781D01*
X59456533Y1043781D02*
X59551771Y1043781D01*
X59551771Y1043781D02*
X59694628Y1091400D01*
X59694628Y1091400D02*
X59789866Y1186639D01*
X59789866Y1186639D02*
X59837485Y1281877D01*
X59837485Y1281877D02*
X59885104Y1472353D01*
X59885104Y1472353D02*
X59885104Y1615210D01*
X59885104Y1615210D02*
X59837485Y1805686D01*
X59837485Y1805686D02*
X59789866Y1900924D01*
X59789866Y1900924D02*
X59694628Y1996162D01*
X59694628Y1996162D02*
X59551771Y2043781D01*
X59551771Y2043781D02*
X59456533Y2043781D01*
X59456533Y2043781D02*
X59313676Y1996162D01*
X59313676Y1996162D02*
X59266057Y1948543D01*
X58313676Y1043781D02*
X58885104Y1043781D01*
X58599390Y1043781D02*
X58599390Y2043781D01*
X58599390Y2043781D02*
X58694628Y1900924D01*
X58694628Y1900924D02*
X58789866Y1805686D01*
X58789866Y1805686D02*
X58885104Y1758067D01*
X57980342Y2043781D02*
X57361295Y2043781D01*
X57361295Y2043781D02*
X57694628Y1662829D01*
X57694628Y1662829D02*
X57551771Y1662829D01*
X57551771Y1662829D02*
X57456533Y1615210D01*
X57456533Y1615210D02*
X57408914Y1567591D01*
X57408914Y1567591D02*
X57361295Y1472353D01*
X57361295Y1472353D02*
X57361295Y1234258D01*
X57361295Y1234258D02*
X57408914Y1139020D01*
X57408914Y1139020D02*
X57456533Y1091400D01*
X57456533Y1091400D02*
X57551771Y1043781D01*
X57551771Y1043781D02*
X57837485Y1043781D01*
X57837485Y1043781D02*
X57932723Y1091400D01*
X57932723Y1091400D02*
X57980342Y1139020D01*
X8212057Y3050381D02*
X8545390Y3526572D01*
X8783485Y3050381D02*
X8783485Y4050381D01*
X8783485Y4050381D02*
X8402533Y4050381D01*
X8402533Y4050381D02*
X8307295Y4002762D01*
X8307295Y4002762D02*
X8259676Y3955143D01*
X8259676Y3955143D02*
X8212057Y3859905D01*
X8212057Y3859905D02*
X8212057Y3717048D01*
X8212057Y3717048D02*
X8259676Y3621810D01*
X8259676Y3621810D02*
X8307295Y3574191D01*
X8307295Y3574191D02*
X8402533Y3526572D01*
X8402533Y3526572D02*
X8783485Y3526572D01*
X7259676Y3050381D02*
X7831104Y3050381D01*
X7545390Y3050381D02*
X7545390Y4050381D01*
X7545390Y4050381D02*
X7640628Y3907524D01*
X7640628Y3907524D02*
X7735866Y3812286D01*
X7735866Y3812286D02*
X7831104Y3764667D01*
X6307295Y3050381D02*
X6878723Y3050381D01*
X6593009Y3050381D02*
X6593009Y4050381D01*
X6593009Y4050381D02*
X6688247Y3907524D01*
X6688247Y3907524D02*
X6783485Y3812286D01*
X6783485Y3812286D02*
X6878723Y3764667D01*
D11*
X98775762Y21269682D02*
X98775762Y22539682D01*
X97445285Y21390635D02*
X97505761Y21330158D01*
X97505761Y21330158D02*
X97687190Y21269682D01*
X97687190Y21269682D02*
X97808142Y21269682D01*
X97808142Y21269682D02*
X97989571Y21330158D01*
X97989571Y21330158D02*
X98110523Y21451111D01*
X98110523Y21451111D02*
X98171000Y21572063D01*
X98171000Y21572063D02*
X98231476Y21813968D01*
X98231476Y21813968D02*
X98231476Y21995397D01*
X98231476Y21995397D02*
X98171000Y22237301D01*
X98171000Y22237301D02*
X98110523Y22358254D01*
X98110523Y22358254D02*
X97989571Y22479206D01*
X97989571Y22479206D02*
X97808142Y22539682D01*
X97808142Y22539682D02*
X97687190Y22539682D01*
X97687190Y22539682D02*
X97505761Y22479206D01*
X97505761Y22479206D02*
X97445285Y22418730D01*
X96356714Y22116349D02*
X96356714Y21269682D01*
X96659095Y22600158D02*
X96961476Y21693016D01*
X96961476Y21693016D02*
X96175285Y21693016D01*
D10*
X25753219Y23325058D02*
X25277028Y23658391D01*
X25753219Y23896486D02*
X24753219Y23896486D01*
X24753219Y23896486D02*
X24753219Y23515534D01*
X24753219Y23515534D02*
X24800838Y23420296D01*
X24800838Y23420296D02*
X24848457Y23372677D01*
X24848457Y23372677D02*
X24943695Y23325058D01*
X24943695Y23325058D02*
X25086552Y23325058D01*
X25086552Y23325058D02*
X25181790Y23372677D01*
X25181790Y23372677D02*
X25229409Y23420296D01*
X25229409Y23420296D02*
X25277028Y23515534D01*
X25277028Y23515534D02*
X25277028Y23896486D01*
X24753219Y22991724D02*
X24753219Y22372677D01*
X24753219Y22372677D02*
X25134171Y22706010D01*
X25134171Y22706010D02*
X25134171Y22563153D01*
X25134171Y22563153D02*
X25181790Y22467915D01*
X25181790Y22467915D02*
X25229409Y22420296D01*
X25229409Y22420296D02*
X25324647Y22372677D01*
X25324647Y22372677D02*
X25562742Y22372677D01*
X25562742Y22372677D02*
X25657980Y22420296D01*
X25657980Y22420296D02*
X25705600Y22467915D01*
X25705600Y22467915D02*
X25753219Y22563153D01*
X25753219Y22563153D02*
X25753219Y22848867D01*
X25753219Y22848867D02*
X25705600Y22944105D01*
X25705600Y22944105D02*
X25657980Y22991724D01*
X25753219Y21420296D02*
X25753219Y21991724D01*
X25753219Y21706010D02*
X24753219Y21706010D01*
X24753219Y21706010D02*
X24896076Y21801248D01*
X24896076Y21801248D02*
X24991314Y21896486D01*
X24991314Y21896486D02*
X25038933Y21991724D01*
X28868857Y15809420D02*
X28916476Y15761800D01*
X28916476Y15761800D02*
X29059333Y15714181D01*
X29059333Y15714181D02*
X29154571Y15714181D01*
X29154571Y15714181D02*
X29297428Y15761800D01*
X29297428Y15761800D02*
X29392666Y15857039D01*
X29392666Y15857039D02*
X29440285Y15952277D01*
X29440285Y15952277D02*
X29487904Y16142753D01*
X29487904Y16142753D02*
X29487904Y16285610D01*
X29487904Y16285610D02*
X29440285Y16476086D01*
X29440285Y16476086D02*
X29392666Y16571324D01*
X29392666Y16571324D02*
X29297428Y16666562D01*
X29297428Y16666562D02*
X29154571Y16714181D01*
X29154571Y16714181D02*
X29059333Y16714181D01*
X29059333Y16714181D02*
X28916476Y16666562D01*
X28916476Y16666562D02*
X28868857Y16618943D01*
X28487904Y16618943D02*
X28440285Y16666562D01*
X28440285Y16666562D02*
X28345047Y16714181D01*
X28345047Y16714181D02*
X28106952Y16714181D01*
X28106952Y16714181D02*
X28011714Y16666562D01*
X28011714Y16666562D02*
X27964095Y16618943D01*
X27964095Y16618943D02*
X27916476Y16523705D01*
X27916476Y16523705D02*
X27916476Y16428467D01*
X27916476Y16428467D02*
X27964095Y16285610D01*
X27964095Y16285610D02*
X28535523Y15714181D01*
X28535523Y15714181D02*
X27916476Y15714181D01*
X26964095Y15714181D02*
X27535523Y15714181D01*
X27249809Y15714181D02*
X27249809Y16714181D01*
X27249809Y16714181D02*
X27345047Y16571324D01*
X27345047Y16571324D02*
X27440285Y16476086D01*
X27440285Y16476086D02*
X27535523Y16428467D01*
X91133819Y21437358D02*
X90657628Y21770691D01*
X91133819Y22008786D02*
X90133819Y22008786D01*
X90133819Y22008786D02*
X90133819Y21627834D01*
X90133819Y21627834D02*
X90181438Y21532596D01*
X90181438Y21532596D02*
X90229057Y21484977D01*
X90229057Y21484977D02*
X90324295Y21437358D01*
X90324295Y21437358D02*
X90467152Y21437358D01*
X90467152Y21437358D02*
X90562390Y21484977D01*
X90562390Y21484977D02*
X90610009Y21532596D01*
X90610009Y21532596D02*
X90657628Y21627834D01*
X90657628Y21627834D02*
X90657628Y22008786D01*
X90229057Y21056405D02*
X90181438Y21008786D01*
X90181438Y21008786D02*
X90133819Y20913548D01*
X90133819Y20913548D02*
X90133819Y20675453D01*
X90133819Y20675453D02*
X90181438Y20580215D01*
X90181438Y20580215D02*
X90229057Y20532596D01*
X90229057Y20532596D02*
X90324295Y20484977D01*
X90324295Y20484977D02*
X90419533Y20484977D01*
X90419533Y20484977D02*
X90562390Y20532596D01*
X90562390Y20532596D02*
X91133819Y21104024D01*
X91133819Y21104024D02*
X91133819Y20484977D01*
X90133819Y19627834D02*
X90133819Y19818310D01*
X90133819Y19818310D02*
X90181438Y19913548D01*
X90181438Y19913548D02*
X90229057Y19961167D01*
X90229057Y19961167D02*
X90371914Y20056405D01*
X90371914Y20056405D02*
X90562390Y20104024D01*
X90562390Y20104024D02*
X90943342Y20104024D01*
X90943342Y20104024D02*
X91038580Y20056405D01*
X91038580Y20056405D02*
X91086200Y20008786D01*
X91086200Y20008786D02*
X91133819Y19913548D01*
X91133819Y19913548D02*
X91133819Y19723072D01*
X91133819Y19723072D02*
X91086200Y19627834D01*
X91086200Y19627834D02*
X91038580Y19580215D01*
X91038580Y19580215D02*
X90943342Y19532596D01*
X90943342Y19532596D02*
X90705247Y19532596D01*
X90705247Y19532596D02*
X90610009Y19580215D01*
X90610009Y19580215D02*
X90562390Y19627834D01*
X90562390Y19627834D02*
X90514771Y19723072D01*
X90514771Y19723072D02*
X90514771Y19913548D01*
X90514771Y19913548D02*
X90562390Y20008786D01*
X90562390Y20008786D02*
X90610009Y20056405D01*
X90610009Y20056405D02*
X90705247Y20104024D01*
X30037066Y5539581D02*
X30370399Y6015772D01*
X30608494Y5539581D02*
X30608494Y6539581D01*
X30608494Y6539581D02*
X30227542Y6539581D01*
X30227542Y6539581D02*
X30132304Y6491962D01*
X30132304Y6491962D02*
X30084685Y6444343D01*
X30084685Y6444343D02*
X30037066Y6349105D01*
X30037066Y6349105D02*
X30037066Y6206248D01*
X30037066Y6206248D02*
X30084685Y6111010D01*
X30084685Y6111010D02*
X30132304Y6063391D01*
X30132304Y6063391D02*
X30227542Y6015772D01*
X30227542Y6015772D02*
X30608494Y6015772D01*
X29560875Y5539581D02*
X29370399Y5539581D01*
X29370399Y5539581D02*
X29275161Y5587200D01*
X29275161Y5587200D02*
X29227542Y5634820D01*
X29227542Y5634820D02*
X29132304Y5777677D01*
X29132304Y5777677D02*
X29084685Y5968153D01*
X29084685Y5968153D02*
X29084685Y6349105D01*
X29084685Y6349105D02*
X29132304Y6444343D01*
X29132304Y6444343D02*
X29179923Y6491962D01*
X29179923Y6491962D02*
X29275161Y6539581D01*
X29275161Y6539581D02*
X29465637Y6539581D01*
X29465637Y6539581D02*
X29560875Y6491962D01*
X29560875Y6491962D02*
X29608494Y6444343D01*
X29608494Y6444343D02*
X29656113Y6349105D01*
X29656113Y6349105D02*
X29656113Y6111010D01*
X29656113Y6111010D02*
X29608494Y6015772D01*
X29608494Y6015772D02*
X29560875Y5968153D01*
X29560875Y5968153D02*
X29465637Y5920534D01*
X29465637Y5920534D02*
X29275161Y5920534D01*
X29275161Y5920534D02*
X29179923Y5968153D01*
X29179923Y5968153D02*
X29132304Y6015772D01*
X29132304Y6015772D02*
X29084685Y6111010D01*
X46054180Y22232858D02*
X46101800Y22280477D01*
X46101800Y22280477D02*
X46149419Y22423334D01*
X46149419Y22423334D02*
X46149419Y22518572D01*
X46149419Y22518572D02*
X46101800Y22661429D01*
X46101800Y22661429D02*
X46006561Y22756667D01*
X46006561Y22756667D02*
X45911323Y22804286D01*
X45911323Y22804286D02*
X45720847Y22851905D01*
X45720847Y22851905D02*
X45577990Y22851905D01*
X45577990Y22851905D02*
X45387514Y22804286D01*
X45387514Y22804286D02*
X45292276Y22756667D01*
X45292276Y22756667D02*
X45197038Y22661429D01*
X45197038Y22661429D02*
X45149419Y22518572D01*
X45149419Y22518572D02*
X45149419Y22423334D01*
X45149419Y22423334D02*
X45197038Y22280477D01*
X45197038Y22280477D02*
X45244657Y22232858D01*
X45244657Y21851905D02*
X45197038Y21804286D01*
X45197038Y21804286D02*
X45149419Y21709048D01*
X45149419Y21709048D02*
X45149419Y21470953D01*
X45149419Y21470953D02*
X45197038Y21375715D01*
X45197038Y21375715D02*
X45244657Y21328096D01*
X45244657Y21328096D02*
X45339895Y21280477D01*
X45339895Y21280477D02*
X45435133Y21280477D01*
X45435133Y21280477D02*
X45577990Y21328096D01*
X45577990Y21328096D02*
X46149419Y21899524D01*
X46149419Y21899524D02*
X46149419Y21280477D01*
X45149419Y20947143D02*
X45149419Y20328096D01*
X45149419Y20328096D02*
X45530371Y20661429D01*
X45530371Y20661429D02*
X45530371Y20518572D01*
X45530371Y20518572D02*
X45577990Y20423334D01*
X45577990Y20423334D02*
X45625609Y20375715D01*
X45625609Y20375715D02*
X45720847Y20328096D01*
X45720847Y20328096D02*
X45958942Y20328096D01*
X45958942Y20328096D02*
X46054180Y20375715D01*
X46054180Y20375715D02*
X46101800Y20423334D01*
X46101800Y20423334D02*
X46149419Y20518572D01*
X46149419Y20518572D02*
X46149419Y20804286D01*
X46149419Y20804286D02*
X46101800Y20899524D01*
X46101800Y20899524D02*
X46054180Y20947143D01*
X17296019Y20886658D02*
X16819828Y21219991D01*
X17296019Y21458086D02*
X16296019Y21458086D01*
X16296019Y21458086D02*
X16296019Y21077134D01*
X16296019Y21077134D02*
X16343638Y20981896D01*
X16343638Y20981896D02*
X16391257Y20934277D01*
X16391257Y20934277D02*
X16486495Y20886658D01*
X16486495Y20886658D02*
X16629352Y20886658D01*
X16629352Y20886658D02*
X16724590Y20934277D01*
X16724590Y20934277D02*
X16772209Y20981896D01*
X16772209Y20981896D02*
X16819828Y21077134D01*
X16819828Y21077134D02*
X16819828Y21458086D01*
X16391257Y20505705D02*
X16343638Y20458086D01*
X16343638Y20458086D02*
X16296019Y20362848D01*
X16296019Y20362848D02*
X16296019Y20124753D01*
X16296019Y20124753D02*
X16343638Y20029515D01*
X16343638Y20029515D02*
X16391257Y19981896D01*
X16391257Y19981896D02*
X16486495Y19934277D01*
X16486495Y19934277D02*
X16581733Y19934277D01*
X16581733Y19934277D02*
X16724590Y19981896D01*
X16724590Y19981896D02*
X17296019Y20553324D01*
X17296019Y20553324D02*
X17296019Y19934277D01*
X16391257Y19553324D02*
X16343638Y19505705D01*
X16343638Y19505705D02*
X16296019Y19410467D01*
X16296019Y19410467D02*
X16296019Y19172372D01*
X16296019Y19172372D02*
X16343638Y19077134D01*
X16343638Y19077134D02*
X16391257Y19029515D01*
X16391257Y19029515D02*
X16486495Y18981896D01*
X16486495Y18981896D02*
X16581733Y18981896D01*
X16581733Y18981896D02*
X16724590Y19029515D01*
X16724590Y19029515D02*
X17296019Y19600943D01*
X17296019Y19600943D02*
X17296019Y18981896D01*
X64225466Y15801181D02*
X64558799Y16277372D01*
X64796894Y15801181D02*
X64796894Y16801181D01*
X64796894Y16801181D02*
X64415942Y16801181D01*
X64415942Y16801181D02*
X64320704Y16753562D01*
X64320704Y16753562D02*
X64273085Y16705943D01*
X64273085Y16705943D02*
X64225466Y16610705D01*
X64225466Y16610705D02*
X64225466Y16467848D01*
X64225466Y16467848D02*
X64273085Y16372610D01*
X64273085Y16372610D02*
X64320704Y16324991D01*
X64320704Y16324991D02*
X64415942Y16277372D01*
X64415942Y16277372D02*
X64796894Y16277372D01*
X63844513Y16705943D02*
X63796894Y16753562D01*
X63796894Y16753562D02*
X63701656Y16801181D01*
X63701656Y16801181D02*
X63463561Y16801181D01*
X63463561Y16801181D02*
X63368323Y16753562D01*
X63368323Y16753562D02*
X63320704Y16705943D01*
X63320704Y16705943D02*
X63273085Y16610705D01*
X63273085Y16610705D02*
X63273085Y16515467D01*
X63273085Y16515467D02*
X63320704Y16372610D01*
X63320704Y16372610D02*
X63892132Y15801181D01*
X63892132Y15801181D02*
X63273085Y15801181D01*
X2192257Y11229181D02*
X2525590Y11705372D01*
X2763685Y11229181D02*
X2763685Y12229181D01*
X2763685Y12229181D02*
X2382733Y12229181D01*
X2382733Y12229181D02*
X2287495Y12181562D01*
X2287495Y12181562D02*
X2239876Y12133943D01*
X2239876Y12133943D02*
X2192257Y12038705D01*
X2192257Y12038705D02*
X2192257Y11895848D01*
X2192257Y11895848D02*
X2239876Y11800610D01*
X2239876Y11800610D02*
X2287495Y11752991D01*
X2287495Y11752991D02*
X2382733Y11705372D01*
X2382733Y11705372D02*
X2763685Y11705372D01*
X1858923Y12229181D02*
X1239876Y12229181D01*
X1239876Y12229181D02*
X1573209Y11848229D01*
X1573209Y11848229D02*
X1430352Y11848229D01*
X1430352Y11848229D02*
X1335114Y11800610D01*
X1335114Y11800610D02*
X1287495Y11752991D01*
X1287495Y11752991D02*
X1239876Y11657753D01*
X1239876Y11657753D02*
X1239876Y11419658D01*
X1239876Y11419658D02*
X1287495Y11324420D01*
X1287495Y11324420D02*
X1335114Y11276800D01*
X1335114Y11276800D02*
X1430352Y11229181D01*
X1430352Y11229181D02*
X1716066Y11229181D01*
X1716066Y11229181D02*
X1811304Y11276800D01*
X1811304Y11276800D02*
X1858923Y11324420D01*
X335114Y12229181D02*
X811304Y12229181D01*
X811304Y12229181D02*
X858923Y11752991D01*
X858923Y11752991D02*
X811304Y11800610D01*
X811304Y11800610D02*
X716066Y11848229D01*
X716066Y11848229D02*
X477971Y11848229D01*
X477971Y11848229D02*
X382733Y11800610D01*
X382733Y11800610D02*
X335114Y11752991D01*
X335114Y11752991D02*
X287495Y11657753D01*
X287495Y11657753D02*
X287495Y11419658D01*
X287495Y11419658D02*
X335114Y11324420D01*
X335114Y11324420D02*
X382733Y11276800D01*
X382733Y11276800D02*
X477971Y11229181D01*
X477971Y11229181D02*
X716066Y11229181D01*
X716066Y11229181D02*
X811304Y11276800D01*
X811304Y11276800D02*
X858923Y11324420D01*
D11*
X83263619Y14157682D02*
X83263619Y13129587D01*
X83263619Y13129587D02*
X83203142Y13008635D01*
X83203142Y13008635D02*
X83142666Y12948158D01*
X83142666Y12948158D02*
X83021714Y12887682D01*
X83021714Y12887682D02*
X82779809Y12887682D01*
X82779809Y12887682D02*
X82658857Y12948158D01*
X82658857Y12948158D02*
X82598380Y13008635D01*
X82598380Y13008635D02*
X82537904Y13129587D01*
X82537904Y13129587D02*
X82537904Y14157682D01*
X81993619Y14036730D02*
X81933143Y14097206D01*
X81933143Y14097206D02*
X81812190Y14157682D01*
X81812190Y14157682D02*
X81509809Y14157682D01*
X81509809Y14157682D02*
X81388857Y14097206D01*
X81388857Y14097206D02*
X81328381Y14036730D01*
X81328381Y14036730D02*
X81267904Y13915778D01*
X81267904Y13915778D02*
X81267904Y13794825D01*
X81267904Y13794825D02*
X81328381Y13613397D01*
X81328381Y13613397D02*
X82054095Y12887682D01*
X82054095Y12887682D02*
X81267904Y12887682D01*
X97995619Y14157682D02*
X97995619Y13129587D01*
X97995619Y13129587D02*
X97935142Y13008635D01*
X97935142Y13008635D02*
X97874666Y12948158D01*
X97874666Y12948158D02*
X97753714Y12887682D01*
X97753714Y12887682D02*
X97511809Y12887682D01*
X97511809Y12887682D02*
X97390857Y12948158D01*
X97390857Y12948158D02*
X97330380Y13008635D01*
X97330380Y13008635D02*
X97269904Y13129587D01*
X97269904Y13129587D02*
X97269904Y14157682D01*
X96060381Y14157682D02*
X96665143Y14157682D01*
X96665143Y14157682D02*
X96725619Y13552920D01*
X96725619Y13552920D02*
X96665143Y13613397D01*
X96665143Y13613397D02*
X96544190Y13673873D01*
X96544190Y13673873D02*
X96241809Y13673873D01*
X96241809Y13673873D02*
X96120857Y13613397D01*
X96120857Y13613397D02*
X96060381Y13552920D01*
X96060381Y13552920D02*
X95999904Y13431968D01*
X95999904Y13431968D02*
X95999904Y13129587D01*
X95999904Y13129587D02*
X96060381Y13008635D01*
X96060381Y13008635D02*
X96120857Y12948158D01*
X96120857Y12948158D02*
X96241809Y12887682D01*
X96241809Y12887682D02*
X96544190Y12887682D01*
X96544190Y12887682D02*
X96665143Y12948158D01*
X96665143Y12948158D02*
X96725619Y13008635D01*
D10*
X12612666Y4320381D02*
X12945999Y4796572D01*
X13184094Y4320381D02*
X13184094Y5320381D01*
X13184094Y5320381D02*
X12803142Y5320381D01*
X12803142Y5320381D02*
X12707904Y5272762D01*
X12707904Y5272762D02*
X12660285Y5225143D01*
X12660285Y5225143D02*
X12612666Y5129905D01*
X12612666Y5129905D02*
X12612666Y4987048D01*
X12612666Y4987048D02*
X12660285Y4891810D01*
X12660285Y4891810D02*
X12707904Y4844191D01*
X12707904Y4844191D02*
X12803142Y4796572D01*
X12803142Y4796572D02*
X13184094Y4796572D01*
X11707904Y5320381D02*
X12184094Y5320381D01*
X12184094Y5320381D02*
X12231713Y4844191D01*
X12231713Y4844191D02*
X12184094Y4891810D01*
X12184094Y4891810D02*
X12088856Y4939429D01*
X12088856Y4939429D02*
X11850761Y4939429D01*
X11850761Y4939429D02*
X11755523Y4891810D01*
X11755523Y4891810D02*
X11707904Y4844191D01*
X11707904Y4844191D02*
X11660285Y4748953D01*
X11660285Y4748953D02*
X11660285Y4510858D01*
X11660285Y4510858D02*
X11707904Y4415620D01*
X11707904Y4415620D02*
X11755523Y4368000D01*
X11755523Y4368000D02*
X11850761Y4320381D01*
X11850761Y4320381D02*
X12088856Y4320381D01*
X12088856Y4320381D02*
X12184094Y4368000D01*
X12184094Y4368000D02*
X12231713Y4415620D01*
X8542257Y8257381D02*
X8875590Y8733572D01*
X9113685Y8257381D02*
X9113685Y9257381D01*
X9113685Y9257381D02*
X8732733Y9257381D01*
X8732733Y9257381D02*
X8637495Y9209762D01*
X8637495Y9209762D02*
X8589876Y9162143D01*
X8589876Y9162143D02*
X8542257Y9066905D01*
X8542257Y9066905D02*
X8542257Y8924048D01*
X8542257Y8924048D02*
X8589876Y8828810D01*
X8589876Y8828810D02*
X8637495Y8781191D01*
X8637495Y8781191D02*
X8732733Y8733572D01*
X8732733Y8733572D02*
X9113685Y8733572D01*
X7589876Y8257381D02*
X8161304Y8257381D01*
X7875590Y8257381D02*
X7875590Y9257381D01*
X7875590Y9257381D02*
X7970828Y9114524D01*
X7970828Y9114524D02*
X8066066Y9019286D01*
X8066066Y9019286D02*
X8161304Y8971667D01*
X7256542Y9257381D02*
X6637495Y9257381D01*
X6637495Y9257381D02*
X6970828Y8876429D01*
X6970828Y8876429D02*
X6827971Y8876429D01*
X6827971Y8876429D02*
X6732733Y8828810D01*
X6732733Y8828810D02*
X6685114Y8781191D01*
X6685114Y8781191D02*
X6637495Y8685953D01*
X6637495Y8685953D02*
X6637495Y8447858D01*
X6637495Y8447858D02*
X6685114Y8352620D01*
X6685114Y8352620D02*
X6732733Y8305000D01*
X6732733Y8305000D02*
X6827971Y8257381D01*
X6827971Y8257381D02*
X7113685Y8257381D01*
X7113685Y8257381D02*
X7208923Y8305000D01*
X7208923Y8305000D02*
X7256542Y8352620D01*
X76020819Y21875358D02*
X75544628Y22208691D01*
X76020819Y22446786D02*
X75020819Y22446786D01*
X75020819Y22446786D02*
X75020819Y22065834D01*
X75020819Y22065834D02*
X75068438Y21970596D01*
X75068438Y21970596D02*
X75116057Y21922977D01*
X75116057Y21922977D02*
X75211295Y21875358D01*
X75211295Y21875358D02*
X75354152Y21875358D01*
X75354152Y21875358D02*
X75449390Y21922977D01*
X75449390Y21922977D02*
X75497009Y21970596D01*
X75497009Y21970596D02*
X75544628Y22065834D01*
X75544628Y22065834D02*
X75544628Y22446786D01*
X75116057Y21494405D02*
X75068438Y21446786D01*
X75068438Y21446786D02*
X75020819Y21351548D01*
X75020819Y21351548D02*
X75020819Y21113453D01*
X75020819Y21113453D02*
X75068438Y21018215D01*
X75068438Y21018215D02*
X75116057Y20970596D01*
X75116057Y20970596D02*
X75211295Y20922977D01*
X75211295Y20922977D02*
X75306533Y20922977D01*
X75306533Y20922977D02*
X75449390Y20970596D01*
X75449390Y20970596D02*
X76020819Y21542024D01*
X76020819Y21542024D02*
X76020819Y20922977D01*
X75020819Y20303929D02*
X75020819Y20208691D01*
X75020819Y20208691D02*
X75068438Y20113453D01*
X75068438Y20113453D02*
X75116057Y20065834D01*
X75116057Y20065834D02*
X75211295Y20018215D01*
X75211295Y20018215D02*
X75401771Y19970596D01*
X75401771Y19970596D02*
X75639866Y19970596D01*
X75639866Y19970596D02*
X75830342Y20018215D01*
X75830342Y20018215D02*
X75925580Y20065834D01*
X75925580Y20065834D02*
X75973200Y20113453D01*
X75973200Y20113453D02*
X76020819Y20208691D01*
X76020819Y20208691D02*
X76020819Y20303929D01*
X76020819Y20303929D02*
X75973200Y20399167D01*
X75973200Y20399167D02*
X75925580Y20446786D01*
X75925580Y20446786D02*
X75830342Y20494405D01*
X75830342Y20494405D02*
X75639866Y20542024D01*
X75639866Y20542024D02*
X75401771Y20542024D01*
X75401771Y20542024D02*
X75211295Y20494405D01*
X75211295Y20494405D02*
X75116057Y20446786D01*
X75116057Y20446786D02*
X75068438Y20399167D01*
X75068438Y20399167D02*
X75020819Y20303929D01*
X70829466Y17191820D02*
X70877085Y17144200D01*
X70877085Y17144200D02*
X71019942Y17096581D01*
X71019942Y17096581D02*
X71115180Y17096581D01*
X71115180Y17096581D02*
X71258037Y17144200D01*
X71258037Y17144200D02*
X71353275Y17239439D01*
X71353275Y17239439D02*
X71400894Y17334677D01*
X71400894Y17334677D02*
X71448513Y17525153D01*
X71448513Y17525153D02*
X71448513Y17668010D01*
X71448513Y17668010D02*
X71400894Y17858486D01*
X71400894Y17858486D02*
X71353275Y17953724D01*
X71353275Y17953724D02*
X71258037Y18048962D01*
X71258037Y18048962D02*
X71115180Y18096581D01*
X71115180Y18096581D02*
X71019942Y18096581D01*
X71019942Y18096581D02*
X70877085Y18048962D01*
X70877085Y18048962D02*
X70829466Y18001343D01*
X70496132Y18096581D02*
X69829466Y18096581D01*
X69829466Y18096581D02*
X70258037Y17096581D01*
X77901580Y12729667D02*
X77949200Y12777286D01*
X77949200Y12777286D02*
X77996819Y12920143D01*
X77996819Y12920143D02*
X77996819Y13015381D01*
X77996819Y13015381D02*
X77949200Y13158238D01*
X77949200Y13158238D02*
X77853961Y13253476D01*
X77853961Y13253476D02*
X77758723Y13301095D01*
X77758723Y13301095D02*
X77568247Y13348714D01*
X77568247Y13348714D02*
X77425390Y13348714D01*
X77425390Y13348714D02*
X77234914Y13301095D01*
X77234914Y13301095D02*
X77139676Y13253476D01*
X77139676Y13253476D02*
X77044438Y13158238D01*
X77044438Y13158238D02*
X76996819Y13015381D01*
X76996819Y13015381D02*
X76996819Y12920143D01*
X76996819Y12920143D02*
X77044438Y12777286D01*
X77044438Y12777286D02*
X77092057Y12729667D01*
X77425390Y12158238D02*
X77377771Y12253476D01*
X77377771Y12253476D02*
X77330152Y12301095D01*
X77330152Y12301095D02*
X77234914Y12348714D01*
X77234914Y12348714D02*
X77187295Y12348714D01*
X77187295Y12348714D02*
X77092057Y12301095D01*
X77092057Y12301095D02*
X77044438Y12253476D01*
X77044438Y12253476D02*
X76996819Y12158238D01*
X76996819Y12158238D02*
X76996819Y11967762D01*
X76996819Y11967762D02*
X77044438Y11872524D01*
X77044438Y11872524D02*
X77092057Y11824905D01*
X77092057Y11824905D02*
X77187295Y11777286D01*
X77187295Y11777286D02*
X77234914Y11777286D01*
X77234914Y11777286D02*
X77330152Y11824905D01*
X77330152Y11824905D02*
X77377771Y11872524D01*
X77377771Y11872524D02*
X77425390Y11967762D01*
X77425390Y11967762D02*
X77425390Y12158238D01*
X77425390Y12158238D02*
X77473009Y12253476D01*
X77473009Y12253476D02*
X77520628Y12301095D01*
X77520628Y12301095D02*
X77615866Y12348714D01*
X77615866Y12348714D02*
X77806342Y12348714D01*
X77806342Y12348714D02*
X77901580Y12301095D01*
X77901580Y12301095D02*
X77949200Y12253476D01*
X77949200Y12253476D02*
X77996819Y12158238D01*
X77996819Y12158238D02*
X77996819Y11967762D01*
X77996819Y11967762D02*
X77949200Y11872524D01*
X77949200Y11872524D02*
X77901580Y11824905D01*
X77901580Y11824905D02*
X77806342Y11777286D01*
X77806342Y11777286D02*
X77615866Y11777286D01*
X77615866Y11777286D02*
X77520628Y11824905D01*
X77520628Y11824905D02*
X77473009Y11872524D01*
X77473009Y11872524D02*
X77425390Y11967762D01*
X42121057Y23522781D02*
X42454390Y23998972D01*
X42692485Y23522781D02*
X42692485Y24522781D01*
X42692485Y24522781D02*
X42311533Y24522781D01*
X42311533Y24522781D02*
X42216295Y24475162D01*
X42216295Y24475162D02*
X42168676Y24427543D01*
X42168676Y24427543D02*
X42121057Y24332305D01*
X42121057Y24332305D02*
X42121057Y24189448D01*
X42121057Y24189448D02*
X42168676Y24094210D01*
X42168676Y24094210D02*
X42216295Y24046591D01*
X42216295Y24046591D02*
X42311533Y23998972D01*
X42311533Y23998972D02*
X42692485Y23998972D01*
X41787723Y24522781D02*
X41168676Y24522781D01*
X41168676Y24522781D02*
X41502009Y24141829D01*
X41502009Y24141829D02*
X41359152Y24141829D01*
X41359152Y24141829D02*
X41263914Y24094210D01*
X41263914Y24094210D02*
X41216295Y24046591D01*
X41216295Y24046591D02*
X41168676Y23951353D01*
X41168676Y23951353D02*
X41168676Y23713258D01*
X41168676Y23713258D02*
X41216295Y23618020D01*
X41216295Y23618020D02*
X41263914Y23570400D01*
X41263914Y23570400D02*
X41359152Y23522781D01*
X41359152Y23522781D02*
X41644866Y23522781D01*
X41644866Y23522781D02*
X41740104Y23570400D01*
X41740104Y23570400D02*
X41787723Y23618020D01*
X40549628Y24522781D02*
X40454390Y24522781D01*
X40454390Y24522781D02*
X40359152Y24475162D01*
X40359152Y24475162D02*
X40311533Y24427543D01*
X40311533Y24427543D02*
X40263914Y24332305D01*
X40263914Y24332305D02*
X40216295Y24141829D01*
X40216295Y24141829D02*
X40216295Y23903734D01*
X40216295Y23903734D02*
X40263914Y23713258D01*
X40263914Y23713258D02*
X40311533Y23618020D01*
X40311533Y23618020D02*
X40359152Y23570400D01*
X40359152Y23570400D02*
X40454390Y23522781D01*
X40454390Y23522781D02*
X40549628Y23522781D01*
X40549628Y23522781D02*
X40644866Y23570400D01*
X40644866Y23570400D02*
X40692485Y23618020D01*
X40692485Y23618020D02*
X40740104Y23713258D01*
X40740104Y23713258D02*
X40787723Y23903734D01*
X40787723Y23903734D02*
X40787723Y24141829D01*
X40787723Y24141829D02*
X40740104Y24332305D01*
X40740104Y24332305D02*
X40692485Y24427543D01*
X40692485Y24427543D02*
X40644866Y24475162D01*
X40644866Y24475162D02*
X40549628Y24522781D01*
X56194557Y10568781D02*
X56527890Y11044972D01*
X56765985Y10568781D02*
X56765985Y11568781D01*
X56765985Y11568781D02*
X56385033Y11568781D01*
X56385033Y11568781D02*
X56289795Y11521162D01*
X56289795Y11521162D02*
X56242176Y11473543D01*
X56242176Y11473543D02*
X56194557Y11378305D01*
X56194557Y11378305D02*
X56194557Y11235448D01*
X56194557Y11235448D02*
X56242176Y11140210D01*
X56242176Y11140210D02*
X56289795Y11092591D01*
X56289795Y11092591D02*
X56385033Y11044972D01*
X56385033Y11044972D02*
X56765985Y11044972D01*
X55337414Y11235448D02*
X55337414Y10568781D01*
X55575509Y11616400D02*
X55813604Y10902115D01*
X55813604Y10902115D02*
X55194557Y10902115D01*
X54623128Y11568781D02*
X54527890Y11568781D01*
X54527890Y11568781D02*
X54432652Y11521162D01*
X54432652Y11521162D02*
X54385033Y11473543D01*
X54385033Y11473543D02*
X54337414Y11378305D01*
X54337414Y11378305D02*
X54289795Y11187829D01*
X54289795Y11187829D02*
X54289795Y10949734D01*
X54289795Y10949734D02*
X54337414Y10759258D01*
X54337414Y10759258D02*
X54385033Y10664020D01*
X54385033Y10664020D02*
X54432652Y10616400D01*
X54432652Y10616400D02*
X54527890Y10568781D01*
X54527890Y10568781D02*
X54623128Y10568781D01*
X54623128Y10568781D02*
X54718366Y10616400D01*
X54718366Y10616400D02*
X54765985Y10664020D01*
X54765985Y10664020D02*
X54813604Y10759258D01*
X54813604Y10759258D02*
X54861223Y10949734D01*
X54861223Y10949734D02*
X54861223Y11187829D01*
X54861223Y11187829D02*
X54813604Y11378305D01*
X54813604Y11378305D02*
X54765985Y11473543D01*
X54765985Y11473543D02*
X54718366Y11521162D01*
X54718366Y11521162D02*
X54623128Y11568781D01*
X51540580Y9278858D02*
X51588200Y9326477D01*
X51588200Y9326477D02*
X51635819Y9469334D01*
X51635819Y9469334D02*
X51635819Y9564572D01*
X51635819Y9564572D02*
X51588200Y9707429D01*
X51588200Y9707429D02*
X51492961Y9802667D01*
X51492961Y9802667D02*
X51397723Y9850286D01*
X51397723Y9850286D02*
X51207247Y9897905D01*
X51207247Y9897905D02*
X51064390Y9897905D01*
X51064390Y9897905D02*
X50873914Y9850286D01*
X50873914Y9850286D02*
X50778676Y9802667D01*
X50778676Y9802667D02*
X50683438Y9707429D01*
X50683438Y9707429D02*
X50635819Y9564572D01*
X50635819Y9564572D02*
X50635819Y9469334D01*
X50635819Y9469334D02*
X50683438Y9326477D01*
X50683438Y9326477D02*
X50731057Y9278858D01*
X51635819Y8326477D02*
X51635819Y8897905D01*
X51635819Y8612191D02*
X50635819Y8612191D01*
X50635819Y8612191D02*
X50778676Y8707429D01*
X50778676Y8707429D02*
X50873914Y8802667D01*
X50873914Y8802667D02*
X50921533Y8897905D01*
X50969152Y7469334D02*
X51635819Y7469334D01*
X50588200Y7707429D02*
X51302485Y7945524D01*
X51302485Y7945524D02*
X51302485Y7326477D01*
X93014580Y13205858D02*
X93062200Y13253477D01*
X93062200Y13253477D02*
X93109819Y13396334D01*
X93109819Y13396334D02*
X93109819Y13491572D01*
X93109819Y13491572D02*
X93062200Y13634429D01*
X93062200Y13634429D02*
X92966961Y13729667D01*
X92966961Y13729667D02*
X92871723Y13777286D01*
X92871723Y13777286D02*
X92681247Y13824905D01*
X92681247Y13824905D02*
X92538390Y13824905D01*
X92538390Y13824905D02*
X92347914Y13777286D01*
X92347914Y13777286D02*
X92252676Y13729667D01*
X92252676Y13729667D02*
X92157438Y13634429D01*
X92157438Y13634429D02*
X92109819Y13491572D01*
X92109819Y13491572D02*
X92109819Y13396334D01*
X92109819Y13396334D02*
X92157438Y13253477D01*
X92157438Y13253477D02*
X92205057Y13205858D01*
X93109819Y12253477D02*
X93109819Y12824905D01*
X93109819Y12539191D02*
X92109819Y12539191D01*
X92109819Y12539191D02*
X92252676Y12634429D01*
X92252676Y12634429D02*
X92347914Y12729667D01*
X92347914Y12729667D02*
X92395533Y12824905D01*
X93109819Y11301096D02*
X93109819Y11872524D01*
X93109819Y11586810D02*
X92109819Y11586810D01*
X92109819Y11586810D02*
X92252676Y11682048D01*
X92252676Y11682048D02*
X92347914Y11777286D01*
X92347914Y11777286D02*
X92395533Y11872524D01*
X33891457Y7590620D02*
X33939076Y7543000D01*
X33939076Y7543000D02*
X34081933Y7495381D01*
X34081933Y7495381D02*
X34177171Y7495381D01*
X34177171Y7495381D02*
X34320028Y7543000D01*
X34320028Y7543000D02*
X34415266Y7638239D01*
X34415266Y7638239D02*
X34462885Y7733477D01*
X34462885Y7733477D02*
X34510504Y7923953D01*
X34510504Y7923953D02*
X34510504Y8066810D01*
X34510504Y8066810D02*
X34462885Y8257286D01*
X34462885Y8257286D02*
X34415266Y8352524D01*
X34415266Y8352524D02*
X34320028Y8447762D01*
X34320028Y8447762D02*
X34177171Y8495381D01*
X34177171Y8495381D02*
X34081933Y8495381D01*
X34081933Y8495381D02*
X33939076Y8447762D01*
X33939076Y8447762D02*
X33891457Y8400143D01*
X32939076Y7495381D02*
X33510504Y7495381D01*
X33224790Y7495381D02*
X33224790Y8495381D01*
X33224790Y8495381D02*
X33320028Y8352524D01*
X33320028Y8352524D02*
X33415266Y8257286D01*
X33415266Y8257286D02*
X33510504Y8209667D01*
X32605742Y8495381D02*
X31939076Y8495381D01*
X31939076Y8495381D02*
X32367647Y7495381D01*
X60576619Y6721058D02*
X60100428Y7054391D01*
X60576619Y7292486D02*
X59576619Y7292486D01*
X59576619Y7292486D02*
X59576619Y6911534D01*
X59576619Y6911534D02*
X59624238Y6816296D01*
X59624238Y6816296D02*
X59671857Y6768677D01*
X59671857Y6768677D02*
X59767095Y6721058D01*
X59767095Y6721058D02*
X59909952Y6721058D01*
X59909952Y6721058D02*
X60005190Y6768677D01*
X60005190Y6768677D02*
X60052809Y6816296D01*
X60052809Y6816296D02*
X60100428Y6911534D01*
X60100428Y6911534D02*
X60100428Y7292486D01*
X59576619Y6387724D02*
X59576619Y5768677D01*
X59576619Y5768677D02*
X59957571Y6102010D01*
X59957571Y6102010D02*
X59957571Y5959153D01*
X59957571Y5959153D02*
X60005190Y5863915D01*
X60005190Y5863915D02*
X60052809Y5816296D01*
X60052809Y5816296D02*
X60148047Y5768677D01*
X60148047Y5768677D02*
X60386142Y5768677D01*
X60386142Y5768677D02*
X60481380Y5816296D01*
X60481380Y5816296D02*
X60529000Y5863915D01*
X60529000Y5863915D02*
X60576619Y5959153D01*
X60576619Y5959153D02*
X60576619Y6244867D01*
X60576619Y6244867D02*
X60529000Y6340105D01*
X60529000Y6340105D02*
X60481380Y6387724D01*
X60576619Y5292486D02*
X60576619Y5102010D01*
X60576619Y5102010D02*
X60529000Y5006772D01*
X60529000Y5006772D02*
X60481380Y4959153D01*
X60481380Y4959153D02*
X60338523Y4863915D01*
X60338523Y4863915D02*
X60148047Y4816296D01*
X60148047Y4816296D02*
X59767095Y4816296D01*
X59767095Y4816296D02*
X59671857Y4863915D01*
X59671857Y4863915D02*
X59624238Y4911534D01*
X59624238Y4911534D02*
X59576619Y5006772D01*
X59576619Y5006772D02*
X59576619Y5197248D01*
X59576619Y5197248D02*
X59624238Y5292486D01*
X59624238Y5292486D02*
X59671857Y5340105D01*
X59671857Y5340105D02*
X59767095Y5387724D01*
X59767095Y5387724D02*
X60005190Y5387724D01*
X60005190Y5387724D02*
X60100428Y5340105D01*
X60100428Y5340105D02*
X60148047Y5292486D01*
X60148047Y5292486D02*
X60195666Y5197248D01*
X60195666Y5197248D02*
X60195666Y5006772D01*
X60195666Y5006772D02*
X60148047Y4911534D01*
X60148047Y4911534D02*
X60100428Y4863915D01*
X60100428Y4863915D02*
X60005190Y4816296D01*
X89202419Y18708667D02*
X88726228Y19042000D01*
X89202419Y19280095D02*
X88202419Y19280095D01*
X88202419Y19280095D02*
X88202419Y18899143D01*
X88202419Y18899143D02*
X88250038Y18803905D01*
X88250038Y18803905D02*
X88297657Y18756286D01*
X88297657Y18756286D02*
X88392895Y18708667D01*
X88392895Y18708667D02*
X88535752Y18708667D01*
X88535752Y18708667D02*
X88630990Y18756286D01*
X88630990Y18756286D02*
X88678609Y18803905D01*
X88678609Y18803905D02*
X88726228Y18899143D01*
X88726228Y18899143D02*
X88726228Y19280095D01*
X88202419Y18375333D02*
X88202419Y17756286D01*
X88202419Y17756286D02*
X88583371Y18089619D01*
X88583371Y18089619D02*
X88583371Y17946762D01*
X88583371Y17946762D02*
X88630990Y17851524D01*
X88630990Y17851524D02*
X88678609Y17803905D01*
X88678609Y17803905D02*
X88773847Y17756286D01*
X88773847Y17756286D02*
X89011942Y17756286D01*
X89011942Y17756286D02*
X89107180Y17803905D01*
X89107180Y17803905D02*
X89154800Y17851524D01*
X89154800Y17851524D02*
X89202419Y17946762D01*
X89202419Y17946762D02*
X89202419Y18232476D01*
X89202419Y18232476D02*
X89154800Y18327714D01*
X89154800Y18327714D02*
X89107180Y18375333D01*
X21900757Y14378781D02*
X22234090Y14854972D01*
X22472185Y14378781D02*
X22472185Y15378781D01*
X22472185Y15378781D02*
X22091233Y15378781D01*
X22091233Y15378781D02*
X21995995Y15331162D01*
X21995995Y15331162D02*
X21948376Y15283543D01*
X21948376Y15283543D02*
X21900757Y15188305D01*
X21900757Y15188305D02*
X21900757Y15045448D01*
X21900757Y15045448D02*
X21948376Y14950210D01*
X21948376Y14950210D02*
X21995995Y14902591D01*
X21995995Y14902591D02*
X22091233Y14854972D01*
X22091233Y14854972D02*
X22472185Y14854972D01*
X21567423Y15378781D02*
X20948376Y15378781D01*
X20948376Y15378781D02*
X21281709Y14997829D01*
X21281709Y14997829D02*
X21138852Y14997829D01*
X21138852Y14997829D02*
X21043614Y14950210D01*
X21043614Y14950210D02*
X20995995Y14902591D01*
X20995995Y14902591D02*
X20948376Y14807353D01*
X20948376Y14807353D02*
X20948376Y14569258D01*
X20948376Y14569258D02*
X20995995Y14474020D01*
X20995995Y14474020D02*
X21043614Y14426400D01*
X21043614Y14426400D02*
X21138852Y14378781D01*
X21138852Y14378781D02*
X21424566Y14378781D01*
X21424566Y14378781D02*
X21519804Y14426400D01*
X21519804Y14426400D02*
X21567423Y14474020D01*
X20376947Y14950210D02*
X20472185Y14997829D01*
X20472185Y14997829D02*
X20519804Y15045448D01*
X20519804Y15045448D02*
X20567423Y15140686D01*
X20567423Y15140686D02*
X20567423Y15188305D01*
X20567423Y15188305D02*
X20519804Y15283543D01*
X20519804Y15283543D02*
X20472185Y15331162D01*
X20472185Y15331162D02*
X20376947Y15378781D01*
X20376947Y15378781D02*
X20186471Y15378781D01*
X20186471Y15378781D02*
X20091233Y15331162D01*
X20091233Y15331162D02*
X20043614Y15283543D01*
X20043614Y15283543D02*
X19995995Y15188305D01*
X19995995Y15188305D02*
X19995995Y15140686D01*
X19995995Y15140686D02*
X20043614Y15045448D01*
X20043614Y15045448D02*
X20091233Y14997829D01*
X20091233Y14997829D02*
X20186471Y14950210D01*
X20186471Y14950210D02*
X20376947Y14950210D01*
X20376947Y14950210D02*
X20472185Y14902591D01*
X20472185Y14902591D02*
X20519804Y14854972D01*
X20519804Y14854972D02*
X20567423Y14759734D01*
X20567423Y14759734D02*
X20567423Y14569258D01*
X20567423Y14569258D02*
X20519804Y14474020D01*
X20519804Y14474020D02*
X20472185Y14426400D01*
X20472185Y14426400D02*
X20376947Y14378781D01*
X20376947Y14378781D02*
X20186471Y14378781D01*
X20186471Y14378781D02*
X20091233Y14426400D01*
X20091233Y14426400D02*
X20043614Y14474020D01*
X20043614Y14474020D02*
X19995995Y14569258D01*
X19995995Y14569258D02*
X19995995Y14759734D01*
X19995995Y14759734D02*
X20043614Y14854972D01*
X20043614Y14854972D02*
X20091233Y14902591D01*
X20091233Y14902591D02*
X20186471Y14950210D01*
X30716457Y3050381D02*
X31049790Y3526572D01*
X31287885Y3050381D02*
X31287885Y4050381D01*
X31287885Y4050381D02*
X30906933Y4050381D01*
X30906933Y4050381D02*
X30811695Y4002762D01*
X30811695Y4002762D02*
X30764076Y3955143D01*
X30764076Y3955143D02*
X30716457Y3859905D01*
X30716457Y3859905D02*
X30716457Y3717048D01*
X30716457Y3717048D02*
X30764076Y3621810D01*
X30764076Y3621810D02*
X30811695Y3574191D01*
X30811695Y3574191D02*
X30906933Y3526572D01*
X30906933Y3526572D02*
X31287885Y3526572D01*
X29764076Y3050381D02*
X30335504Y3050381D01*
X30049790Y3050381D02*
X30049790Y4050381D01*
X30049790Y4050381D02*
X30145028Y3907524D01*
X30145028Y3907524D02*
X30240266Y3812286D01*
X30240266Y3812286D02*
X30335504Y3764667D01*
X29145028Y4050381D02*
X29049790Y4050381D01*
X29049790Y4050381D02*
X28954552Y4002762D01*
X28954552Y4002762D02*
X28906933Y3955143D01*
X28906933Y3955143D02*
X28859314Y3859905D01*
X28859314Y3859905D02*
X28811695Y3669429D01*
X28811695Y3669429D02*
X28811695Y3431334D01*
X28811695Y3431334D02*
X28859314Y3240858D01*
X28859314Y3240858D02*
X28906933Y3145620D01*
X28906933Y3145620D02*
X28954552Y3098000D01*
X28954552Y3098000D02*
X29049790Y3050381D01*
X29049790Y3050381D02*
X29145028Y3050381D01*
X29145028Y3050381D02*
X29240266Y3098000D01*
X29240266Y3098000D02*
X29287885Y3145620D01*
X29287885Y3145620D02*
X29335504Y3240858D01*
X29335504Y3240858D02*
X29383123Y3431334D01*
X29383123Y3431334D02*
X29383123Y3669429D01*
X29383123Y3669429D02*
X29335504Y3859905D01*
X29335504Y3859905D02*
X29287885Y3955143D01*
X29287885Y3955143D02*
X29240266Y4002762D01*
X29240266Y4002762D02*
X29145028Y4050381D01*
X52347019Y2039858D02*
X51870828Y2373191D01*
X52347019Y2611286D02*
X51347019Y2611286D01*
X51347019Y2611286D02*
X51347019Y2230334D01*
X51347019Y2230334D02*
X51394638Y2135096D01*
X51394638Y2135096D02*
X51442257Y2087477D01*
X51442257Y2087477D02*
X51537495Y2039858D01*
X51537495Y2039858D02*
X51680352Y2039858D01*
X51680352Y2039858D02*
X51775590Y2087477D01*
X51775590Y2087477D02*
X51823209Y2135096D01*
X51823209Y2135096D02*
X51870828Y2230334D01*
X51870828Y2230334D02*
X51870828Y2611286D01*
X51442257Y1658905D02*
X51394638Y1611286D01*
X51394638Y1611286D02*
X51347019Y1516048D01*
X51347019Y1516048D02*
X51347019Y1277953D01*
X51347019Y1277953D02*
X51394638Y1182715D01*
X51394638Y1182715D02*
X51442257Y1135096D01*
X51442257Y1135096D02*
X51537495Y1087477D01*
X51537495Y1087477D02*
X51632733Y1087477D01*
X51632733Y1087477D02*
X51775590Y1135096D01*
X51775590Y1135096D02*
X52347019Y1706524D01*
X52347019Y1706524D02*
X52347019Y1087477D01*
X52347019Y611286D02*
X52347019Y420810D01*
X52347019Y420810D02*
X52299400Y325572D01*
X52299400Y325572D02*
X52251780Y277953D01*
X52251780Y277953D02*
X52108923Y182715D01*
X52108923Y182715D02*
X51918447Y135096D01*
X51918447Y135096D02*
X51537495Y135096D01*
X51537495Y135096D02*
X51442257Y182715D01*
X51442257Y182715D02*
X51394638Y230334D01*
X51394638Y230334D02*
X51347019Y325572D01*
X51347019Y325572D02*
X51347019Y516048D01*
X51347019Y516048D02*
X51394638Y611286D01*
X51394638Y611286D02*
X51442257Y658905D01*
X51442257Y658905D02*
X51537495Y706524D01*
X51537495Y706524D02*
X51775590Y706524D01*
X51775590Y706524D02*
X51870828Y658905D01*
X51870828Y658905D02*
X51918447Y611286D01*
X51918447Y611286D02*
X51966066Y516048D01*
X51966066Y516048D02*
X51966066Y325572D01*
X51966066Y325572D02*
X51918447Y230334D01*
X51918447Y230334D02*
X51870828Y182715D01*
X51870828Y182715D02*
X51775590Y135096D01*
X23289419Y20886658D02*
X22813228Y21219991D01*
X23289419Y21458086D02*
X22289419Y21458086D01*
X22289419Y21458086D02*
X22289419Y21077134D01*
X22289419Y21077134D02*
X22337038Y20981896D01*
X22337038Y20981896D02*
X22384657Y20934277D01*
X22384657Y20934277D02*
X22479895Y20886658D01*
X22479895Y20886658D02*
X22622752Y20886658D01*
X22622752Y20886658D02*
X22717990Y20934277D01*
X22717990Y20934277D02*
X22765609Y20981896D01*
X22765609Y20981896D02*
X22813228Y21077134D01*
X22813228Y21077134D02*
X22813228Y21458086D01*
X22384657Y20505705D02*
X22337038Y20458086D01*
X22337038Y20458086D02*
X22289419Y20362848D01*
X22289419Y20362848D02*
X22289419Y20124753D01*
X22289419Y20124753D02*
X22337038Y20029515D01*
X22337038Y20029515D02*
X22384657Y19981896D01*
X22384657Y19981896D02*
X22479895Y19934277D01*
X22479895Y19934277D02*
X22575133Y19934277D01*
X22575133Y19934277D02*
X22717990Y19981896D01*
X22717990Y19981896D02*
X23289419Y20553324D01*
X23289419Y20553324D02*
X23289419Y19934277D01*
X22289419Y19600943D02*
X22289419Y18981896D01*
X22289419Y18981896D02*
X22670371Y19315229D01*
X22670371Y19315229D02*
X22670371Y19172372D01*
X22670371Y19172372D02*
X22717990Y19077134D01*
X22717990Y19077134D02*
X22765609Y19029515D01*
X22765609Y19029515D02*
X22860847Y18981896D01*
X22860847Y18981896D02*
X23098942Y18981896D01*
X23098942Y18981896D02*
X23194180Y19029515D01*
X23194180Y19029515D02*
X23241800Y19077134D01*
X23241800Y19077134D02*
X23289419Y19172372D01*
X23289419Y19172372D02*
X23289419Y19458086D01*
X23289419Y19458086D02*
X23241800Y19553324D01*
X23241800Y19553324D02*
X23194180Y19600943D01*
X79154257Y16232981D02*
X79487590Y16709172D01*
X79725685Y16232981D02*
X79725685Y17232981D01*
X79725685Y17232981D02*
X79344733Y17232981D01*
X79344733Y17232981D02*
X79249495Y17185362D01*
X79249495Y17185362D02*
X79201876Y17137743D01*
X79201876Y17137743D02*
X79154257Y17042505D01*
X79154257Y17042505D02*
X79154257Y16899648D01*
X79154257Y16899648D02*
X79201876Y16804410D01*
X79201876Y16804410D02*
X79249495Y16756791D01*
X79249495Y16756791D02*
X79344733Y16709172D01*
X79344733Y16709172D02*
X79725685Y16709172D01*
X78773304Y17137743D02*
X78725685Y17185362D01*
X78725685Y17185362D02*
X78630447Y17232981D01*
X78630447Y17232981D02*
X78392352Y17232981D01*
X78392352Y17232981D02*
X78297114Y17185362D01*
X78297114Y17185362D02*
X78249495Y17137743D01*
X78249495Y17137743D02*
X78201876Y17042505D01*
X78201876Y17042505D02*
X78201876Y16947267D01*
X78201876Y16947267D02*
X78249495Y16804410D01*
X78249495Y16804410D02*
X78820923Y16232981D01*
X78820923Y16232981D02*
X78201876Y16232981D01*
X77249495Y16232981D02*
X77820923Y16232981D01*
X77535209Y16232981D02*
X77535209Y17232981D01*
X77535209Y17232981D02*
X77630447Y17090124D01*
X77630447Y17090124D02*
X77725685Y16994886D01*
X77725685Y16994886D02*
X77820923Y16947267D01*
X56324332Y21690800D02*
X56181475Y21643181D01*
X56181475Y21643181D02*
X55943380Y21643181D01*
X55943380Y21643181D02*
X55848142Y21690800D01*
X55848142Y21690800D02*
X55800523Y21738420D01*
X55800523Y21738420D02*
X55752904Y21833658D01*
X55752904Y21833658D02*
X55752904Y21928896D01*
X55752904Y21928896D02*
X55800523Y22024134D01*
X55800523Y22024134D02*
X55848142Y22071753D01*
X55848142Y22071753D02*
X55943380Y22119372D01*
X55943380Y22119372D02*
X56133856Y22166991D01*
X56133856Y22166991D02*
X56229094Y22214610D01*
X56229094Y22214610D02*
X56276713Y22262229D01*
X56276713Y22262229D02*
X56324332Y22357467D01*
X56324332Y22357467D02*
X56324332Y22452705D01*
X56324332Y22452705D02*
X56276713Y22547943D01*
X56276713Y22547943D02*
X56229094Y22595562D01*
X56229094Y22595562D02*
X56133856Y22643181D01*
X56133856Y22643181D02*
X55895761Y22643181D01*
X55895761Y22643181D02*
X55752904Y22595562D01*
X55419570Y22643181D02*
X55181475Y21643181D01*
X55181475Y21643181D02*
X54990999Y22357467D01*
X54990999Y22357467D02*
X54800523Y21643181D01*
X54800523Y21643181D02*
X54562428Y22643181D01*
X53657666Y21643181D02*
X54229094Y21643181D01*
X53943380Y21643181D02*
X53943380Y22643181D01*
X53943380Y22643181D02*
X54038618Y22500324D01*
X54038618Y22500324D02*
X54133856Y22405086D01*
X54133856Y22405086D02*
X54229094Y22357467D01*
X33259589Y307181D02*
X33259589Y1307181D01*
X32211971Y402420D02*
X32259590Y354800D01*
X32259590Y354800D02*
X32402447Y307181D01*
X32402447Y307181D02*
X32497685Y307181D01*
X32497685Y307181D02*
X32640542Y354800D01*
X32640542Y354800D02*
X32735780Y450039D01*
X32735780Y450039D02*
X32783399Y545277D01*
X32783399Y545277D02*
X32831018Y735753D01*
X32831018Y735753D02*
X32831018Y878610D01*
X32831018Y878610D02*
X32783399Y1069086D01*
X32783399Y1069086D02*
X32735780Y1164324D01*
X32735780Y1164324D02*
X32640542Y1259562D01*
X32640542Y1259562D02*
X32497685Y1307181D01*
X32497685Y1307181D02*
X32402447Y1307181D01*
X32402447Y1307181D02*
X32259590Y1259562D01*
X32259590Y1259562D02*
X32211971Y1211943D01*
X31878637Y1307181D02*
X31259590Y1307181D01*
X31259590Y1307181D02*
X31592923Y926229D01*
X31592923Y926229D02*
X31450066Y926229D01*
X31450066Y926229D02*
X31354828Y878610D01*
X31354828Y878610D02*
X31307209Y830991D01*
X31307209Y830991D02*
X31259590Y735753D01*
X31259590Y735753D02*
X31259590Y497658D01*
X31259590Y497658D02*
X31307209Y402420D01*
X31307209Y402420D02*
X31354828Y354800D01*
X31354828Y354800D02*
X31450066Y307181D01*
X31450066Y307181D02*
X31735780Y307181D01*
X31735780Y307181D02*
X31831018Y354800D01*
X31831018Y354800D02*
X31878637Y402420D01*
X36575866Y23747134D02*
X36575866Y22613800D01*
X36575866Y22613800D02*
X36509200Y22480467D01*
X36509200Y22480467D02*
X36442533Y22413800D01*
X36442533Y22413800D02*
X36309200Y22347134D01*
X36309200Y22347134D02*
X36042533Y22347134D01*
X36042533Y22347134D02*
X35909200Y22413800D01*
X35909200Y22413800D02*
X35842533Y22480467D01*
X35842533Y22480467D02*
X35775866Y22613800D01*
X35775866Y22613800D02*
X35775866Y23747134D01*
X35242533Y23747134D02*
X34375866Y23747134D01*
X34375866Y23747134D02*
X34842533Y23213800D01*
X34842533Y23213800D02*
X34642533Y23213800D01*
X34642533Y23213800D02*
X34509199Y23147134D01*
X34509199Y23147134D02*
X34442533Y23080467D01*
X34442533Y23080467D02*
X34375866Y22947134D01*
X34375866Y22947134D02*
X34375866Y22613800D01*
X34375866Y22613800D02*
X34442533Y22480467D01*
X34442533Y22480467D02*
X34509199Y22413800D01*
X34509199Y22413800D02*
X34642533Y22347134D01*
X34642533Y22347134D02*
X35042533Y22347134D01*
X35042533Y22347134D02*
X35175866Y22413800D01*
X35175866Y22413800D02*
X35242533Y22480467D01*
X56077604Y7326981D02*
X56077604Y6517458D01*
X56077604Y6517458D02*
X56029985Y6422220D01*
X56029985Y6422220D02*
X55982366Y6374600D01*
X55982366Y6374600D02*
X55887128Y6326981D01*
X55887128Y6326981D02*
X55696652Y6326981D01*
X55696652Y6326981D02*
X55601414Y6374600D01*
X55601414Y6374600D02*
X55553795Y6422220D01*
X55553795Y6422220D02*
X55506176Y6517458D01*
X55506176Y6517458D02*
X55506176Y7326981D01*
X54601414Y7326981D02*
X54791890Y7326981D01*
X54791890Y7326981D02*
X54887128Y7279362D01*
X54887128Y7279362D02*
X54934747Y7231743D01*
X54934747Y7231743D02*
X55029985Y7088886D01*
X55029985Y7088886D02*
X55077604Y6898410D01*
X55077604Y6898410D02*
X55077604Y6517458D01*
X55077604Y6517458D02*
X55029985Y6422220D01*
X55029985Y6422220D02*
X54982366Y6374600D01*
X54982366Y6374600D02*
X54887128Y6326981D01*
X54887128Y6326981D02*
X54696652Y6326981D01*
X54696652Y6326981D02*
X54601414Y6374600D01*
X54601414Y6374600D02*
X54553795Y6422220D01*
X54553795Y6422220D02*
X54506176Y6517458D01*
X54506176Y6517458D02*
X54506176Y6755553D01*
X54506176Y6755553D02*
X54553795Y6850791D01*
X54553795Y6850791D02*
X54601414Y6898410D01*
X54601414Y6898410D02*
X54696652Y6946029D01*
X54696652Y6946029D02*
X54887128Y6946029D01*
X54887128Y6946029D02*
X54982366Y6898410D01*
X54982366Y6898410D02*
X55029985Y6850791D01*
X55029985Y6850791D02*
X55077604Y6755553D01*
X8415257Y5590381D02*
X8748590Y6066572D01*
X8986685Y5590381D02*
X8986685Y6590381D01*
X8986685Y6590381D02*
X8605733Y6590381D01*
X8605733Y6590381D02*
X8510495Y6542762D01*
X8510495Y6542762D02*
X8462876Y6495143D01*
X8462876Y6495143D02*
X8415257Y6399905D01*
X8415257Y6399905D02*
X8415257Y6257048D01*
X8415257Y6257048D02*
X8462876Y6161810D01*
X8462876Y6161810D02*
X8510495Y6114191D01*
X8510495Y6114191D02*
X8605733Y6066572D01*
X8605733Y6066572D02*
X8986685Y6066572D01*
X7462876Y5590381D02*
X8034304Y5590381D01*
X7748590Y5590381D02*
X7748590Y6590381D01*
X7748590Y6590381D02*
X7843828Y6447524D01*
X7843828Y6447524D02*
X7939066Y6352286D01*
X7939066Y6352286D02*
X8034304Y6304667D01*
X7081923Y6495143D02*
X7034304Y6542762D01*
X7034304Y6542762D02*
X6939066Y6590381D01*
X6939066Y6590381D02*
X6700971Y6590381D01*
X6700971Y6590381D02*
X6605733Y6542762D01*
X6605733Y6542762D02*
X6558114Y6495143D01*
X6558114Y6495143D02*
X6510495Y6399905D01*
X6510495Y6399905D02*
X6510495Y6304667D01*
X6510495Y6304667D02*
X6558114Y6161810D01*
X6558114Y6161810D02*
X7129542Y5590381D01*
X7129542Y5590381D02*
X6510495Y5590381D01*
X36910180Y10955258D02*
X36957800Y11002877D01*
X36957800Y11002877D02*
X37005419Y11145734D01*
X37005419Y11145734D02*
X37005419Y11240972D01*
X37005419Y11240972D02*
X36957800Y11383829D01*
X36957800Y11383829D02*
X36862561Y11479067D01*
X36862561Y11479067D02*
X36767323Y11526686D01*
X36767323Y11526686D02*
X36576847Y11574305D01*
X36576847Y11574305D02*
X36433990Y11574305D01*
X36433990Y11574305D02*
X36243514Y11526686D01*
X36243514Y11526686D02*
X36148276Y11479067D01*
X36148276Y11479067D02*
X36053038Y11383829D01*
X36053038Y11383829D02*
X36005419Y11240972D01*
X36005419Y11240972D02*
X36005419Y11145734D01*
X36005419Y11145734D02*
X36053038Y11002877D01*
X36053038Y11002877D02*
X36100657Y10955258D01*
X36100657Y10574305D02*
X36053038Y10526686D01*
X36053038Y10526686D02*
X36005419Y10431448D01*
X36005419Y10431448D02*
X36005419Y10193353D01*
X36005419Y10193353D02*
X36053038Y10098115D01*
X36053038Y10098115D02*
X36100657Y10050496D01*
X36100657Y10050496D02*
X36195895Y10002877D01*
X36195895Y10002877D02*
X36291133Y10002877D01*
X36291133Y10002877D02*
X36433990Y10050496D01*
X36433990Y10050496D02*
X37005419Y10621924D01*
X37005419Y10621924D02*
X37005419Y10002877D01*
X36100657Y9621924D02*
X36053038Y9574305D01*
X36053038Y9574305D02*
X36005419Y9479067D01*
X36005419Y9479067D02*
X36005419Y9240972D01*
X36005419Y9240972D02*
X36053038Y9145734D01*
X36053038Y9145734D02*
X36100657Y9098115D01*
X36100657Y9098115D02*
X36195895Y9050496D01*
X36195895Y9050496D02*
X36291133Y9050496D01*
X36291133Y9050496D02*
X36433990Y9098115D01*
X36433990Y9098115D02*
X37005419Y9669543D01*
X37005419Y9669543D02*
X37005419Y9050496D01*
X13368257Y20296981D02*
X13701590Y20773172D01*
X13939685Y20296981D02*
X13939685Y21296981D01*
X13939685Y21296981D02*
X13558733Y21296981D01*
X13558733Y21296981D02*
X13463495Y21249362D01*
X13463495Y21249362D02*
X13415876Y21201743D01*
X13415876Y21201743D02*
X13368257Y21106505D01*
X13368257Y21106505D02*
X13368257Y20963648D01*
X13368257Y20963648D02*
X13415876Y20868410D01*
X13415876Y20868410D02*
X13463495Y20820791D01*
X13463495Y20820791D02*
X13558733Y20773172D01*
X13558733Y20773172D02*
X13939685Y20773172D01*
X13034923Y21296981D02*
X12415876Y21296981D01*
X12415876Y21296981D02*
X12749209Y20916029D01*
X12749209Y20916029D02*
X12606352Y20916029D01*
X12606352Y20916029D02*
X12511114Y20868410D01*
X12511114Y20868410D02*
X12463495Y20820791D01*
X12463495Y20820791D02*
X12415876Y20725553D01*
X12415876Y20725553D02*
X12415876Y20487458D01*
X12415876Y20487458D02*
X12463495Y20392220D01*
X12463495Y20392220D02*
X12511114Y20344600D01*
X12511114Y20344600D02*
X12606352Y20296981D01*
X12606352Y20296981D02*
X12892066Y20296981D01*
X12892066Y20296981D02*
X12987304Y20344600D01*
X12987304Y20344600D02*
X13034923Y20392220D01*
X11558733Y21296981D02*
X11749209Y21296981D01*
X11749209Y21296981D02*
X11844447Y21249362D01*
X11844447Y21249362D02*
X11892066Y21201743D01*
X11892066Y21201743D02*
X11987304Y21058886D01*
X11987304Y21058886D02*
X12034923Y20868410D01*
X12034923Y20868410D02*
X12034923Y20487458D01*
X12034923Y20487458D02*
X11987304Y20392220D01*
X11987304Y20392220D02*
X11939685Y20344600D01*
X11939685Y20344600D02*
X11844447Y20296981D01*
X11844447Y20296981D02*
X11653971Y20296981D01*
X11653971Y20296981D02*
X11558733Y20344600D01*
X11558733Y20344600D02*
X11511114Y20392220D01*
X11511114Y20392220D02*
X11463495Y20487458D01*
X11463495Y20487458D02*
X11463495Y20725553D01*
X11463495Y20725553D02*
X11511114Y20820791D01*
X11511114Y20820791D02*
X11558733Y20868410D01*
X11558733Y20868410D02*
X11653971Y20916029D01*
X11653971Y20916029D02*
X11844447Y20916029D01*
X11844447Y20916029D02*
X11939685Y20868410D01*
X11939685Y20868410D02*
X11987304Y20820791D01*
X11987304Y20820791D02*
X12034923Y20725553D01*
X30970457Y9120981D02*
X31303790Y9597172D01*
X31541885Y9120981D02*
X31541885Y10120981D01*
X31541885Y10120981D02*
X31160933Y10120981D01*
X31160933Y10120981D02*
X31065695Y10073362D01*
X31065695Y10073362D02*
X31018076Y10025743D01*
X31018076Y10025743D02*
X30970457Y9930505D01*
X30970457Y9930505D02*
X30970457Y9787648D01*
X30970457Y9787648D02*
X31018076Y9692410D01*
X31018076Y9692410D02*
X31065695Y9644791D01*
X31065695Y9644791D02*
X31160933Y9597172D01*
X31160933Y9597172D02*
X31541885Y9597172D01*
X30113314Y9787648D02*
X30113314Y9120981D01*
X30351409Y10168600D02*
X30589504Y9454315D01*
X30589504Y9454315D02*
X29970457Y9454315D01*
X29065695Y9120981D02*
X29637123Y9120981D01*
X29351409Y9120981D02*
X29351409Y10120981D01*
X29351409Y10120981D02*
X29446647Y9978124D01*
X29446647Y9978124D02*
X29541885Y9882886D01*
X29541885Y9882886D02*
X29637123Y9835267D01*
X41456780Y15603458D02*
X41504400Y15651077D01*
X41504400Y15651077D02*
X41552019Y15793934D01*
X41552019Y15793934D02*
X41552019Y15889172D01*
X41552019Y15889172D02*
X41504400Y16032029D01*
X41504400Y16032029D02*
X41409161Y16127267D01*
X41409161Y16127267D02*
X41313923Y16174886D01*
X41313923Y16174886D02*
X41123447Y16222505D01*
X41123447Y16222505D02*
X40980590Y16222505D01*
X40980590Y16222505D02*
X40790114Y16174886D01*
X40790114Y16174886D02*
X40694876Y16127267D01*
X40694876Y16127267D02*
X40599638Y16032029D01*
X40599638Y16032029D02*
X40552019Y15889172D01*
X40552019Y15889172D02*
X40552019Y15793934D01*
X40552019Y15793934D02*
X40599638Y15651077D01*
X40599638Y15651077D02*
X40647257Y15603458D01*
X41552019Y14651077D02*
X41552019Y15222505D01*
X41552019Y14936791D02*
X40552019Y14936791D01*
X40552019Y14936791D02*
X40694876Y15032029D01*
X40694876Y15032029D02*
X40790114Y15127267D01*
X40790114Y15127267D02*
X40837733Y15222505D01*
X41552019Y14174886D02*
X41552019Y13984410D01*
X41552019Y13984410D02*
X41504400Y13889172D01*
X41504400Y13889172D02*
X41456780Y13841553D01*
X41456780Y13841553D02*
X41313923Y13746315D01*
X41313923Y13746315D02*
X41123447Y13698696D01*
X41123447Y13698696D02*
X40742495Y13698696D01*
X40742495Y13698696D02*
X40647257Y13746315D01*
X40647257Y13746315D02*
X40599638Y13793934D01*
X40599638Y13793934D02*
X40552019Y13889172D01*
X40552019Y13889172D02*
X40552019Y14079648D01*
X40552019Y14079648D02*
X40599638Y14174886D01*
X40599638Y14174886D02*
X40647257Y14222505D01*
X40647257Y14222505D02*
X40742495Y14270124D01*
X40742495Y14270124D02*
X40980590Y14270124D01*
X40980590Y14270124D02*
X41075828Y14222505D01*
X41075828Y14222505D02*
X41123447Y14174886D01*
X41123447Y14174886D02*
X41171066Y14079648D01*
X41171066Y14079648D02*
X41171066Y13889172D01*
X41171066Y13889172D02*
X41123447Y13793934D01*
X41123447Y13793934D02*
X41075828Y13746315D01*
X41075828Y13746315D02*
X40980590Y13698696D01*
X12536466Y6834981D02*
X12869799Y7311172D01*
X13107894Y6834981D02*
X13107894Y7834981D01*
X13107894Y7834981D02*
X12726942Y7834981D01*
X12726942Y7834981D02*
X12631704Y7787362D01*
X12631704Y7787362D02*
X12584085Y7739743D01*
X12584085Y7739743D02*
X12536466Y7644505D01*
X12536466Y7644505D02*
X12536466Y7501648D01*
X12536466Y7501648D02*
X12584085Y7406410D01*
X12584085Y7406410D02*
X12631704Y7358791D01*
X12631704Y7358791D02*
X12726942Y7311172D01*
X12726942Y7311172D02*
X13107894Y7311172D01*
X11679323Y7834981D02*
X11869799Y7834981D01*
X11869799Y7834981D02*
X11965037Y7787362D01*
X11965037Y7787362D02*
X12012656Y7739743D01*
X12012656Y7739743D02*
X12107894Y7596886D01*
X12107894Y7596886D02*
X12155513Y7406410D01*
X12155513Y7406410D02*
X12155513Y7025458D01*
X12155513Y7025458D02*
X12107894Y6930220D01*
X12107894Y6930220D02*
X12060275Y6882600D01*
X12060275Y6882600D02*
X11965037Y6834981D01*
X11965037Y6834981D02*
X11774561Y6834981D01*
X11774561Y6834981D02*
X11679323Y6882600D01*
X11679323Y6882600D02*
X11631704Y6930220D01*
X11631704Y6930220D02*
X11584085Y7025458D01*
X11584085Y7025458D02*
X11584085Y7263553D01*
X11584085Y7263553D02*
X11631704Y7358791D01*
X11631704Y7358791D02*
X11679323Y7406410D01*
X11679323Y7406410D02*
X11774561Y7454029D01*
X11774561Y7454029D02*
X11965037Y7454029D01*
X11965037Y7454029D02*
X12060275Y7406410D01*
X12060275Y7406410D02*
X12107894Y7358791D01*
X12107894Y7358791D02*
X12155513Y7263553D01*
X13342857Y18341181D02*
X13676190Y18817372D01*
X13914285Y18341181D02*
X13914285Y19341181D01*
X13914285Y19341181D02*
X13533333Y19341181D01*
X13533333Y19341181D02*
X13438095Y19293562D01*
X13438095Y19293562D02*
X13390476Y19245943D01*
X13390476Y19245943D02*
X13342857Y19150705D01*
X13342857Y19150705D02*
X13342857Y19007848D01*
X13342857Y19007848D02*
X13390476Y18912610D01*
X13390476Y18912610D02*
X13438095Y18864991D01*
X13438095Y18864991D02*
X13533333Y18817372D01*
X13533333Y18817372D02*
X13914285Y18817372D01*
X12390476Y18341181D02*
X12961904Y18341181D01*
X12676190Y18341181D02*
X12676190Y19341181D01*
X12676190Y19341181D02*
X12771428Y19198324D01*
X12771428Y19198324D02*
X12866666Y19103086D01*
X12866666Y19103086D02*
X12961904Y19055467D01*
X12057142Y19341181D02*
X11390476Y19341181D01*
X11390476Y19341181D02*
X11819047Y18341181D01*
D12*
%TO.C,C6*%
X41657748Y7006000D02*
X43080252Y7006000D01*
X41657748Y5186000D02*
X43080252Y5186000D01*
D13*
%TO.C,IC2*%
X80696000Y24294000D02*
X80696000Y19394000D01*
X80696000Y19394000D02*
X83896000Y19394000D01*
X83896000Y24294000D02*
X80696000Y24294000D01*
X83896000Y19394000D02*
X83896000Y24294000D01*
X85746000Y24424000D02*
X84246000Y24424000D01*
D12*
%TO.C,R8*%
X23752436Y11657000D02*
X24206564Y11657000D01*
X23752436Y10187000D02*
X24206564Y10187000D01*
%TO.C,D8*%
X16065000Y13705400D02*
X15909000Y13705400D01*
X18381000Y13705400D02*
X18225000Y13705400D01*
X15909484Y13705400D02*
G75*
G02*
X16066392Y16937735I1235516J1560000D01*
G01*
X16065000Y14224439D02*
G75*
G02*
X16065163Y16306530I1080000J1040961D01*
G01*
X18223608Y16937735D02*
G75*
G02*
X18380516Y13705400I-1078608J-1672335D01*
G01*
X18224837Y16306530D02*
G75*
G02*
X18225000Y14224439I-1079837J-1041130D01*
G01*
%TO.C,C9*%
X97020748Y18515000D02*
X97543252Y18515000D01*
X97020748Y17045000D02*
X97543252Y17045000D01*
%TO.C,C18*%
X47962452Y14197000D02*
X47439948Y14197000D01*
X47962452Y12727000D02*
X47439948Y12727000D01*
%TO.C,R1*%
X61749000Y21412564D02*
X61749000Y20958436D01*
X63219000Y21412564D02*
X63219000Y20958436D01*
%TO.C,C3*%
X81968748Y18515000D02*
X82491252Y18515000D01*
X81968748Y17045000D02*
X82491252Y17045000D01*
D14*
%TO.C,U4*%
X17118000Y10421000D02*
X19458000Y10421000D01*
X17118000Y1771000D02*
X19458000Y1771000D01*
D13*
X14338000Y1996000D02*
G75*
G02*
X14138000Y1996000I-100000J0D01*
G01*
X14138000Y1996000D02*
G75*
G02*
X14338000Y1996000I100000J0D01*
G01*
D12*
%TO.C,R24*%
X101881000Y20293064D02*
X101881000Y19838936D01*
X103351000Y20293064D02*
X103351000Y19838936D01*
%TO.C,R15*%
X24253564Y6831000D02*
X23799436Y6831000D01*
X24253564Y5361000D02*
X23799436Y5361000D01*
%TO.C,R19*%
X71843000Y19785064D02*
X71843000Y19330936D01*
X73313000Y19785064D02*
X73313000Y19330936D01*
%TO.C,C20*%
X57634200Y9553348D02*
X57634200Y10075852D01*
X59104200Y9553348D02*
X59104200Y10075852D01*
%TO.C,R18*%
X73253964Y22960000D02*
X72799836Y22960000D01*
X73253964Y21490000D02*
X72799836Y21490000D01*
%TO.C,R14*%
X24253564Y9371000D02*
X23799436Y9371000D01*
X24253564Y7901000D02*
X23799436Y7901000D01*
%TO.C,R32*%
X43584864Y18845200D02*
X43130736Y18845200D01*
X43584864Y17375200D02*
X43130736Y17375200D01*
%TO.C,D7*%
X41276000Y7522000D02*
X41276000Y12922000D01*
X44576000Y7522000D02*
X41276000Y7522000D01*
X44576000Y7522000D02*
X44576000Y12922000D01*
%TO.C,C15*%
X28170200Y21104452D02*
X28170200Y20581948D01*
X29640200Y21104452D02*
X29640200Y20581948D01*
%TO.C,R27*%
X93219536Y18870600D02*
X93673664Y18870600D01*
X93219536Y17400600D02*
X93673664Y17400600D01*
%TO.C,L1*%
X42260622Y4497000D02*
X41461378Y4497000D01*
X42260622Y3377000D02*
X41461378Y3377000D01*
%TO.C,R33*%
X4771764Y19683400D02*
X4317636Y19683400D01*
X4771764Y18213400D02*
X4317636Y18213400D01*
D13*
%TO.C,IC1*%
X65898000Y24040000D02*
X65898000Y19140000D01*
X65898000Y19140000D02*
X69098000Y19140000D01*
X69098000Y24040000D02*
X65898000Y24040000D01*
X69098000Y19140000D02*
X69098000Y24040000D01*
X70948000Y24170000D02*
X69448000Y24170000D01*
D12*
%TO.C,R4*%
X87931364Y23214000D02*
X87477236Y23214000D01*
X87931364Y21744000D02*
X87477236Y21744000D01*
%TO.C,R7*%
X12673064Y9371000D02*
X12218936Y9371000D01*
X12673064Y7901000D02*
X12218936Y7901000D01*
%TO.C,C12*%
X23751948Y2005000D02*
X24274452Y2005000D01*
X23751948Y535000D02*
X24274452Y535000D01*
%TO.C,R37*%
X4771764Y21715400D02*
X4317636Y21715400D01*
X4771764Y20245400D02*
X4317636Y20245400D01*
%TO.C,C1*%
X60050000Y11939748D02*
X60050000Y13362252D01*
X61870000Y11939748D02*
X61870000Y13362252D01*
%TO.C,C16*%
X40953000Y20831748D02*
X40953000Y21354252D01*
X42423000Y20831748D02*
X42423000Y21354252D01*
%TO.C,R25*%
X103272964Y23442600D02*
X102818836Y23442600D01*
X103272964Y21972600D02*
X102818836Y21972600D01*
%TO.C,R16*%
X24253564Y4545000D02*
X23799436Y4545000D01*
X24253564Y3075000D02*
X23799436Y3075000D01*
D13*
%TO.C,U1*%
X64048000Y10628000D02*
X65548000Y10628000D01*
X65898000Y15658000D02*
X65898000Y10758000D01*
X65898000Y10758000D02*
X69098000Y10758000D01*
X69098000Y15658000D02*
X65898000Y15658000D01*
X69098000Y10758000D02*
X69098000Y15658000D01*
D12*
%TO.C,C5*%
X41657748Y2688000D02*
X43080252Y2688000D01*
X41657748Y868000D02*
X43080252Y868000D01*
%TO.C,R34*%
X9830164Y12393600D02*
X9376036Y12393600D01*
X9830164Y10923600D02*
X9376036Y10923600D01*
%TO.C,Y1*%
X49447200Y17932200D02*
X49447200Y14732200D01*
X49447200Y14732200D02*
X45447200Y14732200D01*
%TO.C,C13*%
X55648452Y2233600D02*
X55125948Y2233600D01*
X55648452Y763600D02*
X55125948Y763600D01*
%TO.C,R11*%
X8662936Y3021000D02*
X9117064Y3021000D01*
X8662936Y1551000D02*
X9117064Y1551000D01*
D13*
%TO.C,IC4*%
X95936000Y24294000D02*
X95936000Y19394000D01*
X95936000Y19394000D02*
X99136000Y19394000D01*
X99136000Y24294000D02*
X95936000Y24294000D01*
X99136000Y19394000D02*
X99136000Y24294000D01*
X100986000Y24424000D02*
X99486000Y24424000D01*
D12*
%TO.C,R31*%
X26163600Y22478636D02*
X26163600Y22932764D01*
X27633600Y22478636D02*
X27633600Y22932764D01*
%TO.C,C21*%
X28487252Y15224000D02*
X27964748Y15224000D01*
X28487252Y13754000D02*
X27964748Y13754000D01*
%TO.C,R26*%
X91594000Y21021564D02*
X91594000Y20567436D01*
X93064000Y21021564D02*
X93064000Y20567436D01*
%TO.C,R9*%
X27355436Y8101000D02*
X27809564Y8101000D01*
X27355436Y6631000D02*
X27809564Y6631000D01*
%TO.C,C23*%
X43334000Y20830948D02*
X43334000Y21353452D01*
X44804000Y20830948D02*
X44804000Y21353452D01*
%TO.C,R22*%
X17756200Y20470864D02*
X17756200Y20016736D01*
X19226200Y20470864D02*
X19226200Y20016736D01*
%TO.C,R2*%
X63730136Y18565800D02*
X64184264Y18565800D01*
X63730136Y17095800D02*
X64184264Y17095800D01*
%TO.C,R35*%
X4750164Y12393600D02*
X4296036Y12393600D01*
X4750164Y10923600D02*
X4296036Y10923600D01*
D13*
%TO.C,U2*%
X78846000Y10882000D02*
X80346000Y10882000D01*
X80696000Y15912000D02*
X80696000Y11012000D01*
X80696000Y11012000D02*
X83896000Y11012000D01*
X83896000Y15912000D02*
X80696000Y15912000D01*
X83896000Y11012000D02*
X83896000Y15912000D01*
%TO.C,U5*%
X93578000Y10882000D02*
X95078000Y10882000D01*
X95428000Y15912000D02*
X95428000Y11012000D01*
X95428000Y11012000D02*
X98628000Y11012000D01*
X98628000Y15912000D02*
X95428000Y15912000D01*
X98628000Y11012000D02*
X98628000Y15912000D01*
D12*
%TO.C,R5*%
X12673064Y4291000D02*
X12218936Y4291000D01*
X12673064Y2821000D02*
X12218936Y2821000D01*
%TO.C,R13*%
X8662936Y8101000D02*
X9117064Y8101000D01*
X8662936Y6631000D02*
X9117064Y6631000D01*
%TO.C,R20*%
X76481000Y21459564D02*
X76481000Y21005436D01*
X77951000Y21459564D02*
X77951000Y21005436D01*
%TO.C,C7*%
X67236748Y18261000D02*
X67759252Y18261000D01*
X67236748Y16791000D02*
X67759252Y16791000D01*
%TO.C,C8*%
X74782000Y11851748D02*
X74782000Y13274252D01*
X76602000Y11851748D02*
X76602000Y13274252D01*
%TO.C,R30*%
X38203136Y24687200D02*
X38657264Y24687200D01*
X38203136Y23217200D02*
X38657264Y23217200D01*
%TO.C,R40*%
X55324636Y10183800D02*
X55778764Y10183800D01*
X55324636Y8713800D02*
X55778764Y8713800D01*
%TO.C,C14*%
X51792200Y8476348D02*
X51792200Y8998852D01*
X53262200Y8476348D02*
X53262200Y8998852D01*
%TO.C,C11*%
X89895000Y11851748D02*
X89895000Y13274252D01*
X91715000Y11851748D02*
X91715000Y13274252D01*
%TO.C,C17*%
X32513600Y10522852D02*
X32513600Y10000348D01*
X33983600Y10522852D02*
X33983600Y10000348D01*
%TO.C,R39*%
X57634200Y6551664D02*
X57634200Y6097536D01*
X59104200Y6551664D02*
X59104200Y6097536D01*
%TO.C,R3*%
X86387000Y20039064D02*
X86387000Y19584936D01*
X87857000Y20039064D02*
X87857000Y19584936D01*
%TO.C,R38*%
X21030836Y17295800D02*
X21484964Y17295800D01*
X21030836Y15825800D02*
X21484964Y15825800D01*
%TO.C,R10*%
X27355436Y5561000D02*
X27809564Y5561000D01*
X27355436Y4091000D02*
X27809564Y4091000D01*
%TO.C,R29*%
X51157200Y4216036D02*
X51157200Y4670164D01*
X52627200Y4216036D02*
X52627200Y4670164D01*
%TO.C,R23*%
X20296200Y20470864D02*
X20296200Y20016736D01*
X21766200Y20470864D02*
X21766200Y20016736D01*
%TO.C,R21*%
X78184636Y18921400D02*
X78638764Y18921400D01*
X78184636Y17451400D02*
X78638764Y17451400D01*
%TO.C,SW1*%
X46511400Y21362800D02*
X46511400Y22862800D01*
X47761400Y25362800D02*
X52261400Y25362800D01*
X52261400Y18862800D02*
X47761400Y18862800D01*
X53511400Y22862800D02*
X53511400Y21362800D01*
D15*
%TO.C,IC3*%
X33782000Y7086600D02*
X33782000Y533400D01*
X33782000Y533400D02*
X37338000Y533400D01*
D16*
X33829000Y6934000D02*
X33829000Y686000D01*
X33829000Y6934000D02*
X37289000Y6934000D01*
X37289000Y686000D02*
X33829000Y686000D01*
X37289000Y686000D02*
X37289000Y6934000D01*
D15*
X37338000Y7086600D02*
X33782000Y7086600D01*
X37338000Y533400D02*
X37338000Y7086600D01*
D16*
%TO.C,U3*%
X31656000Y20922000D02*
X31656000Y20672000D01*
X31656000Y13872000D02*
X31656000Y13622000D01*
X31656000Y13622000D02*
X31906000Y13622000D01*
X31906000Y20922000D02*
X31656000Y20922000D01*
X38706000Y13622000D02*
X38956000Y13622000D01*
X38956000Y20922000D02*
X38706000Y20922000D01*
X38956000Y20672000D02*
X38956000Y20922000D01*
X38956000Y13622000D02*
X38956000Y13872000D01*
D13*
X41106000Y20072000D02*
G75*
G02*
X40906000Y20072000I-100000J0D01*
G01*
X40906000Y20072000D02*
G75*
G02*
X41106000Y20072000I100000J0D01*
G01*
D12*
%TO.C,U6*%
X55315700Y6045600D02*
X54515700Y6045600D01*
X55315700Y6045600D02*
X56115700Y6045600D01*
X55315700Y2925600D02*
X53515700Y2925600D01*
X55315700Y2925600D02*
X56115700Y2925600D01*
%TO.C,R12*%
X8662936Y5561000D02*
X9117064Y5561000D01*
X8662936Y4091000D02*
X9117064Y4091000D01*
%TO.C,C22*%
X34567400Y10458667D02*
X34567400Y10166133D01*
X35587400Y10458667D02*
X35587400Y10166133D01*
%TO.C,R36*%
X9851764Y21766200D02*
X9397636Y21766200D01*
X9851764Y20296200D02*
X9397636Y20296200D01*
%TO.C,R41*%
X30707064Y11758600D02*
X30252936Y11758600D01*
X30707064Y10288600D02*
X30252936Y10288600D01*
%TO.C,C19*%
X43603852Y16762400D02*
X43081348Y16762400D01*
X43603852Y15292400D02*
X43081348Y15292400D01*
%TO.C,R6*%
X12673064Y6831000D02*
X12218936Y6831000D01*
X12673064Y5361000D02*
X12218936Y5361000D01*
%TO.C,R17*%
X9851764Y19734200D02*
X9397636Y19734200D01*
X9851764Y18264200D02*
X9397636Y18264200D01*
%TD*%
M02*
