%TF.GenerationSoftware,KiCad,Pcbnew,9.0.1*%
%TF.CreationDate,2026-01-29T13:58:13+01:00*%
%TF.ProjectId,BP Nerf Blaster,4250204e-6572-4662-9042-6c6173746572,rev?*%
%TF.SameCoordinates,PX55d4a80PY7270e00*%
%TF.FileFunction,Legend,Top*%
%TF.FilePolarity,Positive*%
%FSLAX46Y46*%
G04 Gerber Fmt 4.6, Leading zero omitted, Abs format (unit mm)*
G04 Created by KiCad (PCBNEW 9.0.1) date 2026-01-29 13:58:13*
%MOMM*%
%LPD*%
G01*
G04 APERTURE LIST*
%ADD10C,0.100000*%
%ADD11C,0.150000*%
%ADD12C,0.254000*%
%ADD13C,0.120000*%
%ADD14C,0.200000*%
G04 APERTURE END LIST*
D10*
X47545666Y4424581D02*
X47545666Y3710296D01*
X47545666Y3710296D02*
X47498047Y3567439D01*
X47498047Y3567439D02*
X47402809Y3472200D01*
X47402809Y3472200D02*
X47259952Y3424581D01*
X47259952Y3424581D02*
X47164714Y3424581D01*
X48545666Y3424581D02*
X47974238Y3424581D01*
X48259952Y3424581D02*
X48259952Y4424581D01*
X48259952Y4424581D02*
X48164714Y4281724D01*
X48164714Y4281724D02*
X48069476Y4186486D01*
X48069476Y4186486D02*
X47974238Y4138867D01*
X70266666Y4304581D02*
X70266666Y3590296D01*
X70266666Y3590296D02*
X70219047Y3447439D01*
X70219047Y3447439D02*
X70123809Y3352200D01*
X70123809Y3352200D02*
X69980952Y3304581D01*
X69980952Y3304581D02*
X69885714Y3304581D01*
X70647619Y4304581D02*
X71266666Y4304581D01*
X71266666Y4304581D02*
X70933333Y3923629D01*
X70933333Y3923629D02*
X71076190Y3923629D01*
X71076190Y3923629D02*
X71171428Y3876010D01*
X71171428Y3876010D02*
X71219047Y3828391D01*
X71219047Y3828391D02*
X71266666Y3733153D01*
X71266666Y3733153D02*
X71266666Y3495058D01*
X71266666Y3495058D02*
X71219047Y3399820D01*
X71219047Y3399820D02*
X71171428Y3352200D01*
X71171428Y3352200D02*
X71076190Y3304581D01*
X71076190Y3304581D02*
X70790476Y3304581D01*
X70790476Y3304581D02*
X70695238Y3352200D01*
X70695238Y3352200D02*
X70647619Y3399820D01*
D11*
X2819495Y561181D02*
X2819495Y1561181D01*
X2819495Y1084991D02*
X3390923Y1084991D01*
X3390923Y561181D02*
X3390923Y1561181D01*
X4390923Y561181D02*
X3819495Y561181D01*
X4105209Y561181D02*
X4105209Y1561181D01*
X4105209Y1561181D02*
X4009971Y1418324D01*
X4009971Y1418324D02*
X3914733Y1323086D01*
X3914733Y1323086D02*
X3819495Y1275467D01*
D10*
X63166666Y4344581D02*
X63166666Y3630296D01*
X63166666Y3630296D02*
X63119047Y3487439D01*
X63119047Y3487439D02*
X63023809Y3392200D01*
X63023809Y3392200D02*
X62880952Y3344581D01*
X62880952Y3344581D02*
X62785714Y3344581D01*
X63595238Y4249343D02*
X63642857Y4296962D01*
X63642857Y4296962D02*
X63738095Y4344581D01*
X63738095Y4344581D02*
X63976190Y4344581D01*
X63976190Y4344581D02*
X64071428Y4296962D01*
X64071428Y4296962D02*
X64119047Y4249343D01*
X64119047Y4249343D02*
X64166666Y4154105D01*
X64166666Y4154105D02*
X64166666Y4058867D01*
X64166666Y4058867D02*
X64119047Y3916010D01*
X64119047Y3916010D02*
X63547619Y3344581D01*
X63547619Y3344581D02*
X64166666Y3344581D01*
X93150666Y4384581D02*
X93150666Y3670296D01*
X93150666Y3670296D02*
X93103047Y3527439D01*
X93103047Y3527439D02*
X93007809Y3432200D01*
X93007809Y3432200D02*
X92864952Y3384581D01*
X92864952Y3384581D02*
X92769714Y3384581D01*
X94055428Y4384581D02*
X93864952Y4384581D01*
X93864952Y4384581D02*
X93769714Y4336962D01*
X93769714Y4336962D02*
X93722095Y4289343D01*
X93722095Y4289343D02*
X93626857Y4146486D01*
X93626857Y4146486D02*
X93579238Y3956010D01*
X93579238Y3956010D02*
X93579238Y3575058D01*
X93579238Y3575058D02*
X93626857Y3479820D01*
X93626857Y3479820D02*
X93674476Y3432200D01*
X93674476Y3432200D02*
X93769714Y3384581D01*
X93769714Y3384581D02*
X93960190Y3384581D01*
X93960190Y3384581D02*
X94055428Y3432200D01*
X94055428Y3432200D02*
X94103047Y3479820D01*
X94103047Y3479820D02*
X94150666Y3575058D01*
X94150666Y3575058D02*
X94150666Y3813153D01*
X94150666Y3813153D02*
X94103047Y3908391D01*
X94103047Y3908391D02*
X94055428Y3956010D01*
X94055428Y3956010D02*
X93960190Y4003629D01*
X93960190Y4003629D02*
X93769714Y4003629D01*
X93769714Y4003629D02*
X93674476Y3956010D01*
X93674476Y3956010D02*
X93626857Y3908391D01*
X93626857Y3908391D02*
X93579238Y3813153D01*
D11*
X97813905Y15761181D02*
X97813905Y16761181D01*
X97813905Y16761181D02*
X98052000Y16761181D01*
X98052000Y16761181D02*
X98194857Y16713562D01*
X98194857Y16713562D02*
X98290095Y16618324D01*
X98290095Y16618324D02*
X98337714Y16523086D01*
X98337714Y16523086D02*
X98385333Y16332610D01*
X98385333Y16332610D02*
X98385333Y16189753D01*
X98385333Y16189753D02*
X98337714Y15999277D01*
X98337714Y15999277D02*
X98290095Y15904039D01*
X98290095Y15904039D02*
X98194857Y15808800D01*
X98194857Y15808800D02*
X98052000Y15761181D01*
X98052000Y15761181D02*
X97813905Y15761181D01*
X99242476Y16761181D02*
X99052000Y16761181D01*
X99052000Y16761181D02*
X98956762Y16713562D01*
X98956762Y16713562D02*
X98909143Y16665943D01*
X98909143Y16665943D02*
X98813905Y16523086D01*
X98813905Y16523086D02*
X98766286Y16332610D01*
X98766286Y16332610D02*
X98766286Y15951658D01*
X98766286Y15951658D02*
X98813905Y15856420D01*
X98813905Y15856420D02*
X98861524Y15808800D01*
X98861524Y15808800D02*
X98956762Y15761181D01*
X98956762Y15761181D02*
X99147238Y15761181D01*
X99147238Y15761181D02*
X99242476Y15808800D01*
X99242476Y15808800D02*
X99290095Y15856420D01*
X99290095Y15856420D02*
X99337714Y15951658D01*
X99337714Y15951658D02*
X99337714Y16189753D01*
X99337714Y16189753D02*
X99290095Y16284991D01*
X99290095Y16284991D02*
X99242476Y16332610D01*
X99242476Y16332610D02*
X99147238Y16380229D01*
X99147238Y16380229D02*
X98956762Y16380229D01*
X98956762Y16380229D02*
X98861524Y16332610D01*
X98861524Y16332610D02*
X98813905Y16284991D01*
X98813905Y16284991D02*
X98766286Y16189753D01*
X61618905Y15801181D02*
X61618905Y16801181D01*
X61618905Y16801181D02*
X61857000Y16801181D01*
X61857000Y16801181D02*
X61999857Y16753562D01*
X61999857Y16753562D02*
X62095095Y16658324D01*
X62095095Y16658324D02*
X62142714Y16563086D01*
X62142714Y16563086D02*
X62190333Y16372610D01*
X62190333Y16372610D02*
X62190333Y16229753D01*
X62190333Y16229753D02*
X62142714Y16039277D01*
X62142714Y16039277D02*
X62095095Y15944039D01*
X62095095Y15944039D02*
X61999857Y15848800D01*
X61999857Y15848800D02*
X61857000Y15801181D01*
X61857000Y15801181D02*
X61618905Y15801181D01*
X63142714Y15801181D02*
X62571286Y15801181D01*
X62857000Y15801181D02*
X62857000Y16801181D01*
X62857000Y16801181D02*
X62761762Y16658324D01*
X62761762Y16658324D02*
X62666524Y16563086D01*
X62666524Y16563086D02*
X62571286Y16515467D01*
D10*
X85264666Y4344581D02*
X85264666Y3630296D01*
X85264666Y3630296D02*
X85217047Y3487439D01*
X85217047Y3487439D02*
X85121809Y3392200D01*
X85121809Y3392200D02*
X84978952Y3344581D01*
X84978952Y3344581D02*
X84883714Y3344581D01*
X86217047Y4344581D02*
X85740857Y4344581D01*
X85740857Y4344581D02*
X85693238Y3868391D01*
X85693238Y3868391D02*
X85740857Y3916010D01*
X85740857Y3916010D02*
X85836095Y3963629D01*
X85836095Y3963629D02*
X86074190Y3963629D01*
X86074190Y3963629D02*
X86169428Y3916010D01*
X86169428Y3916010D02*
X86217047Y3868391D01*
X86217047Y3868391D02*
X86264666Y3773153D01*
X86264666Y3773153D02*
X86264666Y3535058D01*
X86264666Y3535058D02*
X86217047Y3439820D01*
X86217047Y3439820D02*
X86169428Y3392200D01*
X86169428Y3392200D02*
X86074190Y3344581D01*
X86074190Y3344581D02*
X85836095Y3344581D01*
X85836095Y3344581D02*
X85740857Y3392200D01*
X85740857Y3392200D02*
X85693238Y3439820D01*
D11*
X75652333Y23135420D02*
X75604714Y23087800D01*
X75604714Y23087800D02*
X75461857Y23040181D01*
X75461857Y23040181D02*
X75366619Y23040181D01*
X75366619Y23040181D02*
X75223762Y23087800D01*
X75223762Y23087800D02*
X75128524Y23183039D01*
X75128524Y23183039D02*
X75080905Y23278277D01*
X75080905Y23278277D02*
X75033286Y23468753D01*
X75033286Y23468753D02*
X75033286Y23611610D01*
X75033286Y23611610D02*
X75080905Y23802086D01*
X75080905Y23802086D02*
X75128524Y23897324D01*
X75128524Y23897324D02*
X75223762Y23992562D01*
X75223762Y23992562D02*
X75366619Y24040181D01*
X75366619Y24040181D02*
X75461857Y24040181D01*
X75461857Y24040181D02*
X75604714Y23992562D01*
X75604714Y23992562D02*
X75652333Y23944943D01*
X76509476Y23706848D02*
X76509476Y23040181D01*
X76271381Y24087800D02*
X76033286Y23373515D01*
X76033286Y23373515D02*
X76652333Y23373515D01*
D10*
X99774476Y4384581D02*
X99774476Y3670296D01*
X99774476Y3670296D02*
X99726857Y3527439D01*
X99726857Y3527439D02*
X99631619Y3432200D01*
X99631619Y3432200D02*
X99488762Y3384581D01*
X99488762Y3384581D02*
X99393524Y3384581D01*
X100774476Y3384581D02*
X100203048Y3384581D01*
X100488762Y3384581D02*
X100488762Y4384581D01*
X100488762Y4384581D02*
X100393524Y4241724D01*
X100393524Y4241724D02*
X100298286Y4146486D01*
X100298286Y4146486D02*
X100203048Y4098867D01*
X101726857Y3384581D02*
X101155429Y3384581D01*
X101441143Y3384581D02*
X101441143Y4384581D01*
X101441143Y4384581D02*
X101345905Y4241724D01*
X101345905Y4241724D02*
X101250667Y4146486D01*
X101250667Y4146486D02*
X101155429Y4098867D01*
D11*
X50495295Y14886781D02*
X50495295Y15886781D01*
X50495295Y15410591D02*
X51066723Y15410591D01*
X51066723Y14886781D02*
X51066723Y15886781D01*
X51447676Y15886781D02*
X52066723Y15886781D01*
X52066723Y15886781D02*
X51733390Y15505829D01*
X51733390Y15505829D02*
X51876247Y15505829D01*
X51876247Y15505829D02*
X51971485Y15458210D01*
X51971485Y15458210D02*
X52019104Y15410591D01*
X52019104Y15410591D02*
X52066723Y15315353D01*
X52066723Y15315353D02*
X52066723Y15077258D01*
X52066723Y15077258D02*
X52019104Y14982020D01*
X52019104Y14982020D02*
X51971485Y14934400D01*
X51971485Y14934400D02*
X51876247Y14886781D01*
X51876247Y14886781D02*
X51590533Y14886781D01*
X51590533Y14886781D02*
X51495295Y14934400D01*
X51495295Y14934400D02*
X51447676Y14982020D01*
X90511905Y15801181D02*
X90511905Y16801181D01*
X90511905Y16801181D02*
X90750000Y16801181D01*
X90750000Y16801181D02*
X90892857Y16753562D01*
X90892857Y16753562D02*
X90988095Y16658324D01*
X90988095Y16658324D02*
X91035714Y16563086D01*
X91035714Y16563086D02*
X91083333Y16372610D01*
X91083333Y16372610D02*
X91083333Y16229753D01*
X91083333Y16229753D02*
X91035714Y16039277D01*
X91035714Y16039277D02*
X90988095Y15944039D01*
X90988095Y15944039D02*
X90892857Y15848800D01*
X90892857Y15848800D02*
X90750000Y15801181D01*
X90750000Y15801181D02*
X90511905Y15801181D01*
X91988095Y16801181D02*
X91511905Y16801181D01*
X91511905Y16801181D02*
X91464286Y16324991D01*
X91464286Y16324991D02*
X91511905Y16372610D01*
X91511905Y16372610D02*
X91607143Y16420229D01*
X91607143Y16420229D02*
X91845238Y16420229D01*
X91845238Y16420229D02*
X91940476Y16372610D01*
X91940476Y16372610D02*
X91988095Y16324991D01*
X91988095Y16324991D02*
X92035714Y16229753D01*
X92035714Y16229753D02*
X92035714Y15991658D01*
X92035714Y15991658D02*
X91988095Y15896420D01*
X91988095Y15896420D02*
X91940476Y15848800D01*
X91940476Y15848800D02*
X91845238Y15801181D01*
X91845238Y15801181D02*
X91607143Y15801181D01*
X91607143Y15801181D02*
X91511905Y15848800D01*
X91511905Y15848800D02*
X91464286Y15896420D01*
D10*
X78164666Y4344581D02*
X78164666Y3630296D01*
X78164666Y3630296D02*
X78117047Y3487439D01*
X78117047Y3487439D02*
X78021809Y3392200D01*
X78021809Y3392200D02*
X77878952Y3344581D01*
X77878952Y3344581D02*
X77783714Y3344581D01*
X79069428Y4011248D02*
X79069428Y3344581D01*
X78831333Y4392200D02*
X78593238Y3677915D01*
X78593238Y3677915D02*
X79212285Y3677915D01*
D11*
X54224914Y4193381D02*
X54224914Y5193381D01*
X54224914Y5193381D02*
X54463009Y5193381D01*
X54463009Y5193381D02*
X54605866Y5145762D01*
X54605866Y5145762D02*
X54701104Y5050524D01*
X54701104Y5050524D02*
X54748723Y4955286D01*
X54748723Y4955286D02*
X54796342Y4764810D01*
X54796342Y4764810D02*
X54796342Y4621953D01*
X54796342Y4621953D02*
X54748723Y4431477D01*
X54748723Y4431477D02*
X54701104Y4336239D01*
X54701104Y4336239D02*
X54605866Y4241000D01*
X54605866Y4241000D02*
X54463009Y4193381D01*
X54463009Y4193381D02*
X54224914Y4193381D01*
X55748723Y4193381D02*
X55177295Y4193381D01*
X55463009Y4193381D02*
X55463009Y5193381D01*
X55463009Y5193381D02*
X55367771Y5050524D01*
X55367771Y5050524D02*
X55272533Y4955286D01*
X55272533Y4955286D02*
X55177295Y4907667D01*
X56367771Y5193381D02*
X56463009Y5193381D01*
X56463009Y5193381D02*
X56558247Y5145762D01*
X56558247Y5145762D02*
X56605866Y5098143D01*
X56605866Y5098143D02*
X56653485Y5002905D01*
X56653485Y5002905D02*
X56701104Y4812429D01*
X56701104Y4812429D02*
X56701104Y4574334D01*
X56701104Y4574334D02*
X56653485Y4383858D01*
X56653485Y4383858D02*
X56605866Y4288620D01*
X56605866Y4288620D02*
X56558247Y4241000D01*
X56558247Y4241000D02*
X56463009Y4193381D01*
X56463009Y4193381D02*
X56367771Y4193381D01*
X56367771Y4193381D02*
X56272533Y4241000D01*
X56272533Y4241000D02*
X56224914Y4288620D01*
X56224914Y4288620D02*
X56177295Y4383858D01*
X56177295Y4383858D02*
X56129676Y4574334D01*
X56129676Y4574334D02*
X56129676Y4812429D01*
X56129676Y4812429D02*
X56177295Y5002905D01*
X56177295Y5002905D02*
X56224914Y5098143D01*
X56224914Y5098143D02*
X56272533Y5145762D01*
X56272533Y5145762D02*
X56367771Y5193381D01*
X22975219Y19707267D02*
X23689504Y19707267D01*
X23689504Y19707267D02*
X23832361Y19659648D01*
X23832361Y19659648D02*
X23927600Y19564410D01*
X23927600Y19564410D02*
X23975219Y19421553D01*
X23975219Y19421553D02*
X23975219Y19326315D01*
X23403790Y20326315D02*
X23356171Y20231077D01*
X23356171Y20231077D02*
X23308552Y20183458D01*
X23308552Y20183458D02*
X23213314Y20135839D01*
X23213314Y20135839D02*
X23165695Y20135839D01*
X23165695Y20135839D02*
X23070457Y20183458D01*
X23070457Y20183458D02*
X23022838Y20231077D01*
X23022838Y20231077D02*
X22975219Y20326315D01*
X22975219Y20326315D02*
X22975219Y20516791D01*
X22975219Y20516791D02*
X23022838Y20612029D01*
X23022838Y20612029D02*
X23070457Y20659648D01*
X23070457Y20659648D02*
X23165695Y20707267D01*
X23165695Y20707267D02*
X23213314Y20707267D01*
X23213314Y20707267D02*
X23308552Y20659648D01*
X23308552Y20659648D02*
X23356171Y20612029D01*
X23356171Y20612029D02*
X23403790Y20516791D01*
X23403790Y20516791D02*
X23403790Y20326315D01*
X23403790Y20326315D02*
X23451409Y20231077D01*
X23451409Y20231077D02*
X23499028Y20183458D01*
X23499028Y20183458D02*
X23594266Y20135839D01*
X23594266Y20135839D02*
X23784742Y20135839D01*
X23784742Y20135839D02*
X23879980Y20183458D01*
X23879980Y20183458D02*
X23927600Y20231077D01*
X23927600Y20231077D02*
X23975219Y20326315D01*
X23975219Y20326315D02*
X23975219Y20516791D01*
X23975219Y20516791D02*
X23927600Y20612029D01*
X23927600Y20612029D02*
X23879980Y20659648D01*
X23879980Y20659648D02*
X23784742Y20707267D01*
X23784742Y20707267D02*
X23594266Y20707267D01*
X23594266Y20707267D02*
X23499028Y20659648D01*
X23499028Y20659648D02*
X23451409Y20612029D01*
X23451409Y20612029D02*
X23403790Y20516791D01*
X12535819Y10893467D02*
X13250104Y10893467D01*
X13250104Y10893467D02*
X13392961Y10845848D01*
X13392961Y10845848D02*
X13488200Y10750610D01*
X13488200Y10750610D02*
X13535819Y10607753D01*
X13535819Y10607753D02*
X13535819Y10512515D01*
X13535819Y11417277D02*
X13535819Y11607753D01*
X13535819Y11607753D02*
X13488200Y11702991D01*
X13488200Y11702991D02*
X13440580Y11750610D01*
X13440580Y11750610D02*
X13297723Y11845848D01*
X13297723Y11845848D02*
X13107247Y11893467D01*
X13107247Y11893467D02*
X12726295Y11893467D01*
X12726295Y11893467D02*
X12631057Y11845848D01*
X12631057Y11845848D02*
X12583438Y11798229D01*
X12583438Y11798229D02*
X12535819Y11702991D01*
X12535819Y11702991D02*
X12535819Y11512515D01*
X12535819Y11512515D02*
X12583438Y11417277D01*
X12583438Y11417277D02*
X12631057Y11369658D01*
X12631057Y11369658D02*
X12726295Y11322039D01*
X12726295Y11322039D02*
X12964390Y11322039D01*
X12964390Y11322039D02*
X13059628Y11369658D01*
X13059628Y11369658D02*
X13107247Y11417277D01*
X13107247Y11417277D02*
X13154866Y11512515D01*
X13154866Y11512515D02*
X13154866Y11702991D01*
X13154866Y11702991D02*
X13107247Y11798229D01*
X13107247Y11798229D02*
X13059628Y11845848D01*
X13059628Y11845848D02*
X12964390Y11893467D01*
X76096905Y15801181D02*
X76096905Y16801181D01*
X76096905Y16801181D02*
X76335000Y16801181D01*
X76335000Y16801181D02*
X76477857Y16753562D01*
X76477857Y16753562D02*
X76573095Y16658324D01*
X76573095Y16658324D02*
X76620714Y16563086D01*
X76620714Y16563086D02*
X76668333Y16372610D01*
X76668333Y16372610D02*
X76668333Y16229753D01*
X76668333Y16229753D02*
X76620714Y16039277D01*
X76620714Y16039277D02*
X76573095Y15944039D01*
X76573095Y15944039D02*
X76477857Y15848800D01*
X76477857Y15848800D02*
X76335000Y15801181D01*
X76335000Y15801181D02*
X76096905Y15801181D01*
X77001667Y16801181D02*
X77620714Y16801181D01*
X77620714Y16801181D02*
X77287381Y16420229D01*
X77287381Y16420229D02*
X77430238Y16420229D01*
X77430238Y16420229D02*
X77525476Y16372610D01*
X77525476Y16372610D02*
X77573095Y16324991D01*
X77573095Y16324991D02*
X77620714Y16229753D01*
X77620714Y16229753D02*
X77620714Y15991658D01*
X77620714Y15991658D02*
X77573095Y15896420D01*
X77573095Y15896420D02*
X77525476Y15848800D01*
X77525476Y15848800D02*
X77430238Y15801181D01*
X77430238Y15801181D02*
X77144524Y15801181D01*
X77144524Y15801181D02*
X77049286Y15848800D01*
X77049286Y15848800D02*
X77001667Y15896420D01*
D10*
X104902095Y14266581D02*
X104902095Y15266581D01*
X104902095Y14790391D02*
X105473523Y14790391D01*
X105473523Y14266581D02*
X105473523Y15266581D01*
X105902095Y15171343D02*
X105949714Y15218962D01*
X105949714Y15218962D02*
X106044952Y15266581D01*
X106044952Y15266581D02*
X106283047Y15266581D01*
X106283047Y15266581D02*
X106378285Y15218962D01*
X106378285Y15218962D02*
X106425904Y15171343D01*
X106425904Y15171343D02*
X106473523Y15076105D01*
X106473523Y15076105D02*
X106473523Y14980867D01*
X106473523Y14980867D02*
X106425904Y14838010D01*
X106425904Y14838010D02*
X105854476Y14266581D01*
X105854476Y14266581D02*
X106473523Y14266581D01*
D11*
X83335905Y15761181D02*
X83335905Y16761181D01*
X83335905Y16761181D02*
X83574000Y16761181D01*
X83574000Y16761181D02*
X83716857Y16713562D01*
X83716857Y16713562D02*
X83812095Y16618324D01*
X83812095Y16618324D02*
X83859714Y16523086D01*
X83859714Y16523086D02*
X83907333Y16332610D01*
X83907333Y16332610D02*
X83907333Y16189753D01*
X83907333Y16189753D02*
X83859714Y15999277D01*
X83859714Y15999277D02*
X83812095Y15904039D01*
X83812095Y15904039D02*
X83716857Y15808800D01*
X83716857Y15808800D02*
X83574000Y15761181D01*
X83574000Y15761181D02*
X83335905Y15761181D01*
X84764476Y16427848D02*
X84764476Y15761181D01*
X84526381Y16808800D02*
X84288286Y16094515D01*
X84288286Y16094515D02*
X84907333Y16094515D01*
X60495333Y23262420D02*
X60447714Y23214800D01*
X60447714Y23214800D02*
X60304857Y23167181D01*
X60304857Y23167181D02*
X60209619Y23167181D01*
X60209619Y23167181D02*
X60066762Y23214800D01*
X60066762Y23214800D02*
X59971524Y23310039D01*
X59971524Y23310039D02*
X59923905Y23405277D01*
X59923905Y23405277D02*
X59876286Y23595753D01*
X59876286Y23595753D02*
X59876286Y23738610D01*
X59876286Y23738610D02*
X59923905Y23929086D01*
X59923905Y23929086D02*
X59971524Y24024324D01*
X59971524Y24024324D02*
X60066762Y24119562D01*
X60066762Y24119562D02*
X60209619Y24167181D01*
X60209619Y24167181D02*
X60304857Y24167181D01*
X60304857Y24167181D02*
X60447714Y24119562D01*
X60447714Y24119562D02*
X60495333Y24071943D01*
X60876286Y24071943D02*
X60923905Y24119562D01*
X60923905Y24119562D02*
X61019143Y24167181D01*
X61019143Y24167181D02*
X61257238Y24167181D01*
X61257238Y24167181D02*
X61352476Y24119562D01*
X61352476Y24119562D02*
X61400095Y24071943D01*
X61400095Y24071943D02*
X61447714Y23976705D01*
X61447714Y23976705D02*
X61447714Y23881467D01*
X61447714Y23881467D02*
X61400095Y23738610D01*
X61400095Y23738610D02*
X60828667Y23167181D01*
X60828667Y23167181D02*
X61447714Y23167181D01*
X68857905Y15761181D02*
X68857905Y16761181D01*
X68857905Y16761181D02*
X69096000Y16761181D01*
X69096000Y16761181D02*
X69238857Y16713562D01*
X69238857Y16713562D02*
X69334095Y16618324D01*
X69334095Y16618324D02*
X69381714Y16523086D01*
X69381714Y16523086D02*
X69429333Y16332610D01*
X69429333Y16332610D02*
X69429333Y16189753D01*
X69429333Y16189753D02*
X69381714Y15999277D01*
X69381714Y15999277D02*
X69334095Y15904039D01*
X69334095Y15904039D02*
X69238857Y15808800D01*
X69238857Y15808800D02*
X69096000Y15761181D01*
X69096000Y15761181D02*
X68857905Y15761181D01*
X69810286Y16665943D02*
X69857905Y16713562D01*
X69857905Y16713562D02*
X69953143Y16761181D01*
X69953143Y16761181D02*
X70191238Y16761181D01*
X70191238Y16761181D02*
X70286476Y16713562D01*
X70286476Y16713562D02*
X70334095Y16665943D01*
X70334095Y16665943D02*
X70381714Y16570705D01*
X70381714Y16570705D02*
X70381714Y16475467D01*
X70381714Y16475467D02*
X70334095Y16332610D01*
X70334095Y16332610D02*
X69762667Y15761181D01*
X69762667Y15761181D02*
X70381714Y15761181D01*
X90383942Y23160820D02*
X90336323Y23113200D01*
X90336323Y23113200D02*
X90193466Y23065581D01*
X90193466Y23065581D02*
X90098228Y23065581D01*
X90098228Y23065581D02*
X89955371Y23113200D01*
X89955371Y23113200D02*
X89860133Y23208439D01*
X89860133Y23208439D02*
X89812514Y23303677D01*
X89812514Y23303677D02*
X89764895Y23494153D01*
X89764895Y23494153D02*
X89764895Y23637010D01*
X89764895Y23637010D02*
X89812514Y23827486D01*
X89812514Y23827486D02*
X89860133Y23922724D01*
X89860133Y23922724D02*
X89955371Y24017962D01*
X89955371Y24017962D02*
X90098228Y24065581D01*
X90098228Y24065581D02*
X90193466Y24065581D01*
X90193466Y24065581D02*
X90336323Y24017962D01*
X90336323Y24017962D02*
X90383942Y23970343D01*
X91336323Y23065581D02*
X90764895Y23065581D01*
X91050609Y23065581D02*
X91050609Y24065581D01*
X91050609Y24065581D02*
X90955371Y23922724D01*
X90955371Y23922724D02*
X90860133Y23827486D01*
X90860133Y23827486D02*
X90764895Y23779867D01*
X91955371Y24065581D02*
X92050609Y24065581D01*
X92050609Y24065581D02*
X92145847Y24017962D01*
X92145847Y24017962D02*
X92193466Y23970343D01*
X92193466Y23970343D02*
X92241085Y23875105D01*
X92241085Y23875105D02*
X92288704Y23684629D01*
X92288704Y23684629D02*
X92288704Y23446534D01*
X92288704Y23446534D02*
X92241085Y23256058D01*
X92241085Y23256058D02*
X92193466Y23160820D01*
X92193466Y23160820D02*
X92145847Y23113200D01*
X92145847Y23113200D02*
X92050609Y23065581D01*
X92050609Y23065581D02*
X91955371Y23065581D01*
X91955371Y23065581D02*
X91860133Y23113200D01*
X91860133Y23113200D02*
X91812514Y23160820D01*
X91812514Y23160820D02*
X91764895Y23256058D01*
X91764895Y23256058D02*
X91717276Y23446534D01*
X91717276Y23446534D02*
X91717276Y23684629D01*
X91717276Y23684629D02*
X91764895Y23875105D01*
X91764895Y23875105D02*
X91812514Y23970343D01*
X91812514Y23970343D02*
X91860133Y24017962D01*
X91860133Y24017962D02*
X91955371Y24065581D01*
X12612019Y18951677D02*
X13326304Y18951677D01*
X13326304Y18951677D02*
X13469161Y18904058D01*
X13469161Y18904058D02*
X13564400Y18808820D01*
X13564400Y18808820D02*
X13612019Y18665963D01*
X13612019Y18665963D02*
X13612019Y18570725D01*
X13612019Y19951677D02*
X13612019Y19380249D01*
X13612019Y19665963D02*
X12612019Y19665963D01*
X12612019Y19665963D02*
X12754876Y19570725D01*
X12754876Y19570725D02*
X12850114Y19475487D01*
X12850114Y19475487D02*
X12897733Y19380249D01*
X12612019Y20570725D02*
X12612019Y20665963D01*
X12612019Y20665963D02*
X12659638Y20761201D01*
X12659638Y20761201D02*
X12707257Y20808820D01*
X12707257Y20808820D02*
X12802495Y20856439D01*
X12802495Y20856439D02*
X12992971Y20904058D01*
X12992971Y20904058D02*
X13231066Y20904058D01*
X13231066Y20904058D02*
X13421542Y20856439D01*
X13421542Y20856439D02*
X13516780Y20808820D01*
X13516780Y20808820D02*
X13564400Y20761201D01*
X13564400Y20761201D02*
X13612019Y20665963D01*
X13612019Y20665963D02*
X13612019Y20570725D01*
X13612019Y20570725D02*
X13564400Y20475487D01*
X13564400Y20475487D02*
X13516780Y20427868D01*
X13516780Y20427868D02*
X13421542Y20380249D01*
X13421542Y20380249D02*
X13231066Y20332630D01*
X13231066Y20332630D02*
X12992971Y20332630D01*
X12992971Y20332630D02*
X12802495Y20380249D01*
X12802495Y20380249D02*
X12707257Y20427868D01*
X12707257Y20427868D02*
X12659638Y20475487D01*
X12659638Y20475487D02*
X12612019Y20570725D01*
X33998819Y21155067D02*
X34713104Y21155067D01*
X34713104Y21155067D02*
X34855961Y21107448D01*
X34855961Y21107448D02*
X34951200Y21012210D01*
X34951200Y21012210D02*
X34998819Y20869353D01*
X34998819Y20869353D02*
X34998819Y20774115D01*
X33998819Y21536020D02*
X33998819Y22202686D01*
X33998819Y22202686D02*
X34998819Y21774115D01*
D12*
X54873571Y2448282D02*
X54450237Y3053044D01*
X54147856Y2448282D02*
X54147856Y3718282D01*
X54147856Y3718282D02*
X54631666Y3718282D01*
X54631666Y3718282D02*
X54752618Y3657806D01*
X54752618Y3657806D02*
X54813095Y3597330D01*
X54813095Y3597330D02*
X54873571Y3476378D01*
X54873571Y3476378D02*
X54873571Y3294949D01*
X54873571Y3294949D02*
X54813095Y3173997D01*
X54813095Y3173997D02*
X54752618Y3113520D01*
X54752618Y3113520D02*
X54631666Y3053044D01*
X54631666Y3053044D02*
X54147856Y3053044D01*
X55357380Y3597330D02*
X55417856Y3657806D01*
X55417856Y3657806D02*
X55538809Y3718282D01*
X55538809Y3718282D02*
X55841190Y3718282D01*
X55841190Y3718282D02*
X55962142Y3657806D01*
X55962142Y3657806D02*
X56022618Y3597330D01*
X56022618Y3597330D02*
X56083095Y3476378D01*
X56083095Y3476378D02*
X56083095Y3355425D01*
X56083095Y3355425D02*
X56022618Y3173997D01*
X56022618Y3173997D02*
X55296904Y2448282D01*
X55296904Y2448282D02*
X56083095Y2448282D01*
X56808809Y3173997D02*
X56687857Y3234473D01*
X56687857Y3234473D02*
X56627380Y3294949D01*
X56627380Y3294949D02*
X56566904Y3415901D01*
X56566904Y3415901D02*
X56566904Y3476378D01*
X56566904Y3476378D02*
X56627380Y3597330D01*
X56627380Y3597330D02*
X56687857Y3657806D01*
X56687857Y3657806D02*
X56808809Y3718282D01*
X56808809Y3718282D02*
X57050714Y3718282D01*
X57050714Y3718282D02*
X57171666Y3657806D01*
X57171666Y3657806D02*
X57232142Y3597330D01*
X57232142Y3597330D02*
X57292619Y3476378D01*
X57292619Y3476378D02*
X57292619Y3415901D01*
X57292619Y3415901D02*
X57232142Y3294949D01*
X57232142Y3294949D02*
X57171666Y3234473D01*
X57171666Y3234473D02*
X57050714Y3173997D01*
X57050714Y3173997D02*
X56808809Y3173997D01*
X56808809Y3173997D02*
X56687857Y3113520D01*
X56687857Y3113520D02*
X56627380Y3053044D01*
X56627380Y3053044D02*
X56566904Y2932092D01*
X56566904Y2932092D02*
X56566904Y2690187D01*
X56566904Y2690187D02*
X56627380Y2569235D01*
X56627380Y2569235D02*
X56687857Y2508758D01*
X56687857Y2508758D02*
X56808809Y2448282D01*
X56808809Y2448282D02*
X57050714Y2448282D01*
X57050714Y2448282D02*
X57171666Y2508758D01*
X57171666Y2508758D02*
X57232142Y2569235D01*
X57232142Y2569235D02*
X57292619Y2690187D01*
X57292619Y2690187D02*
X57292619Y2932092D01*
X57292619Y2932092D02*
X57232142Y3053044D01*
X57232142Y3053044D02*
X57171666Y3113520D01*
X57171666Y3113520D02*
X57050714Y3173997D01*
%TO.C,J1*%
D10*
X44879000Y11382000D02*
X50879000Y11382000D01*
X50879000Y382000D01*
X44879000Y382000D01*
X44879000Y11382000D01*
%TO.C,J3*%
X67600000Y11262000D02*
X73600000Y11262000D01*
X73600000Y262000D01*
X67600000Y262000D01*
X67600000Y11262000D01*
%TO.C,J2*%
X60500000Y11302000D02*
X66500000Y11302000D01*
X66500000Y302000D01*
X60500000Y302000D01*
X60500000Y11302000D01*
%TO.C,J6*%
X90484000Y11342000D02*
X96484000Y11342000D01*
X96484000Y342000D01*
X90484000Y342000D01*
X90484000Y11342000D01*
D13*
%TO.C,D6*%
X95152000Y15366000D02*
X95152000Y12066000D01*
X95152000Y15366000D02*
X100552000Y15366000D01*
X95152000Y12066000D02*
X100552000Y12066000D01*
%TO.C,D1*%
X65757000Y15366000D02*
X60357000Y15366000D01*
X65757000Y12066000D02*
X60357000Y12066000D01*
X65757000Y12066000D02*
X65757000Y15366000D01*
%TO.C,J5*%
D10*
X82598000Y11302000D02*
X88598000Y11302000D01*
X88598000Y302000D01*
X82598000Y302000D01*
X82598000Y11302000D01*
D13*
%TO.C,C4*%
X77020000Y24531563D02*
X77020000Y22646000D01*
X77020000Y24531563D02*
X78084437Y25596000D01*
X77020000Y18140437D02*
X77020000Y20026000D01*
X77020000Y18140437D02*
X78084437Y17076000D01*
X78084437Y25596000D02*
X85540000Y25596000D01*
X78084437Y17076000D02*
X85540000Y17076000D01*
X85540000Y25596000D02*
X85540000Y22646000D01*
X85540000Y17076000D02*
X85540000Y20026000D01*
%TO.C,J11*%
D10*
X97584000Y11342000D02*
X103584000Y11342000D01*
X103584000Y342000D01*
X97584000Y342000D01*
X97584000Y11342000D01*
D13*
%TO.C,D5*%
X94650000Y15366000D02*
X89250000Y15366000D01*
X94650000Y12066000D02*
X89250000Y12066000D01*
X94650000Y12066000D02*
X94650000Y15366000D01*
%TO.C,J4*%
D10*
X75498000Y11302000D02*
X81498000Y11302000D01*
X81498000Y302000D01*
X75498000Y302000D01*
X75498000Y11302000D01*
D13*
%TO.C,D10*%
X51889200Y10100200D02*
X51889200Y5800200D01*
X51889200Y10100200D02*
X57589200Y10100200D01*
X51889200Y5800200D02*
X57589200Y5800200D01*
%TO.C,J8*%
X17161200Y21631600D02*
X17161200Y22961600D01*
X18491200Y21631600D02*
X17161200Y21631600D01*
X19761200Y24291600D02*
X24901200Y24291600D01*
X19761200Y21631600D02*
X19761200Y24291600D01*
X19761200Y21631600D02*
X24901200Y21631600D01*
X24901200Y21631600D02*
X24901200Y24291600D01*
%TO.C,J9*%
X1591000Y17992400D02*
X1591000Y12792400D01*
X11811000Y17992400D02*
X1591000Y17992400D01*
X11811000Y17992400D02*
X11811000Y15392400D01*
X11811000Y15392400D02*
X14411000Y15392400D01*
X13081000Y17992400D02*
X14411000Y17992400D01*
X14411000Y17992400D02*
X14411000Y16662400D01*
X14411000Y15392400D02*
X14411000Y12792400D01*
X14411000Y12792400D02*
X1591000Y12792400D01*
%TO.C,D3*%
X80235000Y15366000D02*
X74835000Y15366000D01*
X80235000Y12066000D02*
X74835000Y12066000D01*
X80235000Y12066000D02*
X80235000Y15366000D01*
D10*
%TO.C,H2*%
X108865562Y14224000D02*
G75*
G02*
X102462438Y14224000I-3201562J0D01*
G01*
X102462438Y14224000D02*
G75*
G02*
X108865562Y14224000I3201562J0D01*
G01*
D13*
%TO.C,D4*%
X80674000Y15366000D02*
X80674000Y12066000D01*
X80674000Y15366000D02*
X86074000Y15366000D01*
X80674000Y12066000D02*
X86074000Y12066000D01*
%TO.C,C2*%
X61990000Y24531563D02*
X61990000Y22646000D01*
X61990000Y24531563D02*
X63054437Y25596000D01*
X61990000Y18140437D02*
X61990000Y20026000D01*
X61990000Y18140437D02*
X63054437Y17076000D01*
X63054437Y25596000D02*
X70510000Y25596000D01*
X63054437Y17076000D02*
X70510000Y17076000D01*
X70510000Y25596000D02*
X70510000Y22646000D01*
X70510000Y17076000D02*
X70510000Y20026000D01*
%TO.C,D2*%
X66196000Y15366000D02*
X66196000Y12066000D01*
X66196000Y15366000D02*
X71596000Y15366000D01*
X66196000Y12066000D02*
X71596000Y12066000D01*
%TO.C,C10*%
X92710400Y24531563D02*
X92710400Y22646000D01*
X92710400Y24531563D02*
X93774837Y25596000D01*
X92710400Y18140437D02*
X92710400Y20026000D01*
X92710400Y18140437D02*
X93774837Y17076000D01*
X93774837Y25596000D02*
X101230400Y25596000D01*
X93774837Y17076000D02*
X101230400Y17076000D01*
X101230400Y25596000D02*
X101230400Y22646000D01*
X101230400Y17076000D02*
X101230400Y20026000D01*
%TO.C,J10*%
X1591000Y24367800D02*
X1591000Y21707800D01*
X11811000Y24367800D02*
X1591000Y24367800D01*
X11811000Y24367800D02*
X11811000Y21707800D01*
X11811000Y21707800D02*
X1591000Y21707800D01*
X13081000Y24367800D02*
X14411000Y24367800D01*
X14411000Y24367800D02*
X14411000Y23037800D01*
%TO.C,J7*%
X28769000Y25392400D02*
X28769000Y24589930D01*
X28769000Y23974870D02*
X28769000Y23172400D01*
X33784000Y25392400D02*
X28769000Y25392400D01*
X33784000Y25392400D02*
X33784000Y24845871D01*
X33784000Y23718929D02*
X33784000Y23172400D01*
X33784000Y23172400D02*
X28769000Y23172400D01*
X34544000Y25392400D02*
X35304000Y25392400D01*
X35304000Y25392400D02*
X35304000Y24282400D01*
D10*
%TO.C,R28*%
X50990000Y3657600D02*
X50990000Y3657600D01*
X51090000Y3657600D02*
X51090000Y3657600D01*
D14*
X54090000Y4612600D02*
X57890000Y4612600D01*
X57290000Y1432600D02*
X53490000Y1432600D01*
D10*
X50990000Y3657600D02*
G75*
G02*
X51090000Y3657600I50000J0D01*
G01*
X51090000Y3657600D02*
G75*
G02*
X50990000Y3657600I-50000J0D01*
G01*
%TD*%
M02*
