%TF.GenerationSoftware,KiCad,Pcbnew,9.0.5*%
%TF.CreationDate,2026-04-07T19:45:10+02:00*%
%TF.ProjectId,Fotodiody,466f746f-6469-46f6-9479-2e6b69636164,rev?*%
%TF.SameCoordinates,Original*%
%TF.FileFunction,Legend,Bot*%
%TF.FilePolarity,Positive*%
%FSLAX46Y46*%
G04 Gerber Fmt 4.6, Leading zero omitted, Abs format (unit mm)*
G04 Created by KiCad (PCBNEW 9.0.5) date 2026-04-07 19:45:10*
%MOMM*%
%LPD*%
G01*
G04 APERTURE LIST*
%ADD10C,0.187500*%
%ADD11C,0.300000*%
G04 APERTURE END LIST*
D10*
X153838768Y-106195450D02*
X153695911Y-106243069D01*
X153695911Y-106243069D02*
X153457816Y-106243069D01*
X153457816Y-106243069D02*
X153362578Y-106195450D01*
X153362578Y-106195450D02*
X153314959Y-106147830D01*
X153314959Y-106147830D02*
X153267340Y-106052592D01*
X153267340Y-106052592D02*
X153267340Y-105957354D01*
X153267340Y-105957354D02*
X153314959Y-105862116D01*
X153314959Y-105862116D02*
X153362578Y-105814497D01*
X153362578Y-105814497D02*
X153457816Y-105766878D01*
X153457816Y-105766878D02*
X153648292Y-105719259D01*
X153648292Y-105719259D02*
X153743530Y-105671640D01*
X153743530Y-105671640D02*
X153791149Y-105624021D01*
X153791149Y-105624021D02*
X153838768Y-105528783D01*
X153838768Y-105528783D02*
X153838768Y-105433545D01*
X153838768Y-105433545D02*
X153791149Y-105338307D01*
X153791149Y-105338307D02*
X153743530Y-105290688D01*
X153743530Y-105290688D02*
X153648292Y-105243069D01*
X153648292Y-105243069D02*
X153410197Y-105243069D01*
X153410197Y-105243069D02*
X153267340Y-105290688D01*
X153743530Y-104862116D02*
X153553054Y-105004973D01*
X153553054Y-105004973D02*
X153362578Y-104862116D01*
X152838768Y-106147830D02*
X152791149Y-106195450D01*
X152791149Y-106195450D02*
X152838768Y-106243069D01*
X152838768Y-106243069D02*
X152886387Y-106195450D01*
X152886387Y-106195450D02*
X152838768Y-106147830D01*
X152838768Y-106147830D02*
X152838768Y-106243069D01*
X152362578Y-106243069D02*
X152362578Y-105243069D01*
X152362578Y-105243069D02*
X152124483Y-105243069D01*
X152124483Y-105243069D02*
X151981626Y-105290688D01*
X151981626Y-105290688D02*
X151886388Y-105385926D01*
X151886388Y-105385926D02*
X151838769Y-105481164D01*
X151838769Y-105481164D02*
X151791150Y-105671640D01*
X151791150Y-105671640D02*
X151791150Y-105814497D01*
X151791150Y-105814497D02*
X151838769Y-106004973D01*
X151838769Y-106004973D02*
X151886388Y-106100211D01*
X151886388Y-106100211D02*
X151981626Y-106195450D01*
X151981626Y-106195450D02*
X152124483Y-106243069D01*
X152124483Y-106243069D02*
X152362578Y-106243069D01*
X151362578Y-106147830D02*
X151314959Y-106195450D01*
X151314959Y-106195450D02*
X151362578Y-106243069D01*
X151362578Y-106243069D02*
X151410197Y-106195450D01*
X151410197Y-106195450D02*
X151362578Y-106147830D01*
X151362578Y-106147830D02*
X151362578Y-106243069D01*
X150172102Y-105338307D02*
X150124483Y-105290688D01*
X150124483Y-105290688D02*
X150029245Y-105243069D01*
X150029245Y-105243069D02*
X149791150Y-105243069D01*
X149791150Y-105243069D02*
X149695912Y-105290688D01*
X149695912Y-105290688D02*
X149648293Y-105338307D01*
X149648293Y-105338307D02*
X149600674Y-105433545D01*
X149600674Y-105433545D02*
X149600674Y-105528783D01*
X149600674Y-105528783D02*
X149648293Y-105671640D01*
X149648293Y-105671640D02*
X150219721Y-106243069D01*
X150219721Y-106243069D02*
X149600674Y-106243069D01*
X148981626Y-105243069D02*
X148886388Y-105243069D01*
X148886388Y-105243069D02*
X148791150Y-105290688D01*
X148791150Y-105290688D02*
X148743531Y-105338307D01*
X148743531Y-105338307D02*
X148695912Y-105433545D01*
X148695912Y-105433545D02*
X148648293Y-105624021D01*
X148648293Y-105624021D02*
X148648293Y-105862116D01*
X148648293Y-105862116D02*
X148695912Y-106052592D01*
X148695912Y-106052592D02*
X148743531Y-106147830D01*
X148743531Y-106147830D02*
X148791150Y-106195450D01*
X148791150Y-106195450D02*
X148886388Y-106243069D01*
X148886388Y-106243069D02*
X148981626Y-106243069D01*
X148981626Y-106243069D02*
X149076864Y-106195450D01*
X149076864Y-106195450D02*
X149124483Y-106147830D01*
X149124483Y-106147830D02*
X149172102Y-106052592D01*
X149172102Y-106052592D02*
X149219721Y-105862116D01*
X149219721Y-105862116D02*
X149219721Y-105624021D01*
X149219721Y-105624021D02*
X149172102Y-105433545D01*
X149172102Y-105433545D02*
X149124483Y-105338307D01*
X149124483Y-105338307D02*
X149076864Y-105290688D01*
X149076864Y-105290688D02*
X148981626Y-105243069D01*
X148267340Y-105338307D02*
X148219721Y-105290688D01*
X148219721Y-105290688D02*
X148124483Y-105243069D01*
X148124483Y-105243069D02*
X147886388Y-105243069D01*
X147886388Y-105243069D02*
X147791150Y-105290688D01*
X147791150Y-105290688D02*
X147743531Y-105338307D01*
X147743531Y-105338307D02*
X147695912Y-105433545D01*
X147695912Y-105433545D02*
X147695912Y-105528783D01*
X147695912Y-105528783D02*
X147743531Y-105671640D01*
X147743531Y-105671640D02*
X148314959Y-106243069D01*
X148314959Y-106243069D02*
X147695912Y-106243069D01*
X146838769Y-105243069D02*
X147029245Y-105243069D01*
X147029245Y-105243069D02*
X147124483Y-105290688D01*
X147124483Y-105290688D02*
X147172102Y-105338307D01*
X147172102Y-105338307D02*
X147267340Y-105481164D01*
X147267340Y-105481164D02*
X147314959Y-105671640D01*
X147314959Y-105671640D02*
X147314959Y-106052592D01*
X147314959Y-106052592D02*
X147267340Y-106147830D01*
X147267340Y-106147830D02*
X147219721Y-106195450D01*
X147219721Y-106195450D02*
X147124483Y-106243069D01*
X147124483Y-106243069D02*
X146934007Y-106243069D01*
X146934007Y-106243069D02*
X146838769Y-106195450D01*
X146838769Y-106195450D02*
X146791150Y-106147830D01*
X146791150Y-106147830D02*
X146743531Y-106052592D01*
X146743531Y-106052592D02*
X146743531Y-105814497D01*
X146743531Y-105814497D02*
X146791150Y-105719259D01*
X146791150Y-105719259D02*
X146838769Y-105671640D01*
X146838769Y-105671640D02*
X146934007Y-105624021D01*
X146934007Y-105624021D02*
X147124483Y-105624021D01*
X147124483Y-105624021D02*
X147219721Y-105671640D01*
X147219721Y-105671640D02*
X147267340Y-105719259D01*
X147267340Y-105719259D02*
X147314959Y-105814497D01*
D11*
X154298689Y-104326028D02*
X154298689Y-102826028D01*
X154298689Y-102826028D02*
X153798689Y-103897457D01*
X153798689Y-103897457D02*
X153298689Y-102826028D01*
X153298689Y-102826028D02*
X153298689Y-104326028D01*
X151727260Y-104183171D02*
X151798688Y-104254600D01*
X151798688Y-104254600D02*
X152012974Y-104326028D01*
X152012974Y-104326028D02*
X152155831Y-104326028D01*
X152155831Y-104326028D02*
X152370117Y-104254600D01*
X152370117Y-104254600D02*
X152512974Y-104111742D01*
X152512974Y-104111742D02*
X152584403Y-103968885D01*
X152584403Y-103968885D02*
X152655831Y-103683171D01*
X152655831Y-103683171D02*
X152655831Y-103468885D01*
X152655831Y-103468885D02*
X152584403Y-103183171D01*
X152584403Y-103183171D02*
X152512974Y-103040314D01*
X152512974Y-103040314D02*
X152370117Y-102897457D01*
X152370117Y-102897457D02*
X152155831Y-102826028D01*
X152155831Y-102826028D02*
X152012974Y-102826028D01*
X152012974Y-102826028D02*
X151798688Y-102897457D01*
X151798688Y-102897457D02*
X151727260Y-102968885D01*
X151084403Y-104326028D02*
X151084403Y-102826028D01*
X151084403Y-102826028D02*
X150512974Y-102826028D01*
X150512974Y-102826028D02*
X150370117Y-102897457D01*
X150370117Y-102897457D02*
X150298688Y-102968885D01*
X150298688Y-102968885D02*
X150227260Y-103111742D01*
X150227260Y-103111742D02*
X150227260Y-103326028D01*
X150227260Y-103326028D02*
X150298688Y-103468885D01*
X150298688Y-103468885D02*
X150370117Y-103540314D01*
X150370117Y-103540314D02*
X150512974Y-103611742D01*
X150512974Y-103611742D02*
X151084403Y-103611742D01*
X148941546Y-102826028D02*
X149227260Y-102826028D01*
X149227260Y-102826028D02*
X149370117Y-102897457D01*
X149370117Y-102897457D02*
X149441546Y-102968885D01*
X149441546Y-102968885D02*
X149584403Y-103183171D01*
X149584403Y-103183171D02*
X149655831Y-103468885D01*
X149655831Y-103468885D02*
X149655831Y-104040314D01*
X149655831Y-104040314D02*
X149584403Y-104183171D01*
X149584403Y-104183171D02*
X149512974Y-104254600D01*
X149512974Y-104254600D02*
X149370117Y-104326028D01*
X149370117Y-104326028D02*
X149084403Y-104326028D01*
X149084403Y-104326028D02*
X148941546Y-104254600D01*
X148941546Y-104254600D02*
X148870117Y-104183171D01*
X148870117Y-104183171D02*
X148798688Y-104040314D01*
X148798688Y-104040314D02*
X148798688Y-103683171D01*
X148798688Y-103683171D02*
X148870117Y-103540314D01*
X148870117Y-103540314D02*
X148941546Y-103468885D01*
X148941546Y-103468885D02*
X149084403Y-103397457D01*
X149084403Y-103397457D02*
X149370117Y-103397457D01*
X149370117Y-103397457D02*
X149512974Y-103468885D01*
X149512974Y-103468885D02*
X149584403Y-103540314D01*
X149584403Y-103540314D02*
X149655831Y-103683171D01*
X147870117Y-102826028D02*
X147727260Y-102826028D01*
X147727260Y-102826028D02*
X147584403Y-102897457D01*
X147584403Y-102897457D02*
X147512975Y-102968885D01*
X147512975Y-102968885D02*
X147441546Y-103111742D01*
X147441546Y-103111742D02*
X147370117Y-103397457D01*
X147370117Y-103397457D02*
X147370117Y-103754600D01*
X147370117Y-103754600D02*
X147441546Y-104040314D01*
X147441546Y-104040314D02*
X147512975Y-104183171D01*
X147512975Y-104183171D02*
X147584403Y-104254600D01*
X147584403Y-104254600D02*
X147727260Y-104326028D01*
X147727260Y-104326028D02*
X147870117Y-104326028D01*
X147870117Y-104326028D02*
X148012975Y-104254600D01*
X148012975Y-104254600D02*
X148084403Y-104183171D01*
X148084403Y-104183171D02*
X148155832Y-104040314D01*
X148155832Y-104040314D02*
X148227260Y-103754600D01*
X148227260Y-103754600D02*
X148227260Y-103397457D01*
X148227260Y-103397457D02*
X148155832Y-103111742D01*
X148155832Y-103111742D02*
X148084403Y-102968885D01*
X148084403Y-102968885D02*
X148012975Y-102897457D01*
X148012975Y-102897457D02*
X147870117Y-102826028D01*
X146441546Y-102826028D02*
X146298689Y-102826028D01*
X146298689Y-102826028D02*
X146155832Y-102897457D01*
X146155832Y-102897457D02*
X146084404Y-102968885D01*
X146084404Y-102968885D02*
X146012975Y-103111742D01*
X146012975Y-103111742D02*
X145941546Y-103397457D01*
X145941546Y-103397457D02*
X145941546Y-103754600D01*
X145941546Y-103754600D02*
X146012975Y-104040314D01*
X146012975Y-104040314D02*
X146084404Y-104183171D01*
X146084404Y-104183171D02*
X146155832Y-104254600D01*
X146155832Y-104254600D02*
X146298689Y-104326028D01*
X146298689Y-104326028D02*
X146441546Y-104326028D01*
X146441546Y-104326028D02*
X146584404Y-104254600D01*
X146584404Y-104254600D02*
X146655832Y-104183171D01*
X146655832Y-104183171D02*
X146727261Y-104040314D01*
X146727261Y-104040314D02*
X146798689Y-103754600D01*
X146798689Y-103754600D02*
X146798689Y-103397457D01*
X146798689Y-103397457D02*
X146727261Y-103111742D01*
X146727261Y-103111742D02*
X146655832Y-102968885D01*
X146655832Y-102968885D02*
X146584404Y-102897457D01*
X146584404Y-102897457D02*
X146441546Y-102826028D01*
X145370118Y-102968885D02*
X145298690Y-102897457D01*
X145298690Y-102897457D02*
X145155833Y-102826028D01*
X145155833Y-102826028D02*
X144798690Y-102826028D01*
X144798690Y-102826028D02*
X144655833Y-102897457D01*
X144655833Y-102897457D02*
X144584404Y-102968885D01*
X144584404Y-102968885D02*
X144512975Y-103111742D01*
X144512975Y-103111742D02*
X144512975Y-103254600D01*
X144512975Y-103254600D02*
X144584404Y-103468885D01*
X144584404Y-103468885D02*
X145441547Y-104326028D01*
X145441547Y-104326028D02*
X144512975Y-104326028D01*
M02*
