%TF.GenerationSoftware,KiCad,Pcbnew,9.0.5*%
%TF.CreationDate,2026-04-07T19:45:10+02:00*%
%TF.ProjectId,Fotodiody,466f746f-6469-46f6-9479-2e6b69636164,rev?*%
%TF.SameCoordinates,Original*%
%TF.FileFunction,Legend,Top*%
%TF.FilePolarity,Positive*%
%FSLAX46Y46*%
G04 Gerber Fmt 4.6, Leading zero omitted, Abs format (unit mm)*
G04 Created by KiCad (PCBNEW 9.0.5) date 2026-04-07 19:45:10*
%MOMM*%
%LPD*%
G01*
G04 APERTURE LIST*
%ADD10C,0.150000*%
%ADD11C,0.120000*%
G04 APERTURE END LIST*
D10*
X139738095Y-102204819D02*
X139738095Y-101204819D01*
X139738095Y-101681009D02*
X140309523Y-101681009D01*
X140309523Y-102204819D02*
X140309523Y-101204819D01*
X141309523Y-102204819D02*
X140738095Y-102204819D01*
X141023809Y-102204819D02*
X141023809Y-101204819D01*
X141023809Y-101204819D02*
X140928571Y-101347676D01*
X140928571Y-101347676D02*
X140833333Y-101442914D01*
X140833333Y-101442914D02*
X140738095Y-101490533D01*
X165376266Y-96913219D02*
X165376266Y-97627504D01*
X165376266Y-97627504D02*
X165328647Y-97770361D01*
X165328647Y-97770361D02*
X165233409Y-97865600D01*
X165233409Y-97865600D02*
X165090552Y-97913219D01*
X165090552Y-97913219D02*
X164995314Y-97913219D01*
X166376266Y-97913219D02*
X165804838Y-97913219D01*
X166090552Y-97913219D02*
X166090552Y-96913219D01*
X166090552Y-96913219D02*
X165995314Y-97056076D01*
X165995314Y-97056076D02*
X165900076Y-97151314D01*
X165900076Y-97151314D02*
X165804838Y-97198933D01*
X152881105Y-97609819D02*
X152881105Y-96609819D01*
X152881105Y-96609819D02*
X153119200Y-96609819D01*
X153119200Y-96609819D02*
X153262057Y-96657438D01*
X153262057Y-96657438D02*
X153357295Y-96752676D01*
X153357295Y-96752676D02*
X153404914Y-96847914D01*
X153404914Y-96847914D02*
X153452533Y-97038390D01*
X153452533Y-97038390D02*
X153452533Y-97181247D01*
X153452533Y-97181247D02*
X153404914Y-97371723D01*
X153404914Y-97371723D02*
X153357295Y-97466961D01*
X153357295Y-97466961D02*
X153262057Y-97562200D01*
X153262057Y-97562200D02*
X153119200Y-97609819D01*
X153119200Y-97609819D02*
X152881105Y-97609819D01*
X153833486Y-96705057D02*
X153881105Y-96657438D01*
X153881105Y-96657438D02*
X153976343Y-96609819D01*
X153976343Y-96609819D02*
X154214438Y-96609819D01*
X154214438Y-96609819D02*
X154309676Y-96657438D01*
X154309676Y-96657438D02*
X154357295Y-96705057D01*
X154357295Y-96705057D02*
X154404914Y-96800295D01*
X154404914Y-96800295D02*
X154404914Y-96895533D01*
X154404914Y-96895533D02*
X154357295Y-97038390D01*
X154357295Y-97038390D02*
X153785867Y-97609819D01*
X153785867Y-97609819D02*
X154404914Y-97609819D01*
X156283819Y-106541866D02*
X155807628Y-106875199D01*
X156283819Y-107113294D02*
X155283819Y-107113294D01*
X155283819Y-107113294D02*
X155283819Y-106732342D01*
X155283819Y-106732342D02*
X155331438Y-106637104D01*
X155331438Y-106637104D02*
X155379057Y-106589485D01*
X155379057Y-106589485D02*
X155474295Y-106541866D01*
X155474295Y-106541866D02*
X155617152Y-106541866D01*
X155617152Y-106541866D02*
X155712390Y-106589485D01*
X155712390Y-106589485D02*
X155760009Y-106637104D01*
X155760009Y-106637104D02*
X155807628Y-106732342D01*
X155807628Y-106732342D02*
X155807628Y-107113294D01*
X155379057Y-106160913D02*
X155331438Y-106113294D01*
X155331438Y-106113294D02*
X155283819Y-106018056D01*
X155283819Y-106018056D02*
X155283819Y-105779961D01*
X155283819Y-105779961D02*
X155331438Y-105684723D01*
X155331438Y-105684723D02*
X155379057Y-105637104D01*
X155379057Y-105637104D02*
X155474295Y-105589485D01*
X155474295Y-105589485D02*
X155569533Y-105589485D01*
X155569533Y-105589485D02*
X155712390Y-105637104D01*
X155712390Y-105637104D02*
X156283819Y-106208532D01*
X156283819Y-106208532D02*
X156283819Y-105589485D01*
X145082419Y-102147666D02*
X144606228Y-102480999D01*
X145082419Y-102719094D02*
X144082419Y-102719094D01*
X144082419Y-102719094D02*
X144082419Y-102338142D01*
X144082419Y-102338142D02*
X144130038Y-102242904D01*
X144130038Y-102242904D02*
X144177657Y-102195285D01*
X144177657Y-102195285D02*
X144272895Y-102147666D01*
X144272895Y-102147666D02*
X144415752Y-102147666D01*
X144415752Y-102147666D02*
X144510990Y-102195285D01*
X144510990Y-102195285D02*
X144558609Y-102242904D01*
X144558609Y-102242904D02*
X144606228Y-102338142D01*
X144606228Y-102338142D02*
X144606228Y-102719094D01*
X145082419Y-101195285D02*
X145082419Y-101766713D01*
X145082419Y-101480999D02*
X144082419Y-101480999D01*
X144082419Y-101480999D02*
X144225276Y-101576237D01*
X144225276Y-101576237D02*
X144320514Y-101671475D01*
X144320514Y-101671475D02*
X144368133Y-101766713D01*
X160310533Y-99769819D02*
X159977200Y-99293628D01*
X159739105Y-99769819D02*
X159739105Y-98769819D01*
X159739105Y-98769819D02*
X160120057Y-98769819D01*
X160120057Y-98769819D02*
X160215295Y-98817438D01*
X160215295Y-98817438D02*
X160262914Y-98865057D01*
X160262914Y-98865057D02*
X160310533Y-98960295D01*
X160310533Y-98960295D02*
X160310533Y-99103152D01*
X160310533Y-99103152D02*
X160262914Y-99198390D01*
X160262914Y-99198390D02*
X160215295Y-99246009D01*
X160215295Y-99246009D02*
X160120057Y-99293628D01*
X160120057Y-99293628D02*
X159739105Y-99293628D01*
X160643867Y-98769819D02*
X161262914Y-98769819D01*
X161262914Y-98769819D02*
X160929581Y-99150771D01*
X160929581Y-99150771D02*
X161072438Y-99150771D01*
X161072438Y-99150771D02*
X161167676Y-99198390D01*
X161167676Y-99198390D02*
X161215295Y-99246009D01*
X161215295Y-99246009D02*
X161262914Y-99341247D01*
X161262914Y-99341247D02*
X161262914Y-99579342D01*
X161262914Y-99579342D02*
X161215295Y-99674580D01*
X161215295Y-99674580D02*
X161167676Y-99722200D01*
X161167676Y-99722200D02*
X161072438Y-99769819D01*
X161072438Y-99769819D02*
X160786724Y-99769819D01*
X160786724Y-99769819D02*
X160691486Y-99722200D01*
X160691486Y-99722200D02*
X160643867Y-99674580D01*
X156710095Y-103646419D02*
X156710095Y-102646419D01*
X156710095Y-103122609D02*
X157281523Y-103122609D01*
X157281523Y-103646419D02*
X157281523Y-102646419D01*
X157710095Y-102741657D02*
X157757714Y-102694038D01*
X157757714Y-102694038D02*
X157852952Y-102646419D01*
X157852952Y-102646419D02*
X158091047Y-102646419D01*
X158091047Y-102646419D02*
X158186285Y-102694038D01*
X158186285Y-102694038D02*
X158233904Y-102741657D01*
X158233904Y-102741657D02*
X158281523Y-102836895D01*
X158281523Y-102836895D02*
X158281523Y-102932133D01*
X158281523Y-102932133D02*
X158233904Y-103074990D01*
X158233904Y-103074990D02*
X157662476Y-103646419D01*
X157662476Y-103646419D02*
X158281523Y-103646419D01*
X155912780Y-102710366D02*
X155960400Y-102757985D01*
X155960400Y-102757985D02*
X156008019Y-102900842D01*
X156008019Y-102900842D02*
X156008019Y-102996080D01*
X156008019Y-102996080D02*
X155960400Y-103138937D01*
X155960400Y-103138937D02*
X155865161Y-103234175D01*
X155865161Y-103234175D02*
X155769923Y-103281794D01*
X155769923Y-103281794D02*
X155579447Y-103329413D01*
X155579447Y-103329413D02*
X155436590Y-103329413D01*
X155436590Y-103329413D02*
X155246114Y-103281794D01*
X155246114Y-103281794D02*
X155150876Y-103234175D01*
X155150876Y-103234175D02*
X155055638Y-103138937D01*
X155055638Y-103138937D02*
X155008019Y-102996080D01*
X155008019Y-102996080D02*
X155008019Y-102900842D01*
X155008019Y-102900842D02*
X155055638Y-102757985D01*
X155055638Y-102757985D02*
X155103257Y-102710366D01*
X156008019Y-101757985D02*
X156008019Y-102329413D01*
X156008019Y-102043699D02*
X155008019Y-102043699D01*
X155008019Y-102043699D02*
X155150876Y-102138937D01*
X155150876Y-102138937D02*
X155246114Y-102234175D01*
X155246114Y-102234175D02*
X155293733Y-102329413D01*
X143787905Y-113611819D02*
X143787905Y-112611819D01*
X143787905Y-112611819D02*
X144026000Y-112611819D01*
X144026000Y-112611819D02*
X144168857Y-112659438D01*
X144168857Y-112659438D02*
X144264095Y-112754676D01*
X144264095Y-112754676D02*
X144311714Y-112849914D01*
X144311714Y-112849914D02*
X144359333Y-113040390D01*
X144359333Y-113040390D02*
X144359333Y-113183247D01*
X144359333Y-113183247D02*
X144311714Y-113373723D01*
X144311714Y-113373723D02*
X144264095Y-113468961D01*
X144264095Y-113468961D02*
X144168857Y-113564200D01*
X144168857Y-113564200D02*
X144026000Y-113611819D01*
X144026000Y-113611819D02*
X143787905Y-113611819D01*
X145216476Y-112945152D02*
X145216476Y-113611819D01*
X144978381Y-112564200D02*
X144740286Y-113278485D01*
X144740286Y-113278485D02*
X145359333Y-113278485D01*
X157694333Y-109852619D02*
X157361000Y-109376428D01*
X157122905Y-109852619D02*
X157122905Y-108852619D01*
X157122905Y-108852619D02*
X157503857Y-108852619D01*
X157503857Y-108852619D02*
X157599095Y-108900238D01*
X157599095Y-108900238D02*
X157646714Y-108947857D01*
X157646714Y-108947857D02*
X157694333Y-109043095D01*
X157694333Y-109043095D02*
X157694333Y-109185952D01*
X157694333Y-109185952D02*
X157646714Y-109281190D01*
X157646714Y-109281190D02*
X157599095Y-109328809D01*
X157599095Y-109328809D02*
X157503857Y-109376428D01*
X157503857Y-109376428D02*
X157122905Y-109376428D01*
X158599095Y-108852619D02*
X158122905Y-108852619D01*
X158122905Y-108852619D02*
X158075286Y-109328809D01*
X158075286Y-109328809D02*
X158122905Y-109281190D01*
X158122905Y-109281190D02*
X158218143Y-109233571D01*
X158218143Y-109233571D02*
X158456238Y-109233571D01*
X158456238Y-109233571D02*
X158551476Y-109281190D01*
X158551476Y-109281190D02*
X158599095Y-109328809D01*
X158599095Y-109328809D02*
X158646714Y-109424047D01*
X158646714Y-109424047D02*
X158646714Y-109662142D01*
X158646714Y-109662142D02*
X158599095Y-109757380D01*
X158599095Y-109757380D02*
X158551476Y-109805000D01*
X158551476Y-109805000D02*
X158456238Y-109852619D01*
X158456238Y-109852619D02*
X158218143Y-109852619D01*
X158218143Y-109852619D02*
X158122905Y-109805000D01*
X158122905Y-109805000D02*
X158075286Y-109757380D01*
X152855705Y-113662619D02*
X152855705Y-112662619D01*
X152855705Y-112662619D02*
X153093800Y-112662619D01*
X153093800Y-112662619D02*
X153236657Y-112710238D01*
X153236657Y-112710238D02*
X153331895Y-112805476D01*
X153331895Y-112805476D02*
X153379514Y-112900714D01*
X153379514Y-112900714D02*
X153427133Y-113091190D01*
X153427133Y-113091190D02*
X153427133Y-113234047D01*
X153427133Y-113234047D02*
X153379514Y-113424523D01*
X153379514Y-113424523D02*
X153331895Y-113519761D01*
X153331895Y-113519761D02*
X153236657Y-113615000D01*
X153236657Y-113615000D02*
X153093800Y-113662619D01*
X153093800Y-113662619D02*
X152855705Y-113662619D01*
X153760467Y-112662619D02*
X154379514Y-112662619D01*
X154379514Y-112662619D02*
X154046181Y-113043571D01*
X154046181Y-113043571D02*
X154189038Y-113043571D01*
X154189038Y-113043571D02*
X154284276Y-113091190D01*
X154284276Y-113091190D02*
X154331895Y-113138809D01*
X154331895Y-113138809D02*
X154379514Y-113234047D01*
X154379514Y-113234047D02*
X154379514Y-113472142D01*
X154379514Y-113472142D02*
X154331895Y-113567380D01*
X154331895Y-113567380D02*
X154284276Y-113615000D01*
X154284276Y-113615000D02*
X154189038Y-113662619D01*
X154189038Y-113662619D02*
X153903324Y-113662619D01*
X153903324Y-113662619D02*
X153808086Y-113615000D01*
X153808086Y-113615000D02*
X153760467Y-113567380D01*
X148793295Y-104179019D02*
X148793295Y-104988542D01*
X148793295Y-104988542D02*
X148840914Y-105083780D01*
X148840914Y-105083780D02*
X148888533Y-105131400D01*
X148888533Y-105131400D02*
X148983771Y-105179019D01*
X148983771Y-105179019D02*
X149174247Y-105179019D01*
X149174247Y-105179019D02*
X149269485Y-105131400D01*
X149269485Y-105131400D02*
X149317104Y-105083780D01*
X149317104Y-105083780D02*
X149364723Y-104988542D01*
X149364723Y-104988542D02*
X149364723Y-104179019D01*
X150364723Y-105179019D02*
X149793295Y-105179019D01*
X150079009Y-105179019D02*
X150079009Y-104179019D01*
X150079009Y-104179019D02*
X149983771Y-104321876D01*
X149983771Y-104321876D02*
X149888533Y-104417114D01*
X149888533Y-104417114D02*
X149793295Y-104464733D01*
X144041905Y-97584419D02*
X144041905Y-96584419D01*
X144041905Y-96584419D02*
X144280000Y-96584419D01*
X144280000Y-96584419D02*
X144422857Y-96632038D01*
X144422857Y-96632038D02*
X144518095Y-96727276D01*
X144518095Y-96727276D02*
X144565714Y-96822514D01*
X144565714Y-96822514D02*
X144613333Y-97012990D01*
X144613333Y-97012990D02*
X144613333Y-97155847D01*
X144613333Y-97155847D02*
X144565714Y-97346323D01*
X144565714Y-97346323D02*
X144518095Y-97441561D01*
X144518095Y-97441561D02*
X144422857Y-97536800D01*
X144422857Y-97536800D02*
X144280000Y-97584419D01*
X144280000Y-97584419D02*
X144041905Y-97584419D01*
X145565714Y-97584419D02*
X144994286Y-97584419D01*
X145280000Y-97584419D02*
X145280000Y-96584419D01*
X145280000Y-96584419D02*
X145184762Y-96727276D01*
X145184762Y-96727276D02*
X145089524Y-96822514D01*
X145089524Y-96822514D02*
X144994286Y-96870133D01*
X157719733Y-111935419D02*
X157386400Y-111459228D01*
X157148305Y-111935419D02*
X157148305Y-110935419D01*
X157148305Y-110935419D02*
X157529257Y-110935419D01*
X157529257Y-110935419D02*
X157624495Y-110983038D01*
X157624495Y-110983038D02*
X157672114Y-111030657D01*
X157672114Y-111030657D02*
X157719733Y-111125895D01*
X157719733Y-111125895D02*
X157719733Y-111268752D01*
X157719733Y-111268752D02*
X157672114Y-111363990D01*
X157672114Y-111363990D02*
X157624495Y-111411609D01*
X157624495Y-111411609D02*
X157529257Y-111459228D01*
X157529257Y-111459228D02*
X157148305Y-111459228D01*
X158576876Y-110935419D02*
X158386400Y-110935419D01*
X158386400Y-110935419D02*
X158291162Y-110983038D01*
X158291162Y-110983038D02*
X158243543Y-111030657D01*
X158243543Y-111030657D02*
X158148305Y-111173514D01*
X158148305Y-111173514D02*
X158100686Y-111363990D01*
X158100686Y-111363990D02*
X158100686Y-111744942D01*
X158100686Y-111744942D02*
X158148305Y-111840180D01*
X158148305Y-111840180D02*
X158195924Y-111887800D01*
X158195924Y-111887800D02*
X158291162Y-111935419D01*
X158291162Y-111935419D02*
X158481638Y-111935419D01*
X158481638Y-111935419D02*
X158576876Y-111887800D01*
X158576876Y-111887800D02*
X158624495Y-111840180D01*
X158624495Y-111840180D02*
X158672114Y-111744942D01*
X158672114Y-111744942D02*
X158672114Y-111506847D01*
X158672114Y-111506847D02*
X158624495Y-111411609D01*
X158624495Y-111411609D02*
X158576876Y-111363990D01*
X158576876Y-111363990D02*
X158481638Y-111316371D01*
X158481638Y-111316371D02*
X158291162Y-111316371D01*
X158291162Y-111316371D02*
X158195924Y-111363990D01*
X158195924Y-111363990D02*
X158148305Y-111411609D01*
X158148305Y-111411609D02*
X158100686Y-111506847D01*
X160583333Y-111932019D02*
X160250000Y-111455828D01*
X160011905Y-111932019D02*
X160011905Y-110932019D01*
X160011905Y-110932019D02*
X160392857Y-110932019D01*
X160392857Y-110932019D02*
X160488095Y-110979638D01*
X160488095Y-110979638D02*
X160535714Y-111027257D01*
X160535714Y-111027257D02*
X160583333Y-111122495D01*
X160583333Y-111122495D02*
X160583333Y-111265352D01*
X160583333Y-111265352D02*
X160535714Y-111360590D01*
X160535714Y-111360590D02*
X160488095Y-111408209D01*
X160488095Y-111408209D02*
X160392857Y-111455828D01*
X160392857Y-111455828D02*
X160011905Y-111455828D01*
X161440476Y-111265352D02*
X161440476Y-111932019D01*
X161202381Y-110884400D02*
X160964286Y-111598685D01*
X160964286Y-111598685D02*
X161583333Y-111598685D01*
D11*
%TO.C,J1*%
X164379600Y-101498400D02*
X164379600Y-111718400D01*
X164379600Y-101498400D02*
X167039600Y-101498400D01*
X164379600Y-111718400D02*
X167039600Y-111718400D01*
X165709600Y-98898400D02*
X167039600Y-98898400D01*
X167039600Y-98898400D02*
X167039600Y-100228400D01*
X167039600Y-101498400D02*
X167039600Y-111718400D01*
%TO.C,D2*%
X149546800Y-99542600D02*
X149546800Y-96892600D01*
X152306800Y-96892600D02*
X149546800Y-96892600D01*
X152306800Y-99542600D02*
X149546800Y-99542600D01*
X152306800Y-99542600D02*
X152306800Y-96892600D01*
X152306800Y-100812600D02*
X152306800Y-102192600D01*
X152306800Y-102192600D02*
X150926800Y-102192600D01*
%TO.C,R2*%
X153417600Y-106602264D02*
X153417600Y-106148136D01*
X154887600Y-106602264D02*
X154887600Y-106148136D01*
%TO.C,R1*%
X144324400Y-104951264D02*
X144324400Y-104497136D01*
X145794400Y-104951264D02*
X145794400Y-104497136D01*
%TO.C,R3*%
X160250136Y-100230000D02*
X160704264Y-100230000D01*
X160250136Y-101700000D02*
X160704264Y-101700000D01*
%TO.C,C1*%
X153138200Y-102282448D02*
X153138200Y-102804952D01*
X154608200Y-102282448D02*
X154608200Y-102804952D01*
%TO.C,D4*%
X145914600Y-110363000D02*
X145914600Y-107713000D01*
X148674600Y-107713000D02*
X145914600Y-107713000D01*
X148674600Y-110363000D02*
X145914600Y-110363000D01*
X148674600Y-110363000D02*
X148674600Y-107713000D01*
X148674600Y-111633000D02*
X148674600Y-113013000D01*
X148674600Y-113013000D02*
X147294600Y-113013000D01*
%TO.C,R5*%
X154830536Y-108662800D02*
X155284664Y-108662800D01*
X154830536Y-110132800D02*
X155284664Y-110132800D01*
%TO.C,D3*%
X149521400Y-110363000D02*
X149521400Y-107713000D01*
X152281400Y-107713000D02*
X149521400Y-107713000D01*
X152281400Y-110363000D02*
X149521400Y-110363000D01*
X152281400Y-110363000D02*
X152281400Y-107713000D01*
X152281400Y-111633000D02*
X152281400Y-113013000D01*
X152281400Y-113013000D02*
X150901400Y-113013000D01*
%TO.C,U1*%
X147945200Y-103114200D02*
X151165200Y-103114200D01*
X147945200Y-103289200D02*
X147945200Y-103114200D01*
X147945200Y-106334200D02*
X147945200Y-106159200D01*
X151165200Y-103114200D02*
X151165200Y-103289200D01*
X151165200Y-106159200D02*
X151165200Y-106334200D01*
X151165200Y-106334200D02*
X147945200Y-106334200D01*
X147395200Y-103284200D02*
X147155200Y-102954200D01*
X147635200Y-102954200D01*
X147395200Y-103284200D01*
G36*
X147395200Y-103284200D02*
G01*
X147155200Y-102954200D01*
X147635200Y-102954200D01*
X147395200Y-103284200D01*
G37*
%TO.C,D1*%
X145914600Y-99568000D02*
X145914600Y-96918000D01*
X148674600Y-96918000D02*
X145914600Y-96918000D01*
X148674600Y-99568000D02*
X145914600Y-99568000D01*
X148674600Y-99568000D02*
X148674600Y-96918000D01*
X148674600Y-100838000D02*
X148674600Y-102218000D01*
X148674600Y-102218000D02*
X147294600Y-102218000D01*
%TO.C,R6*%
X154823936Y-110745600D02*
X155278064Y-110745600D01*
X154823936Y-112215600D02*
X155278064Y-112215600D01*
%TO.C,R4*%
X160522936Y-109015000D02*
X160977064Y-109015000D01*
X160522936Y-110485000D02*
X160977064Y-110485000D01*
%TD*%
M02*
