%TF.GenerationSoftware,KiCad,Pcbnew,9.0.5*%
%TF.CreationDate,2026-04-07T19:45:10+02:00*%
%TF.ProjectId,Fotodiody,466f746f-6469-46f6-9479-2e6b69636164,rev?*%
%TF.SameCoordinates,Original*%
%TF.FileFunction,Copper,L2,Bot*%
%TF.FilePolarity,Positive*%
%FSLAX46Y46*%
G04 Gerber Fmt 4.6, Leading zero omitted, Abs format (unit mm)*
G04 Created by KiCad (PCBNEW 9.0.5) date 2026-04-07 19:45:10*
%MOMM*%
%LPD*%
G01*
G04 APERTURE LIST*
%TA.AperFunction,ComponentPad*%
%ADD10C,5.600000*%
%TD*%
%TA.AperFunction,ComponentPad*%
%ADD11R,1.700000X1.700000*%
%TD*%
%TA.AperFunction,ComponentPad*%
%ADD12C,1.700000*%
%TD*%
%TA.AperFunction,ViaPad*%
%ADD13C,0.600000*%
%TD*%
%TA.AperFunction,Conductor*%
%ADD14C,0.200000*%
%TD*%
G04 APERTURE END LIST*
D10*
%TO.P,H1,1,1*%
%TO.N,GND*%
X140500000Y-105500000D03*
%TD*%
D11*
%TO.P,J1,1,Pin_1*%
%TO.N,+3V3*%
X165709600Y-100228400D03*
D12*
%TO.P,J1,2,Pin_2*%
%TO.N,GND*%
X165709600Y-102768400D03*
%TO.P,J1,3,Pin_3*%
%TO.N,/P5A*%
X165709600Y-105308400D03*
%TO.P,J1,4,Pin_4*%
%TO.N,GND*%
X165709600Y-107848400D03*
%TO.P,J1,5,Pin_5*%
%TO.N,/P6A*%
X165709600Y-110388400D03*
%TD*%
D11*
%TO.P,D2,1,A*%
%TO.N,Net-(D2-A)*%
X150926800Y-100812600D03*
D12*
%TO.P,D2,2,K*%
%TO.N,GND*%
X150926800Y-98272600D03*
%TD*%
D10*
%TO.P,H2,1,1*%
%TO.N,GND*%
X160500000Y-105500000D03*
%TD*%
D11*
%TO.P,D4,1,K*%
%TO.N,GND*%
X147294600Y-111633000D03*
D12*
%TO.P,D4,2,A*%
%TO.N,Net-(D4-A)*%
X147294600Y-109093000D03*
%TD*%
D11*
%TO.P,D3,1,K*%
%TO.N,GND*%
X150901400Y-111633000D03*
D12*
%TO.P,D3,2,A*%
%TO.N,Net-(D3-A)*%
X150901400Y-109093000D03*
%TD*%
D11*
%TO.P,D1,1,A*%
%TO.N,Net-(D1-A)*%
X147294600Y-100838000D03*
D12*
%TO.P,D1,2,K*%
%TO.N,GND*%
X147294600Y-98298000D03*
%TD*%
D13*
%TO.N,GND*%
X147250000Y-106500000D03*
X148750000Y-105000000D03*
X154000000Y-100500000D03*
X151750000Y-106500000D03*
%TO.N,/P5A*%
X163750000Y-102766000D03*
X163250000Y-101250000D03*
%TO.N,Net-(R2-Pad2)*%
X157000000Y-107000000D03*
X155250000Y-106500000D03*
%TD*%
D14*
%TO.N,/P5A*%
X163250000Y-101250000D02*
X163250000Y-102266000D01*
X163250000Y-102266000D02*
X163750000Y-102766000D01*
%TO.N,Net-(R2-Pad2)*%
X157000000Y-107000000D02*
X155750000Y-107000000D01*
X155750000Y-107000000D02*
X155250000Y-106500000D01*
%TD*%
%TA.AperFunction,Conductor*%
%TO.N,GND*%
G36*
X167442539Y-96020185D02*
G01*
X167488294Y-96072989D01*
X167499500Y-96124500D01*
X167499500Y-113875500D01*
X167479815Y-113942539D01*
X167427011Y-113988294D01*
X167375500Y-113999500D01*
X137624500Y-113999500D01*
X137557461Y-113979815D01*
X137511706Y-113927011D01*
X137500500Y-113875500D01*
X137500500Y-108986713D01*
X145944100Y-108986713D01*
X145944100Y-109199286D01*
X145969284Y-109358296D01*
X145977354Y-109409243D01*
X146009641Y-109508613D01*
X146043044Y-109611414D01*
X146139551Y-109800820D01*
X146264490Y-109972786D01*
X146378418Y-110086714D01*
X146411903Y-110148037D01*
X146406919Y-110217729D01*
X146365047Y-110273662D01*
X146334071Y-110290577D01*
X146202512Y-110339646D01*
X146202506Y-110339649D01*
X146087412Y-110425809D01*
X146087409Y-110425812D01*
X146001249Y-110540906D01*
X146001245Y-110540913D01*
X145951003Y-110675620D01*
X145951001Y-110675627D01*
X145944600Y-110735155D01*
X145944600Y-111383000D01*
X146861588Y-111383000D01*
X146828675Y-111440007D01*
X146794600Y-111567174D01*
X146794600Y-111698826D01*
X146828675Y-111825993D01*
X146861588Y-111883000D01*
X145944600Y-111883000D01*
X145944600Y-112530844D01*
X145951001Y-112590372D01*
X145951003Y-112590379D01*
X146001245Y-112725086D01*
X146001249Y-112725093D01*
X146087409Y-112840187D01*
X146087412Y-112840190D01*
X146202506Y-112926350D01*
X146202513Y-112926354D01*
X146337220Y-112976596D01*
X146337227Y-112976598D01*
X146396755Y-112982999D01*
X146396772Y-112983000D01*
X147044600Y-112983000D01*
X147044600Y-112066012D01*
X147101607Y-112098925D01*
X147228774Y-112133000D01*
X147360426Y-112133000D01*
X147487593Y-112098925D01*
X147544600Y-112066012D01*
X147544600Y-112983000D01*
X148192428Y-112983000D01*
X148192444Y-112982999D01*
X148251972Y-112976598D01*
X148251979Y-112976596D01*
X148386686Y-112926354D01*
X148386693Y-112926350D01*
X148501787Y-112840190D01*
X148501790Y-112840187D01*
X148587950Y-112725093D01*
X148587954Y-112725086D01*
X148638196Y-112590379D01*
X148638198Y-112590372D01*
X148644599Y-112530844D01*
X148644600Y-112530827D01*
X148644600Y-111883000D01*
X147727612Y-111883000D01*
X147760525Y-111825993D01*
X147794600Y-111698826D01*
X147794600Y-111567174D01*
X147760525Y-111440007D01*
X147727612Y-111383000D01*
X148644600Y-111383000D01*
X148644600Y-110735172D01*
X148644599Y-110735155D01*
X148638198Y-110675627D01*
X148638196Y-110675620D01*
X148587954Y-110540913D01*
X148587950Y-110540906D01*
X148501790Y-110425812D01*
X148501787Y-110425809D01*
X148386693Y-110339649D01*
X148386688Y-110339646D01*
X148255128Y-110290577D01*
X148199195Y-110248705D01*
X148174778Y-110183241D01*
X148189630Y-110114968D01*
X148210775Y-110086720D01*
X148324704Y-109972792D01*
X148449651Y-109800816D01*
X148546157Y-109611412D01*
X148611846Y-109409243D01*
X148645100Y-109199287D01*
X148645100Y-108986713D01*
X149550900Y-108986713D01*
X149550900Y-109199286D01*
X149576084Y-109358296D01*
X149584154Y-109409243D01*
X149616441Y-109508613D01*
X149649844Y-109611414D01*
X149746351Y-109800820D01*
X149871290Y-109972786D01*
X149985218Y-110086714D01*
X150018703Y-110148037D01*
X150013719Y-110217729D01*
X149971847Y-110273662D01*
X149940871Y-110290577D01*
X149809312Y-110339646D01*
X149809306Y-110339649D01*
X149694212Y-110425809D01*
X149694209Y-110425812D01*
X149608049Y-110540906D01*
X149608045Y-110540913D01*
X149557803Y-110675620D01*
X149557801Y-110675627D01*
X149551400Y-110735155D01*
X149551400Y-111383000D01*
X150468388Y-111383000D01*
X150435475Y-111440007D01*
X150401400Y-111567174D01*
X150401400Y-111698826D01*
X150435475Y-111825993D01*
X150468388Y-111883000D01*
X149551400Y-111883000D01*
X149551400Y-112530844D01*
X149557801Y-112590372D01*
X149557803Y-112590379D01*
X149608045Y-112725086D01*
X149608049Y-112725093D01*
X149694209Y-112840187D01*
X149694212Y-112840190D01*
X149809306Y-112926350D01*
X149809313Y-112926354D01*
X149944020Y-112976596D01*
X149944027Y-112976598D01*
X150003555Y-112982999D01*
X150003572Y-112983000D01*
X150651400Y-112983000D01*
X150651400Y-112066012D01*
X150708407Y-112098925D01*
X150835574Y-112133000D01*
X150967226Y-112133000D01*
X151094393Y-112098925D01*
X151151400Y-112066012D01*
X151151400Y-112983000D01*
X151799228Y-112983000D01*
X151799244Y-112982999D01*
X151858772Y-112976598D01*
X151858779Y-112976596D01*
X151993486Y-112926354D01*
X151993493Y-112926350D01*
X152108587Y-112840190D01*
X152108590Y-112840187D01*
X152194750Y-112725093D01*
X152194754Y-112725086D01*
X152244996Y-112590379D01*
X152244998Y-112590372D01*
X152251399Y-112530844D01*
X152251400Y-112530827D01*
X152251400Y-111883000D01*
X151334412Y-111883000D01*
X151367325Y-111825993D01*
X151401400Y-111698826D01*
X151401400Y-111567174D01*
X151367325Y-111440007D01*
X151334412Y-111383000D01*
X152251400Y-111383000D01*
X152251400Y-110735172D01*
X152251399Y-110735155D01*
X152244998Y-110675627D01*
X152244996Y-110675620D01*
X152194754Y-110540913D01*
X152194750Y-110540906D01*
X152108590Y-110425813D01*
X152052213Y-110383608D01*
X151851093Y-110285938D01*
X151829426Y-110266246D01*
X151805995Y-110248705D01*
X151803876Y-110243024D01*
X151799388Y-110238945D01*
X151791808Y-110210668D01*
X151781578Y-110183241D01*
X151782867Y-110177315D01*
X151781297Y-110171458D01*
X151790207Y-110143573D01*
X151796430Y-110114968D01*
X151801520Y-110108167D01*
X151802564Y-110104903D01*
X151806232Y-110101873D01*
X151817575Y-110086720D01*
X151931504Y-109972792D01*
X152056451Y-109800816D01*
X152152957Y-109611412D01*
X152218646Y-109409243D01*
X152251900Y-109199287D01*
X152251900Y-108986713D01*
X152218646Y-108776757D01*
X152152957Y-108574588D01*
X152056451Y-108385184D01*
X152056449Y-108385181D01*
X152056448Y-108385179D01*
X151931509Y-108213213D01*
X151781186Y-108062890D01*
X151609220Y-107937951D01*
X151419814Y-107841444D01*
X151419813Y-107841443D01*
X151419812Y-107841443D01*
X151217643Y-107775754D01*
X151217641Y-107775753D01*
X151217640Y-107775753D01*
X151056357Y-107750208D01*
X151007687Y-107742500D01*
X150795113Y-107742500D01*
X150746442Y-107750208D01*
X150585160Y-107775753D01*
X150382985Y-107841444D01*
X150193579Y-107937951D01*
X150021613Y-108062890D01*
X149871290Y-108213213D01*
X149746351Y-108385179D01*
X149649844Y-108574585D01*
X149584153Y-108776760D01*
X149550900Y-108986713D01*
X148645100Y-108986713D01*
X148611846Y-108776757D01*
X148546157Y-108574588D01*
X148449651Y-108385184D01*
X148449649Y-108385181D01*
X148449648Y-108385179D01*
X148324709Y-108213213D01*
X148174386Y-108062890D01*
X148002420Y-107937951D01*
X147813014Y-107841444D01*
X147813013Y-107841443D01*
X147813012Y-107841443D01*
X147610843Y-107775754D01*
X147610841Y-107775753D01*
X147610840Y-107775753D01*
X147449557Y-107750208D01*
X147400887Y-107742500D01*
X147188313Y-107742500D01*
X147139642Y-107750208D01*
X146978360Y-107775753D01*
X146776185Y-107841444D01*
X146586779Y-107937951D01*
X146414813Y-108062890D01*
X146264490Y-108213213D01*
X146139551Y-108385179D01*
X146043044Y-108574585D01*
X145977353Y-108776760D01*
X145944100Y-108986713D01*
X137500500Y-108986713D01*
X137500500Y-106421153D01*
X154449500Y-106421153D01*
X154449500Y-106578846D01*
X154480261Y-106733489D01*
X154480264Y-106733501D01*
X154540602Y-106879172D01*
X154540609Y-106879185D01*
X154628210Y-107010288D01*
X154628213Y-107010292D01*
X154739707Y-107121786D01*
X154739711Y-107121789D01*
X154870814Y-107209390D01*
X154870827Y-107209397D01*
X155016498Y-107269735D01*
X155016503Y-107269737D01*
X155171158Y-107300500D01*
X155171847Y-107300637D01*
X155233758Y-107333022D01*
X155235337Y-107334573D01*
X155381284Y-107480520D01*
X155381286Y-107480521D01*
X155381290Y-107480524D01*
X155470922Y-107532272D01*
X155518216Y-107559577D01*
X155670943Y-107600501D01*
X155670945Y-107600501D01*
X155836654Y-107600501D01*
X155836670Y-107600500D01*
X156420234Y-107600500D01*
X156487273Y-107620185D01*
X156489125Y-107621398D01*
X156620814Y-107709390D01*
X156620827Y-107709397D01*
X156766498Y-107769735D01*
X156766503Y-107769737D01*
X156921153Y-107800499D01*
X156921156Y-107800500D01*
X156921158Y-107800500D01*
X157078844Y-107800500D01*
X157078845Y-107800499D01*
X157233497Y-107769737D01*
X157379179Y-107709394D01*
X157510289Y-107621789D01*
X157621789Y-107510289D01*
X157709394Y-107379179D01*
X157769737Y-107233497D01*
X157800500Y-107078842D01*
X157800500Y-106921158D01*
X157800500Y-106921155D01*
X157800499Y-106921153D01*
X157769738Y-106766510D01*
X157769737Y-106766503D01*
X157755912Y-106733127D01*
X157709397Y-106620827D01*
X157709390Y-106620814D01*
X157621789Y-106489711D01*
X157621786Y-106489707D01*
X157510292Y-106378213D01*
X157510288Y-106378210D01*
X157379185Y-106290609D01*
X157379172Y-106290602D01*
X157233501Y-106230264D01*
X157233489Y-106230261D01*
X157078845Y-106199500D01*
X157078842Y-106199500D01*
X156921158Y-106199500D01*
X156921155Y-106199500D01*
X156766510Y-106230261D01*
X156766498Y-106230264D01*
X156620827Y-106290602D01*
X156620814Y-106290609D01*
X156489125Y-106378602D01*
X156422447Y-106399480D01*
X156420234Y-106399500D01*
X156147956Y-106399500D01*
X156080917Y-106379815D01*
X156035162Y-106327011D01*
X156026339Y-106299691D01*
X156019738Y-106266510D01*
X156019737Y-106266503D01*
X156019735Y-106266498D01*
X155959397Y-106120827D01*
X155959390Y-106120814D01*
X155871789Y-105989711D01*
X155871786Y-105989707D01*
X155760292Y-105878213D01*
X155760288Y-105878210D01*
X155629185Y-105790609D01*
X155629172Y-105790602D01*
X155483501Y-105730264D01*
X155483489Y-105730261D01*
X155328845Y-105699500D01*
X155328842Y-105699500D01*
X155171158Y-105699500D01*
X155171155Y-105699500D01*
X155016510Y-105730261D01*
X155016498Y-105730264D01*
X154870827Y-105790602D01*
X154870814Y-105790609D01*
X154739711Y-105878210D01*
X154739707Y-105878213D01*
X154628213Y-105989707D01*
X154628210Y-105989711D01*
X154540609Y-106120814D01*
X154540602Y-106120827D01*
X154480264Y-106266498D01*
X154480261Y-106266510D01*
X154449500Y-106421153D01*
X137500500Y-106421153D01*
X137500500Y-99940135D01*
X145944100Y-99940135D01*
X145944100Y-101735870D01*
X145944101Y-101735876D01*
X145950508Y-101795483D01*
X146000802Y-101930328D01*
X146000806Y-101930335D01*
X146087052Y-102045544D01*
X146087055Y-102045547D01*
X146202264Y-102131793D01*
X146202271Y-102131797D01*
X146337117Y-102182091D01*
X146337116Y-102182091D01*
X146344044Y-102182835D01*
X146396727Y-102188500D01*
X148192472Y-102188499D01*
X148252083Y-102182091D01*
X148386931Y-102131796D01*
X148502146Y-102045546D01*
X148588396Y-101930331D01*
X148638691Y-101795483D01*
X148645100Y-101735873D01*
X148645099Y-99940128D01*
X148642369Y-99914735D01*
X149576300Y-99914735D01*
X149576300Y-101710470D01*
X149576301Y-101710476D01*
X149582708Y-101770083D01*
X149633002Y-101904928D01*
X149633006Y-101904935D01*
X149719252Y-102020144D01*
X149719255Y-102020147D01*
X149834464Y-102106393D01*
X149834471Y-102106397D01*
X149969317Y-102156691D01*
X149969316Y-102156691D01*
X149976244Y-102157435D01*
X150028927Y-102163100D01*
X151824672Y-102163099D01*
X151884283Y-102156691D01*
X152019131Y-102106396D01*
X152134346Y-102020146D01*
X152220596Y-101904931D01*
X152270891Y-101770083D01*
X152277300Y-101710473D01*
X152277299Y-101171153D01*
X162449500Y-101171153D01*
X162449500Y-101328846D01*
X162480261Y-101483489D01*
X162480264Y-101483501D01*
X162540602Y-101629172D01*
X162540609Y-101629185D01*
X162628602Y-101760874D01*
X162649480Y-101827551D01*
X162649500Y-101829765D01*
X162649500Y-102179330D01*
X162649499Y-102179348D01*
X162649499Y-102345054D01*
X162649498Y-102345054D01*
X162649499Y-102345057D01*
X162690423Y-102497785D01*
X162710468Y-102532503D01*
X162769480Y-102634716D01*
X162881284Y-102746520D01*
X162881285Y-102746521D01*
X162903164Y-102768400D01*
X162915425Y-102780660D01*
X162948911Y-102841983D01*
X162949362Y-102844151D01*
X162980261Y-102999491D01*
X162980264Y-102999501D01*
X163040602Y-103145172D01*
X163040609Y-103145185D01*
X163128210Y-103276288D01*
X163128213Y-103276292D01*
X163239707Y-103387786D01*
X163239711Y-103387789D01*
X163370814Y-103475390D01*
X163370827Y-103475397D01*
X163502935Y-103530117D01*
X163516503Y-103535737D01*
X163671153Y-103566499D01*
X163671156Y-103566500D01*
X163671158Y-103566500D01*
X163828844Y-103566500D01*
X163828845Y-103566499D01*
X163983497Y-103535737D01*
X164129179Y-103475394D01*
X164260289Y-103387789D01*
X164305065Y-103343013D01*
X164366388Y-103309527D01*
X164436079Y-103314511D01*
X164492013Y-103356382D01*
X164503232Y-103374398D01*
X164554975Y-103475950D01*
X164594328Y-103530116D01*
X165226637Y-102897808D01*
X165243675Y-102961393D01*
X165309501Y-103075407D01*
X165402593Y-103168499D01*
X165516607Y-103234325D01*
X165580190Y-103251362D01*
X164947882Y-103883669D01*
X164947882Y-103883670D01*
X165002052Y-103923026D01*
X165002051Y-103923026D01*
X165011095Y-103927634D01*
X165061892Y-103975608D01*
X165078687Y-104043429D01*
X165056150Y-104109564D01*
X165011099Y-104148602D01*
X165001782Y-104153349D01*
X164829813Y-104278290D01*
X164679490Y-104428613D01*
X164554551Y-104600579D01*
X164458044Y-104789985D01*
X164392353Y-104992160D01*
X164359100Y-105202113D01*
X164359100Y-105414687D01*
X164392354Y-105624643D01*
X164426672Y-105730263D01*
X164458044Y-105826814D01*
X164554551Y-106016220D01*
X164679490Y-106188186D01*
X164829813Y-106338509D01*
X165001779Y-106463448D01*
X165001781Y-106463449D01*
X165001784Y-106463451D01*
X165011093Y-106468194D01*
X165061890Y-106516166D01*
X165078687Y-106583987D01*
X165056152Y-106650122D01*
X165011105Y-106689160D01*
X165002046Y-106693776D01*
X165002040Y-106693780D01*
X164947882Y-106733127D01*
X164947882Y-106733128D01*
X165580191Y-107365437D01*
X165516607Y-107382475D01*
X165402593Y-107448301D01*
X165309501Y-107541393D01*
X165243675Y-107655407D01*
X165226637Y-107718991D01*
X164594328Y-107086682D01*
X164594327Y-107086682D01*
X164554980Y-107140839D01*
X164458504Y-107330182D01*
X164392842Y-107532269D01*
X164392842Y-107532272D01*
X164359600Y-107742153D01*
X164359600Y-107954646D01*
X164392842Y-108164527D01*
X164392842Y-108164530D01*
X164458504Y-108366617D01*
X164554975Y-108555950D01*
X164594328Y-108610116D01*
X165226637Y-107977808D01*
X165243675Y-108041393D01*
X165309501Y-108155407D01*
X165402593Y-108248499D01*
X165516607Y-108314325D01*
X165580190Y-108331362D01*
X164947882Y-108963669D01*
X164947882Y-108963670D01*
X165002052Y-109003026D01*
X165002051Y-109003026D01*
X165011095Y-109007634D01*
X165061892Y-109055608D01*
X165078687Y-109123429D01*
X165056150Y-109189564D01*
X165011099Y-109228602D01*
X165001782Y-109233349D01*
X164829813Y-109358290D01*
X164679490Y-109508613D01*
X164554551Y-109680579D01*
X164458044Y-109869985D01*
X164392353Y-110072160D01*
X164359100Y-110282113D01*
X164359100Y-110494686D01*
X164392353Y-110704639D01*
X164458044Y-110906814D01*
X164554551Y-111096220D01*
X164679490Y-111268186D01*
X164829813Y-111418509D01*
X165001779Y-111543448D01*
X165001781Y-111543449D01*
X165001784Y-111543451D01*
X165191188Y-111639957D01*
X165393357Y-111705646D01*
X165603313Y-111738900D01*
X165603314Y-111738900D01*
X165815886Y-111738900D01*
X165815887Y-111738900D01*
X166025843Y-111705646D01*
X166228012Y-111639957D01*
X166417416Y-111543451D01*
X166439389Y-111527486D01*
X166589386Y-111418509D01*
X166589388Y-111418506D01*
X166589392Y-111418504D01*
X166739704Y-111268192D01*
X166739706Y-111268188D01*
X166739709Y-111268186D01*
X166864648Y-111096220D01*
X166864647Y-111096220D01*
X166864651Y-111096216D01*
X166961157Y-110906812D01*
X167026846Y-110704643D01*
X167060100Y-110494687D01*
X167060100Y-110282113D01*
X167026846Y-110072157D01*
X166961157Y-109869988D01*
X166864651Y-109680584D01*
X166864649Y-109680581D01*
X166864648Y-109680579D01*
X166739709Y-109508613D01*
X166589386Y-109358290D01*
X166417417Y-109233349D01*
X166408104Y-109228604D01*
X166357307Y-109180630D01*
X166340512Y-109112809D01*
X166363049Y-109046674D01*
X166408107Y-109007632D01*
X166417155Y-109003022D01*
X166471316Y-108963670D01*
X166471317Y-108963670D01*
X165839008Y-108331362D01*
X165902593Y-108314325D01*
X166016607Y-108248499D01*
X166109699Y-108155407D01*
X166175525Y-108041393D01*
X166192562Y-107977808D01*
X166824870Y-108610117D01*
X166824870Y-108610116D01*
X166864222Y-108555954D01*
X166960695Y-108366617D01*
X167026357Y-108164530D01*
X167026357Y-108164527D01*
X167059600Y-107954646D01*
X167059600Y-107742153D01*
X167026357Y-107532272D01*
X167026357Y-107532269D01*
X166960695Y-107330182D01*
X166864224Y-107140849D01*
X166824870Y-107086682D01*
X166824869Y-107086682D01*
X166192562Y-107718990D01*
X166175525Y-107655407D01*
X166109699Y-107541393D01*
X166016607Y-107448301D01*
X165902593Y-107382475D01*
X165839009Y-107365437D01*
X166471316Y-106733128D01*
X166417147Y-106693773D01*
X166417147Y-106693772D01*
X166408100Y-106689163D01*
X166357306Y-106641188D01*
X166340512Y-106573366D01*
X166363051Y-106507232D01*
X166408108Y-106468193D01*
X166417416Y-106463451D01*
X166532532Y-106379815D01*
X166589386Y-106338509D01*
X166589388Y-106338506D01*
X166589392Y-106338504D01*
X166739704Y-106188192D01*
X166739706Y-106188188D01*
X166739709Y-106188186D01*
X166864648Y-106016220D01*
X166864647Y-106016220D01*
X166864651Y-106016216D01*
X166961157Y-105826812D01*
X167026846Y-105624643D01*
X167060100Y-105414687D01*
X167060100Y-105202113D01*
X167026846Y-104992157D01*
X166961157Y-104789988D01*
X166864651Y-104600584D01*
X166864649Y-104600581D01*
X166864648Y-104600579D01*
X166739709Y-104428613D01*
X166589386Y-104278290D01*
X166417417Y-104153349D01*
X166408104Y-104148604D01*
X166357307Y-104100630D01*
X166340512Y-104032809D01*
X166363049Y-103966674D01*
X166408107Y-103927632D01*
X166417155Y-103923022D01*
X166471316Y-103883670D01*
X166471317Y-103883670D01*
X165839008Y-103251362D01*
X165902593Y-103234325D01*
X166016607Y-103168499D01*
X166109699Y-103075407D01*
X166175525Y-102961393D01*
X166192562Y-102897808D01*
X166824870Y-103530117D01*
X166824870Y-103530116D01*
X166864222Y-103475954D01*
X166960695Y-103286617D01*
X167026357Y-103084530D01*
X167026357Y-103084527D01*
X167059600Y-102874646D01*
X167059600Y-102662153D01*
X167026357Y-102452272D01*
X167026357Y-102452269D01*
X166960695Y-102250182D01*
X166864224Y-102060849D01*
X166824870Y-102006682D01*
X166824869Y-102006682D01*
X166192562Y-102638990D01*
X166175525Y-102575407D01*
X166109699Y-102461393D01*
X166016607Y-102368301D01*
X165902593Y-102302475D01*
X165839009Y-102285437D01*
X166509227Y-101615218D01*
X166570550Y-101581733D01*
X166596907Y-101578899D01*
X166607472Y-101578899D01*
X166667083Y-101572491D01*
X166801931Y-101522196D01*
X166917146Y-101435946D01*
X167003396Y-101320731D01*
X167053691Y-101185883D01*
X167060100Y-101126273D01*
X167060099Y-99330528D01*
X167053691Y-99270917D01*
X167003396Y-99136069D01*
X167003395Y-99136068D01*
X167003393Y-99136064D01*
X166917147Y-99020855D01*
X166917144Y-99020852D01*
X166801935Y-98934606D01*
X166801928Y-98934602D01*
X166667082Y-98884308D01*
X166667083Y-98884308D01*
X166607483Y-98877901D01*
X166607481Y-98877900D01*
X166607473Y-98877900D01*
X166607464Y-98877900D01*
X164811729Y-98877900D01*
X164811723Y-98877901D01*
X164752116Y-98884308D01*
X164617271Y-98934602D01*
X164617264Y-98934606D01*
X164502055Y-99020852D01*
X164502052Y-99020855D01*
X164415806Y-99136064D01*
X164415802Y-99136071D01*
X164365508Y-99270917D01*
X164359101Y-99330516D01*
X164359101Y-99330523D01*
X164359100Y-99330535D01*
X164359100Y-101126270D01*
X164359101Y-101126276D01*
X164365508Y-101185883D01*
X164415802Y-101320728D01*
X164415806Y-101320735D01*
X164502052Y-101435944D01*
X164502055Y-101435947D01*
X164617264Y-101522193D01*
X164617271Y-101522197D01*
X164662218Y-101538961D01*
X164752117Y-101572491D01*
X164811727Y-101578900D01*
X164822285Y-101578899D01*
X164889323Y-101598579D01*
X164909972Y-101615218D01*
X165580191Y-102285437D01*
X165516607Y-102302475D01*
X165402593Y-102368301D01*
X165309501Y-102461393D01*
X165243675Y-102575407D01*
X165226637Y-102638991D01*
X164594328Y-102006682D01*
X164594327Y-102006682D01*
X164554980Y-102060840D01*
X164554978Y-102060843D01*
X164504851Y-102159222D01*
X164456877Y-102210017D01*
X164389055Y-102226812D01*
X164322921Y-102204274D01*
X164306686Y-102190607D01*
X164260292Y-102144213D01*
X164260288Y-102144210D01*
X164129185Y-102056609D01*
X164129172Y-102056602D01*
X163983501Y-101996264D01*
X163983489Y-101996261D01*
X163950309Y-101989661D01*
X163922185Y-101974950D01*
X163893297Y-101961757D01*
X163891439Y-101958867D01*
X163888398Y-101957276D01*
X163872691Y-101929693D01*
X163855523Y-101902979D01*
X163854862Y-101898384D01*
X163853824Y-101896561D01*
X163850500Y-101868044D01*
X163850500Y-101829765D01*
X163870185Y-101762726D01*
X163871398Y-101760874D01*
X163888097Y-101735883D01*
X163959394Y-101629179D01*
X164019737Y-101483497D01*
X164050500Y-101328842D01*
X164050500Y-101171158D01*
X164050500Y-101171155D01*
X164050499Y-101171153D01*
X164041572Y-101126273D01*
X164019737Y-101016503D01*
X164019735Y-101016498D01*
X163959397Y-100870827D01*
X163959390Y-100870814D01*
X163871789Y-100739711D01*
X163871786Y-100739707D01*
X163760292Y-100628213D01*
X163760288Y-100628210D01*
X163629185Y-100540609D01*
X163629172Y-100540602D01*
X163483501Y-100480264D01*
X163483489Y-100480261D01*
X163328845Y-100449500D01*
X163328842Y-100449500D01*
X163171158Y-100449500D01*
X163171155Y-100449500D01*
X163016510Y-100480261D01*
X163016498Y-100480264D01*
X162870827Y-100540602D01*
X162870814Y-100540609D01*
X162739711Y-100628210D01*
X162739707Y-100628213D01*
X162628213Y-100739707D01*
X162628210Y-100739711D01*
X162540609Y-100870814D01*
X162540602Y-100870827D01*
X162480264Y-101016498D01*
X162480261Y-101016510D01*
X162449500Y-101171153D01*
X152277299Y-101171153D01*
X152277299Y-100739711D01*
X152277299Y-99914729D01*
X152277298Y-99914723D01*
X152277297Y-99914716D01*
X152270891Y-99855117D01*
X152230070Y-99745671D01*
X152220597Y-99720271D01*
X152220593Y-99720264D01*
X152134347Y-99605055D01*
X152134344Y-99605052D01*
X152019135Y-99518806D01*
X152019128Y-99518802D01*
X151884282Y-99468508D01*
X151884283Y-99468508D01*
X151824683Y-99462101D01*
X151824681Y-99462100D01*
X151824673Y-99462100D01*
X151824665Y-99462100D01*
X151814109Y-99462100D01*
X151784668Y-99453455D01*
X151754682Y-99446932D01*
X151749666Y-99443177D01*
X151747070Y-99442415D01*
X151726428Y-99425781D01*
X151715534Y-99414887D01*
X151056208Y-98755562D01*
X151119793Y-98738525D01*
X151233807Y-98672699D01*
X151326899Y-98579607D01*
X151392725Y-98465593D01*
X151409762Y-98402008D01*
X152042070Y-99034317D01*
X152042070Y-99034316D01*
X152081422Y-98980154D01*
X152177895Y-98790817D01*
X152243557Y-98588730D01*
X152243557Y-98588727D01*
X152276800Y-98378846D01*
X152276800Y-98166353D01*
X152243557Y-97956472D01*
X152243557Y-97956469D01*
X152177895Y-97754382D01*
X152081424Y-97565049D01*
X152042070Y-97510882D01*
X152042069Y-97510882D01*
X151409762Y-98143190D01*
X151392725Y-98079607D01*
X151326899Y-97965593D01*
X151233807Y-97872501D01*
X151119793Y-97806675D01*
X151056209Y-97789637D01*
X151688516Y-97157328D01*
X151634350Y-97117975D01*
X151445017Y-97021504D01*
X151242929Y-96955842D01*
X151033046Y-96922600D01*
X150820554Y-96922600D01*
X150610672Y-96955842D01*
X150610669Y-96955842D01*
X150408582Y-97021504D01*
X150219239Y-97117980D01*
X150165082Y-97157327D01*
X150165082Y-97157328D01*
X150797391Y-97789637D01*
X150733807Y-97806675D01*
X150619793Y-97872501D01*
X150526701Y-97965593D01*
X150460875Y-98079607D01*
X150443837Y-98143191D01*
X149811528Y-97510882D01*
X149811527Y-97510882D01*
X149772180Y-97565039D01*
X149675704Y-97754382D01*
X149610042Y-97956469D01*
X149610042Y-97956472D01*
X149576800Y-98166353D01*
X149576800Y-98378846D01*
X149610042Y-98588727D01*
X149610042Y-98588730D01*
X149675704Y-98790817D01*
X149772175Y-98980150D01*
X149811528Y-99034316D01*
X150443837Y-98402008D01*
X150460875Y-98465593D01*
X150526701Y-98579607D01*
X150619793Y-98672699D01*
X150733807Y-98738525D01*
X150797390Y-98755562D01*
X150127170Y-99425781D01*
X150065847Y-99459266D01*
X150039498Y-99462100D01*
X150028934Y-99462100D01*
X150028923Y-99462101D01*
X149969316Y-99468508D01*
X149834471Y-99518802D01*
X149834464Y-99518806D01*
X149719255Y-99605052D01*
X149719252Y-99605055D01*
X149633006Y-99720264D01*
X149633002Y-99720271D01*
X149582708Y-99855117D01*
X149576301Y-99914716D01*
X149576301Y-99914723D01*
X149576300Y-99914735D01*
X148642369Y-99914735D01*
X148638691Y-99880517D01*
X148629217Y-99855117D01*
X148588397Y-99745671D01*
X148588393Y-99745664D01*
X148502147Y-99630455D01*
X148502144Y-99630452D01*
X148386935Y-99544206D01*
X148386928Y-99544202D01*
X148252082Y-99493908D01*
X148252083Y-99493908D01*
X148192483Y-99487501D01*
X148192481Y-99487500D01*
X148192473Y-99487500D01*
X148192465Y-99487500D01*
X148181909Y-99487500D01*
X148114870Y-99467815D01*
X148094228Y-99451181D01*
X147424008Y-98780962D01*
X147487593Y-98763925D01*
X147601607Y-98698099D01*
X147694699Y-98605007D01*
X147760525Y-98490993D01*
X147777562Y-98427408D01*
X148409870Y-99059717D01*
X148409870Y-99059716D01*
X148449222Y-99005554D01*
X148545695Y-98816217D01*
X148611357Y-98614130D01*
X148611357Y-98614127D01*
X148644600Y-98404246D01*
X148644600Y-98191756D01*
X148642877Y-98180876D01*
X148642877Y-98180874D01*
X148611357Y-97981872D01*
X148611357Y-97981869D01*
X148545695Y-97779782D01*
X148449224Y-97590449D01*
X148409870Y-97536282D01*
X148409869Y-97536282D01*
X147777562Y-98168590D01*
X147760525Y-98105007D01*
X147694699Y-97990993D01*
X147601607Y-97897901D01*
X147487593Y-97832075D01*
X147424009Y-97815037D01*
X148056316Y-97182728D01*
X148002150Y-97143375D01*
X147812817Y-97046904D01*
X147610729Y-96981242D01*
X147400846Y-96948000D01*
X147188354Y-96948000D01*
X146978472Y-96981242D01*
X146978469Y-96981242D01*
X146776382Y-97046904D01*
X146587039Y-97143380D01*
X146532882Y-97182727D01*
X146532882Y-97182728D01*
X147165191Y-97815037D01*
X147101607Y-97832075D01*
X146987593Y-97897901D01*
X146894501Y-97990993D01*
X146828675Y-98105007D01*
X146811637Y-98168591D01*
X146179328Y-97536282D01*
X146179327Y-97536282D01*
X146139980Y-97590439D01*
X146043504Y-97779782D01*
X145977842Y-97981869D01*
X145977842Y-97981872D01*
X145944600Y-98191753D01*
X145944600Y-98404246D01*
X145977842Y-98614127D01*
X145977842Y-98614130D01*
X146043504Y-98816217D01*
X146139975Y-99005550D01*
X146179328Y-99059716D01*
X146811637Y-98427408D01*
X146828675Y-98490993D01*
X146894501Y-98605007D01*
X146987593Y-98698099D01*
X147101607Y-98763925D01*
X147165190Y-98780962D01*
X146494970Y-99451181D01*
X146433647Y-99484666D01*
X146407298Y-99487500D01*
X146396734Y-99487500D01*
X146396723Y-99487501D01*
X146337116Y-99493908D01*
X146202271Y-99544202D01*
X146202264Y-99544206D01*
X146087055Y-99630452D01*
X146087052Y-99630455D01*
X146000806Y-99745664D01*
X146000802Y-99745671D01*
X145950508Y-99880517D01*
X145944101Y-99940116D01*
X145944100Y-99940135D01*
X137500500Y-99940135D01*
X137500500Y-96124500D01*
X137520185Y-96057461D01*
X137572989Y-96011706D01*
X137624500Y-96000500D01*
X167375500Y-96000500D01*
X167442539Y-96020185D01*
G37*
%TD.AperFunction*%
%TD*%
M02*
