%TF.GenerationSoftware,KiCad,Pcbnew,9.0.5*%
%TF.CreationDate,2026-04-07T19:45:10+02:00*%
%TF.ProjectId,Fotodiody,466f746f-6469-46f6-9479-2e6b69636164,rev?*%
%TF.SameCoordinates,Original*%
%TF.FileFunction,Copper,L1,Top*%
%TF.FilePolarity,Positive*%
%FSLAX46Y46*%
G04 Gerber Fmt 4.6, Leading zero omitted, Abs format (unit mm)*
G04 Created by KiCad (PCBNEW 9.0.5) date 2026-04-07 19:45:10*
%MOMM*%
%LPD*%
G01*
G04 APERTURE LIST*
G04 Aperture macros list*
%AMRoundRect*
0 Rectangle with rounded corners*
0 $1 Rounding radius*
0 $2 $3 $4 $5 $6 $7 $8 $9 X,Y pos of 4 corners*
0 Add a 4 corners polygon primitive as box body*
4,1,4,$2,$3,$4,$5,$6,$7,$8,$9,$2,$3,0*
0 Add four circle primitives for the rounded corners*
1,1,$1+$1,$2,$3*
1,1,$1+$1,$4,$5*
1,1,$1+$1,$6,$7*
1,1,$1+$1,$8,$9*
0 Add four rect primitives between the rounded corners*
20,1,$1+$1,$2,$3,$4,$5,0*
20,1,$1+$1,$4,$5,$6,$7,0*
20,1,$1+$1,$6,$7,$8,$9,0*
20,1,$1+$1,$8,$9,$2,$3,0*%
G04 Aperture macros list end*
%TA.AperFunction,ComponentPad*%
%ADD10C,5.600000*%
%TD*%
%TA.AperFunction,ComponentPad*%
%ADD11R,1.700000X1.700000*%
%TD*%
%TA.AperFunction,ComponentPad*%
%ADD12C,1.700000*%
%TD*%
%TA.AperFunction,SMDPad,CuDef*%
%ADD13RoundRect,0.250000X0.450000X-0.350000X0.450000X0.350000X-0.450000X0.350000X-0.450000X-0.350000X0*%
%TD*%
%TA.AperFunction,SMDPad,CuDef*%
%ADD14RoundRect,0.250000X-0.350000X-0.450000X0.350000X-0.450000X0.350000X0.450000X-0.350000X0.450000X0*%
%TD*%
%TA.AperFunction,SMDPad,CuDef*%
%ADD15RoundRect,0.250000X-0.475000X0.337500X-0.475000X-0.337500X0.475000X-0.337500X0.475000X0.337500X0*%
%TD*%
%TA.AperFunction,SMDPad,CuDef*%
%ADD16RoundRect,0.100000X-0.712500X-0.100000X0.712500X-0.100000X0.712500X0.100000X-0.712500X0.100000X0*%
%TD*%
%TA.AperFunction,ViaPad*%
%ADD17C,0.600000*%
%TD*%
%TA.AperFunction,Conductor*%
%ADD18C,0.400000*%
%TD*%
%TA.AperFunction,Conductor*%
%ADD19C,0.200000*%
%TD*%
G04 APERTURE END LIST*
D10*
%TO.P,H1,1,1*%
%TO.N,GND*%
X140500000Y-105500000D03*
%TD*%
D11*
%TO.P,J1,1,Pin_1*%
%TO.N,+3V3*%
X165709600Y-100228400D03*
D12*
%TO.P,J1,2,Pin_2*%
%TO.N,GND*%
X165709600Y-102768400D03*
%TO.P,J1,3,Pin_3*%
%TO.N,/P5A*%
X165709600Y-105308400D03*
%TO.P,J1,4,Pin_4*%
%TO.N,GND*%
X165709600Y-107848400D03*
%TO.P,J1,5,Pin_5*%
%TO.N,/P6A*%
X165709600Y-110388400D03*
%TD*%
D11*
%TO.P,D2,1,A*%
%TO.N,Net-(D2-A)*%
X150926800Y-100812600D03*
D12*
%TO.P,D2,2,K*%
%TO.N,GND*%
X150926800Y-98272600D03*
%TD*%
D13*
%TO.P,R2,1*%
%TO.N,Net-(D2-A)*%
X154152600Y-107375200D03*
%TO.P,R2,2*%
%TO.N,Net-(R2-Pad2)*%
X154152600Y-105375200D03*
%TD*%
%TO.P,R1,1*%
%TO.N,Net-(D1-A)*%
X145059400Y-105724200D03*
%TO.P,R1,2*%
%TO.N,Net-(R1-Pad2)*%
X145059400Y-103724200D03*
%TD*%
D14*
%TO.P,R3,1*%
%TO.N,Net-(R1-Pad2)*%
X159477200Y-100965000D03*
%TO.P,R3,2*%
%TO.N,/P5A*%
X161477200Y-100965000D03*
%TD*%
D10*
%TO.P,H2,1,1*%
%TO.N,GND*%
X160500000Y-105500000D03*
%TD*%
D15*
%TO.P,C1,1*%
%TO.N,GND*%
X153873200Y-101506200D03*
%TO.P,C1,2*%
%TO.N,+3V3*%
X153873200Y-103581200D03*
%TD*%
D11*
%TO.P,D4,1,K*%
%TO.N,GND*%
X147294600Y-111633000D03*
D12*
%TO.P,D4,2,A*%
%TO.N,Net-(D4-A)*%
X147294600Y-109093000D03*
%TD*%
D14*
%TO.P,R5,1*%
%TO.N,Net-(D3-A)*%
X154057600Y-109397800D03*
%TO.P,R5,2*%
%TO.N,+3V3*%
X156057600Y-109397800D03*
%TD*%
D11*
%TO.P,D3,1,K*%
%TO.N,GND*%
X150901400Y-111633000D03*
D12*
%TO.P,D3,2,A*%
%TO.N,Net-(D3-A)*%
X150901400Y-109093000D03*
%TD*%
D16*
%TO.P,U1,1*%
%TO.N,Net-(R1-Pad2)*%
X147442700Y-103749200D03*
%TO.P,U1,2,-*%
%TO.N,Net-(D1-A)*%
X147442700Y-104399200D03*
%TO.P,U1,3,+*%
%TO.N,GND*%
X147442700Y-105049200D03*
%TO.P,U1,4,V-*%
X147442700Y-105699200D03*
%TO.P,U1,5,+*%
X151667700Y-105699200D03*
%TO.P,U1,6,-*%
%TO.N,Net-(D2-A)*%
X151667700Y-105049200D03*
%TO.P,U1,7*%
%TO.N,Net-(R2-Pad2)*%
X151667700Y-104399200D03*
%TO.P,U1,8,V+*%
%TO.N,+3V3*%
X151667700Y-103749200D03*
%TD*%
D11*
%TO.P,D1,1,A*%
%TO.N,Net-(D1-A)*%
X147294600Y-100838000D03*
D12*
%TO.P,D1,2,K*%
%TO.N,GND*%
X147294600Y-98298000D03*
%TD*%
D14*
%TO.P,R6,1*%
%TO.N,Net-(D4-A)*%
X154051000Y-111480600D03*
%TO.P,R6,2*%
%TO.N,+3V3*%
X156051000Y-111480600D03*
%TD*%
%TO.P,R4,1*%
%TO.N,Net-(R2-Pad2)*%
X159750000Y-109750000D03*
%TO.P,R4,2*%
%TO.N,/P6A*%
X161750000Y-109750000D03*
%TD*%
D17*
%TO.N,GND*%
X147250000Y-106500000D03*
X148750000Y-105000000D03*
X154000000Y-100500000D03*
X151750000Y-106500000D03*
%TO.N,/P5A*%
X163750000Y-102766000D03*
X163250000Y-101250000D03*
%TO.N,Net-(R2-Pad2)*%
X157000000Y-107000000D03*
X155250000Y-106500000D03*
%TD*%
D18*
%TO.N,+3V3*%
X156057600Y-111474000D02*
X156051000Y-111480600D01*
X153705200Y-103749200D02*
X153873200Y-103581200D01*
D19*
X153873200Y-103581200D02*
X153974800Y-103581200D01*
D18*
X156057600Y-109397800D02*
X156057600Y-111474000D01*
D19*
X153974800Y-103581200D02*
X154035000Y-103641400D01*
D18*
X155388400Y-102066000D02*
X153873200Y-103581200D01*
X163872000Y-102066000D02*
X156057600Y-102066000D01*
X151667700Y-103749200D02*
X153705200Y-103749200D01*
X156057600Y-102066000D02*
X155388400Y-102066000D01*
X165709600Y-100228400D02*
X163872000Y-102066000D01*
X156057600Y-109397800D02*
X156057600Y-102066000D01*
%TO.N,GND*%
X147442700Y-106307300D02*
X147250000Y-106500000D01*
X151667700Y-105699200D02*
X151667700Y-106417700D01*
X147442700Y-105699200D02*
X147442700Y-106307300D01*
X151667700Y-105699200D02*
X147442700Y-105699200D01*
X148700800Y-105049200D02*
X148750000Y-105000000D01*
X147442700Y-105049200D02*
X148700800Y-105049200D01*
X153873200Y-100626800D02*
X154000000Y-100500000D01*
X151667700Y-106417700D02*
X151750000Y-106500000D01*
D19*
X165707200Y-102766000D02*
X165709600Y-102768400D01*
D18*
X147442700Y-105699200D02*
X147442700Y-105049200D01*
X153873200Y-101506200D02*
X153873200Y-100626800D01*
D19*
%TO.N,Net-(D1-A)*%
X147294600Y-100965000D02*
X148725000Y-102395400D01*
X148473070Y-104399200D02*
X147442700Y-104399200D01*
X148725000Y-102395400D02*
X148725000Y-104147270D01*
X146384400Y-104399200D02*
X147442700Y-104399200D01*
X147294600Y-100838000D02*
X147294600Y-100965000D01*
X145059400Y-105724200D02*
X146384400Y-104399200D01*
X148725000Y-104147270D02*
X148473070Y-104399200D01*
%TO.N,Net-(D2-A)*%
X150325000Y-104518999D02*
X150855201Y-105049200D01*
X150749000Y-100812600D02*
X150325000Y-101236600D01*
X153151600Y-105637701D02*
X153151600Y-106374200D01*
X151667700Y-105049200D02*
X152563099Y-105049200D01*
X152563099Y-105049200D02*
X153151600Y-105637701D01*
X150855201Y-105049200D02*
X151667700Y-105049200D01*
X150325000Y-101236600D02*
X150325000Y-104518999D01*
X150926800Y-100812600D02*
X150749000Y-100812600D01*
X153151600Y-106374200D02*
X154152600Y-107375200D01*
%TO.N,Net-(D3-A)*%
X154057600Y-109397800D02*
X151206200Y-109397800D01*
X151206200Y-109397800D02*
X150901400Y-109093000D01*
%TO.N,Net-(D4-A)*%
X152895400Y-110325000D02*
X148526600Y-110325000D01*
X154051000Y-111480600D02*
X152895400Y-110325000D01*
X148526600Y-110325000D02*
X147294600Y-109093000D01*
%TO.N,/P6A*%
X165709600Y-110388400D02*
X162388400Y-110388400D01*
X162388400Y-110388400D02*
X161750000Y-109750000D01*
%TO.N,/P5A*%
X161477200Y-100965000D02*
X162965000Y-100965000D01*
X163750000Y-102766000D02*
X163750000Y-103348800D01*
X162965000Y-100965000D02*
X163250000Y-101250000D01*
X163750000Y-103348800D02*
X165709600Y-105308400D01*
%TO.N,Net-(R1-Pad2)*%
X147417700Y-103724200D02*
X147442700Y-103749200D01*
X145059400Y-103724200D02*
X147417700Y-103724200D01*
X145059400Y-100771200D02*
X146330600Y-99500000D01*
X146330600Y-99500000D02*
X158012200Y-99500000D01*
X158012200Y-99500000D02*
X159477200Y-100965000D01*
X145059400Y-103724200D02*
X145059400Y-100771200D01*
%TO.N,Net-(R2-Pad2)*%
X159750000Y-109750000D02*
X157000000Y-107000000D01*
X152480199Y-104399200D02*
X153456199Y-105375200D01*
X155250000Y-106500000D02*
X155250000Y-106472600D01*
X153456199Y-105375200D02*
X154152600Y-105375200D01*
X155250000Y-106472600D02*
X154152600Y-105375200D01*
X151667700Y-104399200D02*
X152480199Y-104399200D01*
%TD*%
M02*
