M48
; DRILL file {KiCad 9.0.5} date 2026-04-07T19:45:15+0200
; FORMAT={-:-/ absolute / metric / decimal}
; #@! TF.CreationDate,2026-04-07T19:45:15+02:00
; #@! TF.GenerationSoftware,Kicad,Pcbnew,9.0.5
; #@! TF.FileFunction,Plated,1,2,PTH
FMAT,2
METRIC
; #@! TA.AperFunction,Plated,PTH,ViaDrill
T1C0.300
; #@! TA.AperFunction,Plated,PTH,ComponentDrill
T2C1.000
; #@! TA.AperFunction,Plated,PTH,ComponentDrill
T3C3.200
%
G90
G05
T1
X147.25Y-106.5
X148.75Y-105.0
X151.75Y-106.5
X154.0Y-100.5
X155.25Y-106.5
X157.0Y-107.0
X163.25Y-101.25
X163.75Y-102.766
T2
X147.295Y-98.298
X147.295Y-100.838
X147.295Y-109.093
X147.295Y-111.633
X150.901Y-109.093
X150.901Y-111.633
X150.927Y-98.273
X150.927Y-100.813
X165.71Y-100.228
X165.71Y-102.768
X165.71Y-105.308
X165.71Y-107.848
X165.71Y-110.388
T3
X140.5Y-105.5
X160.5Y-105.5
M30
