%TF.GenerationSoftware,KiCad,Pcbnew,9.0.5*%
%TF.CreationDate,2026-04-07T19:45:10+02:00*%
%TF.ProjectId,Fotodiody,466f746f-6469-46f6-9479-2e6b69636164,rev?*%
%TF.SameCoordinates,Original*%
%TF.FileFunction,Soldermask,Top*%
%TF.FilePolarity,Negative*%
%FSLAX46Y46*%
G04 Gerber Fmt 4.6, Leading zero omitted, Abs format (unit mm)*
G04 Created by KiCad (PCBNEW 9.0.5) date 2026-04-07 19:45:10*
%MOMM*%
%LPD*%
G01*
G04 APERTURE LIST*
G04 Aperture macros list*
%AMRoundRect*
0 Rectangle with rounded corners*
0 $1 Rounding radius*
0 $2 $3 $4 $5 $6 $7 $8 $9 X,Y pos of 4 corners*
0 Add a 4 corners polygon primitive as box body*
4,1,4,$2,$3,$4,$5,$6,$7,$8,$9,$2,$3,0*
0 Add four circle primitives for the rounded corners*
1,1,$1+$1,$2,$3*
1,1,$1+$1,$4,$5*
1,1,$1+$1,$6,$7*
1,1,$1+$1,$8,$9*
0 Add four rect primitives between the rounded corners*
20,1,$1+$1,$2,$3,$4,$5,0*
20,1,$1+$1,$4,$5,$6,$7,0*
20,1,$1+$1,$6,$7,$8,$9,0*
20,1,$1+$1,$8,$9,$2,$3,0*%
G04 Aperture macros list end*
%ADD10C,5.600000*%
%ADD11R,1.700000X1.700000*%
%ADD12C,1.700000*%
%ADD13RoundRect,0.250000X0.450000X-0.350000X0.450000X0.350000X-0.450000X0.350000X-0.450000X-0.350000X0*%
%ADD14RoundRect,0.250000X-0.350000X-0.450000X0.350000X-0.450000X0.350000X0.450000X-0.350000X0.450000X0*%
%ADD15RoundRect,0.250000X-0.475000X0.337500X-0.475000X-0.337500X0.475000X-0.337500X0.475000X0.337500X0*%
%ADD16RoundRect,0.100000X-0.712500X-0.100000X0.712500X-0.100000X0.712500X0.100000X-0.712500X0.100000X0*%
G04 APERTURE END LIST*
D10*
%TO.C,H1*%
X140500000Y-105500000D03*
%TD*%
D11*
%TO.C,J1*%
X165709600Y-100228400D03*
D12*
X165709600Y-102768400D03*
X165709600Y-105308400D03*
X165709600Y-107848400D03*
X165709600Y-110388400D03*
%TD*%
D11*
%TO.C,D2*%
X150926800Y-100812600D03*
D12*
X150926800Y-98272600D03*
%TD*%
D13*
%TO.C,R2*%
X154152600Y-107375200D03*
X154152600Y-105375200D03*
%TD*%
%TO.C,R1*%
X145059400Y-105724200D03*
X145059400Y-103724200D03*
%TD*%
D14*
%TO.C,R3*%
X159477200Y-100965000D03*
X161477200Y-100965000D03*
%TD*%
D10*
%TO.C,H2*%
X160500000Y-105500000D03*
%TD*%
D15*
%TO.C,C1*%
X153873200Y-101506200D03*
X153873200Y-103581200D03*
%TD*%
D11*
%TO.C,D4*%
X147294600Y-111633000D03*
D12*
X147294600Y-109093000D03*
%TD*%
D14*
%TO.C,R5*%
X154057600Y-109397800D03*
X156057600Y-109397800D03*
%TD*%
D11*
%TO.C,D3*%
X150901400Y-111633000D03*
D12*
X150901400Y-109093000D03*
%TD*%
D16*
%TO.C,U1*%
X147442700Y-103749200D03*
X147442700Y-104399200D03*
X147442700Y-105049200D03*
X147442700Y-105699200D03*
X151667700Y-105699200D03*
X151667700Y-105049200D03*
X151667700Y-104399200D03*
X151667700Y-103749200D03*
%TD*%
D11*
%TO.C,D1*%
X147294600Y-100838000D03*
D12*
X147294600Y-98298000D03*
%TD*%
D14*
%TO.C,R6*%
X154051000Y-111480600D03*
X156051000Y-111480600D03*
%TD*%
%TO.C,R4*%
X159750000Y-109750000D03*
X161750000Y-109750000D03*
%TD*%
M02*
