%TF.GenerationSoftware,KiCad,Pcbnew,9.0.5*%
%TF.CreationDate,2026-04-07T19:41:47+02:00*%
%TF.ProjectId,AS5304A,41533533-3034-4412-9e6b-696361645f70,rev?*%
%TF.SameCoordinates,Original*%
%TF.FileFunction,Legend,Top*%
%TF.FilePolarity,Positive*%
%FSLAX46Y46*%
G04 Gerber Fmt 4.6, Leading zero omitted, Abs format (unit mm)*
G04 Created by KiCad (PCBNEW 9.0.5) date 2026-04-07 19:41:47*
%MOMM*%
%LPD*%
G01*
G04 APERTURE LIST*
%ADD10C,0.150000*%
%ADD11C,0.254000*%
%ADD12C,0.120000*%
%ADD13C,0.200000*%
G04 APERTURE END LIST*
D10*
X127488095Y-71204819D02*
X127488095Y-70204819D01*
X127488095Y-70681009D02*
X128059523Y-70681009D01*
X128059523Y-71204819D02*
X128059523Y-70204819D01*
X129059523Y-71204819D02*
X128488095Y-71204819D01*
X128773809Y-71204819D02*
X128773809Y-70204819D01*
X128773809Y-70204819D02*
X128678571Y-70347676D01*
X128678571Y-70347676D02*
X128583333Y-70442914D01*
X128583333Y-70442914D02*
X128488095Y-70490533D01*
X137704819Y-75666666D02*
X137228628Y-75999999D01*
X137704819Y-76238094D02*
X136704819Y-76238094D01*
X136704819Y-76238094D02*
X136704819Y-75857142D01*
X136704819Y-75857142D02*
X136752438Y-75761904D01*
X136752438Y-75761904D02*
X136800057Y-75714285D01*
X136800057Y-75714285D02*
X136895295Y-75666666D01*
X136895295Y-75666666D02*
X137038152Y-75666666D01*
X137038152Y-75666666D02*
X137133390Y-75714285D01*
X137133390Y-75714285D02*
X137181009Y-75761904D01*
X137181009Y-75761904D02*
X137228628Y-75857142D01*
X137228628Y-75857142D02*
X137228628Y-76238094D01*
X137704819Y-74714285D02*
X137704819Y-75285713D01*
X137704819Y-74999999D02*
X136704819Y-74999999D01*
X136704819Y-74999999D02*
X136847676Y-75095237D01*
X136847676Y-75095237D02*
X136942914Y-75190475D01*
X136942914Y-75190475D02*
X136990533Y-75285713D01*
X130124819Y-69333333D02*
X130839104Y-69333333D01*
X130839104Y-69333333D02*
X130981961Y-69380952D01*
X130981961Y-69380952D02*
X131077200Y-69476190D01*
X131077200Y-69476190D02*
X131124819Y-69619047D01*
X131124819Y-69619047D02*
X131124819Y-69714285D01*
X131124819Y-68333333D02*
X131124819Y-68904761D01*
X131124819Y-68619047D02*
X130124819Y-68619047D01*
X130124819Y-68619047D02*
X130267676Y-68714285D01*
X130267676Y-68714285D02*
X130362914Y-68809523D01*
X130362914Y-68809523D02*
X130410533Y-68904761D01*
X149988095Y-85254819D02*
X149988095Y-84254819D01*
X149988095Y-84731009D02*
X150559523Y-84731009D01*
X150559523Y-85254819D02*
X150559523Y-84254819D01*
X151464285Y-84588152D02*
X151464285Y-85254819D01*
X151226190Y-84207200D02*
X150988095Y-84921485D01*
X150988095Y-84921485D02*
X151607142Y-84921485D01*
X126988095Y-85204819D02*
X126988095Y-84204819D01*
X126988095Y-84681009D02*
X127559523Y-84681009D01*
X127559523Y-85204819D02*
X127559523Y-84204819D01*
X127940476Y-84204819D02*
X128559523Y-84204819D01*
X128559523Y-84204819D02*
X128226190Y-84585771D01*
X128226190Y-84585771D02*
X128369047Y-84585771D01*
X128369047Y-84585771D02*
X128464285Y-84633390D01*
X128464285Y-84633390D02*
X128511904Y-84681009D01*
X128511904Y-84681009D02*
X128559523Y-84776247D01*
X128559523Y-84776247D02*
X128559523Y-85014342D01*
X128559523Y-85014342D02*
X128511904Y-85109580D01*
X128511904Y-85109580D02*
X128464285Y-85157200D01*
X128464285Y-85157200D02*
X128369047Y-85204819D01*
X128369047Y-85204819D02*
X128083333Y-85204819D01*
X128083333Y-85204819D02*
X127988095Y-85157200D01*
X127988095Y-85157200D02*
X127940476Y-85109580D01*
X148738095Y-70954819D02*
X148738095Y-69954819D01*
X148738095Y-70431009D02*
X149309523Y-70431009D01*
X149309523Y-70954819D02*
X149309523Y-69954819D01*
X149738095Y-70050057D02*
X149785714Y-70002438D01*
X149785714Y-70002438D02*
X149880952Y-69954819D01*
X149880952Y-69954819D02*
X150119047Y-69954819D01*
X150119047Y-69954819D02*
X150214285Y-70002438D01*
X150214285Y-70002438D02*
X150261904Y-70050057D01*
X150261904Y-70050057D02*
X150309523Y-70145295D01*
X150309523Y-70145295D02*
X150309523Y-70240533D01*
X150309523Y-70240533D02*
X150261904Y-70383390D01*
X150261904Y-70383390D02*
X149690476Y-70954819D01*
X149690476Y-70954819D02*
X150309523Y-70954819D01*
D11*
X140824318Y-81989762D02*
X139554318Y-81989762D01*
X140703365Y-80659285D02*
X140763842Y-80719761D01*
X140763842Y-80719761D02*
X140824318Y-80901190D01*
X140824318Y-80901190D02*
X140824318Y-81022142D01*
X140824318Y-81022142D02*
X140763842Y-81203571D01*
X140763842Y-81203571D02*
X140642889Y-81324523D01*
X140642889Y-81324523D02*
X140521937Y-81385000D01*
X140521937Y-81385000D02*
X140280032Y-81445476D01*
X140280032Y-81445476D02*
X140098603Y-81445476D01*
X140098603Y-81445476D02*
X139856699Y-81385000D01*
X139856699Y-81385000D02*
X139735746Y-81324523D01*
X139735746Y-81324523D02*
X139614794Y-81203571D01*
X139614794Y-81203571D02*
X139554318Y-81022142D01*
X139554318Y-81022142D02*
X139554318Y-80901190D01*
X139554318Y-80901190D02*
X139614794Y-80719761D01*
X139614794Y-80719761D02*
X139675270Y-80659285D01*
X140824318Y-79449761D02*
X140824318Y-80175476D01*
X140824318Y-79812619D02*
X139554318Y-79812619D01*
X139554318Y-79812619D02*
X139735746Y-79933571D01*
X139735746Y-79933571D02*
X139856699Y-80054523D01*
X139856699Y-80054523D02*
X139917175Y-80175476D01*
D12*
%TO.C,R1*%
X134340000Y-76727064D02*
X134340000Y-75272936D01*
X136160000Y-76727064D02*
X136160000Y-75272936D01*
%TO.C,J1*%
X131670000Y-70380000D02*
X131670000Y-69000000D01*
X133050000Y-70380000D02*
X131670000Y-70380000D01*
X134320000Y-67620000D02*
X147130000Y-67620000D01*
X134320000Y-70380000D02*
X134320000Y-67620000D01*
X134320000Y-70380000D02*
X147130000Y-70380000D01*
X147130000Y-70380000D02*
X147130000Y-67620000D01*
D13*
%TO.C,IC1*%
X137000000Y-78900000D02*
X143500000Y-78900000D01*
X137000000Y-82600000D02*
X137000000Y-78900000D01*
X143500000Y-78900000D02*
X143500000Y-82600000D01*
X143500000Y-82600000D02*
X137000000Y-82600000D01*
X143750000Y-77075000D02*
X143750000Y-78550000D01*
%TD*%
M02*
