%TF.GenerationSoftware,KiCad,Pcbnew,9.0.5*%
%TF.CreationDate,2026-04-07T19:41:48+02:00*%
%TF.ProjectId,AS5304A,41533533-3034-4412-9e6b-696361645f70,rev?*%
%TF.SameCoordinates,Original*%
%TF.FileFunction,Legend,Bot*%
%TF.FilePolarity,Positive*%
%FSLAX46Y46*%
G04 Gerber Fmt 4.6, Leading zero omitted, Abs format (unit mm)*
G04 Created by KiCad (PCBNEW 9.0.5) date 2026-04-07 19:41:48*
%MOMM*%
%LPD*%
G01*
G04 APERTURE LIST*
%ADD10C,0.100000*%
%ADD11C,0.200000*%
%ADD12C,0.150000*%
%ADD13C,0.120000*%
G04 APERTURE END LIST*
D10*
X144493734Y-82324800D02*
X144350877Y-82372419D01*
X144350877Y-82372419D02*
X144112782Y-82372419D01*
X144112782Y-82372419D02*
X144017544Y-82324800D01*
X144017544Y-82324800D02*
X143969925Y-82277180D01*
X143969925Y-82277180D02*
X143922306Y-82181942D01*
X143922306Y-82181942D02*
X143922306Y-82086704D01*
X143922306Y-82086704D02*
X143969925Y-81991466D01*
X143969925Y-81991466D02*
X144017544Y-81943847D01*
X144017544Y-81943847D02*
X144112782Y-81896228D01*
X144112782Y-81896228D02*
X144303258Y-81848609D01*
X144303258Y-81848609D02*
X144398496Y-81800990D01*
X144398496Y-81800990D02*
X144446115Y-81753371D01*
X144446115Y-81753371D02*
X144493734Y-81658133D01*
X144493734Y-81658133D02*
X144493734Y-81562895D01*
X144493734Y-81562895D02*
X144446115Y-81467657D01*
X144446115Y-81467657D02*
X144398496Y-81420038D01*
X144398496Y-81420038D02*
X144303258Y-81372419D01*
X144303258Y-81372419D02*
X144065163Y-81372419D01*
X144065163Y-81372419D02*
X143922306Y-81420038D01*
X144398496Y-80991466D02*
X144208020Y-81134323D01*
X144208020Y-81134323D02*
X144017544Y-80991466D01*
X143493734Y-82277180D02*
X143446115Y-82324800D01*
X143446115Y-82324800D02*
X143493734Y-82372419D01*
X143493734Y-82372419D02*
X143541353Y-82324800D01*
X143541353Y-82324800D02*
X143493734Y-82277180D01*
X143493734Y-82277180D02*
X143493734Y-82372419D01*
X143017544Y-82372419D02*
X143017544Y-81372419D01*
X143017544Y-81372419D02*
X142779449Y-81372419D01*
X142779449Y-81372419D02*
X142636592Y-81420038D01*
X142636592Y-81420038D02*
X142541354Y-81515276D01*
X142541354Y-81515276D02*
X142493735Y-81610514D01*
X142493735Y-81610514D02*
X142446116Y-81800990D01*
X142446116Y-81800990D02*
X142446116Y-81943847D01*
X142446116Y-81943847D02*
X142493735Y-82134323D01*
X142493735Y-82134323D02*
X142541354Y-82229561D01*
X142541354Y-82229561D02*
X142636592Y-82324800D01*
X142636592Y-82324800D02*
X142779449Y-82372419D01*
X142779449Y-82372419D02*
X143017544Y-82372419D01*
X142017544Y-82277180D02*
X141969925Y-82324800D01*
X141969925Y-82324800D02*
X142017544Y-82372419D01*
X142017544Y-82372419D02*
X142065163Y-82324800D01*
X142065163Y-82324800D02*
X142017544Y-82277180D01*
X142017544Y-82277180D02*
X142017544Y-82372419D01*
X140827068Y-81467657D02*
X140779449Y-81420038D01*
X140779449Y-81420038D02*
X140684211Y-81372419D01*
X140684211Y-81372419D02*
X140446116Y-81372419D01*
X140446116Y-81372419D02*
X140350878Y-81420038D01*
X140350878Y-81420038D02*
X140303259Y-81467657D01*
X140303259Y-81467657D02*
X140255640Y-81562895D01*
X140255640Y-81562895D02*
X140255640Y-81658133D01*
X140255640Y-81658133D02*
X140303259Y-81800990D01*
X140303259Y-81800990D02*
X140874687Y-82372419D01*
X140874687Y-82372419D02*
X140255640Y-82372419D01*
X139636592Y-81372419D02*
X139541354Y-81372419D01*
X139541354Y-81372419D02*
X139446116Y-81420038D01*
X139446116Y-81420038D02*
X139398497Y-81467657D01*
X139398497Y-81467657D02*
X139350878Y-81562895D01*
X139350878Y-81562895D02*
X139303259Y-81753371D01*
X139303259Y-81753371D02*
X139303259Y-81991466D01*
X139303259Y-81991466D02*
X139350878Y-82181942D01*
X139350878Y-82181942D02*
X139398497Y-82277180D01*
X139398497Y-82277180D02*
X139446116Y-82324800D01*
X139446116Y-82324800D02*
X139541354Y-82372419D01*
X139541354Y-82372419D02*
X139636592Y-82372419D01*
X139636592Y-82372419D02*
X139731830Y-82324800D01*
X139731830Y-82324800D02*
X139779449Y-82277180D01*
X139779449Y-82277180D02*
X139827068Y-82181942D01*
X139827068Y-82181942D02*
X139874687Y-81991466D01*
X139874687Y-81991466D02*
X139874687Y-81753371D01*
X139874687Y-81753371D02*
X139827068Y-81562895D01*
X139827068Y-81562895D02*
X139779449Y-81467657D01*
X139779449Y-81467657D02*
X139731830Y-81420038D01*
X139731830Y-81420038D02*
X139636592Y-81372419D01*
X138922306Y-81467657D02*
X138874687Y-81420038D01*
X138874687Y-81420038D02*
X138779449Y-81372419D01*
X138779449Y-81372419D02*
X138541354Y-81372419D01*
X138541354Y-81372419D02*
X138446116Y-81420038D01*
X138446116Y-81420038D02*
X138398497Y-81467657D01*
X138398497Y-81467657D02*
X138350878Y-81562895D01*
X138350878Y-81562895D02*
X138350878Y-81658133D01*
X138350878Y-81658133D02*
X138398497Y-81800990D01*
X138398497Y-81800990D02*
X138969925Y-82372419D01*
X138969925Y-82372419D02*
X138350878Y-82372419D01*
X137493735Y-81372419D02*
X137684211Y-81372419D01*
X137684211Y-81372419D02*
X137779449Y-81420038D01*
X137779449Y-81420038D02*
X137827068Y-81467657D01*
X137827068Y-81467657D02*
X137922306Y-81610514D01*
X137922306Y-81610514D02*
X137969925Y-81800990D01*
X137969925Y-81800990D02*
X137969925Y-82181942D01*
X137969925Y-82181942D02*
X137922306Y-82277180D01*
X137922306Y-82277180D02*
X137874687Y-82324800D01*
X137874687Y-82324800D02*
X137779449Y-82372419D01*
X137779449Y-82372419D02*
X137588973Y-82372419D01*
X137588973Y-82372419D02*
X137493735Y-82324800D01*
X137493735Y-82324800D02*
X137446116Y-82277180D01*
X137446116Y-82277180D02*
X137398497Y-82181942D01*
X137398497Y-82181942D02*
X137398497Y-81943847D01*
X137398497Y-81943847D02*
X137446116Y-81848609D01*
X137446116Y-81848609D02*
X137493735Y-81800990D01*
X137493735Y-81800990D02*
X137588973Y-81753371D01*
X137588973Y-81753371D02*
X137779449Y-81753371D01*
X137779449Y-81753371D02*
X137874687Y-81800990D01*
X137874687Y-81800990D02*
X137922306Y-81848609D01*
X137922306Y-81848609D02*
X137969925Y-81943847D01*
D11*
X144427945Y-80331504D02*
X143951755Y-80331504D01*
X144523183Y-80617219D02*
X144189850Y-79617219D01*
X144189850Y-79617219D02*
X143856517Y-80617219D01*
X143570802Y-80569600D02*
X143427945Y-80617219D01*
X143427945Y-80617219D02*
X143189850Y-80617219D01*
X143189850Y-80617219D02*
X143094612Y-80569600D01*
X143094612Y-80569600D02*
X143046993Y-80521980D01*
X143046993Y-80521980D02*
X142999374Y-80426742D01*
X142999374Y-80426742D02*
X142999374Y-80331504D01*
X142999374Y-80331504D02*
X143046993Y-80236266D01*
X143046993Y-80236266D02*
X143094612Y-80188647D01*
X143094612Y-80188647D02*
X143189850Y-80141028D01*
X143189850Y-80141028D02*
X143380326Y-80093409D01*
X143380326Y-80093409D02*
X143475564Y-80045790D01*
X143475564Y-80045790D02*
X143523183Y-79998171D01*
X143523183Y-79998171D02*
X143570802Y-79902933D01*
X143570802Y-79902933D02*
X143570802Y-79807695D01*
X143570802Y-79807695D02*
X143523183Y-79712457D01*
X143523183Y-79712457D02*
X143475564Y-79664838D01*
X143475564Y-79664838D02*
X143380326Y-79617219D01*
X143380326Y-79617219D02*
X143142231Y-79617219D01*
X143142231Y-79617219D02*
X142999374Y-79664838D01*
X142094612Y-79617219D02*
X142570802Y-79617219D01*
X142570802Y-79617219D02*
X142618421Y-80093409D01*
X142618421Y-80093409D02*
X142570802Y-80045790D01*
X142570802Y-80045790D02*
X142475564Y-79998171D01*
X142475564Y-79998171D02*
X142237469Y-79998171D01*
X142237469Y-79998171D02*
X142142231Y-80045790D01*
X142142231Y-80045790D02*
X142094612Y-80093409D01*
X142094612Y-80093409D02*
X142046993Y-80188647D01*
X142046993Y-80188647D02*
X142046993Y-80426742D01*
X142046993Y-80426742D02*
X142094612Y-80521980D01*
X142094612Y-80521980D02*
X142142231Y-80569600D01*
X142142231Y-80569600D02*
X142237469Y-80617219D01*
X142237469Y-80617219D02*
X142475564Y-80617219D01*
X142475564Y-80617219D02*
X142570802Y-80569600D01*
X142570802Y-80569600D02*
X142618421Y-80521980D01*
X141713659Y-79617219D02*
X141094612Y-79617219D01*
X141094612Y-79617219D02*
X141427945Y-79998171D01*
X141427945Y-79998171D02*
X141285088Y-79998171D01*
X141285088Y-79998171D02*
X141189850Y-80045790D01*
X141189850Y-80045790D02*
X141142231Y-80093409D01*
X141142231Y-80093409D02*
X141094612Y-80188647D01*
X141094612Y-80188647D02*
X141094612Y-80426742D01*
X141094612Y-80426742D02*
X141142231Y-80521980D01*
X141142231Y-80521980D02*
X141189850Y-80569600D01*
X141189850Y-80569600D02*
X141285088Y-80617219D01*
X141285088Y-80617219D02*
X141570802Y-80617219D01*
X141570802Y-80617219D02*
X141666040Y-80569600D01*
X141666040Y-80569600D02*
X141713659Y-80521980D01*
X140475564Y-79617219D02*
X140380326Y-79617219D01*
X140380326Y-79617219D02*
X140285088Y-79664838D01*
X140285088Y-79664838D02*
X140237469Y-79712457D01*
X140237469Y-79712457D02*
X140189850Y-79807695D01*
X140189850Y-79807695D02*
X140142231Y-79998171D01*
X140142231Y-79998171D02*
X140142231Y-80236266D01*
X140142231Y-80236266D02*
X140189850Y-80426742D01*
X140189850Y-80426742D02*
X140237469Y-80521980D01*
X140237469Y-80521980D02*
X140285088Y-80569600D01*
X140285088Y-80569600D02*
X140380326Y-80617219D01*
X140380326Y-80617219D02*
X140475564Y-80617219D01*
X140475564Y-80617219D02*
X140570802Y-80569600D01*
X140570802Y-80569600D02*
X140618421Y-80521980D01*
X140618421Y-80521980D02*
X140666040Y-80426742D01*
X140666040Y-80426742D02*
X140713659Y-80236266D01*
X140713659Y-80236266D02*
X140713659Y-79998171D01*
X140713659Y-79998171D02*
X140666040Y-79807695D01*
X140666040Y-79807695D02*
X140618421Y-79712457D01*
X140618421Y-79712457D02*
X140570802Y-79664838D01*
X140570802Y-79664838D02*
X140475564Y-79617219D01*
X139285088Y-79950552D02*
X139285088Y-80617219D01*
X139523183Y-79569600D02*
X139761278Y-80283885D01*
X139761278Y-80283885D02*
X139142231Y-80283885D01*
X138808897Y-80331504D02*
X138332707Y-80331504D01*
X138904135Y-80617219D02*
X138570802Y-79617219D01*
X138570802Y-79617219D02*
X138237469Y-80617219D01*
D12*
X133704819Y-76261905D02*
X132704819Y-76261905D01*
X132704819Y-76261905D02*
X132704819Y-76500000D01*
X132704819Y-76500000D02*
X132752438Y-76642857D01*
X132752438Y-76642857D02*
X132847676Y-76738095D01*
X132847676Y-76738095D02*
X132942914Y-76785714D01*
X132942914Y-76785714D02*
X133133390Y-76833333D01*
X133133390Y-76833333D02*
X133276247Y-76833333D01*
X133276247Y-76833333D02*
X133466723Y-76785714D01*
X133466723Y-76785714D02*
X133561961Y-76738095D01*
X133561961Y-76738095D02*
X133657200Y-76642857D01*
X133657200Y-76642857D02*
X133704819Y-76500000D01*
X133704819Y-76500000D02*
X133704819Y-76261905D01*
X133704819Y-77785714D02*
X133704819Y-77214286D01*
X133704819Y-77500000D02*
X132704819Y-77500000D01*
X132704819Y-77500000D02*
X132847676Y-77404762D01*
X132847676Y-77404762D02*
X132942914Y-77309524D01*
X132942914Y-77309524D02*
X132990533Y-77214286D01*
X137859580Y-74333333D02*
X137907200Y-74285714D01*
X137907200Y-74285714D02*
X137954819Y-74142857D01*
X137954819Y-74142857D02*
X137954819Y-74047619D01*
X137954819Y-74047619D02*
X137907200Y-73904762D01*
X137907200Y-73904762D02*
X137811961Y-73809524D01*
X137811961Y-73809524D02*
X137716723Y-73761905D01*
X137716723Y-73761905D02*
X137526247Y-73714286D01*
X137526247Y-73714286D02*
X137383390Y-73714286D01*
X137383390Y-73714286D02*
X137192914Y-73761905D01*
X137192914Y-73761905D02*
X137097676Y-73809524D01*
X137097676Y-73809524D02*
X137002438Y-73904762D01*
X137002438Y-73904762D02*
X136954819Y-74047619D01*
X136954819Y-74047619D02*
X136954819Y-74142857D01*
X136954819Y-74142857D02*
X137002438Y-74285714D01*
X137002438Y-74285714D02*
X137050057Y-74333333D01*
X137954819Y-75285714D02*
X137954819Y-74714286D01*
X137954819Y-75000000D02*
X136954819Y-75000000D01*
X136954819Y-75000000D02*
X137097676Y-74904762D01*
X137097676Y-74904762D02*
X137192914Y-74809524D01*
X137192914Y-74809524D02*
X137240533Y-74714286D01*
X133859580Y-79583333D02*
X133907200Y-79535714D01*
X133907200Y-79535714D02*
X133954819Y-79392857D01*
X133954819Y-79392857D02*
X133954819Y-79297619D01*
X133954819Y-79297619D02*
X133907200Y-79154762D01*
X133907200Y-79154762D02*
X133811961Y-79059524D01*
X133811961Y-79059524D02*
X133716723Y-79011905D01*
X133716723Y-79011905D02*
X133526247Y-78964286D01*
X133526247Y-78964286D02*
X133383390Y-78964286D01*
X133383390Y-78964286D02*
X133192914Y-79011905D01*
X133192914Y-79011905D02*
X133097676Y-79059524D01*
X133097676Y-79059524D02*
X133002438Y-79154762D01*
X133002438Y-79154762D02*
X132954819Y-79297619D01*
X132954819Y-79297619D02*
X132954819Y-79392857D01*
X132954819Y-79392857D02*
X133002438Y-79535714D01*
X133002438Y-79535714D02*
X133050057Y-79583333D01*
X133050057Y-79964286D02*
X133002438Y-80011905D01*
X133002438Y-80011905D02*
X132954819Y-80107143D01*
X132954819Y-80107143D02*
X132954819Y-80345238D01*
X132954819Y-80345238D02*
X133002438Y-80440476D01*
X133002438Y-80440476D02*
X133050057Y-80488095D01*
X133050057Y-80488095D02*
X133145295Y-80535714D01*
X133145295Y-80535714D02*
X133240533Y-80535714D01*
X133240533Y-80535714D02*
X133383390Y-80488095D01*
X133383390Y-80488095D02*
X133954819Y-79916667D01*
X133954819Y-79916667D02*
X133954819Y-80535714D01*
D13*
%TO.C,D1*%
X134115000Y-78460000D02*
X134115000Y-74400000D01*
X136385000Y-74400000D02*
X136385000Y-78460000D01*
X136385000Y-78460000D02*
X134115000Y-78460000D01*
%TO.C,C1*%
X138515000Y-74761252D02*
X138515000Y-74238748D01*
X139985000Y-74761252D02*
X139985000Y-74238748D01*
%TO.C,C2*%
X134429400Y-80347548D02*
X134429400Y-81770052D01*
X136249400Y-80347548D02*
X136249400Y-81770052D01*
%TD*%
M02*
