%TF.GenerationSoftware,KiCad,Pcbnew,9.0.5*%
%TF.CreationDate,2026-04-07T19:41:47+02:00*%
%TF.ProjectId,AS5304A,41533533-3034-4412-9e6b-696361645f70,rev?*%
%TF.SameCoordinates,Original*%
%TF.FileFunction,Copper,L1,Top*%
%TF.FilePolarity,Positive*%
%FSLAX46Y46*%
G04 Gerber Fmt 4.6, Leading zero omitted, Abs format (unit mm)*
G04 Created by KiCad (PCBNEW 9.0.5) date 2026-04-07 19:41:47*
%MOMM*%
%LPD*%
G01*
G04 APERTURE LIST*
G04 Aperture macros list*
%AMRoundRect*
0 Rectangle with rounded corners*
0 $1 Rounding radius*
0 $2 $3 $4 $5 $6 $7 $8 $9 X,Y pos of 4 corners*
0 Add a 4 corners polygon primitive as box body*
4,1,4,$2,$3,$4,$5,$6,$7,$8,$9,$2,$3,0*
0 Add four circle primitives for the rounded corners*
1,1,$1+$1,$2,$3*
1,1,$1+$1,$4,$5*
1,1,$1+$1,$6,$7*
1,1,$1+$1,$8,$9*
0 Add four rect primitives between the rounded corners*
20,1,$1+$1,$2,$3,$4,$5,0*
20,1,$1+$1,$4,$5,$6,$7,0*
20,1,$1+$1,$6,$7,$8,$9,0*
20,1,$1+$1,$8,$9,$2,$3,0*%
G04 Aperture macros list end*
%TA.AperFunction,ComponentPad*%
%ADD10C,5.600000*%
%TD*%
%TA.AperFunction,SMDPad,CuDef*%
%ADD11RoundRect,0.250000X0.625000X-0.400000X0.625000X0.400000X-0.625000X0.400000X-0.625000X-0.400000X0*%
%TD*%
%TA.AperFunction,ComponentPad*%
%ADD12R,1.700000X1.700000*%
%TD*%
%TA.AperFunction,ComponentPad*%
%ADD13C,1.700000*%
%TD*%
%TA.AperFunction,SMDPad,CuDef*%
%ADD14R,0.450000X1.475000*%
%TD*%
%TA.AperFunction,ViaPad*%
%ADD15C,0.600000*%
%TD*%
%TA.AperFunction,Conductor*%
%ADD16C,0.400000*%
%TD*%
%TA.AperFunction,Conductor*%
%ADD17C,0.200000*%
%TD*%
G04 APERTURE END LIST*
D10*
%TO.P,H1,1,1*%
%TO.N,GND*%
X130250000Y-74250000D03*
%TD*%
D11*
%TO.P,R1,1*%
%TO.N,+5V*%
X135250000Y-77550000D03*
%TO.P,R1,2*%
%TO.N,Net-(D1-A)*%
X135250000Y-74450000D03*
%TD*%
D12*
%TO.P,J1,1,Pin_1*%
%TO.N,+5V*%
X133050000Y-69000000D03*
D13*
%TO.P,J1,2,Pin_2*%
%TO.N,GND*%
X135590000Y-69000000D03*
%TO.P,J1,3,Pin_3*%
%TO.N,Net-(IC1-AO)*%
X138130000Y-69000000D03*
%TO.P,J1,4,Pin_4*%
%TO.N,Net-(IC1-INDEX)*%
X140670000Y-69000000D03*
%TO.P,J1,5,Pin_5*%
%TO.N,Net-(IC1-B)*%
X143210000Y-69000000D03*
%TO.P,J1,6,Pin_6*%
%TO.N,Net-(IC1-A)*%
X145750000Y-69000000D03*
%TD*%
D10*
%TO.P,H4,1,1*%
%TO.N,GND*%
X148250000Y-81750000D03*
%TD*%
%TO.P,H3,1,1*%
%TO.N,GND*%
X130250000Y-81750000D03*
%TD*%
%TO.P,H2,1,1*%
%TO.N,GND*%
X148250000Y-74250000D03*
%TD*%
D14*
%TO.P,IC1,1,VSS*%
%TO.N,GND*%
X143175000Y-77812000D03*
%TO.P,IC1,2,A*%
%TO.N,Net-(IC1-A)*%
X142525000Y-77812000D03*
%TO.P,IC1,3,VDDP*%
%TO.N,+5V*%
X141875000Y-77812000D03*
%TO.P,IC1,4,B*%
%TO.N,Net-(IC1-B)*%
X141225000Y-77812000D03*
%TO.P,IC1,5,TEST_1*%
%TO.N,unconnected-(IC1-TEST_1-Pad5)*%
X140575000Y-77812000D03*
%TO.P,IC1,6,AO*%
%TO.N,Net-(IC1-AO)*%
X139925000Y-77812000D03*
%TO.P,IC1,7,VDD*%
%TO.N,+5V*%
X139275000Y-77812000D03*
%TO.P,IC1,8,INDEX*%
%TO.N,Net-(IC1-INDEX)*%
X138625000Y-77812000D03*
%TO.P,IC1,9,NC_1*%
%TO.N,unconnected-(IC1-NC_1-Pad9)*%
X137975000Y-77812000D03*
%TO.P,IC1,10,NC_2*%
%TO.N,unconnected-(IC1-NC_2-Pad10)*%
X137325000Y-77812000D03*
%TO.P,IC1,11,NC_3*%
%TO.N,unconnected-(IC1-NC_3-Pad11)*%
X137325000Y-83688000D03*
%TO.P,IC1,12,TEST_2*%
%TO.N,unconnected-(IC1-TEST_2-Pad12)*%
X137975000Y-83688000D03*
%TO.P,IC1,13,TEST_3*%
%TO.N,unconnected-(IC1-TEST_3-Pad13)*%
X138625000Y-83688000D03*
%TO.P,IC1,14,TEST_4*%
%TO.N,unconnected-(IC1-TEST_4-Pad14)*%
X139275000Y-83688000D03*
%TO.P,IC1,15,TEST_GND*%
%TO.N,GND*%
X139925000Y-83688000D03*
%TO.P,IC1,16,VDDA*%
%TO.N,+5V*%
X140575000Y-83688000D03*
%TO.P,IC1,17,TEST_5*%
%TO.N,unconnected-(IC1-TEST_5-Pad17)*%
X141225000Y-83688000D03*
%TO.P,IC1,18,TEST_6*%
%TO.N,unconnected-(IC1-TEST_6-Pad18)*%
X141875000Y-83688000D03*
%TO.P,IC1,19,TEST_7*%
%TO.N,unconnected-(IC1-TEST_7-Pad19)*%
X142525000Y-83688000D03*
%TO.P,IC1,20,ZPZ*%
%TO.N,GND*%
X143175000Y-83688000D03*
%TD*%
D15*
%TO.N,GND*%
X144000000Y-83750000D03*
X139750000Y-84950000D03*
X143250000Y-76500000D03*
%TO.N,+5V*%
X139292468Y-76486580D03*
X136285203Y-78577929D03*
%TO.N,Net-(IC1-INDEX)*%
X140559975Y-70440025D03*
X138945025Y-71304975D03*
%TO.N,Net-(D1-A)*%
X135250000Y-73250000D03*
%TD*%
D16*
%TO.N,GND*%
X143250000Y-76500000D02*
X143175000Y-76575000D01*
X139947500Y-84825000D02*
X139925000Y-84802500D01*
X143175000Y-76575000D02*
X143175000Y-77812000D01*
X143175000Y-83688000D02*
X143175000Y-84825000D01*
X143938000Y-83688000D02*
X144000000Y-83750000D01*
X139925000Y-84802500D02*
X139925000Y-83688000D01*
X143175000Y-77812000D02*
X143175000Y-83688000D01*
D17*
X139925000Y-83688000D02*
X139925000Y-84775000D01*
D16*
X143175000Y-83688000D02*
X143938000Y-83688000D01*
D17*
X139925000Y-84775000D02*
X139750000Y-84950000D01*
D16*
X143175000Y-84825000D02*
X139947500Y-84825000D01*
%TO.N,+5V*%
X137203574Y-79496300D02*
X138728200Y-79496300D01*
X140575000Y-79571300D02*
X140500000Y-79496300D01*
X141875000Y-78949500D02*
X141875000Y-77812000D01*
X138728200Y-79496300D02*
X140500000Y-79496300D01*
X138728200Y-79496300D02*
X139275000Y-78949500D01*
X139292468Y-77794532D02*
X139275000Y-77812000D01*
X140500000Y-79496300D02*
X141328200Y-79496300D01*
X133750000Y-69700000D02*
X133750000Y-76050000D01*
X133050000Y-69000000D02*
X133750000Y-69700000D01*
X136277929Y-78577929D02*
X135250000Y-77550000D01*
X140575000Y-83688000D02*
X140575000Y-79571300D01*
X139275000Y-78949500D02*
X139275000Y-77812000D01*
X141328200Y-79496300D02*
X141875000Y-78949500D01*
X136285203Y-78577929D02*
X137203574Y-79496300D01*
X139292468Y-76486580D02*
X139292468Y-77794532D01*
X136285203Y-78577929D02*
X136277929Y-78577929D01*
X133750000Y-76050000D02*
X135250000Y-77550000D01*
%TO.N,Net-(IC1-AO)*%
X138130000Y-69000000D02*
X140624000Y-71494000D01*
X140624000Y-76153580D02*
X139925000Y-76852580D01*
X139925000Y-76852580D02*
X139925000Y-77812000D01*
X140624000Y-71494000D02*
X140624000Y-76153580D01*
%TO.N,Net-(IC1-INDEX)*%
X140670000Y-70330000D02*
X140559975Y-70440025D01*
X138945025Y-71304975D02*
X138000000Y-72250000D01*
X138000000Y-76072500D02*
X138625000Y-76697500D01*
X138000000Y-72250000D02*
X138000000Y-76072500D01*
X138625000Y-76697500D02*
X138625000Y-77812000D01*
X140670000Y-69000000D02*
X140670000Y-70330000D01*
%TO.N,Net-(IC1-B)*%
X143210000Y-69000000D02*
X141225000Y-70985000D01*
X141225000Y-70985000D02*
X141225000Y-77812000D01*
%TO.N,Net-(IC1-A)*%
X142525000Y-72225000D02*
X142525000Y-77812000D01*
X145750000Y-69000000D02*
X142525000Y-72225000D01*
%TO.N,Net-(D1-A)*%
X135250000Y-73250000D02*
X135250000Y-74450000D01*
%TD*%
M02*
